<svg xmlns="http://www.w3.org/2000/svg" viewBox="0 0 2556.95 987.13"><defs><style>.cls-1{fill:#fff;}</style></defs><g id="Layer_2" data-name="Layer 2"><g id="Layer_1-2" data-name="Layer 1"><path class="cls-1" d="M0,973.83c11.74-7.21,23.57-14.28,35.2-21.65,66-41.78,124.1-92.91,176.84-150.33C268.87,740,317.23,671.68,364,602.18c40.52-60.16,80.54-120.67,123.58-179.1C554.45,332.38,630.49,250.49,719.48,181c22.31-17.42,45.46-33.67,68.86-49.57.82-.56,1.58-1.2,2.54-1.93a232.5,232.5,0,0,0-63.17-52.34c-44.87-25.75-93.15-41.91-144.14-50.28A436.68,436.68,0,0,0,468,23.26C402.45,30,343.12,53.59,289.11,91a450.22,450.22,0,0,0-125.2,130.14,42.76,42.76,0,0,1-2.87,4.08c-4.3,5.29-13.61,4-16.59-2.27a4.43,4.43,0,0,1,.6-4.68c46.11-71,102.16-131.63,178.32-171.38,43.38-22.64,89.57-36,138-42,16-2,32.08-3.7,48.25-4.21A18.68,18.68,0,0,0,513,0h35c7.35,1.6,14.88,1.18,22.31,1.8A425.46,425.46,0,0,1,755.62,61.32a479.29,479.29,0,0,1,59,41.89c7.78,6.41,10.15,6.54,18.68,1.48q14.37-8.52,28.75-17c4.85-2.87,7.16-2.36,10.53,2.25,6.19,8.47,6.17,8.44-3,13.89-10.16,6-20.21,12.21-30.47,18.05-3.06,1.74-3,2.87-.91,5.4,13.9,17.2,25.41,35.77,31.83,57.15,15.18,50.56-.15,99.85-41.37,132.85-5.32,4.26-10.91,8.18-16.57,12.4,1.55,2.1,4,3.2,6.16,4.63,22.57,15,42.34,32.87,56.13,56.59,23.56,40.5,24.09,82.51,7.23,125.26-10,25.45-24.93,48.06-42.79,68.73-1.15,1.33-2.76,2.37-3.3,4.74,14.26,0,28.34.06,42.42,0,3.73,0,5.2-2.77,6.59-5.86,17.08-37.92,42.24-69.14,77.12-92.14a235.46,235.46,0,0,1,86.79-35c20.77-3.92,38.94,4.18,50,22.25,2.54,4.17,4.18,3,6.68.75,4-3.56,7-8,10.37-12.14,4.67-5.85,10.43-8.87,18.11-8.71,12.93.26,25.88.07,39.87.07-10.11,11.85-19.63,22.87-29,34-21,25-43.44,48.77-62.82,75.1-6.91,9.38-13.43,19-18.41,29.61a42.18,42.18,0,0,0-4.43,18.77c.11,6.56,3.28,9.56,9.78,8.83,6.66-.74,12.85-3.32,19-5.85,14.67-6.06,28-14.57,41.36-23a10,10,0,0,0,4.92-6.64c4.62-25.18,18.42-44.94,36.62-62.08,28.93-27.24,61.05-49.33,99.48-61,11.28-3.44,22.62-6.9,34.61-6.79,14.19.13,24.47,10,23.28,24.11-1.4,16.43-5.62,32.17-18.16,44.22a41.48,41.48,0,0,1-5.44,4.37c-4.86,3.29-9.85,5.83-15.59,1.78-6.21-4.37-8.82-10.26-7.33-17.74a25.7,25.7,0,0,1,7.63-13.76c5.66-5.41,11.51-10.61,17.15-16,1.83-1.77,4.39-3.58,3-6.76s-4.37-3-7.24-3.12a29,29,0,0,0-17.44,5,352.14,352.14,0,0,0-108,109.25,43.26,43.26,0,0,0-5.81,14.76c-2.08,10.37,4.35,18.64,14.9,19.07,13.49.55,25.86-3.92,38.12-8.71,29.91-11.66,58-27.27,87.17-40.51a82.55,82.55,0,0,0,34.1-27.58c35.14-48.17,84-75.48,141.26-88.89,5-1.17,10.11-1.8,15.34-.66,11.09,2.42,19.41,11.33,18.76,22.58-1,18.23-6.56,34.93-20.79,47.58a32.65,32.65,0,0,1-5.23,3.83c-8.89,5.21-18.79.46-20.11-9.75-1-8,.76-15.22,6.74-21.05a156.58,156.58,0,0,1,14.72-12.73c2.94-2.23,6.87-4.26,4.65-9.17-1.82-4-5.62-5.56-11.1-3.83a83.62,83.62,0,0,0-23.91,12.18c-37.58,27.24-69.71,59.79-95,98.85-4,6.24-8.24,12.55-8.22,20.53,0,11.42,7.36,18.58,18.72,17.54a131,131,0,0,0,37.56-9.6c24.46-10,48.37-21.27,71.76-33.52a166.15,166.15,0,0,0,56.18-47.95c29.81-39.69,70.61-62.32,117.31-75.63a79.09,79.09,0,0,1,31.72-1.91c14.75,1.88,25.6,9.55,33.41,21.92,1.14,1.8,2.23,3.62,3.28,5.33.44-.08.66-.07.69-.14,10-22,28.46-27.8,50.65-26.21,6.31.45,12.67.28,19.69,1.71-2.25,2.74-4.31,5.2-6.31,7.7-22.26,27.64-46.4,53.69-69,81-13,15.78-25.88,31.74-34.09,50.79a58.53,58.53,0,0,0-4.26,13.25c-1.65,9.56,4.73,15.32,14,12.37,16.75-5.35,30.88-15.27,44.63-25.88,44.75-34.52,82.51-76,118.7-119,5.26-6.25,5.24-6.26-.14-12.19-13.63-15-15.85-30.07-6-47.55,13.39-23.87,34-38.95,60.22-45.88,16.94-4.48,28.68,8.1,23.93,25-3,10.86-8.86,20.4-15.32,29.51-6.34,8.95-12.42,18.11-19.38,26.62-3.7,4.51-2.85,6.68,2.72,8,13.53,3.17,27.43,3.15,41.13,4.92,15.91,2.06,22.23,12.78,15.68,27.38-3.8,8.47-9.53,15.57-16,22.11a644.92,644.92,0,0,0-61,71.35c-5,6.83-10.07,13.67-15,20.56a49.35,49.35,0,0,0-3.61,6c-2.42,4.6-2,9,1.44,12.94s7.91,4.73,12.72,3.15c7.34-2.42,13.54-7.06,20.22-10.74,23.37-12.86,45.15-28.17,66.47-44.14,4-3,6.3-7.26,8.78-11.39,31.62-52.76,78.09-86.2,136.14-104.5a85.24,85.24,0,0,1,33.1-3.45c14.65,1.25,26,8.46,34.41,20.47,1.58,2.27,3,4.66,4.61,7.2a14.09,14.09,0,0,0,1.27-1.74c8.32-16.66,22.23-24,40.38-24.34a200.71,200.71,0,0,1,28.77,1.47c-2.4,2.76-4.53,5.16-6.59,7.62-26.86,32-55.23,62.8-81.13,95.64a177.59,177.59,0,0,0-21,32.7c-2.9,6-5.16,12.27-5.38,19-.27,8.28,3.74,11.71,11.8,10.17A82.76,82.76,0,0,0,2182.5,617c42.31-22.25,80.26-50,109.15-88.7,33.67-45.08,67.93-89.72,102.32-134.26.3-.39.54-.82.84-1.28-1.08-1.66-2.74-.88-4-.84-16.65.48-33.32-.75-50,.66-6.14.52-8.56-2.63-7.32-8.66a17.34,17.34,0,0,1,17.15-14c16.83-.19,33.67-.38,50.49,0,8.26.18,14.39-2.66,19.4-9.07,19.18-24.53,38.76-48.75,57.62-73.53,7.3-9.6,15.42-14.24,27.74-12.06,7,1.23,14.29.4,21.45.44,2.69,0,5.48-.27,7,2.68,1.64,3.26-.09,5.71-2,8.12q-27.84,34.68-55.62,69.38c-2.4,3-4.55,6.17-7,9.12-1.66,2-1.31,3.15,1.12,3.75a25.57,25.57,0,0,0,7.4.88c24-1.21,48-.17,72-.59,3-.05,5.85.29,6.64,3.84.74,3.38-1.42,4.75-4.24,5.66a5,5,0,0,0-2.3,1.77c-5,6.64-11.88,8.67-19.75,8.6-23.66-.19-47.33-.25-71-.62-8.47-.13-14.8,2.72-20.17,9.55q-72.72,92.47-145.79,184.68c-6.92,8.76-12.36,18.15-11.75,30,.42,8.11,3.65,11.25,11.86,11.43,7.39.16,14.07-2.11,20.44-5.58,33.33-18.13,65.66-37.91,97.19-59,4.84-3.24,9.63-6.57,14.59-9.59,4.66-2.84,8.62-1.52,11.73,3.51,2.6,4.21,2,7.78-2.55,10.62-37.94,23.66-74.25,50-113.92,70.87-13.56,7.14-27.92,10.89-43.32,8.31-15.05-2.51-24.59-13.25-26-28.63a87.9,87.9,0,0,1,.11-13.48c.15-2.49.45-5.18-2.35-6.57-3.11-1.56-5.35.34-7.6,2.15-20.42,16.5-42.56,30.17-66.91,40.1-8.31,3.39-16.86,6.12-26,6.46-20.67.77-33-11.35-33.83-33.73-.22-6,.47-12,.76-18-2.11-.59-3.19,1-4.45,1.78-20.56,13.22-41.08,26.52-63,37.44-13.92,6.94-28.45,10.9-44.28,9.5-21-1.85-34.26-14.07-37.33-35-.2-1.37.57-3.27-1.43-3.85-1.77-.51-3.12.62-4.47,1.66-19.86,15.19-40.79,28.68-63.6,39.06-11.67,5.3-23.81,5.95-36.11,2.63-16-4.29-22.69-16.22-19.1-32.94,4.69-21.91,15.51-40.87,27.92-59.1,13.14-19.3,27.88-37.36,42.92-55.17,6.74-8,6.22-9.89-3.38-13.58-15.88-6.1-25.69-3.78-36.79,9.41-20.29,24.11-40.86,47.94-63.49,69.9-27,26.17-55.65,50.19-88.35,69-10.41,6-21.35,10.89-33.8,10.85-18.07-.07-31.53-13.08-32.43-31.15-.35-7,.87-13.86,2.4-20.82-2.64-.06-4,1.61-5.54,2.65-20.26,13.38-40.42,27-62.66,37-11.38,5.11-23,9.72-35.7,10.42-25.28,1.39-41.86-12.91-44.42-38.24a64.37,64.37,0,0,1-.6-9c.15-3.87-.82-4.52-4.42-2.8-18.72,9-37.48,17.89-56.36,26.54-18.56,8.5-36.93,17.63-57.13,21.81-9.94,2.06-20,3.41-30.23,1.81-19.51-3-30.86-13.6-35.18-32.94a71,71,0,0,1-2.12-16.79c.09-4.2-.89-5.25-5.09-3.13-28,14.13-56.31,27.76-85.23,40-16,6.75-32.32,12.37-49.73,13.89-19,1.67-34.2-5.08-44.88-21.19-.74-1.1-1.35-2.29-2.08-3.4-3.37-5.1-5.32-5.66-10.71-2.54-14.53,8.41-29.31,16.34-45,22.43-6.5,2.52-13,5-20.11,5.5-19.87,1.35-32.88-9.87-34-29.83-.43-7.27-.07-14.58-.07-22.75-4.21,2.85-7.9,5.26-11.51,7.8-20.84,14.69-42.49,27.91-66.28,37.4-17.75,7.07-35.25,7.76-52.52-1.34-8.31-4.38-14.31-10.39-16-20.29-1.42-8.24-6.44-11.27-14.83-10.49a50.3,50.3,0,0,1-10.46.39c-23.46-2.72-44,4.8-62.86,17.88-20.79,14.41-42.92,25.88-67.45,32.55A242.19,242.19,0,0,1,646.34,662a38.58,38.58,0,0,1-17-5.43c-8.57-4.91-10.26-16.59-3.71-24.19a38.87,38.87,0,0,1,9.31-7.47c20.44-12.66,43.08-19,66.48-23,28.25-4.88,56.81-7.13,85.31-9.83,6.35-.61,10.87-3.46,14.88-8,18.48-20.94,30.09-45.36,36.1-72.43,5.51-24.82,8.17-50,5.16-75.37-4.19-35.49-17.87-65.86-47.39-87.78-6.5-4.83-13-6-20.55-3.35-15.69,5.53-31.52,10.55-48.21,12.27a86.49,86.49,0,0,1-42.09-5.76c-8.34-3.4-13.7-9.34-13.7-18.92,0-9.89,5.26-16.37,14-19.83,14.7-5.79,30.18-6.41,45.72-5.5a147.86,147.86,0,0,1,41.42,8.41c11.49,4.11,20.82,1.5,29.22-7.57,30.29-32.72,36.49-70.47,24.32-112.25a299.61,299.61,0,0,0-12.23-33.17,49.17,49.17,0,0,0-4.82-8.69c-2.71-3.92-6.46-5-10.94-3-5.4,2.35-10,5.89-14.64,9.44-56.1,43.15-105.94,92.8-152,146.34-46.88,54.45-88.55,112.91-131.08,170.7-51.7,70.25-102.08,141.49-155.84,210.21C293,753.14,237.64,814.63,175.39,869.66,126.61,912.78,74.33,951.07,18,983.72c-8.58,5-8.66,5-14.86-3-1-1.3-2.07-2.57-3.1-3.85ZM1066.29,479.08c-9.24,0-18.34,2.49-29,8a293.3,293.3,0,0,0-58,39.47,286.44,286.44,0,0,0-50,56.73c-5.49,8.24-9.38,17.3-10,27.31-.72,11.15,5.63,16.56,16.42,14.41a89.38,89.38,0,0,0,22.43-8,344,344,0,0,0,110.8-87.47,80.53,80.53,0,0,0,14.86-26.32C1089.23,486.73,1083.7,479.12,1066.29,479.08Zm1088.79.68a31.56,31.56,0,0,0-14.78,2.69q-76.56,31.29-120.53,101.32c-4.42,7-9.29,13.83-11.41,22-2.24,8.66,1.62,17.12,9,19.88,5.31,2,10.19.16,14.91-2,42.75-19.27,81-44.92,113.23-79.27,10.72-11.44,21-23.19,26.93-38C2179.53,488.7,2174.19,480.32,2155.08,479.76ZM1550,614.51c0,9,5.43,13.2,17.18,10.46a97.79,97.79,0,0,0,22.33-8.32,385.23,385.23,0,0,0,78.14-53.16c14.45-12.59,28.64-25.46,38.73-42,4.68-7.68,8.84-15.7,9.62-24.86.85-10.09-4-15.79-14.14-16.59a48.66,48.66,0,0,0-24.37,3.93c-52.35,23.91-93.62,60.21-122.76,110C1551.51,599.39,1549.86,605.22,1550,614.51Zm-779.56-1.4c-2.9,0-4.81-.13-6.71,0A432.75,432.75,0,0,0,690,625.46c-11.44,2.93-22.75,6.15-33.4,11.33-2.48,1.21-4.83,2.84-4,6.08.81,3,3.67,2.23,5.87,2.56a10.56,10.56,0,0,0,1.49,0c26.72.06,52.61-4.37,77.37-14.61A172,172,0,0,0,770.4,613.11ZM1874.6,444.3c-.27,2.56.86,5.23,3,7.52,4.16,4.44,7,4.26,10.73-.47s7.65-9.21,11.41-13.87c5-6.24,9.38-12.89,11.68-20.67,2.25-7.6-.51-10.59-8.09-8.83C1890,411.07,1874.87,429.88,1874.6,444.3ZM764.22,333.19a140.69,140.69,0,0,0-34.1-7,104.88,104.88,0,0,0-28.78,1.92c-2.77.54-5.62,1.63-5.41,5.41.16,2.83,2,4.13,4.54,4.39C721.58,340,742.6,340.67,764.22,333.19Z"/><path class="cls-1" d="M1375.89,842c-31.63.06-55.83-24.11-56-55.92-.14-32,24.28-57.15,55.5-57.21,32.5,0,56.52,23.82,56.57,56.24S1408,841.93,1375.89,842Zm43-56.09c0-1.66.07-3.33,0-5-1.56-31.22-35.51-50.52-63.09-35.86-18.19,9.67-27,32.13-21,53.77,5.06,18.3,21.33,31.5,39.45,32C1400,831.55,1419,812.53,1418.9,785.91Z"/><path class="cls-1" d="M1544.22,784.62c0-16.5.13-33-.1-49.49,0-4,.87-5.38,5.15-5.34q34.74.32,69.49,0c4.15,0,5.43,1,5.22,5.2-.34,6.86-.07,6.88-6.92,6.88-18.67,0-37.34.06-56-.06-3.11,0-4.38.62-4.29,4.06q.33,14.49,0,29c-.08,3.36,1,4.16,4.24,4.13,17-.14,34,.15,51-.19,5-.11,4.63,2.42,4.71,5.77.09,3.57,0,5.81-4.85,5.72-16.66-.31-33.33,0-50-.2-3.74,0-5.27.69-5.13,4.86.33,9.66.33,19.34,0,29-.14,4.15,1.35,4.9,5.11,4.86,19.33-.17,38.66.1,58-.2,4.94-.08,4.71,2.32,4.78,5.77.07,3.62-.12,5.67-4.88,5.62-23.66-.27-47.32-.22-71,0-3.93,0-4.65-1.28-4.61-4.84C1544.31,818.28,1544.22,801.45,1544.22,784.62Z"/><path class="cls-1" d="M1209.92,785.86c0-16.82.1-33.64-.07-50.46,0-3.56.66-5.4,4.59-4.78a15.23,15.23,0,0,0,4,0c3.17-.39,3.92,1.11,3.89,4-.11,13.16.06,26.32-.12,39.47,0,3.54.64,4.93,4.6,4.88,18.15-.22,36.31-.18,54.46,0,3.48,0,4.54-1,4.49-4.47-.2-13,.07-26-.17-39-.08-4,1.08-5.52,5-4.93a12.37,12.37,0,0,0,3.49,0c3.15-.43,3.93.93,3.89,3.94-.14,13.16-.06,26.32-.06,39.47,0,20.66-.1,41.31.1,62,0,3.85-1.13,4.8-4.79,4.66-8.76-.35-7.49.86-7.53-7.39-.07-12.82-.1-25.65,0-38.47,0-3-.74-4-3.89-4q-27.73.21-55.46,0c-3.41,0-4.2,1.09-4.17,4.26.15,13.49-.06,27,.14,40.47.06,3.77-.77,5.32-4.9,5.18-7.52-.26-7.53,0-7.53-7.35Z"/><path class="cls-1" d="M1476,791.62c0-15-.08-30,.06-45,0-3.22-.9-4.32-4.21-4.24-9,.2-18-.2-27,.17-5.16.21-5.34-2.38-5.43-6.34s.87-5.4,5.19-5.37c25.47.21,50.94.14,76.41.06,3,0,5.44,0,4.75,4-.52,3.07,2.09,7.72-4.47,7.54-9.14-.26-18.31.15-27.46-.13-4.07-.13-5.37,1-5.34,5.2.18,29,.12,57.93,0,86.89,0,2,1.28,5-1.37,5.73a19.41,19.41,0,0,1-10.34-.08c-1.57-.45-.84-2.67-.84-4.09C1476,821.25,1476,806.43,1476,791.62Z"/><path class="cls-1" d="M1646.52,785.37c0-16.66.23-33.32-.13-50-.12-5.44,2.88-4.64,6.23-4.81,3.67-.19,5.65.19,5.61,4.88-.23,29.15,0,58.3-.24,87.45,0,5,1.46,6,6.14,5.91,17.15-.29,34.32.1,51.47-.24,5.15-.1,4.52,2.7,4.57,5.89s.4,5.57-4.42,5.5c-21.65-.29-43.31-.21-65,0-3.67,0-4.37-1.28-4.34-4.6C1646.6,818.69,1646.52,802,1646.52,785.37Z"/></g></g></svg>