<svg xmlns="http://www.w3.org/2000/svg" viewBox="0 0 474.1 140.28"><defs><style>.cls-1{fill:#fff;}</style></defs><g id="Layer_2" data-name="Layer 2"><g id="Calque_1" data-name="Calque 1"><path class="cls-1" d="M166.93,131.66,162,109h-4.48l7.5,30.92h3.84l7.5-30.92h-4.48Zm35.45-23c-5.07,0-7.84,3.5-7.84,9.23v13.19c0,5.73,2.77,9.23,7.84,9.23s7.86-3.5,7.86-9.23V117.86C210.24,112.13,207.49,108.63,202.38,108.63Zm3.46,22.42c0,3.21-1.29,5.1-3.46,5.1s-3.43-1.89-3.43-5.1V117.86c0-3.18,1.28-5.12,3.43-5.12s3.46,1.94,3.46,5.12ZM237.37,109h-7.29V139.9h7.29c5.78,0,8.53-3.46,8.53-9.48v-12C245.9,112.46,243.15,109,237.37,109Zm4.12,21.65c0,3.41-1.27,5.35-4.28,5.35h-2.72V112.92h2.72c3,0,4.28,1.92,4.28,5.35ZM281.56,109h-4.63l-6.79,14.12V109h-4.41v30.92h4.41v-9.84l1.76-3.6,5.49,13.44h4.66l-7-17.12Zm28.14,0h-4l-6.93,30.92h4.39l1.32-6.29h6.35l1.32,6.3h4.39Zm-4.48,20.7,2.48-12.77,2.51,12.76Z"/><path class="cls-1" d="M81.51,25.14c0-4.13-.16-5.42,1.31-6.33.72-.44,2.4-.48,7.71-.48,5.94,0,7.46,0,8.18,0,1.63.1,2.13.54,2.12,3.5h2.73l.07-7.92H66.23v2.51c4.19.11,4.43.56,4.43,6.92V78.44c0,6.35-.24,6.82-4.43,6.92v2.52l37.4,0-.07-7.9h-2.73c0,3-.49,3.4-2.12,3.49-.72,0-2.24,0-8.18,0-5.31,0-7,0-7.71-.48-1.47-.9-1.31-2.21-1.31-6.32l0-25.77H89c5.65,0,5.79,1.77,6.16,6.45h2.25V39.88H95.13c.13,5.82-.51,7.77-6.16,7.77H81.54Z"/><path class="cls-1" d="M223.35,78.44c0,6.35-.25,6.82-4.42,6.92v2.52l37.38,0-.05-7.9h-2.74c0,3-.49,3.4-2.11,3.49-.74,0-2.24,0-8.18,0-5.32,0-7,0-7.74-.48-1.47-.9-1.31-2.21-1.29-6.32l0-25.77h7.44c5.65,0,5.79,1.77,6.15,6.45h2.24V39.88h-2.24c.14,5.82-.5,7.77-6.15,7.77h-7.44l0-22.5c0-4.13-.18-5.42,1.29-6.33.74-.44,2.42-.48,7.74-.48,5.94,0,7.44,0,8.18,0,1.62.1,2.11.54,2.11,3.5h2.74l.05-7.92H218.93v2.51c4.17.11,4.42.56,4.42,6.92Z"/><path class="cls-1" d="M342.88,25.14c0-4.13-.18-5.42,1.29-6.33.73-.44,2.41-.48,7.73-.48,5.94,0,7.45,0,8.19,0,1.61.1,2.12.54,2.11,3.5h2.73l.07-7.92H327.6v2.51c4.18.11,4.42.56,4.42,6.92V78.44c0,6.35-.24,6.82-4.42,6.92v2.52l37.4,0-.07-7.9H362.2c0,3-.5,3.4-2.11,3.49-.74,0-2.25,0-8.19,0-5.32,0-7,0-7.73-.48-1.47-.9-1.3-2.21-1.29-6.32V50.9h7.44c5.67,0,5.8,1.77,6.17,6.45h2.25V39.88H356.5c.12,5.82-.5,7.77-6.17,7.77h-7.44Z"/><path class="cls-1" d="M471.31,80c0,3-.5,3.4-2.11,3.49-.75,0-2.24,0-8.19,0-5.32,0-7,0-7.73-.48-1.46-.9-1.3-2.21-1.29-6.32V50.9h7.46c5.66,0,5.79,1.77,6.15,6.45h2.25V39.88H465.6c.13,5.82-.49,7.77-6.15,7.77H452V25.14c0-4.13-.17-5.42,1.29-6.33.73-.44,2.41-.48,7.73-.48,5.95,0,7.44,0,8.19,0,1.61.1,2.11.54,2.11,3.5h2.74l.05-7.92H436.71v2.51c4.18.11,4.42.56,4.42,6.92V78.44c0,6.35-.24,6.82-4.42,6.92v2.52l37.39,0-.05-7.9Z"/><path class="cls-1" d="M154.61,72.83a32.51,32.51,0,0,1-.37,6.53c-.51,2.24-2,3.74-3.55,4a25.77,25.77,0,0,1-3.41.14h-3.83c-5.15,0-7.22.26-8.72-1.12s-1.46-6-1.46-11.35V23.34c0-6.36.24-7.17,4.43-7.27V13.9H118v2.17c3.64.08,4.3.8,4.4,5.11l0,57.15c0,6.35-.24,6.82-4.42,6.91v2.62h38.83l0-.24.06-14.79Z"/><path class="cls-1" d="M170.22,20.78a4.26,4.26,0,0,1,.26-3.05c.46-.84,1.89-1.18,3.81-1.33V13.89H154.44V16.4c3.7,0,3.94.76,5.48,5.81l19.55,65.51h4.36l3-9.22,0,0L206,19.45l0,0c1-3.1,4.34-2.8,6-3.09V13.89H197.2V16.4c2.74,0,7.15.29,5.73,4.68L185.78,74Z"/><path class="cls-1" d="M271.06,77.58c0,6-.31,7.55-4.57,7.55v2.61l18.08.36s34.81,2.18,34.81-37.76S284.57,13.5,284.57,13.5l-17.92.39v2.5c4,0,4.39,1.42,4.43,6.54Zm17.19,6.77c-5.46,0-6.23-.54-6.23-4l0-5.69V20.66c0-3.51.57-4.08,6.25-4.05,0,0,19.36,1.77,19.36,34.06S290.13,84.35,288.25,84.35Z"/><path class="cls-1" d="M420.42,91c3.84,5.9,9.64,11.27,17.95,11.27l2.9,0V99.71c-5.79-1.55-6.19-2.58-14.21-15.38l-18.23-29.6c6.41-2.19,13.41-7.53,13.41-20.5,0-17.06-12-20.59-23.65-20.59s-22.49.37-22.49.37v2.5c4.66.11,5.37.39,5.37,7.34h0l.11,54.75h0c0,6.35-.24,6.9-4.37,6.9v2.63h15l.08.06v-.06h4.4V85.5c-4.12,0-4.36-.55-4.36-6.89h0V20.34c0-3.49,1.85-3.81,4.74-3.81,8.74,0,13.9,5.23,13.9,18.58s-4.67,17.83-14.58,17.83Z"/><path class="cls-1" d="M36.09,42.44s17.09-4.75,17.09-21.82S41.16,0,29.5,0,0,.37,0,.37V2.88l4.76,0c4.46,0,6.45,1.16,6.45,7.37h0L11.2,78c0,7-.8,7.24-5.47,7.36v2.53H31.49L34,87.85c6.23-.32,13.75-2,18.21-8.93a30.48,30.48,0,0,0,4.45-15.53C56.63,44.68,36.09,42.44,36.09,42.44Zm-14-35.72c0-3.49,3-3.83,5.89-3.83,8.76,0,13.91,5.24,13.91,18.61s-5,20-14.87,20a33.82,33.82,0,0,1-4.93-.39Zm6.17,77.6c-3.07,0-6.15-.34-6.15-3.83V45.19a35.12,35.12,0,0,1,5.13-.4c10.45,0,18.14,6.66,18.14,20S37.45,84.32,28.23,84.32Z"/></g></g></svg>