<svg xmlns="http://www.w3.org/2000/svg" viewBox="0 0 766.28 56.22"><defs><style>.cls-1{fill:#fff;}</style></defs><g id="Layer_2" data-name="Layer 2"><g id="Layer_1-2" data-name="Layer 1"><path class="cls-1" d="M0,1.63H38.27c16.54,0,25.22,8.68,25.22,26.48,0,20.77-12.31,26.48-27.52,26.48H0ZM17.65,42.72H32.41c10.09,0,12.84-7.34,12.84-14.68C45.25,18.17,40.5,13.5,31,13.5H17.65Z"/><path class="cls-1" d="M72.91,1.63h42.43c13,0,17.73,5.94,17.73,14.76,0,7.12-3.71,10.91-8.46,12.09v.15c3.34,1.11,5.86,3.78,6.38,9.49.82,10.39,1.11,13.88,3.34,16.47H115c-1-2.3-1-5.41-1-7.86,0-8.31-2.74-9.79-7.19-9.79H90.57V54.59H72.91ZM90.57,25.07h17c4.38,0,6.6-2.22,6.6-5.86,0-3.49-2.22-5.71-6.6-5.71h-17Z"/><path class="cls-1" d="M143.82,39.91h16.62V54.59H143.82Z"/><path class="cls-1" d="M203.6,1.63h43.84c12.83,0,15.06,8,15.06,13.06S259.75,24,256,25.37v.15c5.64,1.26,9.2,5.78,9.2,13.27,0,6.23-2.89,15.8-19.21,15.8H203.6ZM221.26,22h17.58c3.78,0,5.41-2.08,5.41-4.53s-1.63-4.45-5.41-4.45H221.26Zm19,21.14c3.78,0,6.23-2,6.23-5.49s-2.45-5.27-6.23-5.27h-19V43.17Z"/><path class="cls-1" d="M319.54,32.41H292.76V54.59H275.11v-53h17.65V20.55h26.78V1.63h17.65v53H319.54Z"/><path class="cls-1" d="M364.93,1.63h21.58l22.78,53H390.37L387.18,46H364l-3.19,8.6H341.94ZM375.69,15h-.15l-7.35,20H383Z"/><path class="cls-1" d="M414,1.63h20.33l24.55,33.16h.15V1.63h17.06v53H456.61L431.24,21.14h-.15V54.59H414Z"/><path class="cls-1" d="M487.54,1.63h17.65V33c0,8.6,4,11.35,12.09,11.35S529.37,41.61,529.37,33V1.63H547V35.9c0,14.61-11,20.32-29.75,20.32s-29.74-5.71-29.74-20.32Z"/><path class="cls-1" d="M595.09,17.13c-.59-3.63-3.34-6.15-11.5-6.15-5.93,0-9.19,1.7-9.19,5.19,0,1.71,1.33,2.82,3.93,3.26,4.37.82,18,2.82,23.21,3.64,9.87,1.7,15.8,5.78,15.8,15,0,18-23.29,18.1-30.56,18.1-17.95,0-31-3.19-32-17.95h20.92c.37,4,2.75,6.53,11.87,6.53,4.45,0,9.27-1,9.27-5.56,0-2.75-2.22-3.79-8.38-4.75l-17.65-2.67c-10.91-1.56-15.14-7-15.14-15C555.7,9.94,560,0,583.22,0c19.29,0,30.71,4.67,31.9,17.13Z"/><path class="cls-1" d="M641.45,1.63H663l22.77,53H666.89L663.7,46H640.56l-3.19,8.6H618.45ZM652.2,15h-.15l-7.34,20h14.84Z"/><path class="cls-1" d="M690.55,1.63H708.2V42.28h32.27V54.59H690.55Z"/><path class="cls-1" d="M748.63,1.63h17.65v53H748.63Z"/></g></g></svg>