<svg xmlns="http://www.w3.org/2000/svg" viewBox="0 0 205.81 42.21"><defs><style>.cls-1{fill:#fff;}</style></defs><g id="Layer_2" data-name="Layer 2"><g id="Layer_1-2" data-name="Layer 1"><path class="cls-1" d="M11.47,29.68c-4.94,0-6.7-3.9-6.7-7.55,0-4.6,2.82-7.81,6.87-7.81,3.3,0,4.5,2.18,5.23,4.32h4.67L21.43,18c-.83-4.93-4.55-7.87-10-7.87C5.77,10.15,0,14.25,0,22.08c0,5.67,3.57,11.77,11.42,11.77,5,0,8.58-2.82,10.12-7.93l.21-.67H16.84C15.92,28.23,14.17,29.68,11.47,29.68Z"/><path class="cls-1" d="M59.65,13.66V10.75H55.23v22.5h4.51V22.51c0-5,1.85-7.42,5.67-7.42h1.66V10.4H65.29A6.47,6.47,0,0,0,59.65,13.66Z"/><path class="cls-1" d="M110,10.4a8.86,8.86,0,0,0-7,3V0H98.41V33.25h4.51V30.78a8,8,0,0,0,6.61,3.07c6.3,0,10.87-5,10.87-11.85C120.4,14,115,10.4,110,10.4Zm-.51,19.28c-3.25,0-6.53-2.32-6.53-7.51s3.21-7.59,6.4-7.59c4.66,0,6.31,3.87,6.31,7.5S114,29.68,109.45,29.68Z"/><rect class="cls-1" x="153.54" width="4.51" height="33.25"/><rect class="cls-1" x="165.8" width="4.51" height="33.25"/><polygon class="cls-1" points="194.16 10.74 187.96 27.4 181.81 10.74 176.71 10.74 185.61 32.23 181.25 42.2 186.18 42.2 199.12 10.74 194.16 10.74"/><path class="cls-1" d="M81.42,29.68c-3.48,0-5.79-2.46-6-6.32H92.21V21.83c0-7.21-4.14-11.68-10.79-11.68-6.45,0-10.78,5.09-10.78,12.66,0,6.4,4.46,11,10.61,11,4.78,0,8.26-2.34,10.35-7l.25-.72H87A5.72,5.72,0,0,1,81.42,29.68Zm.09-15.36c3.17,0,5.22,1.81,5.83,5.12H75.58A5.87,5.87,0,0,1,81.51,14.32Z"/><path class="cls-1" d="M136,29.68c-3.48,0-5.78-2.46-6-6.32H146.8V21.83c0-7.21-4.13-11.68-10.79-11.68-6.45,0-10.78,5.09-10.78,12.66,0,6.4,4.46,11,10.61,11,4.78,0,8.26-2.34,10.35-7l.25-.72h-4.86A5.75,5.75,0,0,1,136,29.68Zm.09-15.36c3.17,0,5.22,1.81,5.83,5.12H130.17A5.88,5.88,0,0,1,136.1,14.32Z"/><path class="cls-1" d="M37.8,29.68c-3.48,0-5.79-2.46-6-6.32H48.58V21.83c0-7.21-4.13-11.68-10.78-11.68C31.35,10.15,27,15.24,27,22.81c0,6.4,4.46,11,10.61,11,4.78,0,8.26-2.34,10.35-7l.25-.72H43.36A5.72,5.72,0,0,1,37.8,29.68Zm.09-15.36c3.17,0,5.22,1.81,5.83,5.12H32A5.87,5.87,0,0,1,37.89,14.32Z"/><path class="cls-1" d="M203.26,10.75a2.57,2.57,0,1,1-2.54,2.57A2.55,2.55,0,0,1,203.26,10.75Zm0,4.69a2.12,2.12,0,1,0-2.09-2.12A2.1,2.1,0,0,0,203.26,15.44Zm.39-1.75a.76.76,0,0,0,.56-.8.79.79,0,0,0-.82-.84h-1v2.56h.5v-.88h.17l.64.88h.61Zm-.26-1.15a.35.35,0,0,1,0,.69h-.48v-.69Z"/></g></g></svg>