<svg xmlns="http://www.w3.org/2000/svg" viewBox="0 0 482.42 91.51"><defs><style>.cls-1{fill:#fff;}</style></defs><g id="Layer_2" data-name="Layer 2"><g id="Layer_2-2" data-name="Layer 2"><path class="cls-1" d="M350.5,25.45c0-3.36,3.62-6.09,8.08-6.09s8.07,2.73,8.07,6.09-3.61,6.07-8.07,6.07-8.08-2.72-8.08-6.07M94.84,16.22a107.77,107.77,0,0,0-17.43-4.31,35,35,0,0,0-3.72-.38c-1.49-.06-1.41,0-1.37,1.93V55.73c0,.9.18,1,1.79.79,7.86-.59,25.51-4.9,32.32-8.32,1.28-.7,2.71-1.15,1.14.74a30.73,30.73,0,0,1-3.7,3.53c-27.54,22.26-64.36,16.78-83,9-22.22-9.08-32.62-36.79-.81-53.79C38.79-2.62,79.46-3.43,98.28,10.69c3.36,2.52,5,4.32,5.49,6.73.38,2.44-.09,1.79-1.3,1.43-.76-.24-2.55-.87-3.21-1.12-1.88-.7-2.67-.94-4.42-1.51M115,12c.1-.79,1-1.19,1.72-1.24a64.82,64.82,0,0,1,7.54-.27c1.78,0,1.69.46,1.66,1.68,0,0,0,22.92.29,32.95.19,2.72,1.4,1.22,2,.62,1.62-2,5.85-5.59,9.46-8.74s6.62-1.22,7.78.89c.76,1.33,3.38,5.92,5.23,9.26,2.19,3.63,3.71,2.82,5.62,1.39,12.25-8.91,20-13.16,27.56-13.35,4.47.19,3.52,3,1.14,3.63-4.75,1.57-7.53,4.65-8.39,8.4-.65,3,.74,6.16,5,4.83,2.6-.82,4.83-3.3,5.12-9.34.78-4,5-3,6-1.91a90.1,90.1,0,0,1,5.94,7.47c1.48,2.49,2.57,1.68,4.05.24,2.95-3,7.72-7.43,11.27-10.89,3.09-3,6.58-2.62,9,.67,2,2.68,3.42,4.56,5.52,7.31,1.85,2.43,2.38,1.86,3.85,0,1.52-2.1,4.76-6.35,6.18-8.07,3.37-3.59,6.7-2.22,8.38.14,2.28,2.92,4.23,5.54,6.47,8.46,1,1.48,1.47,1.71,2.8-.15.6-.84,5.09-6.59,6.71-8.31,2.57-3.15,5.85-2.77,7.9-.09,1.68,2.2,6.94,7.49,9.75,10.69,1.47,1.68,2,2,4.66.19,5.61-3.82,9.42-11.94,9.42-11.94a2,2,0,0,1,1.71-1.24,24.59,24.59,0,0,1,6.3,0,1.64,1.64,0,0,1,1.67,1.67l.07,9.08s-.14.78.39,0a24.64,24.64,0,0,1,12.13-9.44c10.74-3.76,23.64,2.71,16.78,14.44-1.43,2.38.1,1.91.86,1.91,6.56-.29,14.17-6.31,16.86-10.51V37.62c0-1.07,1.18-2,2.78-2.24a43.43,43.43,0,0,1,8.61-.14c3.64.23,3.62.52,3.55,2.67s-.05,9.31.07,12.39c0,3.33,2.52,3.13,5.18,1.82a46,46,0,0,0,14.56-10.77c4.66-5.73,9.89-8,15.41-7.64,5.75-.24,4.33,2.91,1.25,3.79a7.71,7.71,0,0,0-4.1,3.1,10.16,10.16,0,0,0-1.41,9.78c1.66,4.17,5.15,3.66,6.66,1.33s2.5-6,1.26-8.83c-2.56-4.71.46-4.33,3.67-4.4,7.08-.38,14.6-2.15,20.78-3.48,5.14-.72,5.38.71,6.09,2,1.17,2,2,4.39,3,6.35,1,2.39,2,1.81,3.47,0s4.33-4.49,5.85-6.07c3.62-3.2,7.07-2.11,8.85-.05,2.14,2.49,5.68,7.11,7.8,9.79,1.86,2.34,3.9,2.82,6.28,1.72a28.32,28.32,0,0,0,5.61-3.43c3.57-2.63,7.19-1.58,5.33,1.95a38.86,38.86,0,0,1-10.56,10.37c-6.56,4-11.51,5.63-15.08.81a99.6,99.6,0,0,1-6.47-8.17c-1-1.81-2.37-1.62-3.76.1-1.5,1.88-4.75,5.73-7,8.12-3,3.87-7.2,4.5-9.89-.62a155.78,155.78,0,0,1-7-16l-6.61,1.05c9.94,22.69-29.35,25.51-31.49,8.9,0-.54,0-.77-.64-.19-7.45,7.82-13.1,9-19.2,9.83-11.48.83-12.87-3.82-13-9.58,0-.45,0-.69-.59-.08-15.44,14-30.69,9.42-35.83,6.5-2.23-1.24-3.13-3.62-.09-3.39,10.46,2.58,12.51-18.86-1.81-7.4-10,9.7-8.66,25-7.85,40.74,0,1.67-.28,2-1.42,2.44a14.71,14.71,0,0,1-7.09.67c-1.1-.14-1.55-.29-1.91-1.48-1.66-8.17-1.47-29-1.41-39.46a49.67,49.67,0,0,1-9.29,7.74c-5.92,3.37-10.75,5-14.77-.16,0,0-3.54-4.19-5.06-6.14s-2.26-2.3-3.72,0c-1.42,2-3.28,4.11-5.32,6.74-3.19,4.34-7.14,3.43-9.28.14-1.47-1.77-3.76-4.83-5.56-7.41-1.1-1.76-2.12-1.25-3.14.15-1.62,2.2-3.76,4.54-5.73,6.77-4.22,4.82-7.69,4.12-10.87-.13-2-2.73-3.05-4.06-5.66-7.89-1.15-1.52-2-.76-3,.1-.49.42-6.28,5.35-9.23,7.69-6.09,5.49-9.23,5.16-13.84-1.67-.76-1.44-1.36-.5-1.81.05-1.09,1.33-3,2.43-5.71,3.77-12.6,5-19.17-2.6-18.5-7.31.16-1.38-1-.26-1.41.17s-5.06,4.46-7.54,5.71c-7.73,4.29-11.46,2.46-13.39,0-1.33-1.34-3.43-5.45-4.59-7s-1.88-1.62-3.25.22c-.85,1.13-1.95,2.2-4.31,5.11-5.54,7.09-12,4.82-13.21-3.93-1.69-8.8-1.49-31.2-.09-41.11M39,56.82c1,0,1.37,0,1.35-.91V13.28c0-1.94.11-2.08-1.37-1.92C3.05,15.1-3.67,51.8,39,56.82"/><path class="cls-1" d="M462.94,31.83c.54,0,1,0,1-.69s-.48-.62-.92-.62h-.88v1.31Zm-.77,2.38h-.64V30h1.61c1,0,1.5.37,1.5,1.21a1.09,1.09,0,0,1-1.1,1.16l1.2,1.87H464l-1.12-1.83h-.74Zm.78.94a3.06,3.06,0,1,0-3-3.07,3,3,0,0,0,3,3.07m-3.73-3.07A3.72,3.72,0,1,1,463,35.76a3.66,3.66,0,0,1-3.73-3.68"/></g></g></svg>