<svg xmlns="http://www.w3.org/2000/svg" viewBox="0 0 483.83 35.2"><defs><style>.cls-1{fill:#fff;}</style></defs><g id="Layer_2" data-name="Layer 2"><g id="Layer_1-2" data-name="Layer 1"><path class="cls-1" d="M28.62,21.87V.54H22.93V20.23c0,7.29-1.77,9.27-8.2,9.27-6.25,0-9-2-9-6.52V19.23H0v4.45C0,31.17,4.61,34.8,14.1,34.8c10.31,0,14.52-3.74,14.52-12.93"/><path class="cls-1" d="M65.48,20.56H53.66c.37-.75,5.49-10.71,6-11.62l5.86,11.62M72.3,33.79h6.15L61.37.47H57.79l-17,33.32h6.09s4.08-8,4.23-8.33H68.06c.15.31,4.24,8.33,4.24,8.33"/><path class="cls-1" d="M118.14,33.79V.47h-5.62V23C111.57,21.93,92.15.47,92.15.47H89V33.79h5.62V11.33L115,33.79Z"/><polygon class="cls-1" points="142.59 0.4 137.13 0.4 137.13 33.88 142.88 33.88 142.88 0.4 142.59 0.4"/><polygon class="cls-1" points="192.47 0.47 161.5 0.47 161.5 33.79 194.19 33.79 194.19 28.49 167.17 28.49 167.17 18.71 183.98 18.71 183.98 13.42 167.17 13.42 167.17 5.83 192.79 5.83 192.79 0.47 192.47 0.47"/><path class="cls-1" d="M335.07,1V20.63c0,7.28-1.76,9.28-8.19,9.28-6.27,0-9.05-2-9.05-6.54V19.63h-5.69v4.43c0,7.49,4.6,11.14,14.1,11.14,10.31,0,14.5-3.76,14.5-12.93V1h-5.67Z"/><path class="cls-1" d="M377.8,21H366c.41-.76,5.51-10.71,6-11.61.47.91,5.5,10.86,5.89,11.61M373.48.87h-3.4l-16.93,33.3h6.06l4.25-8.31h16.91c.17.3,4.25,8.31,4.25,8.31h6.15L373.66.87Z"/><path class="cls-1" d="M432.37,22.88a15.12,15.12,0,0,1-13.34,7c-8.1,0-14.21-5.29-14.21-12.28s6-12.26,14.21-12.26c5.39,0,9.83,2,12.48,5.69l.17.23,4.57-3.16-.19-.23c-3.59-5-9.81-7.82-17-7.82C407.4,0,399,7.41,399,17.62S407.4,35.2,419,35.2C426.84,35.2,433.2,32,437,26l.15-.23-4.56-3.15Z"/><path class="cls-1" d="M482,1h-7.54c-.17.06-14.34,11.91-17.05,14.18V1h-5.67V34.17h5.67V21.7l6.42-5.44,13.55,17.91h6.47l-16-21.26L482,1"/><path class="cls-1" d="M231.52,19h-5.85c.63-1.26,2.18-4.38,2.92-5.9.75,1.52,2.31,4.64,2.93,5.9m-2-11.21h-2.31l-9.6,19.6h3.94s2.09-4.25,2.4-4.9h9.26c.33.64,2.48,4.9,2.48,4.9h4L230,7.8Z"/><path class="cls-1" d="M259,7.8V20.31L248.12,7.8H246V27.4h3.62V14.89L260.48,27.4h2.12V7.8H259Z"/><path class="cls-1" d="M280.66,24h-4.85V11.25h4.85c4,0,6.58,2.5,6.58,6.38S284.78,24,280.66,24m0-16.15h-8.5V27.4h8.5c6.26,0,10.29-3.82,10.29-9.75S286.8,7.8,280.66,7.8"/></g></g></svg>