<svg xmlns="http://www.w3.org/2000/svg" viewBox="0 0 196.09 99.56"><defs><style>.cls-1{fill:#fff;}</style></defs><g id="Layer_2" data-name="Layer 2"><g id="Layer_1-2" data-name="Layer 1"><path class="cls-1" d="M189.08,42.72a3.51,3.51,0,0,1,1-2.47,3.71,3.71,0,0,1,1.11-.76,3.47,3.47,0,0,1,2.73,0,3.71,3.71,0,0,1,1.11.76,3.51,3.51,0,0,1,1,2.47,3.25,3.25,0,0,1-.28,1.36,3.44,3.44,0,0,1-.75,1.12A3.88,3.88,0,0,1,194,46a3.47,3.47,0,0,1-2.73,0,3.88,3.88,0,0,1-1.11-.75,3.44,3.44,0,0,1-.75-1.12A3.25,3.25,0,0,1,189.08,42.72Zm1,0a2.7,2.7,0,0,0,.2,1,2.57,2.57,0,0,0,.54.85,2.83,2.83,0,0,0,.81.57,2.38,2.38,0,0,0,1,.21,2.31,2.31,0,0,0,1-.21,2.58,2.58,0,0,0,.81-.57,2.45,2.45,0,0,0,.55-.85,2.7,2.7,0,0,0,.2-1,2.74,2.74,0,0,0-.2-1,2.54,2.54,0,0,0-.55-.85,3,3,0,0,0-.81-.57,2.31,2.31,0,0,0-1-.21,2.38,2.38,0,0,0-1,.21,3.29,3.29,0,0,0-.81.57,2.68,2.68,0,0,0-.54.85A2.74,2.74,0,0,0,190,42.72Zm1.2-1.88h1.3l.41,0a1.61,1.61,0,0,1,.52.14,1,1,0,0,1,.63,1,1.26,1.26,0,0,1-.07.47.93.93,0,0,1-.2.3.8.8,0,0,1-.27.18,1.16,1.16,0,0,1-.32.08l.95,1.46h-1l-.84-1.41h-.16v1.41h-1Zm.95,1.53h.57a.53.53,0,0,0,.18,0,.33.33,0,0,0,.14-.12.36.36,0,0,0,.06-.22.39.39,0,0,0-.06-.23.26.26,0,0,0-.14-.11.53.53,0,0,0-.18,0h-.57Z"/><path class="cls-1" d="M6.41,33A17.84,17.84,0,0,1,.53,30.4l2.68-6.12a20.43,20.43,0,0,0,5.13,2.31,19.57,19.57,0,0,0,5.5.8,9.47,9.47,0,0,0,4.31-.78,2.32,2.32,0,0,0,.14-4.26,19.32,19.32,0,0,0-5.1-1.6,29.79,29.79,0,0,1-7.3-2.35A8.67,8.67,0,0,1,2.2,15.2a8.87,8.87,0,0,1-1.06-4.52A9.22,9.22,0,0,1,2.86,5.2,11.38,11.38,0,0,1,7.7,1.39,17.49,17.49,0,0,1,14.88,0a24.13,24.13,0,0,1,6.94,1,14.78,14.78,0,0,1,5.25,2.61L24.43,9.74a16.52,16.52,0,0,0-9.5-3.11,7.18,7.18,0,0,0-3.86.92A2.75,2.75,0,0,0,9.61,10a2,2,0,0,0,.52,1.45,5,5,0,0,0,1.93,1.11,28.46,28.46,0,0,0,4.18,1.11A28,28,0,0,1,23.35,16,9.1,9.1,0,0,1,27,19.25a8.46,8.46,0,0,1,1.08,4.37,9,9,0,0,1-3.76,7.65Q20.57,34,13.75,34A27.69,27.69,0,0,1,6.41,33Z"/><path class="cls-1" d="M43.26,30.35q-3.73-3.68-3.74-10.73V.42H48V20a8.45,8.45,0,0,0,1.6,5.51,5.68,5.68,0,0,0,4.61,1.93,5.69,5.69,0,0,0,4.62-1.93A8.45,8.45,0,0,0,60.42,20V.42h8.51v19.2q0,7-3.79,10.71T54.2,34Q47,34,43.26,30.35Z"/><path class="cls-1" d="M82.53.42h16c3.67,0,6.52.94,8.56,2.8A10,10,0,0,1,110.2,11a10,10,0,0,1-3.08,7.77c-2.06,1.88-4.9,2.82-8.54,2.82H91.19v12H82.53ZM97.4,15.11a5.35,5.35,0,0,0,3.55-1,3.82,3.82,0,0,0,1.16-3.06A3.87,3.87,0,0,0,101,8,5.24,5.24,0,0,0,97.4,7H91.19v8.15Z"/><path class="cls-1" d="M120.58,33.6V.42h23.57V7.11H129v6.3h12.12v6.64H129v6.87h15.15V33.6Z"/><path class="cls-1" d="M186.27,33.6h-9.51L171,23a3.69,3.69,0,0,0-3.43-1.83H165V33.6h-8.52V.42h15.82q6,0,9.05,2.62c2,1.74,3,4.25,3,7.55A9.93,9.93,0,0,1,182.27,17a10.2,10.2,0,0,1-5.84,3.51A6.8,6.8,0,0,1,181,24.19ZM175,13.79a3.36,3.36,0,0,0,1.25-2.92,3.47,3.47,0,0,0-1.25-3A7.12,7.12,0,0,0,170.88,7h-6v7.72h6A7.32,7.32,0,0,0,175,13.79Z"/><path class="cls-1" d="M27.31,67.12a12.17,12.17,0,0,1-4.54,4,14.9,14.9,0,0,1-3.18,1.19,14.66,14.66,0,0,1-3.62.43,16.35,16.35,0,0,1-6.34-1.21,15.22,15.22,0,0,1-8.42-8.44,17.8,17.8,0,0,1,0-12.9,15.3,15.3,0,0,1,8.42-8.44A16.53,16.53,0,0,1,16,40.54a15.53,15.53,0,0,1,5.72,1.13,11.57,11.57,0,0,1,4.89,3.72l-2.73,2A7.46,7.46,0,0,0,22.55,46a9.94,9.94,0,0,0-1.88-1.3,12.76,12.76,0,0,0-2.28-.91A8.73,8.73,0,0,0,16,43.4a12.46,12.46,0,0,0-5.28,1.08,12,12,0,0,0-4,2.9A12.84,12.84,0,0,0,4.24,51.6a15.23,15.23,0,0,0,0,10.09,13,13,0,0,0,2.49,4.22,11.93,11.93,0,0,0,4,2.89A12.31,12.31,0,0,0,16,69.89a13.73,13.73,0,0,0,2.4-.22,9.5,9.5,0,0,0,2.34-.74,8.63,8.63,0,0,0,2.17-1.4,10.84,10.84,0,0,0,1.88-2.23Z"/><path class="cls-1" d="M66.74,56.64a16.73,16.73,0,0,1-1.21,6.45,15.14,15.14,0,0,1-8.42,8.44,17.21,17.21,0,0,1-12.68,0A15.14,15.14,0,0,1,36,63.09a17.8,17.8,0,0,1,0-12.9,15.22,15.22,0,0,1,8.42-8.44,17.21,17.21,0,0,1,12.68,0,15.22,15.22,0,0,1,8.42,8.44A16.8,16.8,0,0,1,66.74,56.64Zm-3.37,0a14.67,14.67,0,0,0-.87-5A12.84,12.84,0,0,0,60,47.38a12,12,0,0,0-4-2.9,13.45,13.45,0,0,0-10.56,0,12,12,0,0,0-4,2.9A12.84,12.84,0,0,0,39,51.6a15.06,15.06,0,0,0,0,10.09,13,13,0,0,0,2.49,4.22,11.93,11.93,0,0,0,4,2.89,13.33,13.33,0,0,0,10.56,0,11.93,11.93,0,0,0,4-2.89,13,13,0,0,0,2.49-4.22A14.77,14.77,0,0,0,63.37,56.64Z"/><path class="cls-1" d="M81.28,72H78.17V41.32H96.65v2.86H81.28V54.61H95.57v2.86H81.28Z"/><path class="cls-1" d="M110.54,72h-3.11V41.32h18.48v2.86H110.54V54.61h14.29v2.86H110.54Z"/><path class="cls-1" d="M139.8,69.11h16.41V72H136.68V41.32h19v2.86H139.8V54.61h14.85v2.86H139.8Z"/><path class="cls-1" d="M170.66,69.11h16.4V72H167.54V41.32h19v2.86H170.66V54.61h14.85v2.86H170.66Z"/><path class="cls-1" d="M1.65,85.81H5.93a3.27,3.27,0,0,1,2.29.75A2.69,2.69,0,0,1,9,88.64a2.65,2.65,0,0,1-.82,2.07,3.22,3.22,0,0,1-2.28.76H4v3.2H1.65Zm4,3.92a1.44,1.44,0,0,0,1-.26,1,1,0,0,0,.3-.82,1.06,1.06,0,0,0-.3-.82,1.44,1.44,0,0,0-1-.27H4v2.17Z"/><path class="cls-1" d="M15.8,94.23a3.87,3.87,0,0,1-1.54-1.59,5.63,5.63,0,0,1,0-4.81,3.84,3.84,0,0,1,1.54-1.58,4.9,4.9,0,0,1,2.36-.55,4.86,4.86,0,0,1,2.35.55,3.78,3.78,0,0,1,1.54,1.58,5.22,5.22,0,0,1,.53,2.41,5.06,5.06,0,0,1-.54,2.4,3.81,3.81,0,0,1-1.54,1.59,4.76,4.76,0,0,1-2.34.56A4.79,4.79,0,0,1,15.8,94.23Zm3.93-1.93a3.28,3.28,0,0,0,.56-2.06,3.2,3.2,0,0,0-.57-2.06,2.09,2.09,0,0,0-3.13,0A3.19,3.19,0,0,0,16,90.24a3.23,3.23,0,0,0,.57,2.07,1.89,1.89,0,0,0,1.57.7A1.88,1.88,0,0,0,19.73,92.3Z"/><path class="cls-1" d="M29,94.52a4.76,4.76,0,0,1-1.57-.7l.72-1.64a5.29,5.29,0,0,0,1.37.62A5.22,5.22,0,0,0,31,93a2.7,2.7,0,0,0,1.15-.2.65.65,0,0,0,.39-.59.64.64,0,0,0-.35-.55,5.12,5.12,0,0,0-1.37-.43,7.43,7.43,0,0,1-1.95-.63,2.32,2.32,0,0,1-1-.85,2.38,2.38,0,0,1-.28-1.21A2.5,2.5,0,0,1,28,87.09a3.13,3.13,0,0,1,1.3-1,4.62,4.62,0,0,1,1.91-.37,6.44,6.44,0,0,1,1.86.27,3.82,3.82,0,0,1,1.4.7l-.7,1.63a4.47,4.47,0,0,0-2.54-.83,1.85,1.85,0,0,0-1,.25.73.73,0,0,0-.39.64.52.52,0,0,0,.14.39,1.41,1.41,0,0,0,.51.3,7,7,0,0,0,1.12.29,7.75,7.75,0,0,1,1.9.64,2.47,2.47,0,0,1,1,.86A2.31,2.31,0,0,1,34.76,92a2.39,2.39,0,0,1-1,2,4.72,4.72,0,0,1-2.83.74A7.3,7.3,0,0,1,29,94.52Z"/><path class="cls-1" d="M39.83,94.67V85.81h2.31v8.86Z"/><path class="cls-1" d="M49.52,94.67v-7H46.87V85.81h7.64v1.88H51.86v7Z"/><path class="cls-1" d="M59.23,94.67V85.81h2.32v8.86Z"/><path class="cls-1" d="M73.39,85.81h2.34l-4,8.86H69.86l-4-8.86h2.4l2.57,6Z"/><path class="cls-1" d="M80,94.67V85.81h6.29V87.6h-4v1.68h3.79v1.77H82.28v1.84h4v1.78Z"/><path class="cls-1" d="M118.24,94.67V85.81h6.29V87.6h-4v1.68h3.79v1.77h-3.79v1.84h4v1.78Z"/><path class="cls-1" d="M135.25,85.81h2.16v8.86H135.7l-4-5.06v5.06h-2.15V85.81h1.68l4.06,5.07Z"/><path class="cls-1" d="M142.79,94.67V85.81h6.29V87.6h-4v1.68h3.79v1.77H145v1.84h4v1.78Z"/><path class="cls-1" d="M162,94.67h-2.54L158,91.85a1,1,0,0,0-.92-.49h-.71v3.31h-2.27V85.81h4.22a3.66,3.66,0,0,1,2.42.7,2.53,2.53,0,0,1,.81,2,2.63,2.63,0,0,1-.55,1.7,2.71,2.71,0,0,1-1.56.94,1.82,1.82,0,0,1,1.22,1Zm-3-5.29a1.1,1.1,0,0,0,0-1.57,1.86,1.86,0,0,0-1.1-.25h-1.61v2.06h1.61A2,2,0,0,0,159,89.38Z"/><path class="cls-1" d="M174.49,89.67v4.44a6.73,6.73,0,0,1-1.57.5,8.93,8.93,0,0,1-1.8.18,5.42,5.42,0,0,1-2.5-.55A3.86,3.86,0,0,1,167,92.67a4.93,4.93,0,0,1-.57-2.43,4.84,4.84,0,0,1,.57-2.4,3.89,3.89,0,0,1,1.6-1.59A5.19,5.19,0,0,1,171,85.7a6.3,6.3,0,0,1,1.82.25,3.91,3.91,0,0,1,1.37.69l-.71,1.64a4.93,4.93,0,0,0-1.18-.58,4,4,0,0,0-1.21-.18,2.22,2.22,0,0,0-1.78.67,3.92,3.92,0,0,0,0,4.15,2.35,2.35,0,0,0,1.86.69,6,6,0,0,0,1.2-.13V91.25h-1.56V89.67Z"/><path class="cls-1" d="M187.76,85.81,184,90.73v3.94H181.7V90.73L178,85.81h2.61l2.26,3.08,2.28-3.08Z"/><polyline class="cls-1" points="103.8 89.61 106.83 89.34 101.02 99.56 102.92 91.73 99.55 92.22 105.75 81.88 103.8 89.61"/></g></g></svg>