<svg xmlns="http://www.w3.org/2000/svg" viewBox="0 0 360.94 50.73"><defs><style>.cls-1{fill:#fff;}</style></defs><g id="Layer_2" data-name="Layer 2"><g id="Layer_1-2" data-name="Layer 1"><path class="cls-1" d="M67.61.18a24.6,24.6,0,0,0-.81,49.19,24,24,0,0,0,18.43-7.45,23.71,23.71,0,0,0,6.94-16.3A23.82,23.82,0,0,0,85.43,7.85,23.78,23.78,0,0,0,67.61.18ZM67.21,38A13.16,13.16,0,1,1,80.77,25.22,13.16,13.16,0,0,1,67.21,38Z"/><path class="cls-1" d="M30.63,31c0,.17,0,.34,0,.51a7.09,7.09,0,0,1-4.06,6.13,9,9,0,0,1-4.31,1,8.73,8.73,0,0,1-3.74-.83,9.08,9.08,0,0,1-4.08-4.07,17.46,17.46,0,0,1-2-7.59,27.73,27.73,0,0,1,.26-5.38,15.44,15.44,0,0,1,1.63-5.21,7.94,7.94,0,0,1,3.9-3.64,10.42,10.42,0,0,1,5.84-.64,7.54,7.54,0,0,1,6,4.76,9.57,9.57,0,0,1,.7,2.87c.57.09,11.73.06,12.08,0a1.62,1.62,0,0,0,0-.22c-.11-.77-.21-1.54-.34-2.3A22.72,22.72,0,0,0,39.9,8.82,16.31,16.31,0,0,0,33,2.23,23,23,0,0,0,23.29,0,25,25,0,0,0,20,.16a22.52,22.52,0,0,0-6.56,1.61,19.7,19.7,0,0,0-6.1,4,21.58,21.58,0,0,0-5,7.36A29.94,29.94,0,0,0,0,24.4a33.06,33.06,0,0,0,.27,5,29.15,29.15,0,0,0,1.16,5.3,22.56,22.56,0,0,0,6.22,9.94A19.83,19.83,0,0,0,11,47.06a22.61,22.61,0,0,0,10.88,3,23.92,23.92,0,0,0,4.31-.24,20.46,20.46,0,0,0,7.41-2.46A18.36,18.36,0,0,0,41,39.52a18.77,18.77,0,0,0,2-8.51C42.73,30.89,31,30.88,30.63,31Z"/><path class="cls-1" d="M170.56,1.21V28h0v3.76h0v2.35h0v3.26h0v7.58L159.94,10.85h0l-3-9.7H143l-2.08,6.73c-.69,2.23-1.39,4.47-2.07,6.71-.54,1.76-6.34,20.46-9.07,29.31V1.15H118.48V26.62l-.11,0c-.06-.1-.14-.18-.19-.28L116,22.11c-1.16-2.26-2.31-4.53-3.47-6.8l-3.57-7c-1-2-2-4-3-6-.2-.4-.42-.79-.62-1.18H93V48.88h11.25V26.83c0-.67,0-1.34,0-2a18.58,18.58,0,0,1,0-2,.48.48,0,0,1,.2.2c.41.76.81,1.53,1.22,2.3l3.81,7.25,4.78,9.1c1.18,2.25,2.37,4.51,3.54,6.76a.73.73,0,0,0,.75.46h22c0-.18.1-.37.16-.55h0l3.16-11h11.7c1.23,4.51,2.27,8.33,2.76,10.16l0,0c.1.35.2.72.3,1.1a1.31,1.31,0,0,0,.1.21H182.3V48.3h0V1.17C181.39,1.06,170.87,1.1,170.56,1.21ZM149.19,19c.24-.73.4-1.49.75-2.31,0,.07,0,.13.05.2.83,3,1.91,6.94,3,11h-6.42C148,23.14,149.1,19.3,149.19,19Z"/><path class="cls-1" d="M224,48.64a7.16,7.16,0,0,1-1-1,7.45,7.45,0,0,1-1.26-4.26c0-1-.12-5-.2-6.08h0a24,24,0,0,0-.49-3.28A8.84,8.84,0,0,0,218.44,29a7.47,7.47,0,0,0-1.05-.87,15.27,15.27,0,0,0-3.25-1.76,2.5,2.5,0,0,0,.38-.06,10.11,10.11,0,0,0,4.39-3.37c.16-.2.44-.59.65-.91a8.7,8.7,0,0,0,.63-1.08,13.39,13.39,0,0,0,1.5-6.63,19,19,0,0,0-.2-2.26A12.19,12.19,0,0,0,214,2.51a16.33,16.33,0,0,0-6.74-1.37c-7.4,0-14.79,0-22.19,0l-.4,0c-.07.47-.07,29.89,0,42v.3h0c0,1.8,0,3.18,0,4h0v1.4h11.43V48.3h0V31.73H203s0,0,.14,0A5.31,5.31,0,0,1,207.89,34a8.64,8.64,0,0,1,1.16,3.21h0c.36,2.69.48,5.24.55,6.2h0a14.86,14.86,0,0,0,.85,4.14,4.46,4.46,0,0,0,.41.78,1.37,1.37,0,0,0,1,.55c3.94,0,7.89,0,11.83,0h.59ZM196.38,11.29c2.47,0,4.94,0,7.4.08a8.31,8.31,0,0,1,3.7,1,4.37,4.37,0,0,1,2.06,2.2A5.39,5.39,0,0,1,210,16.5a5.29,5.29,0,0,1-2.8,5.08,7.59,7.59,0,0,1-2.75.71c-2.67.07-5.45.08-8.23.07v-11Z"/><path class="cls-1" d="M261.82,49.22V38.58c0-2.61,0-5.07.08-7.38s.13-4.49.23-6.55c-.31,1-.67,2-1.06,3.19s-.82,2.38-1.29,3.64-.95,2.5-1.45,3.74-.95,2.4-1.37,3.5l-5.17,12-5.17-12c-.41-1-.87-2.21-1.37-3.47s-1-2.51-1.45-3.77-.9-2.47-1.29-3.64l-1.06-3.19c.11,2,.19,4.19.24,6.52s.08,4.8.08,7.41V49.22H229.86v-48h11.91L246.62,13c1.2,2.89,2.27,5.64,3.21,8.27a53.35,53.35,0,0,1,2,6.49c.42-1.69,1.1-3.85,2-6.45s2-5.4,3.21-8.37l4.78-11.74h11.82v48Z"/><path class="cls-1" d="M317,1.2h12.39c.21.39.42.78.62,1.19l3.06,6,3.6,7.06,3.5,6.85,2.2,4.3c.05.09.12.18.18.27l.11,0V1.2H354c0,15.54,0,46.64,0,46.64v1.47H342.26l-.23-.45-3.56-6.81q-2.42-4.59-4.82-9.17l-3.84-7.31-1.23-2.32a.54.54,0,0,0-.2-.2,19.08,19.08,0,0,0-.05,2V49.28H317Z"/><path class="cls-1" d="M303.82,48.36l0,0q.12.42.24.87h13.3l-.3-1h0S305.69,11.89,305.43,11h0l-3.06-9.87H288.15c-.71,2.3-1.42,4.57-2.12,6.85l-2.11,6.82c-.69,2.27-9.94,32.06-10.62,34.37h12.59L289.11,38H301C302.27,42.6,303.32,46.49,303.82,48.36Zm-12-19.91c1.41-4.9,2.53-8.81,2.63-9.08a24.46,24.46,0,0,1,.76-2.35l.06.2c.83,3,1.94,7.06,3.08,11.23Z"/><path class="cls-1" d="M358.66,5.81a2.25,2.25,0,0,1-2.3-2.33,2.29,2.29,0,1,1,4.58,0A2.26,2.26,0,0,1,358.66,5.81Zm0-4.26a1.81,1.81,0,0,0-1.8,1.93,1.79,1.79,0,1,0,3.58,0A1.8,1.8,0,0,0,358.66,1.55Zm-.46,3.26h-.43V2.23h1c.63,0,.95.22.95.74a.67.67,0,0,1-.68.71l.73,1.13h-.48l-.67-1.1h-.4Zm.47-1.47c.32,0,.6,0,.6-.4s-.3-.35-.56-.35h-.51v.75Z"/></g></g></svg>