<svg xmlns="http://www.w3.org/2000/svg" viewBox="0 0 957.91 204.41"><defs><style>.cls-1{fill:#fff;}</style></defs><g id="Layer_2" data-name="Layer 2"><g id="Layer_1-2" data-name="Layer 1"><rect class="cls-1" x="754.68" y="138.81" width="47.18" height="13.94"/><path class="cls-1" d="M845.24,87c7.2-3,12.92-8.56,12.92-18.58C858.16,53,846.7,46,825.17,46H801.86V87H754.68V4.63h92c32,0,59.62,18.86,59.62,55.76A58.36,58.36,0,0,1,899.25,87Z"/><path class="cls-1" d="M754.68,108.08l120.41,0c9-2.67,16.54-9.11,21.71-17H754.68Z"/><path class="cls-1" d="M910.52,193.93h-50a38.83,38.83,0,0,0,3.28,5.85h53.12C914.64,198.09,912,196.07,910.52,193.93Z"/><path class="cls-1" d="M905.88,166h-50c.08,1.25.18,2.5.28,3.75.22,2.68.38,5.34.6,8h49.5A105.66,105.66,0,0,1,905.88,166Z"/><path class="cls-1" d="M903.12,138.81H849.55c2.73,3.66,4.14,8.61,5,13.94h50.8A117.21,117.21,0,0,0,903.12,138.81Z"/><polygon class="cls-1" points="754.68 193.93 754.68 199.78 801.86 199.78 801.86 193.93 801.86 193.93 754.68 193.93 754.68 193.93"/><polygon class="cls-1" points="801.86 177.69 801.86 177.69 801.86 166 801.86 165.96 754.68 165.96 754.68 166 754.68 177.69 801.86 177.69"/><path class="cls-1" d="M754.68,129.67H900.27c-2.71-6.45-6.74-11.91-12.92-15.52l-132.67,0Z"/><path class="cls-1" d="M175.3,77.34C170.47,28.42,142.78.26,92.64,0,36.32,0,0,40.67,0,102.2c0,57.67,33.53,102.21,92.64,102.21,53.48,0,83.46-38.76,83.46-78.11h-51c.33,19.62-15.91,31.5-33.86,31.5-29.14,0-40.49-29.33-40.49-55.6,0-27.58,7.28-56.87,40.49-56.87,27.11,0,34.14,21.92,34.55,32Z"/><path class="cls-1" d="M175.68,101.21A100.59,100.59,0,1,1,276.28,201.8a100.6,100.6,0,0,1-100.6-100.59m46.68,0a53.9,53.9,0,1,0,53.92-53.88,53.92,53.92,0,0,0-53.92,53.88"/><polygon class="cls-1" points="379.98 199.78 426.11 199.78 426.11 93.19 426.65 93.19 482.69 199.78 530.35 199.78 530.35 4.63 484.19 4.63 484.19 109.04 483.71 109.04 430.45 4.63 379.98 4.63 379.98 199.78"/><polygon class="cls-1" points="624.3 108.05 619.45 91.07 668.22 91.07 673.49 108.05 624.3 108.05"/><polygon class="cls-1" points="525.96 193.93 524.16 199.78 574.64 199.78 576.33 193.93 525.96 193.93"/><polygon class="cls-1" points="580.94 177.69 584.26 165.96 534.6 165.96 530.99 177.69 580.94 177.69"/><polygon class="cls-1" points="695.05 177.69 691.47 165.96 639.45 165.96 642.65 177.69 695.05 177.69"/><polygon class="cls-1" points="687.37 152.75 682.67 138.81 542.97 138.81 538.66 152.75 687.37 152.75"/><polygon class="cls-1" points="545.78 129.67 680.22 129.67 675.4 114.15 550.58 114.15 545.78 129.67"/><polygon class="cls-1" points="600.61 108.05 605.79 91.07 557.68 91.07 552.46 108.05 600.61 108.05"/><polyline class="cls-1" points="611.32 4.63 584.37 4.63 558.93 87.01 607.01 87.01 612.78 67.91 618.28 87.01 666.99 87.01 641.45 4.63 611.32 4.63"/><rect class="cls-1" x="697.04" y="4.63" width="48.18" height="82.38"/><rect class="cls-1" x="697.04" y="91.07" width="48.18" height="16.99"/><rect class="cls-1" x="697.04" y="114.18" width="48.18" height="15.49"/><rect class="cls-1" x="697.04" y="138.81" width="48.18" height="13.97"/><rect class="cls-1" x="697.04" y="166" width="48.18" height="11.69"/><polygon class="cls-1" points="745.22 199.78 745.22 193.93 647.04 193.93 648.65 199.78 745.22 199.78"/><path class="cls-1" d="M921.08,181.45a18.42,18.42,0,1,1,18.41,18.33,18.27,18.27,0,0,1-18.41-18.33m34,0a15.58,15.58,0,1,0-15.59,15.49,15.6,15.6,0,0,0,15.59-15.49m-6.85,9.91h-3.38l-6-9.26h-3.39v9.26h-2.8V171.31h8.73c3.61,0,7.15,1,7.15,5.3,0,4-2.79,5.39-6.36,5.49Zm-9.39-12.07c2.49,0,6.86.48,6.86-2.73,0-2.05-2.73-2.44-4.88-2.44h-5.37v5.17Z"/></g></g></svg>