<svg xmlns="http://www.w3.org/2000/svg" viewBox="0 0 410.11 71.55"><defs><style>.cls-1{fill:#fff;}</style></defs><g id="Layer_2" data-name="Layer 2"><g id="Layer_1-2" data-name="Layer 1"><path class="cls-1" d="M39.68,42.38s-4.32,5.34-7.19,8.93c-.18-4.61-.44-11.48-.44-11.48s-6.4-2.46-10.72-4.08L32.1,31.8l.08-1.35s.26-5.51.5-10.11c2.86,3.63,7.08,9,7.08,9l11.08-3c-2.58,3.83-6.38,9.53-6.38,9.53s3.73,5.77,6.26,9.62ZM53.4,35.94,68.18,14l-25.6,6.92L26.2,0,24.91,26.49,0,35.6l24.78,9.45,1,26.5L42.39,50.89,67.9,58.16Z"/><path class="cls-1" d="M192.73,41.38c0-7.21-5.09-13.73-12.5-13.73-8.29,0-13.55,8.05-13.55,15.87,0,8.34,6,15.3,14.33,15.3,4.85,0,9-3,11.48-7.21l-1-1a12,12,0,0,1-9.7,5.53c-7.41,0-9.12-8.82-9.12-14.79ZM173,39.07c.11-4.16,2.18-9.42,7.21-9.42s6.91,5.19,6.56,9.42Z"/><path class="cls-1" d="M203,49.8c0,5.73,0,6.09,4,6.58v1.78H193.87V56.38c3.91-.49,3.91-.85,3.91-6.58V36.68c-.18-3.22-.25-4.38-3.85-4.38V30.84l9-3.58v7.19c2.25-2.86,4.61-7.16,8.52-7.16a3.54,3.54,0,0,1,3.67,3.54,3.2,3.2,0,0,1-3.2,3.42c-2.07,0-2.07-1.78-4-1.78-2.08,0-4,3-5,4.67Z"/><path class="cls-1" d="M225.82,49.8c0,5.73,0,6.09,4,6.58v1.78H216.59V56.32c4-.49,4-.92,4-6.58V36.68c-.18-3.22.28-4.38-3.33-4.38V30.84l8.54-3.58Z"/><path class="cls-1" d="M256.22,50.88c-2.84,4.46-7.1,7.94-12.49,7.94-7.75,0-13.25-7.26-13.25-14.83,0-9,6-16.34,15.09-16.34,3.37,0,9.7,2.11,9.7,6.39a3.09,3.09,0,0,1-3.19,3.05c-4.38,0-2.66-7.44-8.35-7.44-6.09,0-7.28,8.3-7.28,13,0,5.8,3.14,13,9.71,13,4,0,6.63-2.68,9.17-5.56Z"/><path class="cls-1" d="M275.19,40.14c-6.05,1.22-16.34,3.3-16.34,11.42,0,4.33,2.83,7.26,7,7.26,3.56,0,6.76-2,9.49-4.26.24,2.31,1.59,4.26,4,4.26,2.78,0,4.55-2,6-4.26l-.77-1.29a3.45,3.45,0,0,1-2.43,1.52c-1.77,0-1.77-2.69-1.77-4.15V36.73c0-2.57,0-5.14-2.13-7s-5-2.11-7.52-2.11c-3.85,0-10.77,1.94-10.77,7a2.57,2.57,0,0,0,2.78,2.67c2.13,0,2.9-1.15,3.43-3,.65-2.63,1.9-4.64,4.86-4.64,3.55,0,4.14,3.48,4.14,6.47Zm0,12c-1.49,1.71-4.22,3.48-6.4,3.48a4.38,4.38,0,0,1-4.34-4.71c0-5.05,6.52-8,10.74-8.73Z"/><path class="cls-1" d="M295.25,49.8c0,5.73,0,6.09,4,6.58v1.78H286V56.38c4-.49,4-.85,4-6.58V36.68c-.17-3.22-.23-4.38-3.85-4.38V30.84l9.05-3.58v5.17c2.25-2.5,6-4.77,9.3-4.77A7.92,7.92,0,0,1,310.17,30c1.95,2.26,2,5.06,2,7.93V49.8c0,5.73,0,6.09,4,6.58v1.78H302.89V56.38c4.08-.49,4.08-.85,4.08-6.58V39.12c0-3.65-.24-8.22-4.91-8.22-2.6,0-5,2.2-6.81,4Z"/><path class="cls-1" d="M358.25,24l-1.72.79c-3-4.87-7.46-9.94-13.55-9.94-10.32,0-13.34,14.14-13.34,22.55,0,8.18,4.27,19.44,13.75,19.44,6.75,0,8.64-4.47,8.64-10.77,0-5.33-1.72-5.88-6.57-5.88v-2h16.87v2c-5.08.18-5.08,3.37-5.08,7.84v9a8.47,8.47,0,0,0-2.49-.48c-4,0-7.64,2.23-12.62,2.23-12.45,0-19.31-9.94-19.31-22,0-11.16,6.81-24,19-24,3.32,0,5.87,1.09,8,1.09a9.12,9.12,0,0,0,4.5-1.4Z"/><path class="cls-1" d="M400.81,22c0-5.29-.83-5.05-5-5.37V14.86L406,12.1V50.5c0,5.72,0,5.39,4.09,5.88v1.78H396.84V56.38c4-.49,4-.85,4-6.58Z"/><path class="cls-1" d="M394.23,27.27c-3.92,0-6.27,4.31-8.51,7.16V27.24l-9.07,3.58v1.46c3.62,0,3.67,1.16,3.86,4.38V49.78c0,5.73,0,6.1-3.94,6.59h0c-4-.49-4-.86-4-6.57V27.26L364,30.84V32.3c3.62,0,3.14,1.16,3.33,4.38V49.74c0,5.66,0,6.09-4,6.58v1.84l26.34,0V56.36c-4-.49-4-.85-4-6.58V37.12c1-1.7,2.95-4.67,5-4.67,1.89,0,1.89,1.78,4,1.78a3.2,3.2,0,0,0,3.19-3.43A3.53,3.53,0,0,0,394.23,27.27Z"/><path class="cls-1" d="M89.82,39.23l6.69-20.54,6.63,20.51ZM162,49.8V39.43c0-2.75,0-6.1-1.25-8.4a6.84,6.84,0,0,0-6.34-3.37c-4.2,0-7.29,2.75-10.14,5.62-1.12-3.17-3.67-5.62-7-5.62-3.92,0-7.53,2.51-9.84,5.62v-6l-9.06,3.58V32.3c3.61,0,3.67,1.16,3.85,4.38V49.8c0,5.23,0,6-3.08,6.42h0a5.42,5.42,0,0,1-3.85-1.81c-1.59-1.79-3.13-6.86-3.9-9.25L100.54,12,95,13.35,84.2,46.82c-1.36,4.22-3,9.3-8,9.35v2H91.31v-2c-2.43,0-5.57-.42-5.57-3.55,0-1.77,1.78-6.54,2.37-8.31L88.88,42H104l2.42,7.51a15.06,15.06,0,0,1,1,3.93c0,3.17-3.73,2.56-5.73,2.74v2h29.71V56.38c-4-.49-4-.85-4-6.58V35.36c1.77-2.2,4.5-4.46,7.58-4.46,4.39,0,4.52,4.68,4.52,8V49.8c0,5.73,0,6.09-4,6.58v1.78h13.22V56.38c-4-.49-4-.85-4-6.58V35.36c2-2.2,4.69-4.46,7.76-4.46,4.4,0,4.34,4.68,4.34,8V49.8c0,5.73,0,6.09-4,6.58v1.78h13.21V56.38C162,55.89,162,55.53,162,49.8Z"/><path class="cls-1" d="M225.31,19.35A3.27,3.27,0,1,1,222,16.08,3.27,3.27,0,0,1,225.31,19.35Z"/><path class="cls-1" d="M371.84,19.35a3.27,3.27,0,1,1-3.27-3.27A3.26,3.26,0,0,1,371.84,19.35Z"/></g></g></svg>