<svg xmlns="http://www.w3.org/2000/svg" viewBox="0 0 481.52 230.01"><defs><style>.cls-1{fill:#fff;fill-rule:evenodd;}</style></defs><g id="Layer_2" data-name="Layer 2"><g id="Layer_1-2" data-name="Layer 1"><path class="cls-1" d="M36.65,146.12c7.67-.21,16.78-3.43,25.83-3.14,1.45-3.74,1.84-7.67,2.88-11.36,1.28-4.57,3.84-8.81,5.17-13.46.5-1.76.8-3.61,1.36-5.36.42-1.32,1.1-2.54,1.62-3.81a10.15,10.15,0,0,0,.65-2.07,12.39,12.39,0,0,1,.38-2.19c.35-.85.7-1.69,1-2.57.54-1.75.91-3.54,1.31-5.31.64-2.83,2-5.31,2.78-8a80.81,80.81,0,0,0,2-8.35c.52-2.67,2-4.88,2.94-7.39,1.24-3.22,1.78-6.55,3.12-9.75,1.47-3.5,2.16-7.16,3.32-10.74,1.9-5.85,4.91-12.35,7.44-18.07A73.19,73.19,0,0,0,103,22.37c.35-1.4.59-2.86,1-4.28.39-1.16,1.6-4.58,2.87-4.88,2.36-.55,6,4.47,7.29,6.19a20.45,20.45,0,0,1,2.07,3.37,11.87,11.87,0,0,1,1.41,3.2,10.35,10.35,0,0,1-.12,3.64A37.57,37.57,0,0,1,115.48,37c-.49,1.24-1,2.48-1.46,3.73-1.6,4.19-2.86,8-4.46,12.14-2.29,5.91-4.93,11.64-6.84,17.81-1.26,4.08-2.62,8.21-4,12.31a143.17,143.17,0,0,0-4.45,14.44c-.85,3.59-2.47,7.07-3.78,10.62s-2.51,7.22-3.55,10.8c-1.81,6.19-4.48,12.12-5.82,18.45-.26,1.24-.47,2.48-.85,3.69a5.78,5.78,0,0,0-.49,3.22c3.67,1,8.19.91,12.22.91,1.18-2.84,2.49-5.57,3.56-8.5,2-4.16,4.43-9.43,8.53-13.38a27,27,0,0,0,2.33-1.9,35.13,35.13,0,0,1,11.43-9.26,19.58,19.58,0,0,1,4.44-1.69c3.13-.1,4.49,3.91,7,5.18a48.6,48.6,0,0,1,4.55,2.7,13.5,13.5,0,0,1,4.4,3.86,11.29,11.29,0,0,1,2.06,5.55c.15,2.21-.89,4.82-1.34,7.86-.63,4.36-.79,8-2.71,10.72a62.2,62.2,0,0,1-5.47,3.75c-.92.59-1.84,1.18-2.74,1.79a11.27,11.27,0,0,1-3.95,1.77c-1.52.41-3,.9-4.49,1.44a89.74,89.74,0,0,1-9.06,3c-.47.11-5.29.7-5.29.68-1.54,6.52.36,15.18,3.59,19.72,2.18,1.11,5.84-.74,8.17-2a47.32,47.32,0,0,0,8.55-6.69,84.19,84.19,0,0,0,15-18.52,46,46,0,0,1,3.14-5.13,6.59,6.59,0,0,0,1.08-1.72c1-2.77,2.26-5.32,3.45-8s2.7-5.76,3.13-8.66c.6-4.06-1.23-8.3-.11-11.91.45-1.45,1.71-2.58,2.51-3.84a5.21,5.21,0,0,0,.86-2.24c.17-2.08,2.7-2.43,4.27-1.42s2.53,3.45,3.82,4.92,3.33,2.83,3.7,3.61c.92,2-.26,4.44,1.18,5.75,3.59-.69,6.07-2.68,9.18-2.36,1.87.19,3.42,1.35,5,2.22s4.08.75,5.33,2.18a13.39,13.39,0,0,1,1.92,3.55,17.48,17.48,0,0,1,1.62,8.05c-.18,2.68-2.23,4.28-3.16,6.16-7.65,6.8-14,14.68-17,25.28.09,1-1.12,2.88-.48,3.82s3.16-1.76,3.74-2.22,1.09-.89,1.63-1.35c1.74-1.49,3.42-3.06,5.14-4.57a70.18,70.18,0,0,0,9.31-9.69c-2.21-5.3,1.1-9.54,5.65-6.4,3-3,4.84-6.84,7.36-10.33,1-1.34,2.15-2.52,3.05-3.92a41.71,41.71,0,0,0,2.26-4.66c.91-1.89,2.37-3.25,3.4-5s1.91-3.36,2.8-5.07c.47-.89.93-1.8,1.38-2.7a6.63,6.63,0,0,0,.91-2.3,18.29,18.29,0,0,0-.25-2.85c-.07-1-.13-2-.15-3,0-.69-.35-2.3,0-2.9s1.4-.76,2.2-1.05c.08,0,.25-1.08.32-1.23a2.44,2.44,0,0,1,.72-1,4.1,4.1,0,0,1,2.66-.67,4.88,4.88,0,0,1,4.23,2,7.35,7.35,0,0,1,.86,3.12c2.06,1.94,5,5.16,5.05,8.92,0,1.41-1.07,2.74-1.27,4.1-.78,5.14.38,11.83,1.71,17.6a136.94,136.94,0,0,1,2.42,18.38c1.55-.76,2.27-2.53,3.17-3.87a95.82,95.82,0,0,0,5.41-8.89c1.87-3.56,3-6.67,5.29-10.12,1.11-1.68,2.38-3.31,3.49-4.94,2.34-3.43,4.41-7,7-9.67a68.33,68.33,0,0,1,5.79-5.1c1-.83,2-1.66,3-2.52A17,17,0,0,1,271,107a14.12,14.12,0,0,1,2.93-.87,21.63,21.63,0,0,1,3.4-.72c2.07-.25,4.33-.52,6.23.52s4.14,2.08,5.18,3.94,2,3.65,4.15,4.38a5.06,5.06,0,0,0,1.81.22c1,0,2-.4,2.9.34a4.37,4.37,0,0,1,1.34,2.83,13.42,13.42,0,0,1-1.07,6.33c-.3.87-.67,1.74-1,2.6a11.45,11.45,0,0,1-1.46,2,25.69,25.69,0,0,0-1.69,2.8,35.91,35.91,0,0,0-1.66,3.88c-.54,1.3-1.4,2.35-2,3.58-1.08,2.18-1.82,3.92-5.38,2.62a13.16,13.16,0,0,1-3-1.92,9.18,9.18,0,0,1-2.33-2c-.68-1-.49-2.14-.77-3.25a24.28,24.28,0,0,1-.9-2.84,6.44,6.44,0,0,1,1.07-3.1c.31-.64.71-1.76,0-2.31s-2.07-.09-2.78.27c-2,1-3.32,3.29-4.84,4.93a60.62,60.62,0,0,0-6.19,7.29c-.81,1.25-1.55,2.94-2.5,4.43a18,18,0,0,0-2.57,4.49c-1.51,5.2-2.36,9.05,1.78,13.08a4.83,4.83,0,0,0,2,.91,8.13,8.13,0,0,1,1.65.93,7,7,0,0,0,4.66,1.15c4.62-.54,11.11-4,15.26-6.05,1.86-.93,3.4-2.71,5.06-3.95a20.57,20.57,0,0,0,4.78-4.53,15.17,15.17,0,0,0,1.07-2c1.45-3.27,2.8-6.47,4.07-9.8.81-2.16,1.78-4.26,2.58-6.41.41-1.12.75-2.23,1.08-3.37.6-2.18,2.4-3.81,3.34-5.83,1.21-2.55,2.32-5.15,3.5-7.72.67-1.49,1.35-3,2.06-4.45,1.3-2.75,2.23-5.65,3.34-8.48a40.06,40.06,0,0,1,1.82-4.07,12.62,12.62,0,0,0,1.59-3.63,14.09,14.09,0,0,1,1.13-3.6A39.53,39.53,0,0,0,322.26,86c1.25-3.37,3.05-6.48,4.39-9.82a69.09,69.09,0,0,1,2.78-7c1.8-3.35,2.81-7.06,4.62-10.49a53.13,53.13,0,0,0,3.11-6.78c.83-2.21,2.58-3.89,3.61-6,1.27-2.61,1.87-5.59,3.16-8.25,1.21-2.5,2.57-4.93,3.58-7.52a70,70,0,0,1,2.93-7.33c.76-1.47,2.16-5.71,3.58-6.2,3.89-1.35,7.24,4.86,8.87,7.46a10.78,10.78,0,0,1,1.62,3.65c.35,2.06-.35,4.87-.77,7.19-1.26,6.79-4.35,11.92-6.68,17.36-6,10.61-12,21.28-18.25,31.68-1,1.61-2.1,3.25-3,4.92A30.44,30.44,0,0,0,334.37,93c-.53,1.42-1.4,2.66-2.06,4a26.64,26.64,0,0,0-1.44,3.55,18.62,18.62,0,0,1-1,3.17c-.55,1-1.07,2.08-1.55,3.16a31.47,31.47,0,0,0,5.63-2.81c.88-.54,1.71-1.15,2.58-1.71,1.52-1,3.68-1.46,5.38-2.13a8.9,8.9,0,0,1,5.78-.46,19,19,0,0,1,6.45,3.51,27.69,27.69,0,0,1,4,3.31,13.25,13.25,0,0,1,2.78,4.44c1,3.43-.85,6-1.44,8.92-.28,1.48,0,3-.34,4.46A15.89,15.89,0,0,1,357.7,128c-1.2,2.34-2.75,4.48-3.87,6.85-.62,1.3-1.06,2.67-1.7,3.95-.78,1.56-2.05,2.81-2.79,4.39s-1.16,3.24-1.86,4.81c-.8,1.78-1.61,3.55-2.34,5.35s-2.38,5,.14,5.85c1.64.52,5.31-1.65,7.22-3.21,1.48-1.22,2.84-2.57,4.35-3.76a39.37,39.37,0,0,0,4.68-3.67c1.55-1.69,3.17-3.37,4.58-5.19.81-3.13.46-7.26,1.49-10.59a83.66,83.66,0,0,1,4.13-9.18c3.66-7.83,8.27-13.09,15.12-18.62,1.42-1.15,2.57-2.59,3.68-3.07,3.71-1.61,8.86,0,11.29,2.24,1.58,1.43,3.61,3,5.46,4.49,2.44,2,5.89,4,6.73,7.24a11,11,0,0,1-.34,5.07c-.42,2-.81,4-1.33,5.9a16,16,0,0,1-2.52,5.8c-.64.78-1.86,1.8-2.87,2.78-1.81,1.77-3.81,3.34-5.72,5a75.2,75.2,0,0,1-7.64,5.91c-1.67,1.14-4,3.54-7,3-2.35-.44-4.1-3-6.24-4-1.45,4.78,1.42,9.43,4,13.29a4.18,4.18,0,0,0,2.6,1.73c2.79.93,5.59-.94,7.84-2.41,3.49-2.28,5.58-5,8.68-7.53,1.66-1.35,3.57-2.51,4.85-3.82A30.21,30.21,0,0,0,411,142.8a45.53,45.53,0,0,1,5.81-7c1.12-1.07,2.55-1.8,3.69-2.87.91-.87,2-2.53,3.36-4.1,3-3.48,4.11-6.41,4.74-11.54.4-3.3.56-6.66,1.1-10.14.44-2.8.73-5.86,1.41-9.13.41-1.92.73-3.49,1.1-6,1.35-9,5.47-17.76,8.11-26.3.67-2.15.86-4.42,1.61-6.55s2-3.92,2.58-6c.52-1.78.75-3.65,1.39-5.41s1.92-3.31,2.85-5,1.64-3.37,2.44-5.05c3.22-6.71,6.37-13.69,9.94-20.4,1.81-3.4,4-6.6,5.53-9.74,1.18-2.41,1.47-6.26,4.58-6.72,2.64-.39,7.22,1.47,8.83,2.7,2.7,2.06.93,8.65.13,12.12a56.54,56.54,0,0,0-1.37,8.48,16.26,16.26,0,0,1-.51,3.54,58.19,58.19,0,0,0-2.19,8.93c-.5,3.3-.86,6.62-1.5,9.9-.35,1.83-1.27,3.38-1.47,5.27-.22,2.13-.24,4.31-1.12,6.32a52.82,52.82,0,0,0-2.88,8.11,28.49,28.49,0,0,1-3,8.16,31.77,31.77,0,0,0-2.81,6.79c-.87,2.52-2.16,4.93-3.25,7.37-1.66,3.74-3.28,7.5-5.2,11.13-3.31,6.26-7.19,12.44-10.94,18.62-.76,1.25-1.28,2.66-1.93,3.74-.88,1.42-2.23,2.28-2.59,3.6-.84,3.13-.43,8.31.19,12.73.43,3,.55,6,.9,9a32.41,32.41,0,0,0,.71,4.15c.2.83.44,2.64,1.4,3a14.42,14.42,0,0,0,5.08.19,10.3,10.3,0,0,0,4.86-1.44c1.21-.78,2.52-1.4,3.8-2.07a28.88,28.88,0,0,1,3.54-2.07c3-1.06,5.41-3.62,7.57-5.88,1.57-1.63,3.55-5.63,5.9-6,3.08-.49,4.38,3.06,3.3,6a36.91,36.91,0,0,1-3.37,6,27.63,27.63,0,0,1-4.92,6.55c-2.31,2.11-4.81,4-7.27,5.93-.62.49-1,1.17-1.68,1.64s-1.52.74-2.18,1.26a39.37,39.37,0,0,1-4.47,2.67,16.08,16.08,0,0,1-5,2.26,37.92,37.92,0,0,1-7.45.53c-1.74,0-3.53.37-5.17-.41s-3.09-1.92-4.76-2.67c-2.38-1.07-3.48-3.54-4.14-5.88a44.85,44.85,0,0,1-1.54-9c-.11-1.73-.19-3.46-.21-5.19-8.66,6.18-18.67,18.28-28.36,24.5-2,1.31-7.22,1.75-10.15,1-2.43-.63-4.32-2.49-6.68-3.35a10,10,0,0,1-4.61-2.87c-1.58-1.86-2.79-4-4.26-5.9a12.62,12.62,0,0,0-2.83-2.82c-.29-.2-2.08,1.15-2.37,1.32a14,14,0,0,0-2.57,2.18c-.63.6-1.26,1.18-1.93,1.75a30.32,30.32,0,0,1-4.51,3.22,28.72,28.72,0,0,1-11.2,3.87,17.07,17.07,0,0,1-3.5,0,15.62,15.62,0,0,1-6.51-2.28c-1.78-1-3.89-1.88-5-3.75a9.08,9.08,0,0,1-1.1-3.78c-.11-1.74.81-4.24,1.26-6.39a51.53,51.53,0,0,1,1.49-6.21c1.19-3.42,3.2-6.82,4.43-10.27.88-2.44,2.1-4.73,3.11-7.12.92-2.18,1-4.54,1.35-6.85.24-1.75.74-4.23-.72-5.62-2.66-2.55-7.39-.62-9.94,1-1.35.84-2.73,1.67-4.1,2.49a11.79,11.79,0,0,0-3.14,2.09c-.61.74-1.09,1.57-1.75,2.3-.85,1-1.87,1.72-2.71,2.68a8.22,8.22,0,0,0-1.49,3.23c-.32,1-.68,1.89-1.06,2.82-.75,1.82-1.58,3.61-2.31,5.44-.92,2.28-2.16,4.85-3.19,8-1.48,4.59-3.5,9.89-4.6,15.08-.54,2.57-.44,5.37-1.32,7.87-.29.81-1.68,2.8-2.65,3s-3.08-1.07-4.55-1.64c-3.08-1.24-5.84-1.5-6.59-5.44-2.5.77-4.23,2.15-6.36,3.34-.81.46-1.71,1.27-2.6,1.77a10.59,10.59,0,0,1-3.16.95,11.08,11.08,0,0,0-1.6.42,8.7,8.7,0,0,1-3,.74c-1.25,0-2.51,0-3.76,0-2.5-.12-5-.41-7.49-.69-1.43-.16-2.82,0-4.18-.59a16.31,16.31,0,0,1-3.23-2.17,29.69,29.69,0,0,1-5.8-6.2,22.34,22.34,0,0,1-3.35-8.67c-1.94,1.16-3.35,3.33-4.71,5.26s-2.44,3.93-3.83,5.82c-2.72,3.68-5.47,8-8.79,10.67C226,179,219.78,181,215,180.24c-9.08-1.37-14.61-8.53-19.25-15.28-3.34,3-7.21,7.15-11.1,10.48-2.69,2.31-3.78,3.62-7.25,5.1a17,17,0,0,1-7.11,1.15,25.51,25.51,0,0,1-3.81-.41,6.86,6.86,0,0,1-3.13-1.05,7.89,7.89,0,0,1-1.95-2.93,25.63,25.63,0,0,1-2-8c-.16-1.58-.23-3.18-.25-4.78a19.09,19.09,0,0,1,.74-5.29c.44-1.51,1.23-3.9,1.75-5.61a39,39,0,0,1,2.92-6.56c.91-1.65,3.49-5.07,3.38-6.18-.3-2.89-5.12-2.52-6.83-3.52-2.57,1.94-3.63,5.16-5.51,7.85a47.21,47.21,0,0,0-2.54,4c-.78,1.4-1.33,3-2.14,4.39s-2.06,2.6-2.9,4-1.62,2.9-2.51,4.21c-1.92,2.8-3.26,5.88-5,8.65a53,53,0,0,1-5.92,7.89c-2.4,2.59-5,5.61-8.26,7.07a16.77,16.77,0,0,1-5.39,1.06,54.18,54.18,0,0,0-6.31,1,23.85,23.85,0,0,1-6.88.78c-1.61-.15-3.38-1.15-5-1.82A21.27,21.27,0,0,1,99,184.88a10.64,10.64,0,0,1-2.85-3.4c-.64-1-1.55-1.7-2.18-2.66-3.42-5.28-4-12.64-4.06-20.31-4.84-.45-9.79-.78-14.37-1.53-.43-.07-3.55,10.88-3.86,11.91-1.22,4.19-2.3,8.41-3.17,12.68-.36,1.78-.38,3.63-.91,5.37-.24.8-.67,1.5-1,2.29-2.46,6.52-4.74,13-6.56,19.73a16.57,16.57,0,0,1-1.36,3.39c-.86,1.64-1.92.9-3.44,1.37-.68.2-1.09.77-1.88.56a2.17,2.17,0,0,1-1.33-1.7c-.43-1.7.13-3.52.14-5.24,0-2.64-.73-5.35-.58-8.1.11-2.09.46-4.22.64-6.34a83.43,83.43,0,0,1,1.62-9.15c1-4.86,1-9.7,2-14.2.92-4.29,2-8.91,3.15-12.84a130.67,130.67,0,0,0-25.78,5.85c-1.08.68-.85,2.28-1.29,3.89-.51,1.78-1.57,3.54-2,5.62-1,5.2-2.36,10.62-3,16.18-.37,3-.64,5.59-1.27,8.49-1.51,7-2.8,14-4.48,20.95a6,6,0,0,1-.7,2.47c-.56.66-1.51.66-2.11,1.29-.82.84-.79,2.82-1.93,3.33-.81.37-3.79-.53-4.48-1.18s-.68-2.11-.84-2.95a31.67,31.67,0,0,1-.29-7,78.08,78.08,0,0,1,1.34-10.54c.35-1.92.7-3.83,1-5.77,1.44-9.23,1.84-18.09,3.47-26.68-2.28.63-6.08,2.3-8.82,1.7-1.82-.41-4.49-3-5.52-5.11a21.54,21.54,0,0,1-1.83-5.89c-.14-.81-.7-2.29-.41-3.08s.91-.7,1.62-.53c1.55.38,2.63-.38,4.06-.93,1.68-.65,3.38-1.21,5.09-1.77a41.94,41.94,0,0,0,9.56-4c.68-2.61.91-5.45,1.51-8.09,1.33-5.82,2.63-11.29,3.95-17.53.5-2.39.62-5,1.15-7.43.17-.75.64-1.4.8-2.16s0-1.65.19-2.47a28.09,28.09,0,0,1,.86-3.11,59.15,59.15,0,0,0,1.8-6.41c1-5.62,1.3-11.66,2.7-17.41,1.26-5.18,3.55-10.4,4.29-16.1.3-2.33.15-4.54.8-6.77.34-1.15,1.29-2.14,1.57-3.29s0-2.44.28-3.58C42.38,46.57,46.13,36.92,48.83,27c.36-1.36.71-2.74,1-4.12s.31-2.78,1-4.1a20.12,20.12,0,0,0,1.71-4.16c.84-3.07,1.15-6.25,1.89-9.35A18.75,18.75,0,0,1,56.18.58c.68-1.23,3.45-.18,4.28.2s1.36.7,2.07,1a6.36,6.36,0,0,1,2.91,1.59,20.28,20.28,0,0,0,2.29,2.25,12.26,12.26,0,0,1,4,5.06,10.77,10.77,0,0,1,.46,4.48C72.11,16.54,71,18,70.56,19.46c-1.16,3.87-2,7.51-3.3,11.2-3.51,10.28-7.09,21.16-10.71,31.78-.58,1.68-1.38,3.5-1.8,5.18C53.58,72.31,53.39,77.3,52,81.91a66,66,0,0,0-2.09,6.47c-.49,2.3-1.33,4.39-1.86,6.66-2.66,11.11-4.74,22.31-7.66,33.15C40.24,135.09,37.5,139.82,36.65,146.12ZM465.28,40.51c-3.23,7-6.3,13.05-8.09,21.36-.49.68-.55,2-1.08,3.36-.14,3.33-8.94,24.92-8.7,27.94,2-2.9,9.75-25.6,11.4-28.82.09-.65.31-.62.26-1.11,3.6-6.87,5.25-14.7,6.83-22.79ZM124.53,125.25a113.12,113.12,0,0,0-12,13.92c-.86,1.13-2.37,2.4-2.13,4,8.33-2.3,14.56-9,14.78-17.95Zm83.78,40.84c1.43,1.1,3.12,2.14,4,2.06,1.13-.08,3.07-1.92,3.92-2.67,2.38-2.16,4.31-5,4.46-8,.37-7.79-2.1-16.93-2.17-24.46-.27,0-.32-.23-.64-.14-6.64,7.38-9.68,17.7-15.72,25.57,1.63,1.61,2.5,3.78,3.9,5.56A13.82,13.82,0,0,0,208.31,166.09Zm175.23-30.43c2.82-1.11,14.95-12.53,14.22-20C392.69,114.46,384.65,132.48,383.54,135.66Z"/><path class="cls-1" d="M226.21,54.39c4.7-.11,9.53.19,13.54.19A9.24,9.24,0,0,1,240,59c-1.08.59-3,.34-4.59.38.18,8.62-.12,18.3,0,27.48a4.84,4.84,0,0,1-4.57,0V59h-5.16C225.17,57.75,224.8,54.83,226.21,54.39Z"/><path class="cls-1" d="M254.44,55c.3,9.52.34,21.91,0,32.05-1.12,1-2.82.15-4.19-.19-.81-4.15-.19-9.73-.38-14.5-.65-.45-2.1-.07-3.06-.19-.22,4.73.47,10.39-.37,14.5-1.54.32-3.82.72-4.78-.39a288.35,288.35,0,0,1,.57-31.09,9.3,9.3,0,0,1,4.58.19V67.56c.64.44,2.09.06,3.06.19.2-4.11-.46-9.1.38-12.59A6.24,6.24,0,0,1,254.44,55Z"/><path class="cls-1" d="M270.09,55.92c.32,1,.39,3.07-.38,3.63-1.42.42-3.61.07-5.34.18-.45,2.49-.06,5.79-.19,8.59,1.67.11,3.79-.24,5.15.19.23,1,.48,3.31-.2,4-1,.72-3.18.25-4.76.38-.45,2.74-.06,6.3-.19,9.35,1.75.09,3.89-.2,5.33.19.11,1,.65,2.48.2,3.44a25.21,25.21,0,0,1-10.31,0c-.18-6.63-.38-13.4-.38-20.61,0-3.38-.44-6.76.58-9.55C262.29,55.15,267.68,55,270.09,55.92Z"/><path class="cls-1" d="M258.9,196.35c3.88-.5,5.64,2.28,6.27,5.66.81,4.41.38,8.86.29,13.31,0,1.39,0,2.76.09,4.15.15,2.34,1.09,4.86-.43,7a7.8,7.8,0,0,1-5.82,2.86c-1.27,0-4.28-.49-5.49-1.76-2.23-2.34-1.49-17.61-1.18-23C252.89,200.16,254.28,197,258.9,196.35Zm2.29,5.13a1.78,1.78,0,0,0-1.1-1,2.38,2.38,0,0,0-2.94,1.39c-1,2.37-.2,8.13-.2,12.36,0,1.6-.21,3.19-.18,4.79,0,1.94-.11,4.16.8,5.93a1.4,1.4,0,0,0,1.37.62c2,0,2-1.56,2.33-3.21a32.11,32.11,0,0,0,.5-5.79c.1-3.41-.06-6.81-.23-10.2-.05-.89-.12-1.78-.16-2.67A7.09,7.09,0,0,0,261.19,201.48Z"/><path class="cls-1" d="M247.73,209.31c-1.21-.31-3,0-4.12-.4a9,9,0,0,1-.53-3c-.08-1.59.4-3.83-1.73-4.34-1.95-.45-2.86,1.94-3,3.47-.28,2.45,0,7.45.2,11.57.14,3.31-.52,7.52,1.57,8.23,4.3,1.49,2.46-5.59,3.53-8.62a6.82,6.82,0,0,1,3.53,0c1.11,3.67,1,9.58-1.18,11.57-3,2.79-9.67,1.61-11.18-1.38a12.64,12.64,0,0,1-1-3.92c-.66-6.63.43-17,.78-22,1.38-3.47,5.35-4.86,9.22-3.73a5.5,5.5,0,0,1,2.4,1.6,5.74,5.74,0,0,1,1.56,2,13.08,13.08,0,0,1,.32,2.87C248.11,203.71,248,209.37,247.73,209.31Z"/><path class="cls-1" d="M142.2,207c-.82.25-2.79.44-3.33-.2-.55-1.69.62-4.39-.59-5.68-4.45-1.92-4.48,4-2.55,7.06s6.55,7.18,6.87,12.16c.24,3.8-1,9.33-5.82,9.27-5.84-.08-6.43-7.17-5.36-11.44a8.22,8.22,0,0,1,3.72-.19c.65,2.3-.76,6.64,2,6.86,1.77-1,1.43-3.91,1.18-5.1a12.56,12.56,0,0,0-1.37-3.32c-1.73-3-5.13-6-5.89-8.44-1-3.12-.19-7.91,1.18-9.41,1.59-1.76,6.27-2.63,8.83-1.18C143.26,198.6,143.12,204,142.2,207Z"/><path class="cls-1" d="M150.83,197.73c.53,3.06-.19,7.21-.19,11.58s-.68,8.9-.2,12.16c.31,2,1.78,5.17,4.71,3.52,1.37-3.52.78-8.62.78-13.33s0-9.73,0-13.74a4.78,4.78,0,0,1,4.12-.19c-.07,5.53.37,11,.34,16.57,0,3.64.57,8.39-.78,11.85-1.53,3.92-8.58,4.92-11.13,1.4-.92-1.27-1.72-4.7-2-7.45-.26-3,0-7.78,0-12,0-3.95-.48-10.06,1.18-11C148.48,197,150.23,197.09,150.83,197.73Z"/><path class="cls-1" d="M211.64,197.92c1.38,3.13,2.24,6.79,3.53,10a44,44,0,0,0,3.53-9.61c1.05-.16,2.87-.86,3.73,0,0,2.64-1.42,5.18-2.56,7.84-.87,2.06-2.7,5.15-3.14,7.45-.95,5.14,1.28,10.61-.19,15.89a11,11,0,0,1-3.53,0c-.22-4.45-.37-9.05-.19-13.13a15.32,15.32,0,0,0,.19-3.15c-.19-1.16-1.23-2.68-1.76-4.12s-.89-3.11-1.38-4.5c-.7-2-2.28-3.81-1.76-6.68C209,197.15,210.57,197.74,211.64,197.92Z"/><path class="cls-1" d="M285.19,197.54c2.07.13,4.15-.07,6.21,0,2.73,0,4.62.63,5.36,3.5a23.3,23.3,0,0,1,.64,8.19,7.15,7.15,0,0,1-1.23,3.45c1.49,1,.94,3.25,1.18,6.08.35,4.13,1.3,9.2-2.55,10.59-2.42.88-7.21.07-10.2-.19-.33-9.88-.33-21.12,0-31A1,1,0,0,1,285.19,197.54Zm4.11,3.91v9.62a13.61,13.61,0,0,0,2.39-.2c1.12-.27,1.2-1,1.19-2.06,0-2.08.63-5.5-1-7.15A8.54,8.54,0,0,0,289.3,201.45Zm3.95,14.32a2.06,2.06,0,0,0-.71-.9c-.51-.35-3.24-1.21-3.24.12v10.2a6.37,6.37,0,0,0,3.91,0c.16-.06.09-4.66.11-5.14C293.39,218.85,293.78,217,293.25,215.77Z"/><path class="cls-1" d="M314.81,213.81c2.45,1.3-.26,11.54,2.55,15.31-1.21.81-3.86.19-5.69.38-1.17-3.85.38-10.75-1.09-14.31a4.61,4.61,0,0,0-2.24-.2c-.46,4.19-.07,9.22-.2,13.73a13.26,13.26,0,0,1-5.1,0c.22-10.06-.49-21.5.39-30.6,4.63-.55,11.83-1.49,12.75,3.33C316.8,204.65,316.12,212,314.81,213.81Zm-6.87-12c-.05,3.45,0,6.79.2,10,.89,0,2.85.08,3.43-.74.35-.51.11-1.48.13-2.05,0-.78.08-1.56.1-2.33a14.43,14.43,0,0,0-.23-2.78c-.08-.52,0-1.56-.38-2C310.51,201.18,308.8,202,307.94,201.85Z"/><path class="cls-1" d="M355,229.5c-1-2.17-.58-5-.58-7.64,0-7.65-.28-16.58.39-23.74,3.89-.7,9.1-.67,11,1.76a6.59,6.59,0,0,1,.89,4.15c-.1,1.79-.16,3.58-.17,5.37,0,3.92.13,7.83.1,11.74a32.16,32.16,0,0,1-.23,6.21C365.63,230.9,358.6,230.07,355,229.5Zm3.74-27.65c.12,7.58-.26,15.69.19,22.94,1.27-.1,3,.24,3.92-.18-.66-7,.41-15.71-.58-22.37C361.49,201.72,359.53,202.37,358.75,201.85Z"/><path class="cls-1" d="M186.34,214.6c-.59,4.26.18,9.86-.4,14.12-.84.85-3.13,1.13-4.12.2-.57-9.29-.83-21.62.2-30.6,1.38,0,8.91-1.19,10.79.2.57.41,1.29,2.68,1.37,3.14.62,3.38.42,10.74-1.18,12.15S188.83,214.62,186.34,214.6Zm3.33-11.76c-1.29.12-3-.21-3.73,0a68.78,68.78,0,0,1,.2,7.84c2,.09,3.31.33,4.31-.79C190.26,207.45,191.49,204,189.67,202.84Z"/><path class="cls-1" d="M202.81,198.32c1.13,7.43.37,17.26.59,26.09,1.4.22,5-.44,6.47.38a14.88,14.88,0,0,1-.2,4.52c-3.41.27-8.34.56-11-.59.22-10-.46-21,.39-30.4A6,6,0,0,1,202.81,198.32Z"/><path class="cls-1" d="M327,198.12c.6-.06.9,4.59.95,5a49.66,49.66,0,0,0,1.3,7.63c.58,2.25,1.23,4.49,1.68,6.78.39,2.08.38,4.2.78,6.28.34,1.8,1.42,3.68.78,5.49a4.71,4.71,0,0,1-3.91-.59c-.33-2-.53-4.19-1-6.08-1.08-.8-2.79-.11-4.31-.2-.26,2.42-.23,5.13-1.17,6.87a7.6,7.6,0,0,1-3.73,0,298.29,298.29,0,0,1,4.51-31c.21,0,.13-.39.39-.4A34.15,34.15,0,0,0,327,198.12Zm-3.14,20h2.95a69.46,69.46,0,0,0-1.39-9.21C324.68,211.78,324.35,215.05,323.83,218.12Z"/><path class="cls-1" d="M349.33,198.72c0,4.66,0,10.18,0,15.68s.57,11.11-.78,15.3a23,23,0,0,1-4.32-.39c-1-5.34-3.23-11.12-4.31-17.07-.67,5.45.54,11.75-.2,17.26-1.23.41-3.56.33-4.32-.38-1-8.83.1-21.17-.2-30.6a14.26,14.26,0,0,1,4.37,0,52.62,52.62,0,0,1,5.05,16.11c.7-4.92-.43-11.68.59-16.28C346.67,198.07,347.38,198.35,349.33,198.72Z"/><path class="cls-1" d="M166.33,198.12c3.54.78,7.15-1.21,9.61.4,1.65,1.09,2.93,12.63,1.18,14.9s-4.27,1.31-7.06,1.57c-.59,4.12.19,9.61-.4,13.73-1.11.16-2.89.35-3.92-.4v-29.6A1,1,0,0,1,166.33,198.12Zm3.53,12.17c1.41-.12,3.3.28,4.12-.4-.25-2.22-.11-4.86-.59-6.87a8.7,8.7,0,0,0-3.53-.38Z"/><path class="cls-1" d="M272.45,223c-.16,2.2.47,5.19-.8,6.28a4.32,4.32,0,0,1-3.72-.59c.1-2-.22-4.4.2-6.08C269.36,221.81,271.41,222.48,272.45,223Z"/></g></g></svg>