<svg xmlns="http://www.w3.org/2000/svg" viewBox="0 0 655.07 82.28"><defs><style>.cls-1{fill:#fff;}</style></defs><g id="Layer_2" data-name="Layer 2"><g id="Artwork"><path class="cls-1" d="M116.15,1.12H14.74L0,77.52s26.34,3,37.09-29.1C40.2,61.87,49.65,82.28,65.44,82.28S90.68,61.87,93.79,48.42c10.75,32.1,37.09,29.1,37.09,29.1Z"/><path class="cls-1" d="M187.25,77.5V1.09h29.14c7.42,0,12.12,2.07,15.72,5.35A19.69,19.69,0,0,1,238.44,21a19.06,19.06,0,0,1-6,13.64,22.55,22.55,0,0,1,4.15,37.77c-3.93,3.28-9,5.13-16.7,5.13Zm27.17-46.39c6.11,0,8.73-1.2,10.48-3.17a9.77,9.77,0,0,0,0-13.32c-1.75-2-4.37-3.17-10.48-3.17H198.16V31.11Zm3.5,36c6.88,0,10.15-1.53,12.55-3.93a13,13,0,0,0,3.6-9,12.74,12.74,0,0,0-3.6-8.84c-2.4-2.4-5.68-3.93-12.55-3.93H198.16V67.13Z"/><rect class="cls-1" x="270.88" y="1.09" width="10.92" height="76.41"/><path class="cls-1" d="M400.73,77.5V1.09h19.58c12.12,0,20,2.62,26.2,7.2a38.47,38.47,0,0,1,15.28,31,38.4,38.4,0,0,1-15.17,31c-6.22,4.59-14.19,7.2-26.31,7.2H400.73Zm40.86-59.6c-4.8-4.15-11.13-6.44-21.83-6.44h-8.12V67.13h8.12c10.7,0,17-2.29,21.83-6.44a28.45,28.45,0,0,0,9.28-21.39,28.48,28.48,0,0,0-9.28-21.4"/><rect class="cls-1" x="490.95" y="1.09" width="10.92" height="76.41"/><polygon class="cls-1" points="575.03 31.11 575.03 41.48 546.58 41.48 546.61 67.13 583.79 67.13 583.79 77.5 535.69 77.5 535.69 1.09 581.56 1.09 581.56 11.46 546.61 11.46 546.58 31.11 575.03 31.11"/><path class="cls-1" d="M612.16,58.4c4.48,5.46,10.81,9.82,18.67,9.82,7.09,0,13.32-4.59,13.32-11.46,0-11.68-16.16-13-26.31-19.65-5.46-3.6-9.71-8.84-9.71-16.81C608.13,9.17,618,0,631.27,0a31.41,31.41,0,0,1,20.52,7.64l-6.44,8a21,21,0,0,0-13.64-5.24c-6.33,0-12.66,3.6-12.66,10.26,0,9.71,16.26,11.79,26.09,18.34,5.13,3.38,9.93,8.73,9.93,17.46,0,13.43-10.37,22.16-23.69,22.16a34.26,34.26,0,0,1-26.74-12.77Z"/><path class="cls-1" d="M356.66,46.07c12-3.94,15.47-15.14,15.47-22.16a22.76,22.76,0,0,0-8.41-17.69c-3.93-3.27-9-5.13-16.7-5.13H315.54V77.51h10.92v-30h18.15l17.92,30H375.6Zm-30.2-34.6h18.6c6.87,0,10.14,1.52,12.55,3.92a13,13,0,0,1,3.6,9,12.73,12.73,0,0,1-3.6,8.84c-2.41,2.4-5.68,3.92-12.55,3.92h-18.6Z"/></g></g></svg>