<svg xmlns="http://www.w3.org/2000/svg" viewBox="0 0 455.12 63.25"><defs><style>.cls-1{fill:#fff;}</style></defs><g id="Layer_2" data-name="Layer 2"><g id="_Layer_" data-name="&lt;Layer&gt;"><path class="cls-1" d="M4.12,27.82c0-2.53,0-2.86-1.76-4l-.58-.39a.89.89,0,0,1,.06-1.17,38.59,38.59,0,0,0,6.44-3.51.73.73,0,0,1,.78.46,29.39,29.39,0,0,0-.26,3c0,.46.13.85.58.85.85-.39,4.94-3.05,9.1-3.05,6.57,0,10.79,5.33,10.79,11.89,0,9-6.63,15.54-15.86,15.54a24.43,24.43,0,0,1-3.57-.26c-.59.13-.91.45-.91,1.82v6.82c0,4.62.13,5.2,2.47,5.53l2.53.32a1.13,1.13,0,0,1-.13,1.63c-3.12-.13-5-.2-7.28-.2s-4.29.07-6.11.2a1.15,1.15,0,0,1-.13-1.63l1.37-.19c2.4-.33,2.47-1,2.47-5.66ZM8.93,39.91a4.19,4.19,0,0,0,2,3.9,8.51,8.51,0,0,0,4.68,1.43c5.33,0,8.45-4.94,8.45-11.7,0-5.2-2.93-10.46-8.78-10.46A8,8,0,0,0,9.71,24.9c-.59.71-.78,1.68-.78,3.83Z"/><path class="cls-1" d="M61.51,33.41c0,8.13-5.59,14-13.71,14-7.48,0-13.33-5.27-13.33-13.39A13.66,13.66,0,0,1,48.32,20,13,13,0,0,1,61.51,33.41Zm-14-11.5c-4.29,0-7.48,4.09-7.48,11.24,0,5.92,2.67,12.29,8.39,12.29s7.47-6,7.47-11C55.92,28.93,53.71,21.91,47.54,21.91Z"/><path class="cls-1" d="M76.14,23.6C75,23.6,75,23.79,75,25.16V37.31c0,3.77.45,7.22,4.74,7.22a4.88,4.88,0,0,0,1.76-.33c.58-.19,1.43-.91,1.62-.91.52,0,.78.72.65,1.11a9,9,0,0,1-6.82,3c-5.59,0-6.76-3.12-6.76-7V25.48c0-1.75-.07-1.88-1.37-1.88H67a1.09,1.09,0,0,1-.19-1.37,13,13,0,0,0,4.16-2,16.27,16.27,0,0,0,2.73-3.84c.32-.13,1.1-.13,1.36.33v2.92c0,1.17.07,1.24,1.17,1.24h7.22a2.07,2.07,0,0,1,.06,2.73Z"/><path class="cls-1" d="M96.74,23.6c-1.1,0-1.17.19-1.17,1.56V37.31c0,3.77.46,7.22,4.75,7.22a4.83,4.83,0,0,0,1.75-.33c.59-.19,1.43-.91,1.63-.91.52,0,.78.72.65,1.11a9,9,0,0,1-6.83,3c-5.59,0-6.76-3.12-6.76-7V25.48c0-1.75-.06-1.88-1.36-1.88H87.58a1.09,1.09,0,0,1-.2-1.37,12.86,12.86,0,0,0,4.16-2,16,16,0,0,0,2.73-3.84c.33-.13,1.11-.13,1.37.33v2.92c0,1.17.06,1.24,1.17,1.24H104a2.08,2.08,0,0,1,.07,2.73Z"/><path class="cls-1" d="M114.1,29.84c-1.69,0-1.76.13-1.76,1.75,0,6.57,3.84,12.16,10.79,12.16,2.15,0,4-.65,6-3.19a.86.86,0,0,1,1.17.78c-2.14,4.42-6.82,6-10.2,6a11.66,11.66,0,0,1-9.43-4.29,13.81,13.81,0,0,1-2.73-8.45c0-8,5.27-14.69,13.07-14.69,5.59,0,9.23,3.83,9.23,7.73a4,4,0,0,1-.26,1.69c-.2.39-1.11.46-3.84.46Zm4-1.95c4.81,0,6.24-.27,6.76-.65.19-.13.39-.39.39-1.24,0-1.82-1.24-4.09-5-4.09s-7.15,3.5-7.21,5.65c0,.13,0,.33.45.33Z"/><path class="cls-1" d="M138.41,27.82c0-2.53,0-2.86-1.76-4l-.58-.39a.89.89,0,0,1,.06-1.17A49.82,49.82,0,0,0,142.7,19c.32.07.52.2.52.46v3.77c0,.33.06.52.19.59,2.28-1.89,4.75-3.9,7.15-3.9a2.69,2.69,0,0,1,2.93,2.6,2.88,2.88,0,0,1-2.8,3,2.51,2.51,0,0,1-1.43-.45,5.32,5.32,0,0,0-2.86-1,2.9,2.9,0,0,0-2.34,1.3c-.65.91-.84,2.8-.84,5V39.2c0,4.68.13,5.46,2.6,5.65l2.34.2a1.14,1.14,0,0,1-.13,1.62c-3.06-.13-4.94-.19-7.22-.19s-4.29.06-6,.19a1.14,1.14,0,0,1-.13-1.62l1.24-.2c2.4-.39,2.47-1,2.47-5.65Z"/><path class="cls-1" d="M157,59.87a2.42,2.42,0,0,1,2.6-2.6h1.24A2.35,2.35,0,0,0,163,56.1a40.88,40.88,0,0,0,3.77-7.22,9.64,9.64,0,0,0,.65-2.79c0-1.3-.26-2.08-1.1-4.49l-5.07-13.91c-1.11-3.05-1.56-4.61-3.84-5.07l-1.62-.33c-.39-.32-.33-1.42.19-1.62,2.08.13,4,.2,6.18.2,1.75,0,3.57-.07,5.65-.2a1.08,1.08,0,0,1,.13,1.62l-1.62.33c-.91.2-1.43.39-1.43.85a49.33,49.33,0,0,0,1.88,6.11l2.08,6a36.17,36.17,0,0,0,1.89,4.61,32.17,32.17,0,0,0,2.4-4.81l2.21-5.13c1.43-3.38,2.28-5.79,2.28-6.5,0-.46-.39-.91-1.56-1.11l-2-.33c-.45-.32-.39-1.42.13-1.62,2.08.13,4,.2,5.72.2s3.12-.07,4.94-.2a1.08,1.08,0,0,1,.13,1.62l-1.1.2c-2.15.39-3.32,2.28-5.53,6.89l-3.64,7.48c-2.14,4.35-7.47,15.66-10.66,22.75-1.1,2.47-2.66,3-4.16,3A2.61,2.61,0,0,1,157,59.87Z"/><path class="cls-1" d="M206.32,9.82c0-3.84-.07-4.23-2-5.4L203.65,4a1,1,0,0,1,0-1.3A58.78,58.78,0,0,0,210.74,0a.71.71,0,0,1,.65.39c-.13,2.27-.26,5.2-.26,8.06V20.74c0,1.1.26,1.36.65,1.36A15,15,0,0,1,219.25,20c7.41,0,12.42,5.58,12.42,12.74,0,8.64-6.24,14.69-14.95,14.69a16.54,16.54,0,0,1-5.53-.85,20.4,20.4,0,0,0-2.73-.84,2,2,0,0,0-1.36,1c-.07.07-.13.07-.26.07a.71.71,0,0,1-.65-.39c.06-.91.13-2.15.13-5.53Zm4.81,27.82a9,9,0,0,0,1.62,5.65,6.18,6.18,0,0,0,4.94,2.15c6.11,0,8.52-5.2,8.52-10.79,0-6.7-3.45-11.9-9.88-11.9a8.54,8.54,0,0,0-4.42,1c-.65.46-.78,1.17-.78,3.71Z"/><path class="cls-1" d="M250,33c1-.32,1-.91,1.1-1.88l.07-3c.06-2.41-.72-5.66-4.75-5.66-1.82,0-4,.91-4.16,2.92-.06,1.05-.13,1.83-.65,2.21a6.9,6.9,0,0,1-3.7,1.24A.82.82,0,0,1,237,28c0-3.38,7.34-8,12.09-8s7,2.73,6.76,7.6l-.39,11.31c-.13,3,.45,5.66,3,5.66a3.78,3.78,0,0,0,1.62-.39c.33-.2.65-.46.85-.46s.45.39.45.85a6.82,6.82,0,0,1-5.46,2.86,5.18,5.18,0,0,1-4.22-2c-.26-.39-.65-.91-1-.91a10.08,10.08,0,0,0-2.54,1.3,9.62,9.62,0,0,1-4.68,1.63,6.72,6.72,0,0,1-4.55-1.5,6.09,6.09,0,0,1-2-4.55c0-2.53,1.23-4,5.39-5.52Zm-4,11.44a7.33,7.33,0,0,0,4-1.62c.78-.78.85-1.69.85-3.06l.13-3.83c0-.72-.26-.85-.65-.85a12.29,12.29,0,0,0-2.67.65c-3.83,1.3-5.72,2.28-5.72,4.81A3.92,3.92,0,0,0,246,44.46Z"/><path class="cls-1" d="M267.87,27.82c0-2.53,0-2.86-1.75-4l-.59-.39a.88.88,0,0,1,.07-1.17A49.72,49.72,0,0,0,272.16,19c.33.07.52.2.52.46v3.77c0,.33.07.52.2.59C275.15,22,277.62,20,280,20a2.69,2.69,0,0,1,2.92,2.6,2.87,2.87,0,0,1-2.79,3,2.48,2.48,0,0,1-1.43-.45,5.34,5.34,0,0,0-2.86-1,2.9,2.9,0,0,0-2.34,1.3c-.65.91-.85,2.8-.85,5V39.2c0,4.68.13,5.46,2.6,5.65l2.34.2a1.12,1.12,0,0,1-.13,1.62c-3.05-.13-4.94-.19-7.21-.19s-4.29.06-6,.19a1.12,1.12,0,0,1-.13-1.62l1.23-.2c2.41-.39,2.47-1,2.47-5.65Z"/><path class="cls-1" d="M290.1,27.82c0-2.53,0-2.86-1.75-4l-.59-.39a.88.88,0,0,1,.07-1.17,35.28,35.28,0,0,0,6.5-3.19.76.76,0,0,1,.71.46c-.13,1.5-.13,2.47-.13,3.06a.68.68,0,0,0,.72.71c2.73-1.69,5.78-3.31,9.1-3.31,5.39,0,7.6,3.7,7.6,8.06V39.2c0,4.68.13,5.33,2.47,5.65l1.43.2a1.12,1.12,0,0,1-.13,1.62c-2-.13-3.83-.19-6.11-.19s-4.29.06-6,.19a1.12,1.12,0,0,1-.13-1.62l1.23-.2c2.41-.39,2.47-1,2.47-5.65V29.51c0-3.7-1.69-6.43-6.11-6.43a7.09,7.09,0,0,0-5.52,2.27c-.85,1.11-1,2-1,3.9v10c0,4.68.13,5.26,2.47,5.65l1.17.2a1.12,1.12,0,0,1-.13,1.62c-1.75-.13-3.64-.19-5.91-.19s-4.29.06-6.11.19a1.12,1.12,0,0,1-.13-1.62l1.36-.2c2.41-.32,2.47-1,2.47-5.65Z"/><path class="cls-1" d="M341.13,9.82c0-3.84-.07-4.23-2-5.4L338.46,4a1,1,0,0,1,0-1.3,45.4,45.4,0,0,0,7-2.73.71.71,0,0,1,.65.39c-.06,1.95-.19,5.2-.19,8.06v22.3c0,.84.06,1,1.17,1,1.43,0,2.66-.71,4.42-2.53l2.66-2.86c1.82-2,2.28-2.67,2.28-3s-.33-.51-1.43-.64l-1.56-.2c-.59-.2-.59-1.43,0-1.62H355a101.71,101.71,0,0,0,10.34-.52c.45.19.52,1.3.13,1.62l-2.08.39a9.36,9.36,0,0,0-4.1,2.28c-2.53,2-4.74,4.35-5.91,5.46-.78.71-.85,1-.46,1.56,1.11,1.49,2.15,2.73,4.36,5.2,2.53,2.86,4.81,5.39,6.11,6.63a6.63,6.63,0,0,0,3.38,1.43l.91.13c.45.32.39,1.43-.13,1.62-1.89-.13-4.1-.19-6.18-.19-2.6,0-4.87.06-6.76.19a1.09,1.09,0,0,1-.13-1.62l1.17-.2c1-.13,1.63-.26,1.63-.65s-.26-.84-1.11-1.82l-6.95-8.06a2.65,2.65,0,0,0-2-.91c-1.17,0-1.23.2-1.23,2.21V39.2c0,4.68.13,5.33,2.47,5.65l1.56.2a1.14,1.14,0,0,1-.13,1.62c-2.15-.13-4-.19-6.31-.19s-4.29.06-6.24.19a1.09,1.09,0,0,1-.07-1.62l1.44-.2c2.4-.32,2.47-1,2.47-5.65Z"/><path class="cls-1" d="M373.76,27.82c0-2.53,0-2.86-1.76-4l-.58-.39a.87.87,0,0,1,.06-1.17,44.71,44.71,0,0,0,6.7-3.19.61.61,0,0,1,.65.4c-.14,2.27-.27,5.39-.27,8.06V39.2c0,4.68.13,5.33,2.48,5.65l1.36.2a1.14,1.14,0,0,1-.13,1.62c-1.95-.13-3.84-.19-6.11-.19s-4.29.06-6.11.19a1.14,1.14,0,0,1-.13-1.62l1.37-.2c2.4-.32,2.47-1,2.47-5.65Zm5.33-21.06a3.35,3.35,0,0,1-6.7.13,3.36,3.36,0,0,1,3.51-3.44A3.14,3.14,0,0,1,379.09,6.76Z"/><path class="cls-1" d="M412.3,37c0,5.13.06,7.54,1.88,7.54a10.86,10.86,0,0,0,2.8-.65c.45.13.52,1.75-.07,2.08A48.43,48.43,0,0,0,408.33,48c-.39,0-.71-.2-.71-.52V46.41a7.22,7.22,0,0,0-.13-2h-.26c-2.86,2-5.07,3-8.19,3-7.22,0-12-5.66-12-12.48C387,25.81,393.9,20,402.74,20a13.43,13.43,0,0,1,4.36.58c.32,0,.39-.39.39-.91V9.82c0-3.84-.07-4.23-2-5.4L404.82,4a1,1,0,0,1,0-1.3,45.4,45.4,0,0,0,7-2.73.71.71,0,0,1,.65.39c-.06,1.95-.19,5.2-.19,8.06Zm-4.81-9.75a3.79,3.79,0,0,0-.72-2.54A6.75,6.75,0,0,0,401.31,22c-5.91,0-9,5.14-9,10.79,0,5.92,3.32,11.51,9.69,11.51a8,8,0,0,0,5-1.82,4,4,0,0,0,.46-2.41Z"/><path class="cls-1" d="M436.28,21.12a15.16,15.16,0,0,1,1,5.27,1.12,1.12,0,0,1-1.56.19c-1.1-2.85-3.05-4.74-5.72-4.74a3.85,3.85,0,0,0-4.16,4c0,2.66,2.73,4.09,5,5.39,3.44,1.95,6.63,4.16,6.63,8.78,0,4.94-4.55,7.41-9.36,7.41-3.06,0-5.33-.65-7-2a19.36,19.36,0,0,1-.78-6.57,1.1,1.1,0,0,1,1.5-.06c1.1,3.57,3.18,6.69,6.89,6.69,2.34,0,4.35-1.36,4.35-4.16,0-3-2.6-4.61-5-6-3.77-2.14-6.44-4.42-6.44-8,0-4.75,3.9-7.41,8.84-7.41C433.29,20,435.7,20.61,436.28,21.12Z"/><text/><text/><text/><text/></g></g></svg>