<svg xmlns="http://www.w3.org/2000/svg" viewBox="0 0 592.02 219.83"><defs><style>.cls-1{fill:#fff;}</style></defs><g id="Layer_2" data-name="Layer 2"><g id="brand_vector_Image" data-name="brand_vector Image"><path class="cls-1" d="M471.16,214c-.88,0-1.76,0-2.64,0a7.77,7.77,0,0,0-4.37.73,1.83,1.83,0,0,1-1.28.09l1.09-1c-1.57.19-2.73-.24-4,.69-.87.62-2.42.31-3.67.37a3,3,0,0,1-1-.27l.09-.58H445.2c-1.75,0-3.51,0-5.26,0-6.77.07-13.53.2-20.3.21-8.39,0-16.79-.08-25.18-.13a.86.86,0,0,1-.36,0c-1.9-1-3.94-.28-5.9-.39-.85-.05-1.73.53-2.59.54q-11.28.06-22.55,0c-3.27,0-6.53-.2-9.8-.18-8.56,0-17.11.16-25.67.22-3.84,0-7.68,0-11.51,0a1.7,1.7,0,0,1-.72,0c-2.21-1.25-4.65-.66-6.82-.34-5.26.77-10.51.22-15.75.37-3.46.1-6.93-.12-10.4-.16-1.62,0-3.24.14-4.86.12-2.16,0-4.32-.14-6.49-.17-1.85,0-3.7,0-5.55,0-2.6,0-5.19,0-7.79,0-4,0-8,0-12,0a9.7,9.7,0,0,0-2.41.78l.83-.72h-3l0,.2,1.35.42c-.77,0-1.21,0-1.65,0-1,.06-1.91.17-2.87.24s-1.92.89-2.36-.65l.77-.18a2.38,2.38,0,0,0-.46-.15c-1.75.06-3.5.15-5.25.17-.74,0-1.5-.22-2.24-.2-3.32.07-6.65.09-10,.36a15,15,0,0,0-3.55,1.27c-.88.33-1.78.62-2.67.92L212,216l3.79-1.37c-.56-.18-.9-.42-1.14-.34-1.86.63-3.69-.15-5.53-.09-1.23,0-2.46-.19-3.7-.24a1.32,1.32,0,0,0-1.46,1.1,1.91,1.91,0,0,1-1.27,1.13,34.65,34.65,0,0,1-4,.05l-.09-.54,3.11-1.24-.08-.43-7,1,.62-.71a9,9,0,0,0-3.75.5c-1.26.59-3,.28-4.47.36l-.13-.49,1.23-.81-3.61-.6.09.44a5,5,0,0,1-1.56.6c-3.16.11-6.32.19-9.47.16-4.68-.05-9.37-.22-14.05-.31-1.52,0-3,0-4.55,0l-7.5,0c-10.07,0-20.15,0-30.22,0a13.39,13.39,0,0,0-2.74.64l.84-.58H112.3l0,.16,1.34.55a6.54,6.54,0,0,1-1.35,0,4.79,4.79,0,0,0-3.31.18c-1.22.54-1.34.38-2.27-.78l.71-.11c-.19-.11-.27-.2-.35-.2-1.55.07-3.1.22-4.65.21-2.15,0-4.29-.18-6.44-.22a33.13,33.13,0,0,0-5.18.08,25.81,25.81,0,0,0-4.27,1.36c-.53.17-1.06.32-1.57.53-.15.07-.25.29-.46.54l-1.67-.23,5.13-2.12-.08-.31-5.7,1.66-.06-.23,3.25-1.19-.08-.37L75.6,216l1.32-1-.19-.42c-1.49.55-3,1.15-4.48,1.62a13.24,13.24,0,0,1-2.38.3l-.13-.56,3.07-1.47c-2.33-.45-4.63-.85-6.2,1.5l-.91-.84,1.15-.87c-1.63.18-2.82-.08-4.21.68-1.12.62-2.84.13-4.29.08-.08,0-.16-.39-.29-.76H55.83c-.12,0-.32,0-.34-.08-.41-1.6-1.84-.39-2.65-1.16-.27,1.1-.87,1.27-1.79,1.21s-2,.25-2.94.21c-1.38-.06-2.75-.29-4.12-.45a27.06,27.06,0,0,0-3.09-.35,14,14,0,0,0-2.53.43,4.86,4.86,0,0,1-.89.23q-8.28,0-16.56,0a2.74,2.74,0,0,1-.44-.11v-4.74l-4.92-1c1.32-2.06,3.24-.07,4.78-.68l.35-2.92c-1.19.29-2.24-.05-3.49.33s-3-.3-4.53-.73A16.14,16.14,0,0,1,20.2,203l0-.43-1.51-.18c.35-.64.15-1.16-.31-.85-.2.14-.32.41-.67.47,1.21-1.09,2.9-1.84,2.74-3.87l-.32,0c-.1-.38-.38-1-.27-1.08.76-.52.52-1.26.59-1.94s.22-1.24.33-1.84l-1.14.52-.1-.19.95-.89-1.16-.55,0-.19H20.4v-11.2l-1.31.26c2.12-1.12,1-3.11,1.54-4.92-1.19.6-2.67-.81-3.33,1l-.43-.66,1.61-1.91c1.92-.17,2.16-.41,1.56-2l-2.39.85c1.15-1.14,2.92-1.9,2.76-3.94l-.87-.47,1-1.36c-.24-.71.17-1.9-.86-2.76l.65-.72L19,163.71l1.31-.25V86.82L19,87l-.06-.13,1.12-.7V82.37h-3l.27,1-.17.08-.56-.81,1.61-2c2,0,2.25-.33,1.59-1.91l-1.41.44-.09-.32a4.18,4.18,0,0,0,1.87-3.25c-.71-.11-1.36-.28-.6-1s.52-1.49.3-2.3c-.08-.3-.12-.6-.18-.92l-1.23-.17v-.35L20,70.43l0-.26-1.59-.24L18,68.74l.64-1-.12-.11-1.17.92c-.3-.36-.19-.49,1.05-1.83-.56.23-1.12.46-1.69.66s-1,.35-1.73.59l.62.5v1.17l-.3.15-.91-2.26-.34.12.26-1.44c1-.16,2.4,0,2.12-1.64a8.74,8.74,0,0,0-1.54,0,21.83,21.83,0,0,1,1.47-2.26c.15-.19.74,0,1.12.08.76-.26,1.37-1.66,2.44.12l.14-.41-.43-1.35c.84-.63.64-1.63.28-2.73a5.15,5.15,0,0,1,.15-1.7l-1,.43-.61-.88,0,0c.76-.66.76-.66.31-2.06A2.93,2.93,0,0,0,20,50.67a19.34,19.34,0,0,1,.06-4.16c0-1.59,0-3.17,0-4.82L18.71,42c.53-.63,1.77-.71,1-1.76-.13-.19-.46-.24-.58-.3a14.2,14.2,0,0,0,1-1.54c.07-.13-.25-.45-.28-.51-.31.49-.49,1.15-.87,1.29a3.54,3.54,0,0,1-1.53,0l1.12-1.06H16.73l-.33-.88,1.16-.49-.06-.32-1.95.26-.34.76-.33-.81c-.2-.47-.39-1-.59-1.43l-.33.09.27-1.39c2.09-.27,2.09-.27,2-1.71l-1.8.4L15.58,31l-.29-.32a10.22,10.22,0,0,1,.2-2.07c.1-.35.53-.65.87-.85.69-.41,1.42-.74,2.3-1.19l1,.21-.12,1.46c.42-.44.94-.8.88-.94a9.54,9.54,0,0,0-1-1.61l.2-.65-.25.08c-.27-.55-.53-1.1-.8-1.66a6.32,6.32,0,0,0,.36-1.09,11.59,11.59,0,0,0,0-1.57L17.81,21l.79,2.52c-.56-.13-.92-.16-1.22.58-.16.39-1.09.46-1.69.68.22-.43.42-.83.62-1.24l1.54-.6c-.61-.55-1.08-1.4-1.88-.76-.52.41-.3,1.05.37,1.36L11.2,22.23l0-.37a19.1,19.1,0,0,0,3.3-.05,14.47,14.47,0,0,0,2.89-1.17L15,20.37l-.08-.43,2.86-1,2.07,1.43.39-6-1.7-.26c2.32-.66,1.95-2.52,2.1-4.12,0-.31,0-.63.06-1.08h4.18c2.64,0,5.29.13,7.91-.06a23.66,23.66,0,0,0,4.16-1.15,4.36,4.36,0,0,1,1.56-.18c1.68.18,3.36.62,5-.21.19-.09.53.15.8.21a2.81,2.81,0,0,0,.81.07c1-.1,2-.13,2.63.9l3.42-.72-.23.86c1.79.38,3.6,1.31,5.55-.33l-4.36.25-.06-.29,1.28-.77-1.92-.15,4.49-1.93-1-.49a5.42,5.42,0,0,1,4.21-.48c.79.27,1.85-.18,2.78-.36.65-.13,1.29-.36,2.29-.65l-1.46,1.2c2.19,0,4.11-1.43,6.46-1.12L68,4.87l.2.31a29,29,0,0,0,3.5-.24c1-.19.8-1.06.67-1.82,3.66-1,7.11,1.06,10.75.45V4.1H80.31l0,.25,1,.39L79.59,6.08c.84.28,1.59.54,2-.25a1.18,1.18,0,0,1,1.78-.53,1.56,1.56,0,0,0,2.17-.47,1.85,1.85,0,0,1,1.11-.53c-.61.66-.71,1.84-2,1.76-.23,0-.5.72-.91,1.35a10,10,0,0,0,2.67-.35,7.27,7.27,0,0,0,1.68-1.48l.34.28L87.56,7l.79.65L86,8.63c1.83.55,3-.65,4.59-1.31L90,8.75l2-.86v.78c1.73.68,2.53-1.19,4.2-1.51l-.89,1.63H96.6q11.58,0,23.15-.09c1.24,0,2.48,0,3.72.1a14,14,0,0,0,6-1.24,4.28,4.28,0,0,1,1.71,0c1.84.12,3.71.46,5.34-.71.12,1.86,1.63-.24,1.92.9l-1.38.73.13.28c.65-.17,1.56.53,1.9-.57l5.77.67.09-.23-.56-.41c2.12-1.24,2.27-1.24,3.8-.1l-2.29.52,0,.28c.76-.08,1.53-.12,2.28-.27.95-.2,1.74-1.12,2.91-.16.5.41,1.61.07,2.78.07l-2.21-1.16L155,6l-1.53-.14c0-.28,0-.77.14-.8,1.05-.29,2.13-.49,3.19-.74.81-.18,1.61-.41,2.42-.58.65-.14,1.31-.22,2-.32l.11.42-2.14.88a11.58,11.58,0,0,0,1.63.41A11.9,11.9,0,0,0,162.11,5c1.32-.05,2.77.14,3-1.81,0-.14.53-.31.83-.33,1.23-.11,2.46-.17,3.84-.26l-.69.61,1.63.15v.15l-1.54.17v.26l1.3.14-3.74,2.8.32.51c.65-.39,1.55-.62,1.87-1.19a1.46,1.46,0,0,1,1.72-.76c.51,0,1,.12,1.82.22L169,7.33l.08.18,3.95-1.24a1.54,1.54,0,0,0,2.48.3c.82-.69,1.64-1.38,2.49-2.05a3.73,3.73,0,0,1,.81-.35l.2.33a11.88,11.88,0,0,1-1.52,1,1.93,1.93,0,0,0-1.31,2c0,.81.28,1.33,1.23,1.1C178,7,178.4,6.75,180,7.38l-.12,1c2.25.1,4.51.24,6.76.28a12.91,12.91,0,0,0,2.19-.39c1-.17,2.07-.31,3.1-.47l.11.34-.49.68c2.09,0,4,.17,5.81-.84.67-.36,1.63-.14,2.39-.4a5.38,5.38,0,0,0,1.39-1.09L201,6.19l2.67-.38.08.49-2.18.38,1.17.77-1.89.76,0,.21a5.17,5.17,0,0,0,.86.15c1.17,0,2.34.06,3.5,0,.8,0,1.25-1,1.07-2.16,1-.08,2-.09,3-.26a4,4,0,0,0,1.31-.73c.22-.14.42-.48.59-.45,1.08.17,2.15.42,3.23.64l0,.3L212,5.67,210.73,6.8l1,.18-.94.6,1.11.08-.36.91c.2.64,8,0,9.05-.69.11.82,1.27,1.08,2.18.49.66-.43,1.31-.88,2-1.32l.29.22-.69,1.28H443.16l-.32-1.12c.79-.1,1.42-.23,1.9.61.15.26.91.26,1.37.21a3.29,3.29,0,0,0,1.08-.5c.68-.4,1.06-.25,1.07.58,2.39.13,4.74.28,7.09.39a1.89,1.89,0,0,0,1-.23,4.13,4.13,0,0,1,4-.63l-.5.66c2,0,4,.21,5.83-.81.69-.39,1.69-.18,2.49-.44.48-.16.85-.7,1.26-1.07L469.28,6l2.7-.36.08.45-2.13.45,1.11.77L468.9,8a3.85,3.85,0,0,0,.92.3c1.21.05,2.43.08,3.64.08.79,0,1.3-1,1.16-2.23,1-.06,2-.09,3-.2a1.84,1.84,0,0,0,1.12-.47,1.46,1.46,0,0,1,2.47-.18l-2.49,1.13,1.58.42-1.11.33,0,.19,1,0-.54,1.07c1.6,0,3.13.08,4.65,0S487.55,9,489,7.41l-.15.77c1.85,1.09,2.78-1,4.56-1.35l-.93,1.59h32.2l-.63-1c.88-.08,1.63-.42,2,.68.06.18.75.28,1.07.17a19.44,19.44,0,0,0,2.15-.94l.26.4-1.52,1.09c1.07-.11,2.11-.25,3.17-.32,1.27-.09,2.55-.07,3.82-.19s2.64-.4,4-.56c.89-.11,1.79-.15,2.68-.22l.19.37-1,.32c.5.19.6.27.69.26,1.85-.21,3.76.16,5.53-.85.7-.4,1.71-.22,2.52-.48a2,2,0,0,0,1-1.24l2.72-.43.07.5-2.24.34,1.21.83-1.9.73v.34c.94,0,1.88,0,2.81,0,.27,0,.55-.15.81-.13,1.65.13,2.07-.29,1.82-1.92,1.08-.09,2.15-.13,3.21-.28a2.49,2.49,0,0,0,1-.56c.21-.15.37-.59.51-.58,1.12.14,2.24.36,3.35.55l-.08.36-2.28-.31c-.37.33-.82.74-1.36,1.21l1.79.16-1.59.37v.19l1,.15c-.19.38-.35.72-.57,1.17,3.25.41,6.3-.26,9.38-.68.07.47,1.2.68,2.13.1.66-.41,1.3-.85,2-1.27l.26.23L574,8.24c.35,0,.71.06,1.08.06,4.16,0,8.32,0,12.48,0a6.27,6.27,0,0,1,1.71.54l-.11.33-1,.49.08.23,2.06-.27,0,.41-1,.26c.34.39.6.7.87,1l-.31.34-1.64-1.26c.08.79-.54,1.71.35,2.52-.86.71-.56,1.82-.27,2.59s1.19,1.4,1.75,2.22l-1.66-1.3V20.9l1.94.82c-.43.63-.43.63-2.4-.51l.94,2.53-.85-.08a7.81,7.81,0,0,0,.61,1.18c.49.61.8,1.14-.07,1.71a1,1,0,0,0-.33.75c0,.88,0,1.76,0,2.64,0,.56.2,1.23-.71,1.37-.1,0-.15.39-.22.6,1.11.3.43,1.37.83,2s.68.94,1,1.42c.2.3.37.63.55.94l-.37.31-.3-1-.49.27c.17.62.33,1.25.5,1.91l-.72.43.09.24,1.88-.28.05.32-.92.4.81.94-.3.34-1.6-1.21c.09.87.17,1.72.24,2.38a9.06,9.06,0,0,0-.41,2c0,.89.13.89,2,1.29v1.67L588.45,45l-.1,2.16c-.59.51-.3,3.72.85,5a3.12,3.12,0,0,1-.51-.05,1,1,0,0,0-.68,0c.17.35.34.71.53,1s.65.76.61,1.1-.59.54-1.07.94c.14,6.88.28,14,.42,21.06-1.13.14-2,.28-2.86.34-.66,0-1-.8-.84-1.52a4,4,0,0,0-.09-1.33h-.39c-.07.35-.14.71-.23,1.19l-.89-1c-.13,1.16-.24,2.22-.36,3.34,1.3,0,2.72,0,4.15,0a1.2,1.2,0,0,1,.89.61c.93,2.46.59,5,.61,7.58,0,5.72,0,11.43,0,17.15,0,.39,0,.78-.06,1.16-.93.16-1.79.34-2.66.46-.54.08-1.13-.94-1-1.54a6.47,6.47,0,0,0,0-1.39h-.44c-.05.35-.1.71-.18,1.26l-.81-1c-.14,1.12-.27,2.15-.41,3.29,1.09,0,2.39,0,3.68,0,.89,0,1.2.12,1.49,1.21.76,2.82.31,5.62.39,8.43.06,2.37-.12,4.75-.15,7.12s0,4.9,0,7.35a1.42,1.42,0,0,0,.48.87l.59,1.89-1.14.09c.09,1.92.13,4,.34,6,0,.44.71.81,1.09,1.2s.64.61,1,.92l-.2.24-1.62-1.3c-.15.86-.22,1.64-.43,2.38-.36,1.31-.3,1.46,1,1.74s1.47.56.8,1.9l-1.55-1.13-.31.14.81,2.2-.85-.08a11.11,11.11,0,0,1,.71,1.23,9.32,9.32,0,0,1,.31,1.29,2.8,2.8,0,0,0-.88.14,8.17,8.17,0,0,0-1,.77l.48.09c.2.46.59.91.59,1.36,0,4,0,7.91-.09,11.87q0,4.46-.08,8.91c0,.93,0,1.86,0,2.79,0,.17.28.33.6.69l.54,1.71-1.18.09c0,1.8,0,3.69,0,5.58,0,.28.34.58.58.82.58.58,1.18,1.13,1.78,1.69l-.18.24-1.88-1.43-.56.88,1.95,2.87-1.33-.13c.68.64,1.16,1.05,1.58,1.51a2.51,2.51,0,0,1,.3.75,2.33,2.33,0,0,1-.85-.07,8.84,8.84,0,0,1-1.2-.85c-.75,1.53.38,1.79,1.18,2.44l-1.48-.14a5.7,5.7,0,0,1,.82,1.25c.15.48.32,1.16.09,1.5-.34.53-1,.82-1.54,1.26-.14.13-.11.44-.18.74,1.09.05,1.3.72,1.3,1.63q0,7.86,0,15.72c0,.61-.12.92-.76,1.06-.82.17-1.6.49-2.54.79,0-1.31-.48-1.59-1.46-1.56-3.94.09-7.88.12-11.83.16-.59,0-1.17,0-1.76,0-2.76-.17-5,1.21-7.4,2.3a.74.74,0,0,1-.32.07c-.35,0-.7-.11-1.34-.22l4.72-2-.06-.26-3.58.77-.07-.21,1.4-.44-.08-.37-2,.46a2.57,2.57,0,0,1-.67.09,19.65,19.65,0,0,0-2.62-.3c-1.61,0-3.22.26-4.83.34a2,2,0,0,0-1.48.7c-1.43,1.46-2.3,1.93-4.08.8l3.73-1.43c-2.79-.08-5.22-.28-7.48,1.16l-.09-.37.65-.85a15.08,15.08,0,0,0-3.7.5c-1.32.51-3.15,1.18-4.59-.32-.19-.2-.67-.16-1-.16H524.37a1.51,1.51,0,0,1-1.49-.61c-.29-.38-1.5-.11-2.29,0-.32,0-.62.37-1,.39-1.81.16-3.65.16-5.45.43-1.43.21-2.81.77-4.23,1.12a11.41,11.41,0,0,1-1.76.17l-.07-.31,2.13-.46-.07-.46-4.65.6c-.55.07-1.22.68-1.48-.47,0-.2-1-.19-1.63,0l1.69,1.38-2.1.56c-.07-.87-.83-1.35-1.39-1-1.39.78-1.39.78-2.72.57l-.13-.33,3.69-1.37h-3.88a17.61,17.61,0,0,0-1.78,0c-.38,0-.74.31-1.12.34a5.07,5.07,0,0,1-1.21-.15,15.86,15.86,0,0,0-2.42-.46,34,34,0,0,0-4.28.15,5.4,5.4,0,0,0-1.54.62l.16,1.33c-.42,0-.83.11-1.25.11-.95,0-1.9-.63-2.87.08-.2.16-.66,0-1.07-.33l3.48-1.53c-.16-.08-.48-.34-.59-.26-1.33.86-2.57-.11-3.84-.14h-1l.34.53c-2.45-1.16-5-.32-7.46-.41Zm98.39-47.28.63-.88.72.35a17.89,17.89,0,0,0,.26-2.25,17.38,17.38,0,0,0-.31-2.25l-.22.07.43-1.19-.23-.25c-1,1.37-1.58.13-2.31-.23-1.13.87-1,.44-2.64-2.26l1.47.46V156.6c-1.31.07-2.41,0-2.25-1.49,1.7-1.09,2.91.61,4.34.74.37-1.22-2.2-.15-1.22-1.88l1.24.89c-.11-.75-.23-1.5-.34-2.24l1.86-.18v-.22l-1.42-.48,0-.31,1.22-.18c0-.27-.13-.52,0-.68a2.12,2.12,0,0,0-.28-2.72c-.1-.1.24-.63.37-1l.35.11c.14-2.08-1.69-2.78-2.81-4l2.48.86c.3-1.75.3-1.75-1.55-1.95l-1.77-1.89.74-1.07c0,.51-.07.8-.11,1.28h3.07c-.34-1.71.51-3.58-1.62-4.79l1.37.23c0-2,0-3.94,0-5.87,0-2.36.2-4.71.19-7.07,0-3.12-.18-6.25-.2-9.37,0-4.94,0-9.87,0-14.81,0-4-.07-8.09,0-12.13,0-4.43.17-8.86.2-13.29,0-2.07-.13-4.14-.15-6.22,0-2.61,0-5.23,0-7.8L569.46,59l1.41-.7-.8-.84a2.25,2.25,0,0,0,.53-3.18,3.21,3.21,0,0,1-.51-.86l.83-.41a3.11,3.11,0,0,0-2.13-3.14c-.29-.09-.48-.44-.72-.67l.19-.13,2.42.93V48.17l-1.63-.26-1.77-1.84.52-.69c.71,1.75,2.11.54,3.39,1-.65-1.75.51-3.69-1.5-4.82l1.17.2V30.52l-1,.05-.05-.25,1.16-.51L570,29l.12-.18.92.39c-.11-.91-.18-1.89-.35-2.86-.06-.28-.37-.69-.61-.72a20.45,20.45,0,0,0-2.35,0l0,.35c.82.38,2.22-.57,2.48.62l-1,1.66-2.75-2c-1.71,0-3.26,1.78-5.39,1.33l4.5-1.91-.1-.3-5.3,1.52-.08-.31,3.18-1-.11-.39-2,.5a1.84,1.84,0,0,1-.66.07,8.69,8.69,0,0,0-1.57-.3q-3.2.13-6.38.42c-.31,0-.61.37-.88.61-1.48,1.37-2.46,2-4.13.81L550.91,26l-.08-.4-7.1,1,.57-.78c-1.16.06-2.34-.22-3,.24-1.24.86-2.53.48-3.78.71-.43.08-1.2-.06-1.32-.33-.37-.8-1-.55-1.51-.56-3.72,0-7.44,0-11.16,0a1.47,1.47,0,0,1-1-.36c-.41-.44-2.14-.94-2.35-.48-.43.92-1.13.59-1.73.59a19.35,19.35,0,0,0-7.81,1.27,11.15,11.15,0,0,1-2.93.46l-.06-.37,2.07-.42-.07-.46c-1.38.18-2.75.38-4.14.54-.64.07-1.76.25-1.85,0-.43-1-1.09-.63-2-.62l1.88,1.56-2.11.51c-.08-.86-1.05-1.45-1.38-1-.8,1.18-1.8.45-2.7.61l-.14-.44,3.58-1.34a17.49,17.49,0,0,0-3.34,0c-1.23.25-2.61-.7-3.71.51-.09.1-.56-.1-.82-.21s-.37-.38-.57-.4a16.74,16.74,0,0,0-3.3-.21c-1.52.17-3.21-.28-4.42.87l.27,1.14a7.42,7.42,0,0,1-1.22.21,8,8,0,0,1-1.19-.14,5.38,5.38,0,0,0-1.25-.11,9.79,9.79,0,0,0-1.48.39l-.12-.45,3.49-1.46A2,2,0,0,0,482,26a5.29,5.29,0,0,1-1.24.26c-.8-.12-1.57-.42-2.36-.57-.15,0-.37.28-.78.63,0,0-.6.06-.66-.1-.36-.94-1.12-.51-1.71-.55a10.85,10.85,0,0,0-1.89,0c-1.26.13-2.5-.06-3.52,1.28s-2.27,1.36-3.58.37l4-1.48c-.81,0-1.63,0-2.45,0-1.43,0-2.85-.14-4.14.7a3.7,3.7,0,0,1-1.24.28l-.05-.22.94-.9c-1.54.06-2.94-.52-4,.8a.77.77,0,0,1-.54.24c-1.36,0-2.72-.05-4.15-.08l.22-.83c-5,0-10,0-14.91,0-3.9,0-7.8-.13-11.7-.12s-8,.18-11.94.21C409.55,26,402.79,26,396,26a30,30,0,0,1-4.45-.7,3.14,3.14,0,0,0-.68-.07c-1.18.07-2.36.11-3.53.26s-2.18.54-3.28.56c-3.84.08-7.68,0-11.51,0-3.48,0-7,0-10.44,0-4.28-.05-8.56-.16-12.84-.18-1.75,0-3.5.21-5.25.21-9,0-18,0-27,0a26.26,26.26,0,0,1-4.08-.66,2.81,2.81,0,0,0-.79-.12,55.63,55.63,0,0,1-5.84.78c-6.35.11-12.7.07-19.05,0-2.16,0-4.31-.21-6.47-.23-1.73,0-3.48.19-5.21.18-2.82,0-5.64-.14-8.46-.18-3.35,0-6.71-.11-10.06,0-4.75.15-9.53-.59-14.14.49l.55-.33-.07-.2-2.89.14,0,.21,1,.25a4,4,0,0,1-1.48.1,7.7,7.7,0,0,0-2.14,0c-1.09.26-2.19,1.25-3-.34l.64-.18c-3-.25-6-.27-9-.23-.64,0-1.28.32-1.92.33-3.67.06-7.41-.47-10.81,1.58a9.2,9.2,0,0,1-2.22.63l-.14-.45L215,26.51l-.07-.32-1.42.12a6.46,6.46,0,0,1-1.24.08c-.43,0-.85-.25-1.28-.29-.94-.09-1.88-.1-2.83-.15s-2.07-.16-3.1-.2a1.45,1.45,0,0,0-1.69,1.31,1.08,1.08,0,0,1-.5.75,7.15,7.15,0,0,1-4.7.08l-.07-.38,3-1.22-.13-.47-6.9,1,.67-.88c-1.25.12-2.39-.08-3.16.36-1.75,1-3.4.64-5.12.37l-.08-.32,1-.53,0-.29-3.44-.47.09.39c-.4.22-.8.62-1.21.63-5.18.12-10.36.25-15.54.24-4,0-7.95-.22-11.93-.29-3.6-.07-7.19-.09-10.78-.09-2.51,0-5,.11-7.52.1-5.88,0-11.76-.12-17.63-.16-1.66,0-3.35-.26-4.9.62-.06,0-.19,0-.34-.07l.52-.34v-.22l-3.16.14,1.22.58a41.86,41.86,0,0,0-5.46.57c-.16,0-.4.06-.46,0a3.9,3.9,0,0,1-.48-.9,5.35,5.35,0,0,1,.69-.45H98.54c-2.22,0-4.44,0-6.65,0a13.33,13.33,0,0,0-3.17.33,42.18,42.18,0,0,0-4.43,1.65c-.14.05-.18.38-.26.55l-1.76-.28L87.34,26l-.11-.33-5.61,1.69-.08-.24,3.19-1.19-.09-.37-9.58,2.26,1.29-1-.18-.41a48.19,48.19,0,0,0-4.57,1.72c-.94.46-1.59.09-2.7-.22l3.33-1.64-.12-.36a15.34,15.34,0,0,1-2.25,0,4.08,4.08,0,0,0-3.06,1c-.88.62-.83.69-1.6,0L66.26,26c-1.37.11-2.66-.17-3.36.34-1.54,1.15-3.09.72-4.67.59-.26,0-.49-.42-1-.87-.45,0-1.22,0-2,0a1,1,0,0,1-.47-.24c.32-.84-.37-.59-.71-.64C53.51,25,52.91,25,52.24,25c-.14,1-.84,1.05-1.72,1a24.31,24.31,0,0,0-2.94.26,7.28,7.28,0,0,1-1.32,0c-1.56-.17-3.13-.4-4.7-.55-.52-.05-1.36.31-1.55.07-.57-.7-1.1-.44-1.66-.21-.72.31-1.41.7-2.1,1a1.68,1.68,0,0,0,2.86.94L42.69,29l0,.43a7.64,7.64,0,0,1-2.26.18c-1-.2-2-1.07-2.61.53a5.58,5.58,0,0,1-.66,1l.27.2,1-.34.24.21c-.72.61-2,.94-1.28,2.23.81.21,1.16-1.6,2.25-.53L37.45,35l1.36-.18c-.43.73-.79,1.4-1.22,2-.55.82-.58.8-.18,1.82l2-1.51.19.23c-.6.57-1.23,1.11-1.78,1.72a1.87,1.87,0,0,0-.53,1.09c-.06,1.76,0,3.52,0,5.19l1.12.22-.53,1.9L37.42,47a5.85,5.85,0,0,0-.17.93c0,.69,0,1.39,0,2.09q.1,5.89.22,11.81c0,3.29.11,6.58.1,9.87,0,.39-.46.78-.85,1.42a4.08,4.08,0,0,0,.74.61,3.23,3.23,0,0,0,.95.24,11.29,11.29,0,0,1-.35,1.17c-.16.37-.41.71-.69,1.2h.73l-.64,2.13.31.1,1.63-1.13c.41,1.24.29,1.83-.93,2s-1.43.44-1,1.74a22.79,22.79,0,0,1,.45,2.37l1.59-1.3a2.21,2.21,0,0,1-.68,1.13c-.4.43-1.09.82-1.15,1.29-.23,2-.28,4-.39,5.91l1.23.13-.58,1.84c-.15.14-.49.31-.5.5-.06.93,0,1.87,0,2.8.1,4.15.31,8.3.28,12.45,0,2.72.43,5.46-.38,8.19-.26.84-.41,1.11-1.24,1.09-1.37,0-2.75,0-3.87,0l.36,3.34.83-1,.17,1.27.41,0a5.14,5.14,0,0,0,.08-1.4c-.12-.61.37-1.65.92-1.59.91.12,1.8.33,2.76.51,0,1.87,0,3.73,0,5.6,0,3.39-.3,6.79-.12,10.17.19,3.56.42,7.09-.48,10.71H32.27l.27,3.53.72-1.17.24.18.13,1h.43l.12-1.68c.55-1.42.83-1.48,3.54-.76v21.13c.3.23.84.44.86.68s-.31.77-.51,1.15-.39.75-.68,1.31l1.29-.24c-.39.47-.87.79-.94,1.17-.14.86,0,1.75-.1,2.62s.37,1.41.15,2.17a3.51,3.51,0,0,0,.18,1.21l1.71-1.2v1.45c-.66.35-1.64.56-1.88,1.1s.11,1.53.22,2.5l-.1,2.28,1.49-1.19.3.3-.74,1,.88.31-.06.39-1.8-.27-.12.21.74.47-.51,1.87.29.1.57-.65a1.07,1.07,0,0,1-.16,1c-1.42,1.6-1.7,2.86-1,4.6a2.79,2.79,0,0,1,.08.83c0,.46,0,.92.08,1.4H41.3l.08-.36.84,1.29.89-.51-.24-.16.29-1.15-.88-.55,0-.27,1.49-.07c-.18,1,.41,1.3,1.15,1.18a11.58,11.58,0,0,0,1.76-.68,4.53,4.53,0,0,1,.92-.09l-1.8,1.95H43.72l.24,1c.95.11,2,.19,3.11.37.35.06.65.41,1,.59a1.05,1.05,0,0,0,.62.12c.85-.18,1.68-.41,2.52-.6a2.88,2.88,0,0,1,.51,0l-.23.84c1.82.42,3.64,1.31,5.55-.32l-4.38.22v-.28l1-.66-.13-.26H52.11l4.3-1.88-1-.79c1.33-.19,2.33-.39,3.35-.47.46,0,1,.32,1.4.25,1.33-.21,2.65-.54,4-.82a3.37,3.37,0,0,1,.36-.06l-.28.53c1.34.51,2.47,0,3.59-.56.87-.39,1.1-.38,1.63.26l-.85,1.09.24.31a23.25,23.25,0,0,1,2.34-.26c1.74,0,2-.2,1.92-1.93,1.76-.08,3.46-.39,5.29.22,1.64.54,3.53.35,5.31.48l0,.44H80.4l1.39.62-1.53,1.18c.8.27,1.53.62,2-.31.13-.22.53-.54.67-.48,1.61.67,2.91.08,4.13-.93,0,0,.14.05.23.08a5.8,5.8,0,0,1-.57.78c-.36.35-.77.94-1.13.92-1.08,0-1,.52-1,.94,2,1.33,2.84-.84,4.21-1.38l.34.53-1.29.69,1,.83-2.18.94.16.44,4.25-1.47L90.54,197l2-.92v.76c1.8.68,2.61-1.3,4.3-1.47l-1,1.55c.21,0,.35,0,.5,0q14.64,0,29.28,0a4.86,4.86,0,0,0,1.4-.25c1.1-.36,2.17-.79,3.28-1.13.31-.09.7.09,1,.08,1.39-.08,2.79.78,4.16-.08l0,0,1.38-.34v.37l2.4.17-1.64.82.17.43,1.95-.48c.22-.13.51,0,.81,0,.66.06,1.32.06,2,.12,1,.1,2,.24,3,.35l.05-.31-.71-.36c2.44-1.17,2.44-1.17,3.89-.09l-2.25.54.08.36,2.71-.58c.61-.14,1.53-.6,1.78-.36,1,1,2.09.4,3.17.34l-1.92-1,2.95-1.29-1.41-.67.13-.41c2.6-.43,5.12-1.36,7.76-1.6l.11.42-1.77.71a1.84,1.84,0,0,0,1.24.56,19,19,0,0,0,3-.18,1.31,1.31,0,0,0,.81-.86,1.4,1.4,0,0,1,1.45-1.28c1.19,0,2.38-.13,3.57-.21l.22.22-.83.22.21.21,1.42.1,0,.17-1.47.2,0,.29h1.35l-3.88,2.9.28.47c.69-.36,1.8-.59,2-1.13.35-1,.94-.85,1.59-.83s1.11.12,1.94.22l-3.49,1.72.08.18,4-1.26a2.15,2.15,0,0,0,1.63.7,6.55,6.55,0,0,0,1.82-1.07c-.64,2-.27,2.79,1.08,2.6.11-1.46.82-1.78,2.4-1.07l-.11.85c.95.08,1.84.21,2.73.23,2.13.07,4.25.5,6.38-.31a14.93,14.93,0,0,1,3.3-.39L192,197c1.38-.11,2.49-.14,3.59-.3a39.3,39.3,0,0,0,4-.79c.86-.22,1.87-.4,1.91-1.62l2.64-.31.05.49-2.18.32,1.25.78-1.92.76,0,.34c1.52,0,3.05,0,4.57,0a.87.87,0,0,0,.62-.51,12.9,12.9,0,0,0,.38-1.62,2.89,2.89,0,0,0,.88,0c1.18-.42,2.85.5,3.55-1.29,0-.08.3-.14.44-.11,1.05.21,2.09.45,3.14.68-1.32.23-2.81-.47-3.64,1.15l1.55.32-1.45.27,0,.23.94.07-.43,1c.6,0,1.09,0,1.58,0,2.57-.11,5.22.51,7.69-.81,0,.18-.14.48-.1.51,1.84,1,2.78-1.07,4.54-1.36l-1,1.68h1.41c4.7-.06,9.41-.19,14.11-.18,5.08,0,10.16.15,15.24.18q11.37.06,22.74,0c1.63,0,3.25-.23,4.88-.22,11.42.05,22.85.17,34.27.21,4.07,0,8.14-.18,12.2-.2q10.32-.06,20.63,0c1.94,0,3.89.2,5.84.19s3.66-.22,5.48-.21c12,.05,24,.17,36,.21,4.11,0,8.22-.18,12.33-.18,8.48,0,17,.09,25.42.09,2.74,0,5.49-.18,8.23-.28.07,0,.14-.06.21-.09l-.18-1.1c.69.23,1.46.26,1.62.58.49,1,1.15.61,1.8.41.37-.12.7-.36,1.07-.52.65-.27.93,0,.82.68,2.42.14,4.81.29,7.21.4a1.64,1.64,0,0,0,1-.29,4.46,4.46,0,0,1,4-.6l-.5.81c1.38-.12,2.53-.16,3.67-.33a34.63,34.63,0,0,0,3.91-.77c.82-.22,1.85-.35,1.79-1.6l2.71-.33.07.47-2.19.42,1.24.71-1.92.76,0,.34a29,29,0,0,0,4.57-.09c.48-.08.79-1.19,1.36-2.14,1-.44,3.07.78,4.13-1.26,0-.05.15-.07.22-.06l3.28.64-.06.32-2.4-.27-1.18,1.09,1.35.39-1.22.23,0,.28h1l-.59,1.08c.62,0,1.13,0,1.63,0,2.58-.11,5.23.48,7.61-.75.11.17.25.56.36.55a5.74,5.74,0,0,0,1.9-.32,12.83,12.83,0,0,0,1.94-1.22l.24.27c-.28.45-.55.91-.84,1.37H525.2l-.48-1.05h1.6c.24,1.33.95,1.26,1.9.72a12.83,12.83,0,0,1,1.81-.71l.2.48-1.85,1c1.7-.19,3.18-.41,4.68-.5s3.12,0,4.68-.06c2.15-.09,2.79-1,2.3-3.3l-4.23.85,0,.36,2.72.55-.06.35-3.1-.15,0,.17,1.24.54-.14.42c-1.65-.5-3.21-1.42-5.07-1.11a14,14,0,0,1,2.74-1.73,34.83,34.83,0,0,1,5.15-1.25c.71-.12.91-.35,1-1,.3-2.48-.13-4.94-.16-7.41a16,16,0,0,0-.09-3c-.28-1.34-.87-2.6-1.21-3.93a14.4,14.4,0,0,1-.2-2.48,8.89,8.89,0,0,0-1.18.41,18.15,18.15,0,0,1-1.69.88c-3.36,1.16-6.89,1.21-10.39,1.43-1.87.12-3.74.27-5.61.47a1.14,1.14,0,0,0-.83.6c-.15.51-.24.87-.9.85s-1-.08-1.17-.73a1.23,1.23,0,0,0-.67-.71c-.6-.19-1.4-.05-1.83-.4s-.4-1.1-.62-1.79l-1,1.24-.8-1.67h2.15c0-1.2,0-2.39,0-3.57-.11-2.78-.13-2.75,2.7-3a3.61,3.61,0,0,0,1.85-.64,2.4,2.4,0,0,0,.79-2.81,3.12,3.12,0,0,0-2.63-2c-8-1.39-16-2.66-24-4.16-3.89-.73-7.93-1.21-11.16-3.9-.66-.55-1.37-1-2-1.57s-.78-1.71-1.91-.74c-.08.07-.28,0-.51,0l.67-.87a1.07,1.07,0,0,0-.45-1.63l-2.35-.81,1.14-1.54a2.21,2.21,0,0,0-.06.91,3,3,0,0,0,.7,1s.46-.19.48-.33a8.88,8.88,0,0,0,0-1.46,1.17,1.17,0,0,0-.37,0c-.28,1.09-.55-.43-.82,0l-.74-1-.9,1.34.33-4.54c1.46.56,2.18.36,2.08-.5a5.77,5.77,0,0,1-1.32-.34c-.18-.09-.2-.48-.27-.69a3.1,3.1,0,0,0,2.81-1.65L477,139.18l1.42.64a8.56,8.56,0,0,1,1-2.3,8.09,8.09,0,0,1,2.21-1.7,18.92,18.92,0,0,1,6.57-2.74c2.52-.39,5-1,7.56-1.13,4.3-.25,8.62-.22,12.93-.3a1.81,1.81,0,0,1,.42.15c0,2.54,0,5.09,0,7.64,0,.29-.53.71-.89.82a16.81,16.81,0,0,0-2.54.58,3.61,3.61,0,0,0-1.34,1.63c-.37.77.21,1.33.85,1.61a17.72,17.72,0,0,0,3.47,1.23c2.49.51,5,.88,7.53,1.26.78.12,1.58.11,2.37.17,1.85.16,3.72.24,5.55.53s3.64.89,5.48,1.18c3.88.61,7.54,1.73,10.52,4.38a10.85,10.85,0,0,1,2.17,2.89c.62,1.12,1.11,2.29,2.39,2.79.34.14,1,.26,1,.17.38-.82.84-.31,1.27-.15l1.45.61c-.11-1.65,1.12-1.68,2.05-2a19.16,19.16,0,0,1,2-.5c1.56,1.94,2.79,4.1-.34,5.91-2,1.17-3.09-.56-4.32-1.39-.09-.73.89-1.46-.32-1.9s-2.34-.12-2.78.87l.92.2-1,.54.05.18h.75c-.17.48-.5.94-.45,1.35a14.91,14.91,0,0,0,.74,2.42L544.3,164a6.87,6.87,0,0,0,.27,1.15,15.79,15.79,0,0,0,1.9-.27c.34,1.41,2.77,1,3.12,3H546v1.05h-.17l-.18-.5c-.4.5-.75.95-1,1.29l-1.35-.87.62,1.51-1.23.36,1,1.21c-1.42.49-.8,1.05-.18,1.58a8.65,8.65,0,0,0-1.18.57c-.27.18-.66.5-.65.74.1,2.3.28,4.59.41,6.88,0,.39-.23.9-.06,1.15,1.18,1.76.77,3.79,1,5.69.2,1.55.18,3.13.25,4.78,1-.24,1.89-.46,2.49.52,0,.06.5-.12.8-.2l-1.23-1.13c.43-.3,1-.52.93-.66-.12-1,.58-.65,1-.69.69-.08,1.4-.09,2.24-.13,0,.07.11.52-.07.76a9.46,9.46,0,0,1-1.34,1.26c.76,0,1.48.74,2.09-.15.16-.23,1,0,1.53,0-.74.43-1.59.65-1.91,1.18-.8,1.34-1.4.78-1.88.22l-3.95.81-.11-.34.28-.39c-.75,0-.87.69-.31,2.32,1.87-.37,3.79-.68,5.66-1.16a6.63,6.63,0,0,0,1.78-1.14,1.88,1.88,0,0,1,1.21-.56c.42-.07.86-.07,1.29-.11l0,.47-2.34.36,1.46.71-2,.86a18.26,18.26,0,0,0,4.7.21c.33,0,.62-.81.85-1.28.09-.19,0-.49,0-.72,1.18-.09,2.27-.15,3.35-.27a1.06,1.06,0,0,0,.76-.41c.38-1,1.06-.94,1.82-.59,1,.46,1.75.39,2.23-.73l-1.46.14c1.35-.45,1.43-.66.5-2l1.53-.62.23.69-1.11-.09a1.38,1.38,0,0,0,.69.64c.22.1.47.16.89.3l-.66.34c.24.37.71.75.69,1.11s-.45.85-.68,1.25l-1.91-.48c.71.49.89,1.7,2.06,1.4a6.37,6.37,0,0,1,1.69,0c0,.35,0,.7.05,1l-1-.29c1,1.34,2.24.42,3.36.7l0-.29h-1.35l.62-1.14h-1.73l-.67-2.92.72.09c-.48-.67-.91-1.28-1.43-2l1.8.23c.12-1.77-1-1.64-2.34-1.55.31-1.26.57-2.36.87-3.45,0-.11.3-.16.53-.27l.09.9.25.14c.43-.62.87-1.25,1.22-1.77l1.33.49a2.8,2.8,0,0,1,0-1,1,1,0,0,1,.73-.29,8.18,8.18,0,0,1,.64,1.25c.62-.94.56-1.09-.95-2.25l1,.14c-.12-1.26-.12-1.26-1.09-2.09l1.38.22c0-3.44,0-6.79,0-10.14a1.89,1.89,0,0,0-.34-.84c-.33-.57-.7-1.11-1.06-1.67C569.73,167.7,569.64,167.21,569.55,166.72Zm-7.14,28.08c-.3.62-.59,1.22-.95,2L565,197l.06-.23-2-1,.28-.06-.89-2.4-1.6,1.4Zm-520.63.47L38,195.08c0,.52.9.76,3.84.9Z"/><path class="cls-1" d="M33,6.24l8.3-.48,0,.27-.76.14v.25h1.77l.16-1.59L41.45,4.1h1.79c-.12,1,.54,1.18,1.3,1.05a11.86,11.86,0,0,0,1.62-.68,6.22,6.22,0,0,1,1.1-.17L45.52,6l.23.3H43.11l.31.57c-.05.09-.07.15-.09.15A23.46,23.46,0,0,1,38.59,7c-1.07-.18-2.08-.77-3.06.4-.79,1-1.19.8-2-.27A1.85,1.85,0,0,0,33,6.7Z"/><path class="cls-1" d="M128.64,6.38c-1.1,1.73-1.87,1.74-3.31.07a1.5,1.5,0,0,1,.49-.27c1.33-.19,2.67-.33,4-.51a6.59,6.59,0,0,1,3.32.64,3.7,3.7,0,0,0,1.4,0l.28-1.59L134,4.3V4l1.49-.11c0,1.57,1.42,1.52,3.46.15.26.66.23.62-.45,1-.29.16-.47.53-.71.8l.25.24c-.46.06-.92.15-1.38.18s-.83,0-1.25-.06l.36.91C133.25,6.94,130.88,7.31,128.64,6.38Z"/><path class="cls-1" d="M185.68,6.55l2.76.49,0,.27H185l1.54.63-.07.26h-2.59l1-.82H181c1-.73,1.95-1.48,3-2.11a4.4,4.4,0,0,1,1.48-.34l7.24-1.29C190.76,5.61,187.93,5.32,185.68,6.55Z"/><path class="cls-1" d="M67.39,2.8l1-.47c-1.83-1.28-2.26,1.42-3.75,1l-.27-.45L61,3.5a.17.17,0,0,1-.12,0c-1.08-.83-2.38-.45-3.6-.67,1.82-.46,3.53-1.86,5.56-.22l.07-.41-1-1.11c1-.72,1.35-.61,1.66.9l6.07-.76,0,.21-1,.57,1.41.4,0,.38-2.61.32Z"/><path class="cls-1" d="M59.78,0c-1.05.64-2,1.32-3.09,1.86-.42.21-1,.06-1.5.18-.69.18-1.35.45-2,.67l.06.31,2.16.41v.41c-.73,0-1.46,0-2.19,0-.3,0-.8-.19-.86-.09-.42.72-1.13.26-1.61.3a13,13,0,0,1-2.91-.24C51.13,1.37,55.48.83,59.78,0Z"/><path class="cls-1" d="M538,7.15l-3.09-.21,0,.16,1.25.57L536,8c-.61-.2-1.49.45-1.83-.73,0-.13-.65-.15-1-.16-.74,0-1.48,0-2.23,0,3.29-2.91,7.45-2.73,11.36-3.51A23.24,23.24,0,0,1,539,5.14a28.23,28.23,0,0,1-3.8.68v.4l2.77.53Z"/><path class="cls-1" d="M449.51,7.1a17.45,17.45,0,0,1,3-1.83A43,43,0,0,1,457.46,4c1.16-.26,2.33-.44,3.62-.68-2,2-4.82,1.78-7.16,2.95l2.8.51,0,.38L453.54,7v.16l1.45.59c-1.37.39-1.34.36-2.13-.44a1.65,1.65,0,0,0-1-.23C451.16,7.08,450.44,7.1,449.51,7.1Z"/><path class="cls-1" d="M161.92,1.24l-.95.65,1.29.47v.4l-2.57.3-.07-.29,1-.53c-1.07-1.05-1.77,0-2.33.46-.92.7-1.14.81-1.7.1l-3.76.88-.15-.35.35-.59-3.6.21c1.56-1.29,4.22-1.47,5.26-.47l.31-.17L154.21.82l1.31-.27.28,1.22C157.83,2.1,159.75,1.06,161.92,1.24Z"/><path class="cls-1" d="M140.6,3.68C143.9.81,148.08,1,151.93,0a21.53,21.53,0,0,1-3.3,1.78,23.17,23.17,0,0,1-3.75.68l0,.41,2.7.46,0,.34Z"/><path class="cls-1" d="M203.09,4.92c-.57.32-.9,1-1.82.52a1.87,1.87,0,0,0-1.6.76c-.79,1.54-1.39.5-2.13-.07a4,4,0,0,1-3.85.8l.59-.64-3.71.24a4.86,4.86,0,0,1,5-.6c.18.11.51,0,1-.09l-1.26-1.06.05-.38a3.82,3.82,0,0,1,1.34-.06c.19,0,.24.59.42,1.07.64,0,1.76.47,2.31.09a3,3,0,0,1,1.84-.57C201.87,4.91,202.45,4.92,203.09,4.92Z"/><path class="cls-1" d="M458.82,6c1.33-.29,2.65-.62,4-.84.29,0,.63.38,1,.51a.81.81,0,0,0,.84-.2l-1-.86.06-.4a4,4,0,0,1,1.33,0c.19.06.22.63.36,1.09.86-.19,1.89.6,2.87-.41.28-.28,1.06-.09,1.65.06A9.16,9.16,0,0,0,468,6c-1.07,1-1.08,1.06-2.07-.06a4.16,4.16,0,0,1-4.17.7l.76-.26-.08-.24-3.52.24Z"/><path class="cls-1" d="M540.23,5.91c1.25-.32,2.5-.69,3.77-.92.31-.06.7.36,1.07.51a6,6,0,0,0,.86.19l0-.29-1.08-1.17c1.63-.44,1.74-.37,1.72,1.11l4.47-.69a12.48,12.48,0,0,1-2.14,1.82c-.38.22-1.1-.14-1.66-.43-1,.49-2.18,1.19-3.34.6-.61-.31-1.1-.77-1.82-.69s-1.21.22-1.81.34Z"/><path class="cls-1" d="M583.39,213.9l1.79,1.53c-.83.84-.92.77-1.9-.1a1.44,1.44,0,0,0-1.41,0c-.88.85-1.74.51-2.63.41l-.1-.43Z"/><path class="cls-1" d="M521.77,217c-1.38.56-2.57.76-3.81-.26-.45-.36-1.38-.12-2.1-.15C516.32,215.13,520,215.38,521.77,217Z"/><path class="cls-1" d="M229.45,215.67l4.28-1.49,2.09,1.76-2,.51c-.2-.43-.3-.91-.43-.92a1.85,1.85,0,0,0-1.17.26,2.3,2.3,0,0,1-2.75-.15Z"/><path class="cls-1" d="M43.25,217.35c-2.16,1.28-3.91-.79-5.94-.25C37.83,215.61,41.4,215.85,43.25,217.35Z"/><path class="cls-1" d="M16.61,201.43l.75-1.46-.34-.33-1.44.85-2.42-.89c1.6-.77,3-.06,4.55,0a1.87,1.87,0,0,0-.25-.34,5.84,5.84,0,0,0-.52-.29L18,197.49l.2.09-.16,1,.7.32L18.17,200l.46.36Z"/><path class="cls-1" d="M100.74,216.06c1-1.55,2.94-.8,4.12-1.83l2.17,2c-.92,0-1.78.34-2.24,0-.72-.48-.61-.65-1.26-.76C103.15,216.29,102.24,216.49,100.74,216.06Z"/><path class="cls-1" d="M172.11,217.22c-2.12,1.34-3.89-.85-5.92-.23C166.71,215.47,170.16,215.69,172.11,217.22Z"/><path class="cls-1" d="M440.43,217a4,4,0,0,1-3.63-.11,7.26,7.26,0,0,0-2.28-.37C435.11,215.23,438.62,215.49,440.43,217Z"/><path class="cls-1" d="M9,206.23c2.14.29,4-.68,6.1-1.07C14.23,207.33,11.89,207.78,9,206.23Z"/><path class="cls-1" d="M14.55,17c-1.21,2.25-3.05,2.62-6.08,1.11C10.61,18.37,12.49,17.35,14.55,17Z"/><path class="cls-1" d="M11.53,210.38c.45-.24.62-.42.79-.42a10.56,10.56,0,0,0,4.31-.63c.26-.1.68.22,1,.34a10.91,10.91,0,0,1-1.38,1.15,2.2,2.2,0,0,1-1.22.26C13.94,210.92,12.87,210.66,11.53,210.38Z"/><path class="cls-1" d="M17.18,16.36c-1.84,1.26-3.41-.17-5.11.32.61-1.17.77-1.32,2.34-1.16A15.28,15.28,0,0,1,17.18,16.36Z"/><path class="cls-1" d="M14.73,27.75l-.63-.86L11.86,29C12,27,13.4,26.09,15,25.16v2.51Z"/><path class="cls-1" d="M18.73,74.54l-.87-1.25-2.37,2.54-.23-.21a5.66,5.66,0,0,1,3.47-3.82Z"/><path class="cls-1" d="M15.43,169.61c.71-1.6,1.5-3.12,3.48-3.65l.11,2.27-.22.07-.73-1-2.38,2.59Z"/><path class="cls-1" d="M15.54,198c.72-1.53,1.44-3.07,3.4-3.6l.18,2.22-.2.12-.81-1-2.29,2.51Z"/><path class="cls-1" d="M15,57.58v2.73L14.11,59l-2.17,2.33C12,59.39,13.33,58.4,15,57.58Z"/><path class="cls-1" d="M2.55,27.31a4,4,0,0,1,3.07-.43c.39.08.68.67,1,1l-.25.46-3.83-.54Z"/><path class="cls-1" d="M3.13,216c1-1.19,2.88-1.32,3.55-.59a.94.94,0,0,1,.29.7.78.78,0,0,1-.64.33C5.26,216.32,4.19,216.15,3.13,216Z"/><path class="cls-1" d="M131.73,215.76c.94-.87,3-1.12,3.66-.61a2.71,2.71,0,0,1,.48.87c-.26.12-.54.37-.78.34C134,216.22,133,216,131.73,215.76Z"/><path class="cls-1" d="M471.13,214a2.78,2.78,0,0,1-4.43,1.46l4.46-1.43Z"/><path class="cls-1" d="M4.2,212.62l-3.63-.53a2.56,2.56,0,0,1,3-1c.38.17.57.75.85,1.14Z"/><path class="cls-1" d="M0,23.82C.68,23,2.65,22.5,3.29,23c.27.21.36.66.53,1a9.24,9.24,0,0,1-.92.36,1.31,1.31,0,0,1-.59,0C1.57,24.2.84,24,0,23.82Z"/><path class="cls-1" d="M14.44,31.1l-1.8,1.35c.08-.31.13-.6.23-.87s.23-.54.38-.86L12,30.39l.06-.27,1.43.26c-.66-.81-.58-1.08.6-1.89-.55.73,1.61,1.42-.12,2.21Z"/><path class="cls-1" d="M17.79,169.33c.33.39.75.66.78,1a3.68,3.68,0,0,1-.4,1.33l.37.29-2,1.05.72-1.6-1.37-.18,0-.31,1.63.13C16.45,170,17.55,169.67,17.79,169.33Z"/><path class="cls-1" d="M13.86,60.83c.35.45.81.79.86,1.18s-.32.81-.51,1.22l.46.2-1.74,1.14c-.27-.76.41-1.41.65-2.14l-.6-.36Z"/><path class="cls-1" d="M17.5,55.55l.29-.45c-1.35-.86-.38-1.84-.17-2.89l1.74.47L18,53.3c.16.89.3,1.74.45,2.6l0,0-1-.35Z"/><path class="cls-1" d="M588.48,132.4l2.06-.33.08.4-.64.19.53,2.6-1.41-.87.56-.43Z"/><path class="cls-1" d="M17.91,77.62l.61.37L17,78.43l.25-1.63c-1.14-.83.32-1.13.54-1.88.44.5-.59,1.52.69,1.41Z"/><path class="cls-1" d="M146.35,6.66c1-1.37,2.42-.41,3.51-.93C148.93,7,147.91,7.24,146.35,6.66Z"/><path class="cls-1" d="M563.22,6.55c1,1.25,2.59-.84,3.58.82l-4.58.41Z"/><path class="cls-1" d="M480.87,7.86l.72-.88h3.83v.46Z"/><path class="cls-1" d="M213.3,7.19h3.82l0,.47-4.54.41Z"/><path class="cls-1" d="M175.36,4.19H171c.37-.54.42-1.32,1.38-.64.3.21.92-.07,1.39-.06s1.08.09,1.62.14Z"/><path class="cls-1" d="M556.47,216.32c-.83.83-2.83.77-4.08-.23Z"/><path class="cls-1" d="M471.15,216.13l3.75.25c-.56.84-2.49.83-3.81.12Z"/><path class="cls-1" d="M229.47,215.64l-3.23.75-.09-.32,1.84-.93-.1-.4c.52.3,1.63-.47,1.56.93Z"/><path class="cls-1" d="M147.4,4.61l3.7-.51.1.65-3.71.51Z"/><path class="cls-1" d="M72.91.89h3.16C75.5,2.11,75,2.12,72.91.89Z"/><path class="cls-1" d="M15.53,15.41c1.62-1.28,2.61-.07,3.71.29l-.06.38Z"/><path class="cls-1" d="M76.44,2.31c.68-1,3-1,3.84,0Z"/><path class="cls-1" d="M591.31,31.5c.3.63-.1,2-.63,2.2-.17,0-.59-.11-.59-.2a1.69,1.69,0,0,1,.11-1.08A4.94,4.94,0,0,1,591.31,31.5Z"/><path class="cls-1" d="M131.67,217.32l4.45.59-.1.56-4.46-.85Z"/><path class="cls-1" d="M210.23,4.42c-1,1-1,1-3.38,0Z"/><path class="cls-1" d="M478.29,4.74l-2,.31-1.1-.86h3Z"/><path class="cls-1" d="M486.38,215c.81-1.21,1.71-.68,2.52-.62.08,0,.23.3.2.35s-.31.4-.48.4C487.93,215.15,487.25,215.08,486.38,215Z"/><path class="cls-1" d="M567.93,214.36l2.53-.17c-.23,1.15-1,1.28-2.5.58Z"/><path class="cls-1" d="M559.52,4.57c-1,.92-2,.17-3.19-.41h3.21Z"/><path class="cls-1" d="M218,215.26c.92-1.18,1.8-.75,2.61-.63.07,0,.2.32.15.38s-.33.38-.51.38C219.62,215.4,219,215.32,218,215.26Z"/><path class="cls-1" d="M168.69,2.21a2.9,2.9,0,0,1,3.77,0Z"/><path class="cls-1" d="M168.22,1.32c-1,.86-1.87,0-2.76-.48h2.78Z"/><path class="cls-1" d="M591,201.6c-.26-.42-.57-.74-.51-.84a13.74,13.74,0,0,1,1-1.38c.19.15.57.4.55.44C591.74,200.36,591.41,200.87,591,201.6Z"/><path class="cls-1" d="M590.76,177.58l-.92.33.75,1.06-.37.31-1.47-1.4C589.47,177.67,590,176.63,590.76,177.58Z"/><path class="cls-1" d="M590.52,62.44c-.2-.45-.58-.92-.47-1.13a3.42,3.42,0,0,1,1.08-1c.07,0,.44.11.45.21a1.21,1.21,0,0,1-.09.76A9.31,9.31,0,0,1,590.52,62.44Z"/><path class="cls-1" d="M12.62,11.61c1.36-.85,2.34-.67,3,.51Z"/><path class="cls-1" d="M590.75,156.44c-.24-.47-.57-.87-.49-1a9.29,9.29,0,0,1,1.14-1.21c.16.18.5.46.46.53C591.58,155.28,591.22,155.75,590.75,156.44Z"/><path class="cls-1" d="M264.91,218.33l-3.55-.54,0-.37,3.59.34Z"/><path class="cls-1" d="M17.47,55.51l.08,1L15.67,57l.85-1-1.26-.37,0-.18,2.22.09Z"/><path class="cls-1" d="M29.37,215.43h2.71C31.34,216.32,30.52,216.31,29.37,215.43Z"/><path class="cls-1" d="M158.37,214.82l2.48.6-.12.44C159.84,215.85,158.82,216.38,158.37,214.82Z"/><path class="cls-1" d="M50.05,216c1.46-.9,2.31-.79,2.93.27Z"/><path class="cls-1" d="M534.41,218.09h2.76c-.5.49-.5.49-2.72.34Z"/><path class="cls-1" d="M92,214.66c-.42,1-1.49,1.07-2.72.13Z"/><path class="cls-1" d="M201.33,219.4h-2.79c1-.91,1.86-.61,2.77-.37Z"/><path class="cls-1" d="M145.23,216.22l-2.61-.2C143.72,215.14,144.7,215.27,145.23,216.22Z"/><path class="cls-1" d="M488.91,215.69l3.2-.54.08.41-3.19.57Z"/><path class="cls-1" d="M69.77,219.1l2.82-.14c-.72.93-1.23,1-2.8.5Z"/><path class="cls-1" d="M426.8,214.92l2.32.19-.05.47a2.74,2.74,0,0,1-2.32-.22Z"/><path class="cls-1" d="M182.62,3.49c-.31,1-.72,1.81-2.15,1.31Z"/><path class="cls-1" d="M187.22,215.83l-3.17.57L184,216l3.16-.56Z"/><path class="cls-1" d="M304.92,215.79l3.13-.47.08.41-3.13.52Z"/><path class="cls-1" d="M386.82,215.69l-3.11.51-.07-.43,3.16-.48Z"/><path class="cls-1" d="M55.19,216l3.15-.42.06.37-3.14.54Z"/><path class="cls-1" d="M504.2,218.52l2.41.17a1.77,1.77,0,0,1-2.46.23Z"/><path class="cls-1" d="M590.83,212.43a9,9,0,0,1-1,.83s-.37-.39-.57-.6l1.2-.76Z"/><path class="cls-1" d="M88.27,4.82l2.09-1.25C90.2,4.79,89.47,5.28,88.27,4.82Z"/><path class="cls-1" d="M241.39,218.91h2.12C242.79,219.79,242.08,219.57,241.39,218.91Z"/><path class="cls-1" d="M268.75,218.73h-2.6c.84-1.12,1.73-.2,2.6-.36Z"/><path class="cls-1" d="M298.85,216.89l2-.41.11.57-2,.31Z"/><path class="cls-1" d="M535.27,219.83l-2.07-.34a1.72,1.72,0,0,1,2.19-.12Z"/><path class="cls-1" d="M137.21,218.42h2.61v.45l-1.21-.09h-1.38Z"/><path class="cls-1" d="M49.16,217l2-.31.08.58-2,.25Z"/><path class="cls-1" d="M590.77,167.39l-1.2.74a5.51,5.51,0,0,1-.34-.64c.39-.26.81-.48,1.22-.71Z"/><path class="cls-1" d="M568.81,166.74l.74,0,.26,1.47-1,.92,1.68.8-1.71.42a4.58,4.58,0,0,1-.4-1.16,2.06,2.06,0,0,1,.21-1.3c.3-.39.43-.6,0-.92Z"/><path class="cls-1" d="M366.49,116.78c.55.84-.12,2.87,2.11,3v1.26l-1.88.4c-.32-.64-.51-1.62-.89-1.7-1.32-.28-1.8-1.67-3-2-.78-.24-1.17.13-1.19.85s.1,1.59.16,2.53c-1.34-.24-2.77.5-4.11-.54-.28-.22-1-.09-1.37.09-1.78.78-3.08-.36-4.44-1.1-.27-.14-.21-.84-.4-1.23-.45-.94-1.22-1.8-.53-3,.06-.11-.11-.45-.26-.58a2.21,2.21,0,0,0-2.54.37c-.43.62-.83,1.24-1.36,2l-1-1.33c-1.92,1.81-2,2.25-.76,3.88.48-.46,1-.9,1.42-1.33l1.16.66.68-2,.36.08c.19,1.36.38,2.71.57,4.11-2.37.11-4.64.21-6.9.35-2.05.12-4.08.4-6.13.42-1.45,0-2.9-.41-4.35-.42-7.17,0-14.34,0-21.6,0a6.39,6.39,0,0,1-.16-1c.07-4.52.13-9,.27-13.55a1.56,1.56,0,0,1,1-1c1.66-.41,3.35-.67,5-1,1.29-.23,2.59-.62,3.92.2l-.42-.9,1.63-1c.8.89.05,1.27-.8,1.61l.29.41,3.39-.76-.06-.43a7.89,7.89,0,0,0-.85-.1,2.68,2.68,0,0,1-1.12-.23l.31,0,.41-.12c-.63-.65-.43-2.19-2.1-1.51l-.52-1.36,1.65.5c1.58-1.44,1.58-1.44-.34-2.2.45-.91.9-1.8,1.36-2.7l.18.07-.16,1.13,1.27.7c.19-.47,1.27-.59.44-1.45,0-.06.24-.4.28-.62.06-.39.2-.88,0-1.17A5.67,5.67,0,0,0,323.88,94l.16-1.2L322,93.87c.06-.23.05-.32.09-.35,1.62-1.21,1.61-1.2.72-3-.65-1.28-1.28-2.57-1.88-3.87a4,4,0,0,1-.11-1.07,7.18,7.18,0,0,1-1.46-2c-.91-2.9-2.86-5.18-4.36-7.72a1.76,1.76,0,0,1-.05-1.17c-2.88-2.82-4.51-6.44-6.08-10.11A49.16,49.16,0,0,0,306.5,60c-2.79-5-5.62-9.94-8.43-14.91-.2-.36-.37-.76-.65-1.35.61,0,1-.1,1.44-.1,11.39,0,22.79-.11,34.19-.1a8.56,8.56,0,0,1,3,.69A12.61,12.61,0,0,1,343,50c.95,1.75,1.86,3.53,2.84,5.26,1.78,3.16,3.63,6.28,5.39,9.45Q359.35,79.34,367.41,94a2.72,2.72,0,0,1,.17,1,26.58,26.58,0,0,1,2.75,3.3,15.76,15.76,0,0,0,3.51,4,1.27,1.27,0,0,1,.26,1.15c.07,0,.14.12.2.11,2-.17,2.32,1.16,2.55,2.65.11.76.5,1.14,1.37.8v-1.94l1.19.72.16-.24-.8-.61.09-.3c.74.13,1.51.21,2.24.4,1,.28,2,.71,3.08.93.61.13,1.48.82,1.85-.42,0-.1.44-.12.67-.12,1,0,2,0,3.07,0,.07,2.74-.84,5.36.18,8-1.87-.07-3.3-.3-4-2-.1-.25-.6-.45-.93-.48a6,6,0,0,1-4.08-2c-.52-.57-1.05-1.12-1.61-1.65-.12-.11-.44-.19-.53-.11a.71.71,0,0,0-.23.58,12,12,0,0,0,.36,1.4l-.86.2c.06.15.07.29.15.35.81.57,1.66,1.09,2.43,1.72a2.21,2.21,0,0,1,.9,1.25c.12,1.08.62,1.57,1.66,1.57l.34,2.62c2.74-.44,4.5,1,6.19,3l-.23,1.16c-1.86,0-3.69,0-5.53,0a1.13,1.13,0,0,1-.73-.54,4.21,4.21,0,0,0-3.63-2.35,3.22,3.22,0,0,0-3.06-2.63c-1,0-1.52.28-1.42,1.38a3,3,0,0,1-1.26,3c-.3-1.09-.57-2.07-.87-3.14,1.36.22,1.55-.68,1.69-1.68a17.65,17.65,0,0,1,.39-1.75c.4-1.48-.31-2.55-1.85-2.3-.27,0-.55,0-1.08.06v5.5l-2.77-.39-.31,1.21-.17,0a7.45,7.45,0,0,1-.26-1.38,2,2,0,0,0-1.41-2,4.25,4.25,0,0,0-.56-.21c-.54-.09-1.09-.16-1.64-.24a6.72,6.72,0,0,0,0,2C365.14,116.13,365.83,116.34,366.49,116.78Zm-49.42-7.2a8.3,8.3,0,0,0,3.47,1.88l.17-.36-3.66-1.5c-1.24-2-3.4-2.37-5.28-3.22l-.2.35Zm39.34,4.59a5.8,5.8,0,0,0,.67-1.69c0-.46-.35-1.27-.67-1.34s-1,.32-1.72.58c.07.06-.07,0-.16-.15-1.08-1.6-1.67.18-2.44.43-.32.1-.65.85-.61,1.27a15.1,15.1,0,0,0,.66,2c.2.79.56,1.1,1.43,1a11.84,11.84,0,0,1,2.34.13,7.24,7.24,0,0,0-.23-1.49,8.42,8.42,0,0,0-.86-1.47l.37-.26Zm9.41-9.3c2.18.7,2.18.7,2.33,2.83,0,.44,0,.88.07,1.32,0,1,.36,1.83,1.67,1.91,1.13-1.53-.48-3.38.55-5l-18.71-7.44-.11.28,13.84,5.87c-.93.73-.82,1.28.29,1.78Zm-3.13,10.48.34-.1,1.21,3.16,1-.82c-.52-1.7-1-3.24-1.54-5l-2.79,2.35,1.42,1.57.28-.22Zm8.53-8.89c.25,1.42-.21,2.79.33,4,.62-.38,1-.8,1.46-.83.69-.06,1.12-.17,1.24-.95,0-.27.4-.5.68-.81C374.16,106.39,372.8,106.45,371.22,106.46Zm-14,9.29c.4.72.72,1.34,1.11,1.92.11.18.45.37.6.32s.57-.36.58-.56c0-.81-.06-1.63-.11-2.6Zm2.81-6.82-.29.15-2-.5v2.47l1-.73,1.57.82.25-.32C360.39,110.19,360.22,109.56,360,108.93Zm-16.94,9.23c.2-.07.36-.08.41-.16.53-.85-.17-3.52-1.06-4-.12-.06-.36-.08-.42,0a.63.63,0,0,0-.18.5C342.24,115.71,342.67,116.93,343.1,118.16ZM377,110.68l-1.54-2.37-.32.1v3.08Zm-17.73-19-.16.45,7.3,2.68.12-.34ZM322,86l-.13.26,7.4,3.08.18-.46Zm36.75,26.64-.25.43,1.27,1.77c.94-.39.85-1.08.44-1.56S359.28,112.88,358.78,112.68Zm-22.8-25-.22.54,4,1.43.18-.43Zm30.76,22.73c-.56,2.19-.27,2.66,1.24,2.35C367.55,111.93,367.14,111.16,366.74,110.39Zm-26.81,7.73a14.69,14.69,0,0,0,0,1.79c0,.18.32.41.52.46a.64.64,0,0,0,.53-.31C341.12,119.25,341.08,118.48,339.93,118.12Zm28.2-17,.18-.49-3.37-1.23-.18.49ZM354.58,89.91c1.67,1.27,3.14,1.85,4.23,1.68Zm25.51,16-.1.44,3.36,1.17.14-.44Zm-25.42,4.24.26-.25-.94-1.39-.62,1.5Zm17.44-7.29.15-.41-3.33-1.26-.14.41Zm3.44,4.73.34-.23c-.25-1.82-.26-1.84-1.36-1.56Zm-50,7c-.61.66-.35,2,.58,2.86C325.9,116.36,325.73,115.52,325.54,114.57Zm24.53-16.51.17-.59-2.4-.6-.1.34Z"/><path class="cls-1" d="M199.78,120.22l.54-.5-2.67-.64-.08.24,1.49.8H159.6c0-3.61,0-7.11,0-10.62a4.51,4.51,0,0,1,.38-1.24l-.49-3.36c2-.12,3.77-.19,5.54-.36,2.11-.2,4.2-.46,6.29-.75.23,0,.37-.48.6-.67a12.14,12.14,0,0,1,1.76-1.38,3.34,3.34,0,0,0,1.55-2c1.18-3.25,1.06-6.67,1.37-10,.17-1.87,0-3.76.07-5.64a9.84,9.84,0,0,1,.47-1.9c-.18-.3-1-.74-.11-1.45.12-.11,0-.46,0-.7-.13-4.71-.27-9.43-.37-14.14a5,5,0,0,1,.44-1.37,20.41,20.41,0,0,1-.61-7.43c.09-1.92.19-3.84.4-5.74a12.67,12.67,0,0,1,.72-2.36l-.56-.21V45.31h53v14.9c-2.47,0-4.89,0-7.31,0a8.64,8.64,0,0,0-5.8,2.2,6.76,6.76,0,0,0-2.43,5.12c-.19,3.67-.44,7.34-.69,11a5.43,5.43,0,0,1-.42,1.2c1,1.45.91,3.39.83,5.29-.07,1.43-.28,2.86-.49,4.27-.1.71-.44,1.07-1.31.91a38.82,38.82,0,0,0-5.69-.61c1.91.43,3.82.91,5.75,1.27a1.31,1.31,0,0,1,1.26,1.51c0,1.51.07,3,.23,4.54a8.41,8.41,0,0,0,2.16,5.41,8.58,8.58,0,0,0,5.82,2.17c2.39.14,4.79.24,7.19.27.79,0,1.19.27,1.23,1,.13,3,.28,6,.38,9,0,1.43,0,2.88.06,4.31,0,.73-.16,1.16-.87,1.3a7.73,7.73,0,0,1-1.65.24q-13.78-.15-27.58-.33C200.52,120.27,200.24,120.24,199.78,120.22ZM193,86.3c3.66,1,7.33,1.92,11,2.84a8.4,8.4,0,0,0,1.77,0c-.28-.24-.34-.31-.4-.33q-6.83-2-13.64-3.91c-.27-.08-.76-.29-.58.4-.27,0-.55,0-.82-.09l-7.49-1.32a5.7,5.7,0,0,0,3.5,1.45,34.5,34.5,0,0,0,3.87.69,23.86,23.86,0,0,0,3.37-.17.65.65,0,0,1-.31.24A1.7,1.7,0,0,0,193,86.3Zm12.86-31.68c-1.55-1-3.44-1.14-5.2-1.62s-3.88-.87-5.82-1.32-3.79-.91-5.69-1.34-3.8-.85-5.7-1.27l0,.21,5.69,1.58,0,.17h-1.76l0,.17Zm-19.43,53.76c-1-1-12.58-4.58-13.8-4.44.19.09.32.17.46.22,3.89,1.38,7.78,2.76,11.68,4.11A8,8,0,0,0,186.44,108.38Zm26.23-29,.19-.46-16.74-7.37-.16.36ZM186.12,51.11l.1-.6a46.33,46.33,0,0,0-7.35-.72Zm-9.72,61.36-4.46-1C174.13,113.05,175.36,113.39,176.4,112.47Zm7.59,3.08c-.47-1-4.2-2.13-6-2Zm-4.75-49.66L184.49,68l.2-.56A19.7,19.7,0,0,0,179.24,65.89Zm17.67,53.17.09-.5-4.36-.86-.07.3C194.06,118.18,195.25,119.59,196.91,119.06ZM182.33,82.41l.12-.54L178.13,81C179.51,81.53,180.71,82.74,182.33,82.41Zm2.65,33-.09.28c1.45.16,2.58,1.54,4.19,1.1l.12-.48Zm2.65-31.54.09-.47-4.23-.89-.07.29C184.87,83,186,84.31,187.63,83.86Zm19.28,32.64,0,.19c1,.55,1.91,1.12,2.9,1.64.18.09.49,0,.73-.09-.11-.21-.18-.55-.36-.62C209.08,117.21,208,116.87,206.91,116.5Zm-42.15-7.19c2.88,1.52,2.88,1.52,3.85.9Zm14.5-26.23c1,.61,2,1.25,3.1.67l0-.38Zm16-11.37.16-.46-4.25-1.33-.08.22Z"/><path class="cls-1" d="M158.88,45.65l-.56-.32.05-.3c4.08-.29,8.17-.83,12.27,1.1l-.27,2a3.46,3.46,0,0,1,.51,1.24c0,4.12.07,8.25-.22,12.35a24.32,24.32,0,0,1-1.61,5.95c-1,2.82-2.09,5.6-3.2,8.37a6.47,6.47,0,0,1-1.1,1.37c.45.65.34.83-1.65,2.08l1.33.15c-.67,1.47-1.37,2.87-1.94,4.32-1.68,4.3-3.29,8.63-5,12.94a10.7,10.7,0,0,1-1.1,1.73l-.24-.17a2.9,2.9,0,0,1,.14.85,5.52,5.52,0,0,1-.4,1.25c-1.17,2.75-2.64,5.35-3.36,8.33a81.93,81.93,0,0,1-3,8.55c-.79,2.17-1.48,2.67-3.83,2.7-2.12,0-4.24,0-6.36,0-5.16-.07-10.32-.19-15.48-.22a1.48,1.48,0,0,1-1.71-1.32c-.52-2-1-3.93-1.75-5.83-1-2.53-2.18-5-3.12-7.48-1.2-3.21-2.26-6.47-3.28-9.73a4.79,4.79,0,0,0-1.27-2.32,4.55,4.55,0,0,1-1.07-2,43.06,43.06,0,0,1-1.77-6.32c-.41-2.65-2-4.72-3-7.09-1.07-2.61-2.26-5.15-3.18-7.83a43.32,43.32,0,0,1-1.6-4.17,4.17,4.17,0,0,1,.28-1.45c-1.56-1.62-2.22-4.88-1.24-5.5a13.53,13.53,0,0,1-.35-2.21c0-3.52.17-7,.19-10.56,0-1,.43-1.28,1.25-1.33.47,0,1,0,1.44,0h25.07c2.31,0,3.26.77,3.42,3.08a5.58,5.58,0,0,0,.91,2.31c1,1.94,1.81,4,2.68,6,1.37,3.15,2.77,6.3,4.1,9.47.63,1.5,1.06,3.09,1.73,4.56a18.42,18.42,0,0,0,2,3.45c.64.84,1.18.22,1.52-.45,2.17-4.3,4.41-8.57,6.46-12.93,1.72-3.64,3.2-7.38,4.79-11.08a7.48,7.48,0,0,0,.5-1.34C157.17,46.74,157.23,45.52,158.88,45.65ZM136.49,73.19l0-.37-32.87-8.24-.08.32a4.7,4.7,0,0,0,.74.28Q119.37,69.1,134.46,73A12.36,12.36,0,0,0,136.49,73.19ZM113.55,62.25l0,.15c.06,0,.11.11.17.13q11.32,3.41,22.63,6.78a2.66,2.66,0,0,0,1-.08c-.25-.23-.47-.59-.76-.67-5.78-1.63-11.57-3.22-17.36-4.82C117.29,63.23,115.42,62.75,113.55,62.25Zm1,32.41,0,.22,1,.31c3.16.93,6.33,1.83,9.49,2.79,3.87,1.16,7.73,2.37,11.6,3.55.19.06.43-.06.64-.1a1.91,1.91,0,0,0-.35-.63,2.26,2.26,0,0,0-.68-.2l-20.18-5.72A12,12,0,0,0,114.59,94.66Zm44.89-16.39a86.78,86.78,0,0,0-9.65-1.9C151.64,77.61,157.93,78.88,159.48,78.27ZM146.3,75.8l.17-.77L137,73.13l-.07.32ZM154.36,74c1.36.73,2.59,1.95,4.25,1.62l.15-.56Zm11.15-26.89.07-.46-4.82-.49C162.3,46.79,163.8,47.67,165.51,47.12Zm-23.06,56.17.18-.65a9,9,0,0,0-4.31-.72ZM126.08,46.92A20.05,20.05,0,0,0,131.6,49l.09-.31Zm24.06,58.44.14-.52a12,12,0,0,0-4.61-.83Zm3-31.43.1-.42-3.85-.91C150.58,73.15,151.68,74.19,153.11,73.93Zm.74-17.14-.09.31c.91.19,1.59,1.15,2.64.86l.14-.47ZM138.08,69.4l-.14.41,3,.79.11-.43Zm9,6.17c1.36,1.09,1.79,1.15,2.46.27Zm-9.92,16.92.14-.53-3.15-.82-.07.25Zm29.24-45.36-.08.47,3.05.44.06-.38Zm-6.2,31.45-.07.42,2.28.44.11-.6Z"/><path class="cls-1" d="M451.17,81.68H449l.6-.74-.09-.28-1.76.32-.43-1.19,1,.38-.76-1.41,1.2-1.61-.25-.07a8.53,8.53,0,0,1,.42-1.69,2.29,2.29,0,0,0-.69-2.72,1.94,1.94,0,0,1-.59-.81c-.38-.91-.69-1.87-1.09-2.78a5.84,5.84,0,0,0-.71-1c.26-3.63.33-7.23.83-10.77.53-3.79.1-7.55.13-11.32,0-1.28.49-1.6,1.55-1.64,4.92-.15,9.83-.39,14.75-.46,3.79,0,7.59.15,11.39.18a4.55,4.55,0,0,1,4.44,2.31c3.55,5.68,7.53,11.09,11.17,16.72,4.66,7.21,9.1,14.56,13.74,21.78,2,3.09,4.22,6,6.38,9,1.36,1.88,1.39,1.86.86,4.06a14.5,14.5,0,0,1,.29,1.83,25.12,25.12,0,0,1-.11,2.88c-.43,4.45.15,8.91,0,13.36,0,1.31-.16,2.62-.25,4-.85.06-1.6.15-2.35.16-9.28.09-18.56.16-27.84.27a1.76,1.76,0,0,1-1.73-.91q-2.6-4.11-5.26-8.16c-1.56-2.35-3.18-4.66-4.76-7a19.22,19.22,0,0,1-1.85-2.93c-1.91-4.44-5.07-8.1-7.55-12.18a5,5,0,0,0-1.35-1.62c-.4-.25-1.09,0-1.85,0l1.19-.89c-.77-.91-.91-.89-1.71.28l-1.14-1.32,2,.43c-.42-1-.68-1.68-1-2.35l-.74.36-1.18-1.58-.31,0c-.1.86-.21,1.73-.31,2.54C451.88,84.22,450.05,83.88,451.17,81.68Zm39.71,2.86c.08.21.1.52.25.63,2,1.47,4.05,2.91,6.09,4.37l.34-.52c-2-1.29-4-2.57-6-3.87-.26-.17-.49-.39-.73-.58a11.89,11.89,0,0,0-1.49-1.36c-3.34-2.18-6.7-4.31-10.06-6.45a2.9,2.9,0,0,0-.66-.25l-.17.31c1.13.71,2.28,1.39,3.38,2.14,2.1,1.44,4.14,3,6.27,4.37A18.33,18.33,0,0,0,490.88,84.54Zm10.1,16,.29-.52L490,93.74a2.78,2.78,0,0,1-.59-.4c-1.68-1.77-3.93-2.53-6.1-3.44Zm1.14-8.36-.27.43,8.38,5.16.22-.36Zm-22.74-4.39c-.78-1.27-5.56-3.94-7.09-4ZM450,78.49c-.47-.27-.81-.64-1.05-.58a3.1,3.1,0,0,0-1,.6l1.72,1.76Zm2.43,3.31.36-1.44-.66-1.76C451,79.85,452.25,80.76,452.44,81.8Zm50.64,19.36-.18.21,3.38,2,.17-.31Z"/><path class="cls-1" d="M455.53,104.7c0,4.86,0,9.7,0,14.54,0,1-.56,1.32-1.4,1.35-4.59.14-9.19.46-13.77.35-9-.21-18-.79-27-1a107.57,107.57,0,0,0-11.45.86c-1.59.14-2.53-.66-2.47-2.23.14-3.84.25-7.67.38-11.51,0-.48.07-1,.09-1.44.05-.86.53-1.14,1.35-1.13,2.16,0,4.32,0,6.48,0a18.3,18.3,0,0,0,3.92-.4,8.64,8.64,0,0,0,6.38-8.19c.11-9.07.26-18.14.19-27.21a17.55,17.55,0,0,0-1.4-5.75,5,5,0,0,0-4.19-3,60.3,60.3,0,0,0-6.3-.49,39.66,39.66,0,0,0-4.08,0c-.87,0-1.25-.27-1.25-1.14,0-4.55,0-9.1,0-13.82,2.24,0,4.18,0,6.12,0,.23,0,.44.31.67.45,2.7,1.66,5.41,3.3,8.11,5l.29-.48-8-4.9c.38,0,.76-.06,1.13-.06,6.52,0,13,0,19.56,0a3.27,3.27,0,0,1,1.74.54c2.73,1.94,5.41,4,8.12,5.94a.77.77,0,0,0,.81-.05l-8.72-6.34H440c0,.33.06.71.06,1.09,0,5.68,0,11.36,0,17,0,1.13-.62,2.15-.57,3.38.19,4.23.18,8.47.29,12.7a4.11,4.11,0,0,0,.46,1.32,49.46,49.46,0,0,0-.47,5.79,85.57,85.57,0,0,0,.79,11.56c.72,4.3,3.18,6.16,7.51,6.58C450.48,104.3,452.94,104.48,455.53,104.7ZM417,50.36l-.17.32,21,12.52.19-.29a5.58,5.58,0,0,0-.55-.44c-3.27-2-6.56-4-9.82-6.09-1.71-1.08-3.65-1.65-5.25-3.1S418.83,51.31,417,50.36Z"/><path class="cls-1" d="M57.61,119.91v-15c2.18-.2,4.28-.33,6.36-.62,1.69-.24,3.54.1,4.94-1.34,2-2,3.6-4.26,3.86-7.12s.19-5.67.25-8.51c0-.55,0-1.1,0-1.65a18.55,18.55,0,0,1,10.31,1.47c2.87,1.27,5.8,2.42,8.72,3.61a13,13,0,0,0,1.42.43l.12-.28-6.33-3.4.08-.24,5,1c-3-1.6-11.3-3.61-13-3.18l.28-.48a19.3,19.3,0,0,0-2-.94,5.86,5.86,0,0,0-2.39-.34l2.06,1.3-4.51.31,1.42-2.37c-.8-.64-1-1.8-.94-3.1.06-2.28,0-4.56,0-6.84a4.23,4.23,0,0,1,.3-1.17,4,4,0,0,1-.29-1.12c.29-4.56-1.84-7.62-5.83-9.54a4.5,4.5,0,0,0-1.7-.4c-1.84-.1-3.68-.16-5.52-.16-.85,0-1.14-.38-1.14-1.15,0-2,0-4,0-5.93s-.23-3.81-.35-5.74L59.85,47v-.2l-1.25-.2V44.75H94.5c0,.55.07,1,.08,1.4,0,3.12.22,6.25,0,9.35-.14,1.85.23,3.65,0,5.47-.22,2.14.11,4.29,0,6.44s0,4.48,0,6.72a12.89,12.89,0,0,1-.06,3.11,10.71,10.71,0,0,0,.06,2.66c0,1,0,2.08,0,3.12v3a17.92,17.92,0,0,1,0,3.11c-.55,2.9.29,5.71.46,8.56a6,6,0,0,0,.6,1.66c1.17,3,3.47,4.44,6.64,4.73,2.77.26,5.53.67,8.48,1,.1,2.43.26,4.88.29,7.35,0,2-.17,3.91-.13,5.87,0,1-.37,1.38-1.26,1.47-.32,0-.64,0-1,0l-50,.11C58.39,120,58.08,119.94,57.61,119.91ZM93.4,56.63l0-.28L60.93,47.06c0,.33.1.43.2.46q15.58,4.56,31.17,9.1A4,4,0,0,0,93.4,56.63ZM75,71.57l-.12.23a2.28,2.28,0,0,0,.3.17c5.7,2,11.4,4,17.11,6a3.63,3.63,0,0,0,1.19,0v-.25ZM88.8,61.21l.09-.36L66.54,55.21l-.09.36Z"/><path class="cls-1" d="M540.08,120c-1.6.07-3.19.17-4.78.2-5.44.09-10.88.12-16.31.24-1.18,0-1.48-.39-1.48-1.53,0-16.16,0-32.32-.15-48.48A24.61,24.61,0,0,0,516.14,64c-.8-2.81-3.3-3.71-5.77-4.26s-5-.67-7.72-1c0-.17-.06-.51-.06-.85,0-4,0-8.08,0-12.12,0-1,.35-1.39,1.25-1.5a26.5,26.5,0,0,1,3.19-.41q22.8.07,45.6.21c2.33,0,2.59.12,2.56,2.37,0,2.59-.39,5.17-.52,7.76a13.38,13.38,0,0,0,.22,3c.23,1.31-.05,1.68-1.39,1.8a58.9,58.9,0,0,0-6.64.75,10.85,10.85,0,0,0-3.77,1.73,4.55,4.55,0,0,0-1.2,1.91,14.47,14.47,0,0,0-1.07,5c-.12,6.52.38,13.08-.15,19.56-.84,10.41-.13,20.82-.45,31.23C540.18,119.34,540.13,119.57,540.08,120Zm-13.25-5,.28-.35c-.16-.35-.32-.71-.5-1.05-1.19-2.34-2.46-4.64-3.55-7a4.56,4.56,0,0,0-2.86-2.22c3.17,2.19,3.87,5.87,5.79,9l-2.44-.46-.06.26Zm-8.24-4.27,4.27,2A4.58,4.58,0,0,0,518.59,110.73Z"/><path class="cls-1" d="M282.85,67.29c0-.13-.09-.55.08-.81q5-8.06,10-16.07c.75-1.19,1.31-1.12,2,.12q3.65,6.47,7.35,12.89c0,.11.2.22.18.3a23.17,23.17,0,0,1-.87,3c-.36.85-.34,2.24-2,1.82,1,1.15-.36,3.58-2.33,4.1,1,.53.64,1.24.26,1.86q-5.07,8.31-10.19,16.61c-2,.8-1.73,3.06-2.83,4.47a10.33,10.33,0,0,0-2,6.29,1.93,1.93,0,0,0,.64,1.37,11.76,11.76,0,0,0,7.1,2.51c2.55.07,5.11,0,7.78,0,1.12,5.14.15,10.21.17,15.59h-6.52c-9.56,0-19.12-.1-28.67,0-6.57.1-13.12-.4-19.68-.24-.83,0-1.19-.29-1.2-1.07,0-2.95-.13-5.9-.14-8.85,0-1.08.14-2.15.23-3.34l3-.5,0-.18-2.8-.34a2.49,2.49,0,0,1,2.52-1.34c2-.07,4,0,5.8,0l.77-1.54.34.15-.12,1.31,3.42-.52-.88-.71q.21-1.26.36-2.25l1.08.33a4.56,4.56,0,0,0,0-1.17,5.08,5.08,0,0,1-.36-1.25l1.57,2c-.38.55-.7.81-.71,1.08a3.54,3.54,0,0,0,.32,1.15c.42-.27,1-.47,1.19-.84a12.47,12.47,0,0,0,.41-2.48,8.68,8.68,0,0,0,1,.17c.5,0,1.17.19.8-.76,0-.1.25-.48.35-.47a2.91,2.91,0,0,1,.8.39l.79-1.47-1.42-.18.48-1.32c.1.08.22.16.33.26,1.19,1.13,2.55.8,3.27-.72a61.13,61.13,0,0,1,7.2-11.28c.36-.46.36-1.19.67-1.71,2.59-4.45,5.18-8.9,7.85-13.3A28.26,28.26,0,0,1,282.85,67.29Zm-.62,2-.09.38,14.15,5.69A54.1,54.1,0,0,0,282.23,69.34Zm14.21,3.17.05-.45c-4.22-1.64-8.36-3.52-13-4ZM286.22,63l-.14.35,12.7,5.22.17-.43Zm-37.1,48.49.27-.35-5.53-3.25-.26.45Zm20.41,5.65-.12.25,5.66,2.93.23-.46Zm-16.21-3,.22-.47-2.74-1.49-.15.27C251.65,112.86,252,114.36,253.32,114.17Zm4.47,2.28a1.13,1.13,0,0,0-.13.27c.69.66,1.28,1.5,2.45,1.39Z"/><path class="cls-1" d="M373,178.46h-1.57q-21.24.12-42.47.26c-1.6,0-3.2.11-4.8.21-.77,0-1.19-.2-1.23-1.05-.1-2.2-.3-4.39-.37-6.59-.05-1.62.34-1.94,2-1.94h3.84c4,0,6.15-1.91,6.65-5.86a13.33,13.33,0,0,0,.09-1.79q0-13.92,0-27.84c0-1.94,0-2,1.91-2h24a7,7,0,0,1,.11.76c.06,7.83.15,15.67.17,23.5,0,1.19-.39,2.38-.44,3.57,0,.6.4,1.2.47,1.81a32,32,0,0,0,.27,3.69,5.14,5.14,0,0,0,5.29,4.11c1.56,0,3.12.07,4.68,0,1.2-.08,1.58.53,1.57,1.54C373.18,173.34,373.1,175.81,373,178.46Z"/><path class="cls-1" d="M265.17,167.13c.25.71.38,1.11.58,1.67,0,0,.4,0,.41.06,0,.73.51.39.86.38.59,0,1.18,0,1.85,0l.81-1.17-.39-1,1.49-.56-.66-1.12.38-.76,1.31.31c.05-.64.38-1.54.08-1.88-1.29-1.48-1.51-3.42-2.44-5-.75-1.3-1.25-2.74-2-4.06-.61-1.13-1.64-1.95-1.84-3.42-.11-.84-1.28-1.49-1.75-2.34-1.2-2.16-2.22-4.41-3.4-6.58-1.56-2.88-3.21-5.71-4.81-8.56-.21-.37-.4-.75-.68-1.28.5,0,.84-.09,1.17-.1l20.28,0a7.39,7.39,0,0,1,5.69,2.84,14.86,14.86,0,0,1,1.55,2.42c4.54,8.2,9.11,16.38,13.58,24.61a24.89,24.89,0,0,0,4.48,6.09,5.19,5.19,0,0,0,1.44,1.13l.89,2c.74-1.82.78-1.88,2.49-1.29a4.45,4.45,0,0,0,3.45.16,3.58,3.58,0,0,1,1.39,0v4.89c-.52-.15-1.32-.14-1.54-.49-.58-.93-1.54-.92-2.33-1.35a20.32,20.32,0,0,1-2.71-2c-.06.58-.12,1.08-.2,1.78a6.9,6.9,0,0,1,3.23,4.13c2.09.09,3.69,1.23,3.53,2.65-1,0-2.06,0-3.09,0a1.57,1.57,0,0,1-.74-.41l-1.75-1.36c-.19-.15-.32-.38-.52-.5a13.93,13.93,0,0,0-1.94-1.12c-.1,0-.56.48-.7.81a13.63,13.63,0,0,0-.49,1.72l-.31,0-.47-1.52c.75-.41,1.64-2.57,1.17-3.16-.31-.41-1-.51-1.78-.87v3.52l-1.8.17a15.19,15.19,0,0,0-1.58-1.65c-.22-.17-.73,0-1.1.06a9.12,9.12,0,0,0,.4,1.38,5.76,5.76,0,0,0,.77,1c.29.37.63.71.9,1.1a4.71,4.71,0,0,1,.35.83l-.91.1c-.92-.77-1.63-1.46-2.43-2-.63-.44-1.08-.2-1.08.61,0,.39.1.79.18,1.42-.8-.13-1.55-.26-2.29-.36a3.64,3.64,0,0,0-1.14,0,2.37,2.37,0,0,1-2.81-1.23c-.13-.22-.41-.35-.6-.54-.65-.64-.63-1.06.15-1.78-.78-.18-1.53-.79-1.79.61,0,.23-.86.32-1.4.32-.83.42-1.29,1-.53,1.9l1.85-.68.29-.63h.22c.09.74.18,1.47.3,2.52H262.8c0-1,0-2,0-3.05,0-1.72.07-3.44.09-5.16,0-.76.23-1.29,1.1-1.41,1.2-.17,1.5-.85,1-1.92C264.91,167.75,265,167.61,265.17,167.13Z"/><path class="cls-1" d="M168.64,141.09v-8.62c.43,0,.77-.08,1.11-.08,6.92-.08,13.84-.15,20.75-.25.72,0,1.6-.57,2.11-.3,1.94,1,4.1.11,6,1.24a5.49,5.49,0,0,0,.91,1c.15.11.59-.18,1-.34l.25,1,.78-.3-.52-1,.31-.25,1.34,1.46c-1.59,1.61.6,1.85,1,2.76-.6,2.58-.48,2.62,1.76,3.42,0,1.07,0,2.18,0,3.27,0,.27-.51.55-.48.78a8.78,8.78,0,0,0,.51,1.66l-1.1-.2c.17.69.32,1.36.51,2.14-.31.29-.82.71-1.27,1.2-.67.72-1.32,1.47-1.92,2.24-.46.6-.88,1.05-1.61.22l-1.76,2.34-.18-.49-3.33.26-.05.56c.88.22,1.75.49,2.64.65a5.76,5.76,0,0,1,4.87,6,19.65,19.65,0,0,0,.48,4c.44,2,1.43,2.74,3.52,2.87,1.72.1,3.42.29,5.13.48.23,0,.44.28.66.43l-.55.22c.16,1.46.38,3,.48,4.47a10,10,0,0,1-.18,2.68,1.37,1.37,0,0,1-1,.79c-1.58.09-3.17,0-4.72,0-.69-.83,0-2.31-1.58-3l.21,1.29a7.25,7.25,0,0,0-2.25.06c-.43.15-.66.87-1,1.34l.24.36h-3.34c-3.88,0-7.77.2-11.64,0a8.6,8.6,0,0,1-8-7.13,54.1,54.1,0,0,1-.4-7.42,3.36,3.36,0,0,0-1.82-3.09,9,9,0,0,0-4.61-1c-.95,0-1.91,0-2.94,0v-8.5c1.8-.16,3.61-.37,5.42-.46a4.15,4.15,0,0,0,4.18-4.26,3.93,3.93,0,0,0-3.87-4.14C172.71,141.34,170.68,141.23,168.64,141.09Z"/><path class="cls-1" d="M431.59,178.61H396.87a4.31,4.31,0,0,1-.1-.72c0-2.4,0-4.8,0-7.2,0-.91.3-1.46,1.34-1.46,1.56,0,3.12-.13,4.68-.14a4.77,4.77,0,0,0,3.85-1.85,8.07,8.07,0,0,0,2-5.35c-.08-4.84-.16-9.68-.14-14.52a5.38,5.38,0,0,0-5.72-6.31,32.78,32.78,0,0,0-4.07-.23c-1.15,0-1.47-.5-1.51-1.46,0-.52-.05-1-.05-1.56,0-1.68.08-3.36,0-5a.9.9,0,0,1,.93-1.08,9.59,9.59,0,0,1,1.2,0c10.36.07,20.72.17,31.08.21,1.12,0,1.41.35,1.41,1.44-.05,10.48,0,21-.05,31.44,0,3.95,0,7.91,0,11.87C431.77,177.3,431.65,178,431.59,178.61Zm-26-3.2.34-.48-7.6-4.73-.18.3Zm4.35,2.58.23-.41-3.78-2.22-.27.48Z"/><path class="cls-1" d="M131.71,177.64v-8.48c1.48-.1,2.92-.1,4.33-.32a10.92,10.92,0,0,0,3.85-1,3.51,3.51,0,0,0,1.42-2.52c.25-4.42.32-8.85.41-13.28,0-1.55,0-3.12-.11-4.67a19.67,19.67,0,0,0-.66-3.74,2.9,2.9,0,0,0-2.75-2.13c-1.67-.11-3.35-.21-5-.28-.86,0-1.19-.4-1.17-1.26,0-2,0-3.92,0-5.88,0-1.46.27-1.66,1.67-1.66h30.65c0,.47,0,.86.06,1.25.08,9.83.14,19.67.25,29.51a8.64,8.64,0,0,0,.47,2.44,4.1,4.1,0,0,0,4.12,3c1.39,0,2.78.13,4.31.2-.29,1.65.56,3.32-.65,4.73,1.26,1.11.35,2.6.76,4.09Z"/><path class="cls-1" d="M89,131.94v9.3c-2.63.57-5.71.11-7.5,3.14l2.71.82v.29l-3.14-.26c-.82,3.85-.61,7.8-.79,11.78l1.22.12v.3l-1.08.12c0,2.1-.17,4.23,0,6.32.34,3.19,2.19,4.75,6,5.47l2.57.51v9.08c-2.08,0-4.12.09-6.14,0-4.18-.24-8.38-.45-12.54-.91a16.71,16.71,0,0,1-11.64-6.3,17.13,17.13,0,0,1-3.42-9,85.72,85.72,0,0,1-.74-10.48,21.76,21.76,0,0,1,3.77-12.42,16.33,16.33,0,0,1,10.92-6.69c6.33-1.2,12.72-.91,19.09-1.19C88.52,131.88,88.72,131.92,89,131.94Z"/><path class="cls-1" d="M228.83,169.23l-.12-1.76c.93.42,1-.12.87-.77a5.24,5.24,0,0,1,1.38,0c.94.27,1.43-.51,2-.88,2.43-1.57,3.28-4.36,4.8-6.61,2.23-3.31,4.21-6.79,6.35-10.29l-1.82-.83c.72-.53,1.82,1.25,2.33-.48l-1-.47a1.7,1.7,0,0,0,2.15-.67c.3-.47.4-1.08.69-1.55q2.7-4.32,5.44-8.6a14.39,14.39,0,0,1,1-1.28c.78,1.45,1.42,2.67,2.1,3.88s1.45,2.58,2.22,3.83a3.06,3.06,0,0,1-.49,4.15c-.35.39-.33,1.12-.68,1.51-1,1.11-1.33,2.59-2.22,3.76a40.4,40.4,0,0,0-2.41,4,26.92,26.92,0,0,1-2.49,4.08,14.9,14.9,0,0,0-2.22,3.71c-1.75,3.86-1.43,4.57,2.74,5.56a18.93,18.93,0,0,0,4.77.19c.87,0,1.29.29,1.3,1.11,0,2.75,0,5.49,0,8.37H231.68c-3.16,0-6.33,0-9.5,0-.7,0-1.08-.24-1.09-.91,0-2.39,0-4.78,0-7.15l2.09-.5-1.66-.2,0-.33C223.77,168.83,226.47,170.11,228.83,169.23Z"/><path class="cls-1" d="M93.54,131.9c4.12-.26,7.9.23,11.07,2.87.17-.21.21-.24.21-.27.22-2.4.22-2.4,2.73-2.39,3.08,0,6.16.06,9.23,0,1.72,0,3.43-.22,5.14-.23,1.51,0,1.64.28,1.62,1.79-.05,4.19,0,8.37,0,12.56,0,1.23,0,2.47,0,3.83-.35,0-.73,0-1.12.06-6.67,0-13.34,0-20,.12-.93,0-1.36-.21-1.45-1.19-.11-1.27-.38-2.52-.57-3.78a3.79,3.79,0,0,0-3-3.24c-1.21-.35-2.47-.59-3.84-.91Z"/><path class="cls-1" d="M93.44,169.71c1.47-.22,2.77-.47,4.07-.59a2.92,2.92,0,0,0,2.79-2.37,35.29,35.29,0,0,0,.73-4.47,29.08,29.08,0,0,0,0-3H124c-.23,1.82-.42,3.59-.67,5.35-.17,1.26-.52,2.51-.59,3.77a6.88,6.88,0,0,1-2,4.21,12.82,12.82,0,0,1-8.12,4.61c-2.72.32-5.42.84-8.15,1.05-3.3.26-6.63.27-9.94.43-.66,0-1-.22-1-.82C93.42,175.18,93.44,172.43,93.44,169.71Z"/><path class="cls-1" d="M467.43,159.22v19.41a6.15,6.15,0,0,1-.73.07c-9.8,0-19.6,0-29.4.06-.94,0-1.45-.26-1.45-1.21q0-3.77,0-7.52c0-.7.4-.92,1.09-.94,2.68,0,5.36-.06,8-.26a14.13,14.13,0,0,0,7.38-2.48,9.54,9.54,0,0,0,3.42-5.33c.54-1.79.54-1.8,2.37-1.8Z"/><path class="cls-1" d="M509.07,168.88v8.89c-4.38-.28-8.89.48-12.51-3.27-.09,1.09-.17,2-.26,3a3.55,3.55,0,0,1-.65.12q-7.84.21-15.7.39c-1.5,0-1.86-.27-1.87-1.76q0-6.72,0-13.44c0-1.43.58-1.93,1.87-1.82s2.66.21,4,.22c4.35,0,8.71,0,13.07,0,1,0,1.18.38,1.28,1.24a18.46,18.46,0,0,0,.77,3.33,3.3,3.3,0,0,0,3,2.18c1.81.26,3.62.5,5.44.75Z"/><path class="cls-1" d="M305.52,154.93v-1.19l0-19.9c0-1.43.38-1.88,1.81-1.91,1.07,0,2.14.16,3.21.2,2.06.08,4.13.2,6.2.16,4.19-.07,8.38-.24,12.57-.37,1.19,0,1.55.36,1.53,1.56,0,2.16-.11,4.32-.1,6.47,0,.75-.21,1-1,1.12A33.77,33.77,0,0,0,325,142c-3.9,1.1-7.2,3.53-7.43,8.9-.05,1-.22,2.07-.24,3.1,0,.72-.4.92-1,.92Z"/><path class="cls-1" d="M389.61,155H379.17c-1.05,0-1-.82-1.13-1.52-.25-1.77-.43-3.55-.71-5.32a8.15,8.15,0,0,0-6.91-6.62,33.22,33.22,0,0,1-3.3-.49,1.41,1.41,0,0,1-.95-.8,22.77,22.77,0,0,1-.12-8.12h23.56Z"/><path class="cls-1" d="M436.12,141v-9.14h30.8c1.06,6.11-.06,12.13.42,18.24-3.55.09-7,.18-10.4.25a.85.85,0,0,1-.55-.15c-.52-.42-.88-2.74-.66-3.5a1.25,1.25,0,0,0-.24-.77c-.89.13-1-.68-1.39-1.13a8.47,8.47,0,0,0-4.53-2.89,29.77,29.77,0,0,0-8.29-.92C439.61,141.05,437.93,141,436.12,141Zm26.27-1.58a10,10,0,0,0,1.08-1.7,2.14,2.14,0,0,0-.17-1.19s-.62,0-.69.1c-.61,1.09-1.1.45-1.62-.06-.35-.33-.71-.64-1.06-1l-.32.2c.1.74.2,1.49.31,2.28l1.2-.19Zm.11,6.92a6.92,6.92,0,0,0,1.15-1.33,4.14,4.14,0,0,0,.11-1.47c-.71,0-1.43.05-2.14.1a.7.7,0,0,0-.06.44C461.83,144.8,462.13,145.49,462.5,146.36Zm2.91-2.81,1.37-.49c-.33-2.41-.47-2.94-2-2.64ZM456,145.28a1.81,1.81,0,0,0,2.17-1.24c.3-.73,0-.81-.4-.95a9.75,9.75,0,0,0-1.58-.31C456.11,143.58,456,144.43,456,145.28Zm5.52-2.35.44.41,2.38-2a13,13,0,0,0-1.59-.74A23.28,23.28,0,0,0,461.5,142.93Zm2.49-8,2.45-1.47-2.06-.8Zm-8,4.93c-2-.15-2.87.49-2.85,2Zm.8-1a8.3,8.3,0,0,0-.58,1.28,1.47,1.47,0,0,0,.14,1,.93.93,0,0,0,.83-.07,1.12,1.12,0,0,0,.24-.93A6,6,0,0,0,456.79,138.91Zm8.52-2.65a3.76,3.76,0,0,0,.5,1.13c.15.15.74.14.81,0a3.81,3.81,0,0,0,.28-1.14ZM449.71,134c-1.21.32-1,1-.55,1.71C450.42,135.52,449.87,134.74,449.71,134Zm12.2,1.16-.25.39,1.52,1C463.22,135.14,462.81,134.8,461.91,135.13Zm2.68,6.64c-.4.32-.83.52-.81.66a9.09,9.09,0,0,0,.49,1.38l.32-.1Z"/><path class="cls-1" d="M514,140v-8.35c3.84.15,7.93-.8,11.33,2.46.12-.46.22-.75.27-1a5.66,5.66,0,0,0,.06-.82c.09-.05.16-.13.23-.13l13.41-.27c.59,0,.89.15,1,.77.15,1.58.44,3.16.48,4.75.08,2.91,0,5.83,0,8.94h-6.84l-.07,1.13c-.15-.05-.32-.05-.35-.12a1.91,1.91,0,0,0-2-.91q-3.42,0-6.83-.14a1.18,1.18,0,0,1-.92-.6c-1.11-4-2.26-5-6.62-5.38Z"/><path class="cls-1" d="M291.29,94.27c2.36-4.11,4.72-8.22,7.12-12.31a1.16,1.16,0,0,1,.86-.46c3.38-.1,6.77-.21,10.16-.2a17.62,17.62,0,0,1,3.18.62l-.3.1,6.9,11.9-.28.36-27.44.4Z"/><path class="cls-1" d="M451.17,144.63c.07,1.6.24,3.11-.67,4.48a1.4,1.4,0,0,0,0,.95,14.63,14.63,0,0,1,.6,2.34c.11,3.59.14,7.18.18,10.78,0,1.47-.11,1.57-1.62,1.62s-3.19.1-4.78.21a1.56,1.56,0,0,1-1.82-1.14,6.38,6.38,0,0,0-5.64-4.34c-1.2-.15-1.63-.54-1.58-1.77.09-2.12.05-4.24,0-6.35,0-.9.32-1.15,1.13-1.28a14.3,14.3,0,0,0,2.64-.71c1.68-.63,3-1.64,3.25-3.6.11-.91.6-1.23,1.54-1.21C446.58,144.68,448.81,144.63,451.17,144.63Z"/><path class="cls-1" d="M251.29,162.68c1.4-2.46,2.75-4.89,4.2-7.28a1.69,1.69,0,0,1,1.29-.62c2.14,0,4.27.16,6.41.24a5.45,5.45,0,0,0,.8-.05l4.45,7.71Z"/><path class="cls-1" d="M135.55,195.57a3.19,3.19,0,0,0-3.29-.14.62.62,0,0,1-.46,0l-2.28-.83c-.88.6-1.45,1.3-2.05,1.32s-1.12-.69-1.8-1.16c.31-.19.45-.36.62-.38a30.42,30.42,0,0,1,4.12-.48,20,20,0,0,1,3.2.59,12.32,12.32,0,0,0,1.49.08l.28-1.68-.86-.34-.05-.27,1.39-.2c.52,1.57,1.39,1.59,3.57.19.4.66.4.66-1.06,1.24l.22.83-2.39.14-.68,1.14Z"/><path class="cls-1" d="M185.42,195.56h-4l-.05-.19a8.05,8.05,0,0,0,1.94-1c1.89-1.69,4.38-1.24,6.53-2a27.69,27.69,0,0,1,3.45-.69c-2,2-4.83,1.78-7.12,3l2.74.5v.37l-3.16-.14,0,.17L187,196l0,.3h-2.5Z"/><path class="cls-1" d="M157.23,191l-3.92.81-.28-.53.64-.37-3.75.2c1.66-1.3,4.3-1.46,5.3-.48.42-.56.4-.61-.7-1.63l1.6-.28.22,1.19c2,.44,4-.79,6.13-.48l-.95.62,1.29.47,0,.39-2.52.33-.09-.26.89-.57c-1-1.15-1.94,0-2.24.43C158,192,157.59,191.41,157.23,191Z"/><path class="cls-1" d="M450,195.26a19.58,19.58,0,0,1,3.15-1.85A40.44,40.44,0,0,1,458,192.2a17.39,17.39,0,0,1,3.61-.46,24.39,24.39,0,0,1-3.26,1.57,29.29,29.29,0,0,1-3.86.77l.05.38,2.8.54,0,.37-3.23-.16,0,.14,1.25.52-.11.28c-.65-.08-1.49.55-1.83-.67,0-.14-.54-.2-.84-.21C451.79,195.24,451,195.26,450,195.26Z"/><path class="cls-1" d="M53.81,191.2l2.06.37V192H48a19.9,19.9,0,0,0,2.2-.77c.76-.35,1.41-.95,2.19-1.23a31.51,31.51,0,0,1,3.94-1.1c1.34-.29,2.71-.44,4-.63-1.84,1.48-4.27,1.85-6.55,2.56Z"/><path class="cls-1" d="M145.52,191.06l2.65.43,0,.32H141.1c3.16-2.49,6.92-2.83,10.66-3.45C150,190.22,147.5,189.88,145.52,191.06Z"/><path class="cls-1" d="M68.62,190c-.69.29-1.41.55-2.07.9a6.84,6.84,0,0,0-1.13.94l-.59-1.05c-.13,0-.22,0-.27,0a3.41,3.41,0,0,1-4.33.25c-.23-.16-.72.07-1.09.09s-.86,0-1.41,0a5.15,5.15,0,0,1,5-.65c.12.08.33,0,.51,0a1.49,1.49,0,0,0,0-.52c-.17-.34-.4-.65-.57-.93.9-.54,1.1-.45,1.48.92.95-.14,1.93.45,2.92-.36a1,1,0,0,1,1.64.29Z"/><path class="cls-1" d="M462.51,194.87l.59-.64-3.65.27-.07-.4c1.39-.28,2.78-.58,4.19-.8.21,0,.47.35.74.46a4,4,0,0,0,.85.15l.07-.31-1.1-.92.08-.37a5.27,5.27,0,0,1,1.37,0c.16,0,.19.57.34,1.05.86-.07,1.87.62,3-.34.4-.35,1.46,0,2.25.33-1.4-.15-2.5.12-3.1,1.78l-1.76-.95A4,4,0,0,1,462.51,194.87Z"/><path class="cls-1" d="M194.83,194.44l-3.68.27-.06-.36c1.35-.3,2.69-.64,4.06-.87.25,0,.55.36.86.49a4.06,4.06,0,0,0,.86.14l0-.31-1.12-1c1.35-.72,1.74-.53,1.73.82,1.06-.16,2.11.49,3.19-.43.38-.32,1.39.1,2.15.41-1.5-.34-2.46.24-3.17,1.68l-1.69-.91a3.84,3.84,0,0,1-3.76.71Z"/><path class="cls-1" d="M522.44,29a29.05,29.05,0,0,1-4.1.14,16,16,0,0,1-3.14-1,3.29,3.29,0,0,1,1-.52,6.19,6.19,0,0,1,3.83.47A18.69,18.69,0,0,0,522.44,29Z"/><path class="cls-1" d="M229,27.5,233.16,26l2.1,1.74-1.9.55c-.24-.42-.37-.91-.56-.94a1.72,1.72,0,0,0-1.17.29,2.14,2.14,0,0,1-2.63-.18Z"/><path class="cls-1" d="M104.3,26.07l1.89,1.64c-1,.77-1,.72-1.94-.1-.31-.26-1.22-.34-1.38-.14-.81,1.08-1.76.5-2.76.53C101.16,26.32,103.14,27.12,104.3,26.07Z"/><path class="cls-1" d="M439.88,28.82c-2.15,1.36-3.91-.79-6-.29C434.69,27.1,437.89,27.34,439.88,28.82Z"/><path class="cls-1" d="M165.56,28.61c1.1-1.33,4.41-1,6,.51A4,4,0,0,1,168,29,7.64,7.64,0,0,0,165.56,28.61Z"/><path class="cls-1" d="M555,172.15c-1.08-.35-2.42-.09-2.95-1.65-.11-.32-.86-.53-1.35-.61-1.15-.2-1-.75-.34-1.77,1.63,1.25,3.22,2.47,4.8,3.7Z"/><path class="cls-1" d="M564.67,160l-1.54.22,0-.3,1.26-.25c-.13-.31-.26-.59-.37-.88s-.2-.54-.14-.59a3.62,3.62,0,0,1,1.1-.61c.13,0,.36.32.79.73l-1.38-.22-.12.31,1.45.7-.52.43c.29.39,1.57.81.11,1.37-.11,0,0,.63,0,1.22C564.68,161.34,563.72,161,564.67,160Z"/><path class="cls-1" d="M569.72,150.77c-2-.61-2.81-2.17-3.3-4,.8.83,1.59,1.65,2.44,2.55.24-.35.46-.69.86-1.27Z"/><path class="cls-1" d="M563.67,185c-1.1-.57-2.1-1.05-3.06-1.6a.77.77,0,0,1-.21-.7c.06-.16.42-.3.64-.29C562.81,182.44,563.75,183.26,563.67,185Z"/><path class="cls-1" d="M569.51,54.09v2.64c-2.42-1.25-2.42-1.25-3.21-3.91l2.32,2.52C568.86,55,569.11,54.65,569.51,54.09Z"/><path class="cls-1" d="M563,161.28l2.17,2.29.93-1.23V165C564.4,164.27,563.2,163.24,563,161.28Z"/><path class="cls-1" d="M131.09,27.59c1-.86,3.09-1.1,3.73-.6a3.11,3.11,0,0,1,.54.84c-.3.13-.62.4-.9.37C133.43,28.07,132.41,27.84,131.09,27.59Z"/><path class="cls-1" d="M566.49,51.42l1.09-.19.29-.95,1.27.35-.6.47c.69.63.64.59.11,1.28-.17.22,0,.69,0,1.32l-1.19-1.44.93-.75-1.84.27Z"/><path class="cls-1" d="M150.56,194c-1,1.31-2.21,1.2-3.55,1C147.63,194,148.7,193.68,150.56,194Z"/><path class="cls-1" d="M567.81,144.12l1.57.4-.62.55c.21.4,1.47.83.07,1.41-.12.05,0,.62,0,1.19l-1.17-1.52.61-.36C568.11,145.25,568,144.75,567.81,144.12Z"/><path class="cls-1" d="M39.61,87.19,39,89.79l.56.27,0,.34-2-.33,1.14-1.53-.67-.42Z"/><path class="cls-1" d="M217.62,195.86l-4.48.36.72-.85h3.77Z"/><path class="cls-1" d="M485.91,195.63l-4.46.36.69-.84h3.8Z"/><path class="cls-1" d="M175.82,192.27c-.78,0-1.57,0-2.35,0-.33,0-.66.13-1,.17a6.23,6.23,0,0,1-.75,0c0-.18-.07-.43,0-.52a1.32,1.32,0,0,1,.73-.47,14.83,14.83,0,0,1,2.31.1,5.54,5.54,0,0,1,1.15.38Z"/><path class="cls-1" d="M42.25,190.2l-1.56.43-.26.28-.84-1.7c.26-.11.62-.39.76-.3C41,189.3,41.67,189.8,42.25,190.2Z"/><path class="cls-1" d="M551.85,27.9l4,.26C555.09,29,553,28.92,551.85,27.9Z"/><path class="cls-1" d="M229,27.47l-3.32.77c0-1.2,1.94-.15,1.51-1.72.67.33,1.75-.39,1.79,1Z"/><path class="cls-1" d="M147.9,192.75l3.8-.5.07.42a6.84,6.84,0,0,1-3.75.65Z"/><path class="cls-1" d="M474.43,28.2c-.66.86-2.7.81-3.87-.21Z"/><path class="cls-1" d="M76.54,189.08c-.91,1.58-1.86.53-2.8,0Z"/><path class="cls-1" d="M557.15,192.14l3,.16c-1,1.4-2,.61-3,.17Z"/><path class="cls-1" d="M68.68,190,70,189.3l.17.3-1.05.57,1.57.44c-.84,1-1.84.41-2.76.4l.89-.44-.21-.55Z"/><path class="cls-1" d="M77,190.47c.8-1,3.18-1,3.84,0Z"/><path class="cls-1" d="M488.73,26.56c-.93.79-1.81.47-2.71.18C486.58,25.91,487.45,25.84,488.73,26.56Z"/><path class="cls-1" d="M210.46,192.61c-1.06,1.38-2,.4-3,0Z"/><path class="cls-1" d="M220.29,26.66c-.48.75-1.24.83-2.5.27C218.25,26.15,219.14,26.05,220.29,26.66Z"/><path class="cls-1" d="M173.05,190.37h-3.72l-.14-.18c.43-.22.88-.65,1.27-.61a18.23,18.23,0,0,1,2.69.67Z"/><path class="cls-1" d="M166.07,188.81c.71,0,1.43,0,2.14,0,.19,0,.36.33.54.51-.19.16-.41.47-.57.44-.73-.11-1.45-.32-2.18-.49Z"/><path class="cls-1" d="M41.19,161.7c-.19.21-.31.46-.49.51-.47.14-1.41-.93-1.23-1.4.09-.22.34-.38.51-.56a5.6,5.6,0,0,1,.4.45C40.64,161,40.9,161.33,41.19,161.7Z"/><path class="cls-1" d="M40.45,68.53a10.91,10.91,0,0,1-1.23-1.43c-.06-.11.34-.51.52-.77a12.31,12.31,0,0,1,1.08,1.33C40.9,67.77,40.65,68.09,40.45,68.53Z"/><path class="cls-1" d="M478.78,192.37c-1.06,1.4-2,.41-3,0Z"/><path class="cls-1" d="M446.2,74.55h1.4l.31,1.24-1.31-.46-.83.78-.27-.25Z"/><path class="cls-1" d="M37.61,44.58l1.44-1.36.38.3-.76,1.06.86.3a1.52,1.52,0,0,1,0,.19H37.75Z"/><path class="cls-1" d="M160.2,27.71c-.87-.05-1.9.54-2.66-1.07l2.79.59Z"/><path class="cls-1" d="M568.81,166.74l-.24.21c-.53.19-1.12.63-1.14-.49,0-.3-.43-.59-.63-.94C567.42,166,568.53,165.63,568.81,166.74Z"/><path class="cls-1" d="M264.33,30.16l-3.5-.54,0-.34,3.49.26Z"/><path class="cls-1" d="M69.29,30.94h2.92c-1.06,1-2,.59-3,.4Z"/><path class="cls-1" d="M532.61,29.93l-3.51-.53,0-.36,3.55.32Z"/><path class="cls-1" d="M88.75,26.67h2.66C91.12,27.46,90.1,27.57,88.75,26.67Z"/><path class="cls-1" d="M198.14,30.88h2.67v.34h-2.66Z"/><path class="cls-1" d="M533.88,29.79l2.68.17,0,.54-2.67-.15Z"/><path class="cls-1" d="M52.36,28.14l-2.59-.28C51,27,51.89,27.1,52.36,28.14Z"/><path class="cls-1" d="M144.55,28.05l-2.46-.24.06-.41a2.64,2.64,0,0,1,2.46.23Z"/><path class="cls-1" d="M491.62,27.42l-3.2.55-.08-.43,3.24-.56Z"/><path class="cls-1" d="M428.5,27.42c-.79.12-1.61.39-2.24-.65l2.31.16Z"/><path class="cls-1" d="M186.64,27.68l-3.15.54-.08-.46,3.18-.48Z"/><path class="cls-1" d="M85.77,87.53,83,86.38A4.69,4.69,0,0,1,86,87Z"/><path class="cls-1" d="M181.14,192.89l2.11-1.28C182.85,193,182.29,193.33,181.14,192.89Z"/><path class="cls-1" d="M307.54,27.59l-3.05.48-.08-.45,3.08-.45Z"/><path class="cls-1" d="M57.8,27.8l-3.13.49-.07-.45,3.14-.45Z"/><path class="cls-1" d="M265.58,30l2.67.18v.38h-2.67Z"/><path class="cls-1" d="M136.66,30.16l2.68.11v.39h-2.66Z"/><path class="cls-1" d="M88.86,192.93,91,191.71C90.58,193.09,89.91,193.48,88.86,192.93Z"/><path class="cls-1" d="M70,191.84l1.63-.92C71.3,192.37,71.23,192.42,70,191.84Z"/><path class="cls-1" d="M372.23,121.51h-1.59l.73-1.73Z"/><path class="cls-1" d="M39.46,55.65l-1.33-.47.42-.83,1.15.82Z"/><path class="cls-1" d="M386.28,27.51l-3.06.53-.07-.45,3.07-.45Z"/><path class="cls-1" d="M300.46,28.88l-2,.33-.1-.48,2-.43Z"/><path class="cls-1" d="M503.64,30.39l2.06.09c-.73,1-1.41.59-2.09.3Z"/><path class="cls-1" d="M240.64,30.73h2.3C242.33,31.59,241.85,31.6,240.64,30.73Z"/><path class="cls-1" d="M54.13,31.42c1.79-.19,1.79-.19,2.3.71l-2.32-.4Z"/><path class="cls-1" d="M553.78,136a4.11,4.11,0,1,1-4.09-4A4,4,0,0,1,553.78,136Zm-7.19,0a3.1,3.1,0,0,0,3.12,3.19,3.06,3.06,0,0,0,3-3.17,3.08,3.08,0,1,0-6.16,0Zm2.46,2.09h-.92v-4a8.26,8.26,0,0,1,1.53-.12,2.49,2.49,0,0,1,1.39.29,1.11,1.11,0,0,1,.39.88,1,1,0,0,1-.83.92v0a1.18,1.18,0,0,1,.73,1,3.18,3.18,0,0,0,.29,1h-1a3,3,0,0,1-.32-1c-.07-.44-.32-.63-.83-.63h-.44Zm0-2.26h.44c.51,0,.92-.17.92-.59s-.27-.6-.85-.6a2.72,2.72,0,0,0-.51,0Z"/></g></g></svg>