<svg xmlns="http://www.w3.org/2000/svg" viewBox="0 0 947.3 538.96"><defs><style>.cls-1{fill:#fff;}</style></defs><g id="Layer_2" data-name="Layer 2"><g id="Layer_1-2" data-name="Layer 1"><path class="cls-1" d="M649,469.43v-171h25.43V539H649c0-66.91-32.27-92-72.66-115.62-24.33-14.21-60.7-29.74-81.91-57.56V539H469V298.46h25.43c0,68.84,36.57,90.51,75.91,113.68C570.34,412.14,630.09,440.85,649,469.43Z"/><path class="cls-1" d="M147.07,471.32c-3,5-4.45,11.54-3.07,17.26,1.6,6.67,7.38,11.7,11.71,16.71s10.32,8.12,10.4,16.54a1.13,1.13,0,0,0,0,.18s.65,11-13.36,11H25.43V298.46H0V539H152.72c10.13-.19,22.23-.62,29.44-8.8a26.19,26.19,0,0,0,6.38-14.67c1-8.1-3.75-15.85-8.4-22.05-4.4-5.88-9.84-10.94-14.14-16.88-4.86-6.7-5-15.75-.36-23.89C150.83,464.56,147.07,471.32,147.07,471.32Z"/><path class="cls-1" d="M757.85,533V480.88s-1.48-104.66,102-64.8l20.51-19.42s-87.69-34.94-122.54,45.72v-138H900c14,0,13.35,11,13.35,11a1.08,1.08,0,0,0,0,.19c-.08,8.41-5.93,11.37-10.4,16.54-4.33,5-10.11,10-11.71,16.71-1.38,5.72.06,12.25,3.07,17.25,0,0,5.27,8.29,18.37,17.87a21,21,0,0,1,.56-23.11c4.31-5.94,9.75-11,14.15-16.87,4.64-6.21,9.41-13.95,8.4-22.05a26.23,26.23,0,0,0-6.39-14.68c-7-8-18.65-8.57-28.6-8.78l-168.43,0V539H906.27c10.13-.19,22.23-.62,29.44-8.8a26.12,26.12,0,0,0,6.38-14.67c1-8.1-3.75-15.85-8.4-22.05-4.4-5.88-9.83-10.94-14.14-16.88-4.86-6.7-5-15.95-.4-23.55-15.9,12.95-18.53,18.31-18.53,18.31-3,5-4.45,11.54-3.07,17.26,1.6,6.67,7.38,11.7,11.71,16.71s10.32,8.12,10.4,16.54a1.13,1.13,0,0,0,0,.18s.65,11-13.36,11Z"/><path class="cls-1" d="M335.68,295.36a151.32,151.32,0,0,0-79.51,41.55c-35.89,36.12-40.64,86.52-35.65,134.51A384.27,384.27,0,0,0,234.14,539h25.4c-1.91-5.82-3.19-9.75-5-15.7-5.08-19.56-.05-43.49,13.37-60.79,12.91-16.62,32.22-28.36,48.87-38.66,15.44-9.55,53.47-27.06,76.73-58.05V539H419V305.05C392.29,294.84,364.1,290.4,335.68,295.36ZM326.81,411c-63.67,35.83-79.42,57.57-79.42,57.57a57,57,0,0,0-5,7c-4.52-23.6-5.66-39.32-4.58-63.88.79-17.89,4.61-80.17,75.86-96.51,26.44-6.06,54.25-3.72,79.79,4.78C392.57,367.38,355.1,395,326.81,411Z"/><path class="cls-1" d="M173.5,23.7C160.15,12.74,143.87,9.78,127,9.55H0V250.49H25.48V205.86c0-19.37,5.51-38.65,16.57-50.35,0,0,5.4-6.79,18-13.66,0,0,19.85-11.47,50.67-15.7,27.25-3.74,57.37-9.19,74.58-33C201.21,71.15,193.76,40.32,173.5,23.7ZM163.07,73.25c-2,13.74-11.18,25.29-22,33.46C125.66,118.36,107.52,121,107.52,121c-6.76,1.2-20.25,3.42-34.75,8.87v0C56.08,136,39.16,147.16,25.48,159.33V15.52h85.6c23.68,0,35,10.12,40.79,17.44C160.57,44,165.16,59.17,163.07,73.25Z"/><path class="cls-1" d="M337.7,9.88H282.09S204.68,165.41,194.3,185.33c-20.57,39.5-2.35,58,10,62.61,53.54,20,75.1-78.59,121.86-80.73,30.69-1.41,49.79,28.64,59.41,55.29l9.58,28h28.71ZM310.3,165.27c-37,15-55.92,80.39-92.46,60.64-29.34-15.86-1-69.13,6.74-86.13,6-13.22,39.08-77.82,43.62-87.08,13.06-26.61,48.42-24.53,57.16-.86,7.21,19.5,42.7,119.4,42.7,119.4C349.85,160.21,326.68,158.63,310.3,165.27Z"/><path class="cls-1" d="M559.53,130.29c9.88-2.53,19.86-3.94,19.86-3.94,28-3.85,57.23-9.17,74.4-32.88,15.92-22,8.49-52.74-11.72-69.32C628.75,13.22,612.51,10.27,595.71,10H469V250.38h25.42V205.83s0-34.26,20.08-52.65c17.26-15.81,32.73-20.25,50.47-16.29,34.09,7.62,81.31,91,85.72,113.55h30.48C636.22,136,559.53,130.29,559.53,130.29Zm-21.41.38c-17.3,6.61-31.82,18.31-43.7,30.54V16h85.39c23.62,0,36.16,11.5,40.69,17.4C629,44.51,633.67,59.5,631.75,72.93c-2,13.81-14.31,38.66-48.6,45.86C557.73,124.14,551.76,125.47,538.12,130.67Z"/><path class="cls-1" d="M831,136.87C871.71,143,910,225,916.8,250.49h30.5s-50.94-134.24-139-119.5c0,0,11.35-7.7,21.37-13.81,0,0,27.47-15.22,67.57-41.79S938.51,30,933.73,17c-4.84-13.1-24.89-10-32.16-8.79C895,9.31,889.33,10.75,881,9.54c-5.55-.81-9.38-3.19-13-9.54,0,0-3.7,39.62,22.69,33.05,18.63-4.64,23.92-.94,25.16,3.45.76,2.7,3.92,15.71-27.38,35.8-30.94,19.85-42.18,26.77-61.67,38.38s-48.94,26.23-69.11,56.41V9.94H732.24v240.5h25.43V216.28C757.67,185.47,771.44,127.86,831,136.87Z"/></g></g></svg>