<svg xmlns="http://www.w3.org/2000/svg" viewBox="0 0 1034.38 72"><defs><style>.cls-1{fill:#fff;}</style></defs><g id="Layer_2" data-name="Layer 2"><g id="Layer_1-2" data-name="Layer 1"><path class="cls-1" d="M15.39,37.13V69.77h3.06v1.61H0V69.77H3V1.64H0V0H21.67c1.49,0,7-.31,10.16,1.68,3.43,2.18,4.4,5.1,4.4,8.72V27.36a8.31,8.31,0,0,1-3.8,7.22c-3.21,2.12-8.52,2.55-12.85,2.55ZM23.84,6.31c0-1.37.07-2.43-.75-3.43s-2.17-1.24-4-1.24H15.39V35.58h4.49a4.17,4.17,0,0,0,3.28-1.37c.9-1.06.68-2.74.68-3.62Z"/><path class="cls-1" d="M129.29,61.46c0,6.45-4.24,10.59-15.6,10.54-12.18,0-15.48-4.09-15.48-10.54V18.32c0-7.68,5.38-11.6,15.81-11.66,10,0,15.27,5,15.27,11.66ZM118.12,12.83c0-3.59-1.34-5-4.1-5-3,0-4.64,1.29-4.64,5V66c0,2.69.87,4.76,4.24,4.76s4.5-1.34,4.5-4.76Z"/><path class="cls-1" d="M228.37,7.17V20.11h-1.68V10h-9.48v59.9H220v1.45H203.35V69.93H206V10h-9.41V20.11H195V7.17Z"/><path class="cls-1" d="M327.47,7.17V20.11h-1.68V10H316.3v59.9h2.76v1.45H302.44V69.93h2.7V10h-9.42V20.11H294V7.17Z"/><path class="cls-1" d="M406.72,37.26H419V31.65h1.68V45.78H419V40.11H406.72V68.53H419v-9.7h1.68V71.38H392.8V69.93h2.76V8.63H392.8V7.17h27.91V19.72H419V10H406.72Z"/><path class="cls-1" d="M511,38.49c0,.39,4.11.73,6.93,2.64s3.16,4,3.16,6.89V69.93h2.76v1.45H509.91V45.72c0-2,.47-4-1.48-5.15-1.21-.79-3.5-.62-4.78-.62h-3.76v30h2.69v1.45H486V69.93h2.76V8.63H486V7.17h19.51c1.34,0,6.32-.28,9.15,1.51,3.09,2,4,4.6,4,7.85V30.2a7.24,7.24,0,0,1-2.28,5.88C514,38.1,511,38.21,511,38.49Zm-3.56-25.66c0-1.23.2-2.13-.67-3.08a4.52,4.52,0,0,0-3.43-1.12h-3.43V38.55h4a3.76,3.76,0,0,0,3-1.23c.81-1,.54-2.47.54-3.25Z"/><path class="cls-1" d="M595.42,48.47,583.78,8.63H581V7.17h16.61V8.63H595l9.81,33.78,8.68-33.78h-2.76V7.17h9.08V8.63h-2.69L606.58,48.58V69.93h2.69v1.45H592.66V69.93h2.76Z"/><path class="cls-1" d="M723.87,44.92V61c0,2.74-.15,4.74-2.09,6.92-2.69,2.92-8.29,3.48-10.68,3.48H684.2V69.77h3V1.64h-3V0h25.62a12.18,12.18,0,0,1,8,2.36c4,3,3.58,6.67,3.58,6.73V26.23A7.43,7.43,0,0,1,719,31.84c-3.28,2.74-5.83,2.86-5.75,3.17,0,.5,4.56.44,7.84,3.24C723.05,39.94,723.87,41.68,723.87,44.92ZM699.59,69.77h6.65a6.85,6.85,0,0,0,3.58-.88,4.12,4.12,0,0,0,1.65-3.48V40.18a3.92,3.92,0,0,0-.75-2.74,4.41,4.41,0,0,0-3.44-1.12h-7.69Zm0-68.13V34.39h6.5a3.24,3.24,0,0,0,2.39-.81A3.48,3.48,0,0,0,709,31V5.87c0-.25.15-2.61-.52-3.42s-3.51-.81-3.59-.81Z"/><path class="cls-1" d="M806.61,8.63h-2.76V7.17H821V8.63h-3.09l11.16,61.3h2.76v1.45H815V69.93h2.35L814.68,52H801l-3.7,17.93h2.75v1.45h-8.74V69.93h2.42Zm-5.18,40.9h12.65l-5.93-34.91Z"/><path class="cls-1" d="M922.05,38.49c0,.39,4.1.73,6.93,2.64s3.16,4,3.16,6.89V69.93h2.76v1.45H921V45.72c0-2,.46-4-1.48-5.15-1.22-.79-3.5-.62-4.78-.62H911v30h2.7v1.45H897V69.93h2.76V8.63H897V7.17h19.5c1.35,0,6.33-.28,9.15,1.51,3.1,2,4,4.6,4,7.85V30.2a7.26,7.26,0,0,1-2.29,5.88C925.08,38.1,922.05,38.21,922.05,38.49Zm-3.56-25.66c0-1.23.2-2.13-.68-3.08a4.51,4.51,0,0,0-3.43-1.12H911V38.55h4a3.76,3.76,0,0,0,3-1.23c.81-1,.54-2.47.54-3.25Z"/><path class="cls-1" d="M1019.86,71.38,1006.34,18V69.93h2.76v1.45h-8.75V69.93H1003V8.63h-2.69V7.17h13.92l14.06,55.64V8.63h-2.69V7.17h8.74V8.63h-2.75V71.38Z"/></g></g></svg>