<svg xmlns="http://www.w3.org/2000/svg" viewBox="0 0 474.96 114.48"><defs><style>.cls-1{fill:#fff;}</style></defs><g id="Layer_2" data-name="Layer 2"><g id="Layer_1-2" data-name="Layer 1"><path class="cls-1" d="M475,102.48l-19.92,0a3.26,3.26,0,0,1-.53-.08V99.57h17.35V3.08H3.09V99.55H288.37v3H1.44c-.48,0-1,0-1.44,0V0H475Z"/><path class="cls-1" d="M331,114.48c-.91-.27-1.83-.49-2.72-.83a10.72,10.72,0,0,1-6.4-6.42c-1.94-5.18-1.86-10.32,1.22-15,3.93-6,14.07-6.74,18.41-1.44A11.82,11.82,0,0,1,344,97.55c-2.09,0-4.11,0-6.12,0-.21,0-.51-.43-.6-.71-.69-2.21-2-3.35-4.05-3.45-2.47-.13-4.22.85-5,3a11.46,11.46,0,0,0,.11,8.65,4.72,4.72,0,0,0,5.93,3,4.1,4.1,0,0,0,3.1-4H344c.39,3.35-1.88,7.32-5.19,9a35.31,35.31,0,0,1-3.75,1.43Z"/><path class="cls-1" d="M420.94,74.28c-11.18-.08-20.15-6.74-22.83-17a22.85,22.85,0,0,1,19.65-28.74c9.08-1,16.87,1.62,22.41,9.11a22.92,22.92,0,0,1-15.3,36.28C423.57,74.12,422.25,74.16,420.94,74.28Zm-13.3-24.16c0,10.06,7.56,16.59,16,14.8a12.49,12.49,0,0,0,10.08-9.61c1.43-5.46.35-10.48-3.85-14.4s-9.18-4.62-14.35-2.41A12.68,12.68,0,0,0,407.64,50.12Z"/><path class="cls-1" d="M363.33,59.28V73.41h-9.72V29.13c.38,0,.77-.06,1.15-.06,6.64,0,13.28-.07,19.92,0,4.5.06,8.71,1.14,12.05,4.45,3,3,3.94,6.68,3.84,10.73-.16,6.32-3.15,10.74-9,13.17-.1,0-.19.14-.37.26L392,73.47c-3.85,0-7.43,0-11,0-.35,0-.79-.46-1-.82q-4.23-6.24-8.4-12.54a1.59,1.59,0,0,0-1.55-.82C367.8,59.31,365.65,59.28,363.33,59.28Zm.09-8.87c4.05,0,8,.23,11.87-.07,3.4-.27,5.37-2.83,5.35-6.12s-1.95-5.72-5.43-6c-3.65-.32-7.33-.2-11-.27a5.18,5.18,0,0,0-.78.09Z"/><path class="cls-1" d="M311.32,29.13l1.24-.06c5.83,0,11.67-.06,17.51,0a17.66,17.66,0,0,1,11.8,4.25c6.53,5.71,7.08,21.07-5.39,25.49a25.19,25.19,0,0,1-8.11,1.36c-2.39,0-4.78,0-7.32,0V73.38h-9.73Zm9.77,9V51.33c3.12,0,6.16.19,9.17,0a6.46,6.46,0,0,0,6.18-6.57,6.09,6.09,0,0,0-5.93-6.55C327.44,37.85,324.31,38.1,321.09,38.1Z"/><path class="cls-1" d="M398.22,109.32c.07,1.4-.55,1.67-1.62,1.62-1.75-.08-3.5,0-5.33,0V113h5.82l.19.36c-.27.18-.53.5-.79.5-3.72,0-7.44.05-11.15,0-.36,0-.82-.54-1-.94C382.19,109,380.13,105,378,101a2,2,0,0,0-.7-.82v13.58h-6.1V87.84c2.09,0,4.13,0,6.16,0,.3,0,.71.43.88.75,2,3.83,3.94,7.67,5.9,11.51a2.57,2.57,0,0,0,.79,1V87.9h6.18v22a7.84,7.84,0,0,1,1.9-.59C394.76,109.26,396.47,109.32,398.22,109.32Z"/><path class="cls-1" d="M54.32,73.43H51.2V29.19a4,4,0,0,1,4.46,1.54C64.93,42.62,74.34,54.39,83.71,66.2c.27.34.55.66,1,1.22V29.15h3.2V73.38a3.23,3.23,0,0,1-3.57-1.26Q69.85,53.61,55.19,35.24c-.22-.27-.46-.52-.87-1Z"/><path class="cls-1" d="M208.28,73.32c-1.81.63-2.8-.24-3.83-1.56Q190.19,53.61,175.8,35.55c-.29-.37-.6-.72-1.08-1.29V73.38h-3.15V29.08a21,21,0,0,1,2.64,0,1.81,1.81,0,0,1,1,.72q11.88,14.93,23.72,29.87l5.52,7c.16.2.35.38.71.77V29.15h3.13Z"/><path class="cls-1" d="M357.35,87.32A13.4,13.4,0,1,1,344,100.76,13.39,13.39,0,0,1,357.35,87.32Zm.07,6.28a7.14,7.14,0,0,0-.06,14.27,7.14,7.14,0,0,0,.06-14.27Z"/><path class="cls-1" d="M133.32,53.4h-25v20H105V29.18h31.19v2.93H108.36V50.22h25Z"/><path class="cls-1" d="M262.13,73.4H258.8V32.19H243.38v-3h34.07v3H262.13Z"/><path class="cls-1" d="M433.47,98.88a3.06,3.06,0,0,0,1.08-3.5,2.83,2.83,0,0,0-2.83-1.85c-1.39-.08-2.78,0-4.36,0v5.32H421V87.93a7.33,7.33,0,0,1,.86-.09c3.76,0,7.52,0,11.28,0a10.74,10.74,0,0,1,3.51.64,7.08,7.08,0,0,1,3.86,9.7,1.32,1.32,0,0,1-1,.64C437.55,98.91,435.51,98.88,433.47,98.88Z"/><path class="cls-1" d="M30.44,29.12h3.2V73.41h-3.2Z"/><path class="cls-1" d="M150.79,29.11H154V73.39h-3.2Z"/><path class="cls-1" d="M295.09,73.41h-3.22V29.17h3.22Z"/><path class="cls-1" d="M225.87,29.14H229V73.39h-3.11Z"/><path class="cls-1" d="M394.94,98.82c1.1-3.58,2.16-7,3.26-10.49a1,1,0,0,1,.8-.47c2.28,0,4.55,0,7,0,1.13,3.64,2.26,7.27,3.41,11h-6.52c-.22-.68-.43-1.35-.71-2.24-.31.87-.53,1.53-.77,2.23Z"/><path class="cls-1" d="M419.74,87.94V98.79h-6.38V87.94Z"/><path class="cls-1" d="M439.9,99.44c-1,1.31-2,2.23-3.74,2.22-4.63,0-9.27,0-13.9,0H421v-2.2Z"/><path class="cls-1" d="M440.25,104.46H421v-2h16.59C439.11,102.44,439.63,102.82,440.25,104.46Z"/><path class="cls-1" d="M393.32,104.42c.35-2,.35-2,2.16-2h13.18c1.91,0,1.91,0,2.39,2Z"/><path class="cls-1" d="M412,107.56H393.05a5.9,5.9,0,0,1-.59-.06c.07-1.69.15-1.78,1.75-1.78h15.7C411.59,105.72,411.59,105.72,412,107.56Z"/><path class="cls-1" d="M410.22,101.64c-2.13,0-4.08,0-6,0-.26,0-.6-.4-.74-.7a8.77,8.77,0,0,1-.45-1.54c2.09,0,4.1,0,6.11,0,.23,0,.51.48.66.79A9.79,9.79,0,0,1,410.22,101.64Z"/><path class="cls-1" d="M394.22,101.64c.34-2.28.34-2.28,2.37-2.28H401c0,2-.25,2.28-2.15,2.28Z"/><path class="cls-1" d="M419.71,99.44v2.13h-6.38V99.44Z"/><path class="cls-1" d="M413.33,104.42v-1.91h6.33v1.91Z"/><path class="cls-1" d="M413.34,107.56v-1.78h6.37v1.78Z"/><path class="cls-1" d="M427.23,107.58H421v-1.81h6.2Z"/><path class="cls-1" d="M441.37,107.52h-7.06l-.62-1.79c2.28,0,4.45-.07,6.62.07C440.64,105.82,440.92,106.76,441.37,107.52Z"/><path class="cls-1" d="M419.85,113.4c-.25.16-.5.46-.75.46-3.87,0-7.73,0-11.6,0-.28,0-.56-.29-.83-.45l.11-.29h12.83Z"/><path class="cls-1" d="M413.3,110.92c-2.44,0-4.55.06-6.64-.06-.38,0-.73-.74-1.09-1.13l.22-.39c2.16,0,4.33-.06,6.49.06C412.59,109.42,412.86,110.24,413.3,110.92Z"/><path class="cls-1" d="M441.09,109.42v1.43H434.6c-.06-.42-.13-.87-.21-1.43Z"/><path class="cls-1" d="M413.32,110.84v-1.45h6.4v1.45Z"/><path class="cls-1" d="M421,110.83v-1.42a7.24,7.24,0,0,1,.73-.09h5.51c0,.52,0,1,.07,1.51Z"/><path class="cls-1" d="M442.37,113.78c-3.93.45-6.77.19-7.16-.64C438.5,112.72,441.62,113,442.37,113.78Z"/><path class="cls-1" d="M427.38,113.48a3,3,0,0,1-.88.39c-3.65.24-5.22.06-5.57-.71h6.23Z"/><path class="cls-1" d="M297.24,96.82h4.59c1.58,0,2.25.89,2.25,2a1.7,1.7,0,0,1-1.39,1.73v0a1.91,1.91,0,0,1,1.71,2,2.37,2.37,0,0,1-2.66,2.3h-4.49Zm.84,3.51h3.31c1.13,0,1.85-.37,1.85-1.44s-.65-1.3-1.57-1.3h-3.59Zm0,3.8h3.51c1.08,0,1.9-.43,1.9-1.54s-.73-1.49-1.69-1.49h-3.72Z"/><path class="cls-1" d="M309.46,101.5l-3.62-4.68h1.07l3,3.85,3-3.85h1.08l-3.63,4.68v3.39h-.83Z"/></g></g></svg>