<?xml version="1.0" encoding="utf-8"?>
<!-- Generator: Adobe Illustrator 24.1.2, SVG Export Plug-In . SVG Version: 6.00 Build 0)  -->
<svg version="1.1" id="Layer_1" xmlns="http://www.w3.org/2000/svg" xmlns:xlink="http://www.w3.org/1999/xlink" x="0px" y="0px"
	 viewBox="0 0 391.85 192.48" style="enable-background:new 0 0 391.85 192.48;" xml:space="preserve">
<style type="text/css">
	.st0{fill:#FFFFFF;}
</style>
<g>
	<g>
		<path class="st0" d="M105.84,17.65h-26.4c4.2,6.11,2.78,11.47-0.08,16.2c-1.8,2.97-3.95,5.83-6.39,8.29
			c-8.71,8.8-17.61,17.41-26.44,26.09c-0.17,0.17-0.39,0.28-0.81,0.59v-1.96c0-8.82-0.01-17.64,0-26.45
			c0.01-7.64-0.09-15.28,2.24-22.79H29.83c1.41,5.84,1.56,11.72,1.57,17.61c0.02,19.97,0.06,39.95,0.03,59.92
			c-0.01,4.51-0.14,9.03-0.4,13.53c-0.16,2.66-0.69,5.29-1.06,7.95h17.69c-0.55-3.68-1.44-7.32-1.56-10.98
			c-0.31-9.23-0.28-18.48-0.35-27.72c0-0.48,0.18-1.07,0.49-1.42c1.87-2.1,3.8-4.15,5.82-6.33c16.74,16.65,33.11,32.93,49.32,49.06
			c3.44-3.4,6.74-6.67,9.85-9.75c-16.1-16.34-32.26-32.75-48.48-49.21C76.94,46.23,91.28,32.05,105.84,17.65"/>
		<path class="st0" d="M179.17,106.2c-3.54,1.1-7.18,1.98-10.84,2.59c-12.93,2.15-12.56,1.69-25.59,1.65
			c-0.85,0-1.25-0.25-1.34-1.13c-0.18-1.8-0.43-3.6-0.65-5.4c-0.25-8.65-0.24-17.32-0.3-25.98l-0.02-7.86h41.78V64.1h-41.78
			c0-7.9,0-15.79,0-23.69c0-4.29-0.03-8.58,0.36-12.84c0.12-0.91,0.24-1.83,0.34-2.74c0.09-0.9,0.52-1.12,1.35-1.12
			c11.55-0.1,9.69-0.27,21.13,1.64c9.3,1.55,24.99,11.66,24.99,11.66s-1.46-12.32-2.34-17.49c-0.46-2.68-0.27-2.22-2.64-2.21
			l-50.01,0.32h-9.06c1.41,5.84,1.56,11.72,1.57,17.61c0.02,19.97,0.06,39.95,0.03,59.92c-0.01,4.51-0.14,9.03-0.4,13.53
			c-0.16,2.66-0.69,5.29-1.06,7.95h17.48l25.62,0.1c11.49,0.06,9.57,0.07,21.06,0.12c0.76,0,1.33-0.06,1.49-1
			c0.99-5.81,2.75-18.32,2.55-18.97C187.41,102.63,185.02,104.39,179.17,106.2"/>
		<path class="st0" d="M354.03,70.25c-4.83-5.21-11-9.01-17.27-12.69c-5.75-3.38-11.78-6.45-16.7-10.82
			c-4.12-3.65-6.52-7.9-6.24-13.23c0.49-9.35,10.28-15.06,20.5-12.57c4.87,1.19,6.77,4.26,8.71,8.19c1.5,3.03,2.46,6.26,3.81,9.8
			c0.56-0.41,1.33-0.75,1.71-1.3c1.85-2.67,3.59-5.4,5.38-8.1c1.69-2.55,2.74-3.83,4.52-6.52c-0.86-0.45-1.56-0.84-2.29-1.19
			c-4.63-2.23-8.91-5.06-14.07-5.97c-9.16-1.62-16.99-1.87-25.94,1.08c-11.78,3.88-18.41,12.93-17.59,23.93
			c0.6,7.92,4.75,14.22,11.64,19.02c5.13,3.58,10.68,6.7,16.1,9.94c5.05,3.01,10.08,6.03,13.96,10.25
			c5.77,6.31,7.86,13.5,5.63,21.35c-2.05,7.25-7.71,11.32-16.1,12.25c-8.29,0.92-17.7-1.68-21.67-9.8
			c-4.18-8.55-2.96-16.88,2.16-24.89c0.33-0.52,0.43-1.17,0.64-1.75c-0.75,0.07-1.58-0.01-2.25,0.24
			c-4.11,1.51-8.17,3.11-12.27,4.65c-5.75,2.15-5.76,2.14-6.52,7.73c-1.51,11.1,4.2,20.76,15.56,25.72
			c10.31,4.5,21.14,5.07,32.18,2.47c7.37-1.73,13.54-5.2,18.16-10.63C364.73,96.89,363.95,80.95,354.03,70.25"/>
		<path class="st0" d="M289.5,19.79c0.5-0.66,0.98-1.32,1.61-2.17h-23.7c3.17,5.35,2.7,9.65,1.97,13.21
			c-0.8,3.88-2.35,7.53-4.61,10.77c-4.95,7.1-10.06,14.08-15.11,21.11c-0.67,0.93-1.36,1.84-2.13,2.87
			c-0.44-0.59-0.76-0.99-1.06-1.42c-10.34-15.12-20.68-30.23-30.99-45.38c-0.65-0.96-1.33-1.28-2.46-1.27
			c-4.52,0.06-9.04,0.02-13.57,0.03c-0.51,0-1.02,0.04-1.74,0.07c0.39,0.59,0.65,1.03,0.95,1.45c12.57,17.58,25.16,35.15,37.7,52.75
			c0.51,0.72,0.85,1.72,0.86,2.59c0.07,6.05,0.09,12.11,0.03,18.16c-0.09,8.06,0.04,16.14-2.02,24.03h18.33
			c-1.5-5.25-1.84-10.55-1.92-15.85c-0.15-9.61-0.1-19.23-0.18-28.84c-0.01-1.29,0.31-2.31,1.1-3.35
			C264.91,52.33,277.2,36.06,289.5,19.79"/>
	</g>
	<path class="st0" d="M287.91,174.24v-6.9h11.8v-3.04h-11.8v-6.19l1.01,0h12.5v-3.04h-16.78v22.19h17.17v-3.04h-12.89L287.91,174.24
		z M264.47,158.07c3.82,0,5.61,1.32,5.61,3.7c0,2.3-1.79,3.62-5.61,3.62h-5.33v-7.32l1.05,0.01H264.47z M259.14,168.43H264
		l6.35,8.84h3.93l-6.63-9.12l0.52-0.1c3.43-0.82,5.26-2.96,5.26-6.27c0-4.32-3.15-6.7-8.88-6.7h-8.68v22.19h3.27V168.43z
		 M231.74,167.92l0.22-0.62l3.04-8.02h1.05l3.04,7.98l0.28,0.66H231.74z M242.86,177.27h3.54l-8.76-22.19h-4.17l-8.8,22.19h3.5
		l2.45-6.5h9.77L242.86,177.27z M201.05,166.17c0-4.67,2.3-8.45,6.77-8.45c2.69,0,4.44,1.67,6.07,4.32l2.69-2.06
		c-2.1-3.58-4.75-5.45-8.72-5.45c-5.84,0-10.24,4.83-10.24,11.64c0,6.81,4.4,11.64,10.24,11.64c3.97,0,6.62-1.87,8.72-5.45
		l-2.69-2.06c-1.64,2.65-3.39,4.28-6.07,4.28C203.35,174.58,201.05,170.8,201.05,166.17 M176.25,174.22v-19.14h-3.27v22.19h16v-3.04
		h-11.72L176.25,174.22z M151.76,174.74c-3.15,0-5.57-2.26-5.57-5.8v-13.86h-3.27v14.29c0,5.1,3.93,8.45,8.84,8.45
		c4.91,0,8.84-3.35,8.84-8.45v-14.29h-3.27v13.86C157.33,172.48,154.92,174.74,151.76,174.74 M129.8,166.17
		c0,4.71-2.22,8.53-6.62,8.53c-4.4,0-6.58-3.81-6.58-8.53s2.18-8.57,6.58-8.57C127.59,157.61,129.8,161.46,129.8,166.17
		 M133.23,166.17c0-6.54-3.89-11.64-10.04-11.64c-6.11,0-10.01,5.1-10.01,11.64c0,6.5,3.89,11.64,10.01,11.64
		C129.34,177.81,133.23,172.67,133.23,166.17 M94.92,174.74c-3.15,0-6.19-1.21-8.41-3.27l-1.95,2.8c2.41,2.26,6.31,3.54,10.36,3.54
		c5.22,0,8.92-2.8,8.92-6.89c0-3.35-2.41-5.14-5.68-5.96l-5.45-1.4c-2.1-0.51-3.54-1.13-3.54-2.84c0-1.99,1.95-3.15,4.94-3.15
		c2.49,0,5.06,0.9,7.32,2.92l2.06-2.57c-2.53-2.14-5.65-3.39-9.15-3.39c-4.98,0-8.45,2.65-8.45,6.39c0,3.46,2.49,4.94,6.15,5.8
		l5.45,1.32c1.71,0.43,3.08,1.21,3.08,3.11C100.57,173.49,98.04,174.74,94.92,174.74"/>
</g>
</svg>
