<svg xmlns="http://www.w3.org/2000/svg" viewBox="0 0 1199.51 497.72"><defs><style>.cls-1{fill:#fff;}</style></defs><g id="Layer_2" data-name="Layer 2"><g id="Layer_1-2" data-name="Layer 1"><path class="cls-1" d="M.49,427.09a172.84,172.84,0,0,1,3.7-23c17.73-77.81,68.74-139.49,131.65-186.29,6.41-4.76,13.1-9.15,19.64-13.74,22-15.44,44-14.6,66.29-.65,6.35,4,6.25,3.76,11.18-1.54,10.89-11.7,24.51-14.9,39.68-11.51,2,.45,4.74,4.4,4.6,6.56a160,160,0,0,1-3.46,25.54c-5.3,22.82-17.69,42.15-30.9,61.08-18.56,26.63-37.53,53-55,80.38-13.67,21.46-25.48,44.21-31.68,69.18-2.08,8.42-2.49,17.35-2.78,26.08-.16,5,2.28,6,6.26,2.73a104.26,104.26,0,0,0,14-13.45c15.44-18.57,30.42-37.52,45.81-56.13a264.86,264.86,0,0,1,20.09-22.24c20.44-19.63,35.88-43.34,53.95-64.89,17.54-20.92,34.61-42.48,54.13-61.44,24.15-23.46,52.74-41.66,81.08-59.82,17.13-11,34.93-20.74,54.74-26.18,8.41-2.31,16.91-3.71,25.64-1.71,7.58,1.75,12.67,6,15.33,13.48,5.64,15.84,3.41,31.46-.6,47.16-3.68,14.45-11.44,26.61-21.39,37.31a393.31,393.31,0,0,1-81.22,66.78c-22.33,13.83-43.37,29.09-62.63,47-14.3,13.26-26.09,28.56-36.88,44.56-3.88,5.75-5.59,13.52-6.45,20.6-1.16,9.44,4.24,13.56,13.74,12.84,21.51-1.62,41.32-8.5,59.95-19,27-15.23,50.75-34.8,73.57-55.63,36.26-33.08,70.23-68.32,100.92-106.63,5.91-7.37,10.64-15.67,15.89-23.56,3.31-5,2.56-9.84-.72-14.43-3.48-4.88-7.18-9.6-10.78-14.39-13.32-17.7-9.12-42.18,9.37-54.63,11.85-8,30.57-5.78,40.51,4.58,4.12,4.3,4.05,9.72,4.5,14.94.43,5,0,10,.26,15,.43,7.64,2.12,9.18,9.61,8.27,5.09-.63,10.07-2.69,15.15-2.92,15.6-.71,31.35-2.22,46.82-.88,24.1,2.09,36.06,27.2,23.68,48a514.53,514.53,0,0,1-40.34,58.27c-28.67,35.95-56.31,72.69-76.4,114.44-5.4,11.22-10.22,22.46-8.75,35.32,1.13,9.84,7.47,16.11,17.32,15.53a53.07,53.07,0,0,0,18.17-4.39c15.15-6.76,28.31-16.65,40.87-27.5,30.54-26.39,60.42-53.44,86-84.78A284.73,284.73,0,0,0,774.79,324c11.86-18.67,23.12-37.73,34.5-56.71,3.51-5.84,6.22-12.17,10-17.83,18-27.07,36-54,57.42-78.64,9.75-11.23,21.35-19.16,35.33-23.14a52.73,52.73,0,0,1,20.69-1.11c9.33,1.2,12.7,10,7.66,18.77-18.74,32.43-36.61,65.43-56.8,96.94-20,31.19-37.09,63.88-54.49,96.44-5.1,9.54-8.08,20.37-11,30.89-2.48,9,3.33,14.48,12.62,13,10.22-1.67,18.43-7.27,26.25-13.65C881.41,369,902,345.54,921,320.5c18.42-24.25,35.88-49.28,57.76-70.78,41.83-41.11,85.34-80,136.91-108.81,12-6.72,24.16-13.49,36.8-19,23.14-10,41.84.76,46.17,25.72a14.74,14.74,0,0,0,.83,2.33v11a8,8,0,0,0-.78,1.82c-3.49,20.81-12.29,39.27-25.09,55.85-19,24.65-42.46,44.71-68,62.1-20.6,14-42.29,26.5-63.71,39.3-15.38,9.2-29.75,19.5-42,32.69-15.77,17-22.12,37.16-21.27,59.93.23,5.94,2.65,8.85,8.53,8.92a48.8,48.8,0,0,0,14.69-2.16c20.25-6.25,38.53-15.94,54.56-30.17,23.91-21.22,48.71-41.46,70-65.5,10.48-11.84,20.72-23.91,31.53-35.45a52.07,52.07,0,0,1,14.17-10.79c12.28-6.21,20.71-3.27,27.37,8.46v7c-4.45,13.12-13.1,23.44-22.63,33a965.3,965.3,0,0,1-120.51,101.82,283.36,283.36,0,0,1-35.83,21.66c-13.38,6.87-28.09,10.79-43,6.7-27.08-7.41-45.3-24.63-52.5-52.21-2.22-8.49-3.13-17.34-4.42-26.06-1-6.64-1.62-13.32-2.59-21.5-4.23,4.67-7.43,8-10.41,11.53-20.54,24.33-41.23,48.52-65.26,69.55A146.89,146.89,0,0,1,825,451c-11.14,7.12-23.82,9.53-36.45,6.29-14.5-3.73-22.84-14.77-25.67-29.08-2-10.23-2-20.85-3.27-31.26-.38-3.18-1.79-6.23-3.07-10.49-4.42,4.19-7.58,7.1-10.65,10.1-14.54,14.2-28.17,29.51-43.81,42.35-18.88,15.5-39.41,29-59.38,43.16a42.18,42.18,0,0,1-11.22,5.31,133.54,133.54,0,0,1-43.3,6.33c-16.89-.19-28.69-8.58-35.81-23.57-6.88-14.5-8-29.91-5.1-45.44,4.15-22.27,12.59-43,23.68-62.75Q599.88,310.3,628,258.28c2.81-5.16,4.33-11.1,5.9-16.83,1.07-3.9-1.05-6.14-5.19-5.69-4.79.53-9.54,1.43-14.33,2-8.46,1-14,5.61-18.66,12.6-9,13.39-18.33,26.58-28.32,39.22-10.22,12.94-21.58,24.95-32.09,37.66-26.77,32.38-54.49,63.75-85.16,92.65-25.25,23.79-54.16,41.36-84.6,56.9-26.72,13.64-70.76,32.38-96.07,6.63-11-11.2-15.1-27.3-18.75-42.59L242.47,406c.18.77-20.49,16.93-21.84,18.21a336.59,336.59,0,0,0-25.89,28c-11.54,13.83-24.62,38.85-45.44,39.1-12.75.15-22.43-12.17-25.55-24.53s-1.81-25.43-4.09-38Q95,455.13,69,480.05C58.9,489.72,46.33,500,32.61,497.29c-7.22-1.41-13.32-6.32-18-12C1.58,469.31-1.33,448.1.49,427.09Zm28.51,36a25.73,25.73,0,0,0,3,13.5c1.35,2.46,3.43,4.81,6.2,5.21s5.27-1.14,7.54-2.66a201.85,201.85,0,0,0,58.13-59.91c17.9-28.46,35-57.44,53.23-85.66a321.41,321.41,0,0,0,25.42-47.32c6.15-14.29,17.13-36,14.46-52-1.12-6.76-6.63-13.32-13.48-13.17-5.89.14-10.52,4.88-14.4,9.32a836.07,836.07,0,0,0-133,207.71C32.63,445.89,29.27,454.67,29,463.05ZM1047.84,268a26.75,26.75,0,0,0,7.76-2.77c26.05-13.44,47.35-34.29,69.42-53.58,8.45-7.39,17.37-15,21.7-25.35,1.51-3.61,2.33-8,.13-11.26-9.86-14.59-71.93,38.8-80.87,46.07-10.29,8.36-20.45,17.5-26.37,29.37-2.53,5.09-3.86,12.09.45,15.79C1042.23,268.12,1045,268.45,1047.84,268Zm-566.18-62.3c-.67-2.88-3.35-4.58-9.28-3.9-10.32,1.19-21,12.06-29.2,17.82-19.05,13.38-37.76,27.44-54.11,44.09-6.66,6.77-13.1,14.31-15.55,23.49a6.76,6.76,0,0,0,0,4.44c1.55,3.48,6.68,2.64,10.17,1.12,32.6-14.26,60-38.05,85.59-62.8C474,225.32,483.21,212.35,481.66,205.69Z"/><path class="cls-1" d="M1015.51,0c9.5,5.8,12.36,13.61,8.34,25.54-2.11,6.24-4.64,12.69-8.49,17.93C1007,54.84,997.9,65.69,988.63,76.35c-5.25,6.05-18.33,7.94-25.29,4-1.9-1.09-3.86-4.35-3.68-6.42.64-7.19,1-14.8,3.67-21.33C972.25,30.9,988.38,15.28,1008,3c1.54-1,3-2,4.54-3Z"/></g></g></svg>