<svg xmlns="http://www.w3.org/2000/svg" viewBox="0 0 233.5 63.13"><defs><style>.cls-1{fill:#fff;}</style></defs><g id="Layer_2" data-name="Layer 2"><g id="Layer_1-2" data-name="Layer 1"><path class="cls-1" d="M30.51,31.36c-4.93-3.87-6.68-4-9.27-3.91a5,5,0,0,0-5,5.1c0,3.08,4.93,3.7,6.89,4.08C29.78,38,35.23,40.69,35.23,48.14c0,10.59-9.65,15-19,15A31.12,31.12,0,0,1,0,58.49l5.17-10c2.91,2,7.73,4.94,11.27,4.78,3-.12,5.14-1.46,5.14-3.66,0-3.13-5.1-3.39-9.58-4.57s-8.95-3.37-8.95-10.6c0-9.88,8.08-16.35,16.87-16.35,4.55,0,8.81,1.66,14,5.09Z"/><path class="cls-1" d="M88,21.54V43c0,5.1,1.25,8.71,7.15,8.71s7.13-3.61,7.13-8.71V21.54h14.29V45.79c0,13.26-9.34,17.34-21.42,17.34S73.67,59.05,73.67,45.79V21.54Z"/><path class="cls-1" d="M149.89,61.8V39.48c0-5.09-1.26-8.7-7.15-8.7s-7.13,3.61-7.13,8.7V61.8H121.32V36.74c0-13.26,9.34-17.34,21.42-17.34s21.42,4.08,21.42,17.34V61.8Z"/><path class="cls-1" d="M199.6,32.11a15,15,0,0,0-8-1.13c-5.46.54-9.21,5.07-9.21,10.65,0,5.8,4.16,9.89,10,9.89,2.52,0,5.26-.22,7.14-1.94V60.85a22.39,22.39,0,0,1-10,2.28c-11.93,0-21.89-8.87-21.89-21,0-13,9.88-21.89,22.52-21.89a19.46,19.46,0,0,1,9.41,2.35Z"/><path class="cls-1" d="M69.1,32.11a15.06,15.06,0,0,0-8-1.13c-5.47.54-9.22,5.07-9.22,10.65,0,5.8,4.17,9.89,10.06,9.89,2.5,0,5.25-.22,7.13-1.94V60.85a22.39,22.39,0,0,1-10,2.28c-11.93,0-21.9-8.87-21.9-21,0-13,9.89-21.89,22.52-21.89a19.5,19.5,0,0,1,9.42,2.35Z"/><path class="cls-1" d="M220.16,8a8,8,0,1,1-8-8,8,8,0,0,1,8,8"/><path class="cls-1" d="M89,8a8,8,0,1,1-8-8,8,8,0,0,1,8,8"/><path class="cls-1" d="M117.4,8a8,8,0,1,1-8-8,8,8,0,0,1,8,8"/><rect class="cls-1" x="205.01" y="21.54" width="14.28" height="40.26"/><path class="cls-1" d="M223.5,56.7a5,5,0,1,1,5,5,5,5,0,0,1-5-5m9.24,0a4.24,4.24,0,1,0-4.24,4.21,4.23,4.23,0,0,0,4.24-4.21m-1.86,2.7H230l-1.64-2.52h-.92V59.4h-.76V54H229c1,0,2,.26,2,1.44s-.76,1.46-1.73,1.49Zm-2.56-3.28c.68,0,1.87.13,1.87-.74,0-.56-.74-.67-1.33-.67H227.4v1.41Z"/></g></g></svg>