<svg xmlns="http://www.w3.org/2000/svg" viewBox="0 0 920.03 376.26"><defs><style>.cls-1{fill:#fff;}</style></defs><g id="Layer_2" data-name="Layer 2"><g id="Layer_1-2" data-name="Layer 1"><path class="cls-1" d="M50.47,271.12c88.76-14.38,174.71-13.82,258.85-34.49-.87-8.49-6.86-11.35-12.55-13.95-27-12.38-55.67-22.14-80.81-37.55-18-11-40.48-9.81-56.26-25.63-11-11.08-20.79-21.17-24.46-37.41-3.93-17.36,5.51-28,17-33.94,38.18-19.71,77.35-37.53,120.42-44.91,22.23-3.81,26.08-.88,24.21,21.23-.64,7.6-4,13.78-8.28,19.4-3.4,4.45-6.35,12.84-13.07,10.07-6.5-2.68-10.83-9.62-6.87-17.93,4.06-8.52-2.33-8.1-6.89-7.06a374.5,374.5,0,0,0-92.75,34.28c-14.34,7.6-13.69,26.8-.32,37.6,19.78,16,44.42,22.92,66.75,34.14,28.77,14.46,63.37,17.52,86.12,43.87,1.33,1.54,4.41,1.65,6.71,2.3,8.4,2.36,19.49,8.63,16.6,15-3.6,7.93-6.79,18.52-18.68,22.75-48.92,17.38-100.55,16.5-150.91,24-49.42,7.32-99.34,9-149,13.68-11.78,1.12-21.8-.4-25.12-11.36-3.49-11.53.22-20.88,14.56-25.81,13.93-4.78,28.49-9.8,40-20.15,3-2.65,7.15-5.86,11.15-1.83,4.25,4.29-.52,7.67-2.41,11C61.34,254.1,57.69,259.54,50.47,271.12Z"/><path class="cls-1" d="M920,231.59c-.72,6.64-4.65,10.36-9.3,10.52-28.47,1-55.67,9.21-83.46,13.9-12.8,2.16-19.31-1.9-22.68-13.48-3-10.3-6-20.61-9.36-30.8-3.63-11-9.25-13.39-17.57-3.61-10.51,12.36-22.09,24.14-26.43,40.29-2,7.27-6.76,11.43-12.55,14.45-9.2,4.79-16.23,6.35-18.54-8.48-2.48-16,1.94-31.6,1.38-49.64-6.34,4-10.11,8.44-14.18,8.73-25,1.76-26.46,20.27-27.11,38-.47,12.77-8.39,18.64-17.72,17.59-8.72-1-8-12.35-7.36-19.6,1.26-13.52,9.39-26.54-5-39.39-4.24-3.77-6.89-18.24,8-22.63,15.87-4.68,9.23-20.67,11.14-30.8C676.8,116.73,681.18,76.22,687.41,36c1.19-7.68,2.36-18.76,14.78-16.17,11.76,2.47,8.63,11.11,7.23,20-6.57,41.84-12.43,83.79-17.88,125.78-.85,6.59-6.25,16.29,5.58,19.49,11.08,3,29.38-7,31.31-16.43,9.7-47.54,18.07-95.28,23.09-143.56.44-4.19.74-8.41,1.55-12.53,1.3-6.71,3.41-14.32,12.11-12.28,6.79,1.59,9.7,8,9.61,15.53-.57,46.26-9.68,91.41-18.56,136.51-2.34,11.83-3.63,23.17-1.81,35.61a33.43,33.43,0,0,0,5.08-2.3c32.35-22.33,43.64-19,58.76,17.36,1.37,3.31,2.42,6.75,3.5,10.18,5.18,16.53,14.33,24.4,33.54,20.66C876.4,229.77,898.17,229.48,920,231.59Z"/><path class="cls-1" d="M391.45,212c6.6-6.1,13.37-12.62,20.43-18.82,12.19-10.71,19.56-9.64,28.24,4.14a96.29,96.29,0,0,1,6.57,12.83c4.56,10.46,9.44,11.72,18.65,3.51,24.25-21.62,42.64-18.53,60.35,9,4.2,6.52,7.23,14,12.33,19.69,9.86,11-1,16.54-6.42,20.51-8,5.86-12.87-1-15.56-8.59a29.38,29.38,0,0,0-1.45-3.31C500.5,222.6,497,221.55,474.2,243.24c-6.15,5.86-14,9.53-18.94,17.6-4.67,7.6-10.21,1.67-12.93-4.52-3.6-8.17-6.85-16.49-10.5-24.63-4.92-10.95-11.38-11.2-18.73-2.21-6.83,8.37-13.68,16.73-20.28,25.28-5.28,6.84-12.92,6.6-19.6,5.15-7.2-1.55-10-9.27-10.24-15.47-1-27-.79-53.95-1.25-80.92-.11-6,3.15-9.07,8.25-10.07,8.61-1.69,12.74,4.63,13.93,11.06,2.37,12.9,3,26.09,4.57,39.15C388.8,206.41,386.91,209.88,391.45,212Z"/><path class="cls-1" d="M587.52,235.9c6.56-17.22,13-30.25,16.26-44,2.18-9.08,3.9-15.37,14.48-12.5,10,2.73,13.1,10.14,10.38,19.67-4.29,15-8.89,29.89-13.58,44.76s-8.73,30.06-14.71,44.42c-6.9,16.57-15.15,18.84-28.56,9.45-6.65-4.66-16.55-8.83.16-15.39,10.38-4.08,7.81-15,2.5-23.24-8.13-12.6-18-24.25-24.76-37.5-3.58-7-14.11-17.89-.69-24.52,10.24-5.06,17.57,2,22.11,12.38C574.65,217.49,580.38,224.6,587.52,235.9Z"/><path class="cls-1" d="M345,335.83v40.43h-5.39V335.83H322.92v-5.45h38.89v5.45Z"/><path class="cls-1" d="M407.2,376.26l-9.86-20h-17.7v20h-5.52V330.38h33.57l5.27,5.45v14.83l-5.46,5.57h-4.22l10,20Zm.49-38.28-2.27-2.08H379.64v14.88h25.72l2.33-2.39Z"/><path class="cls-1" d="M427,376.26V330.38h5.39v45.88Z"/><path class="cls-1" d="M485.29,376.26H450.44V330.38H483l5.45,5.15v13.53l-2.08,2.45,4.35,4.11v15.62ZM483,337.67l-2-1.77H455.77V350h24.56l2.69-2.63Zm2.14,20.27-2.63-2.45H455.77v15.32H483l2.2-1.84Z"/><path class="cls-1" d="M504,376.26V330.38h37.79v5.33H509.42V349.8h16.9v5.45h-16.9v15.43H543.1v5.58Z"/><path class="cls-1" d="M558.42,376.26,553,370.62V336.08l5.14-5.7h33.57v5.45H560.56l-2.21,2.51v30.38l2,2.09h31.43v5.45Z"/><path class="cls-1" d="M639.75,376.26l-7.35-15.68H610.29l-7.47,15.68h-6l21.86-45.88h5.45l21.75,45.88Zm-18.37-38.9L613,355.13h16.84Z"/></g></g></svg>