<svg xmlns="http://www.w3.org/2000/svg" viewBox="0 0 569.25 201.7"><defs><style>.cls-1{fill:#fff;}</style></defs><g id="Layer_2" data-name="Layer 2"><g id="Layer_1-2" data-name="Layer 1"><path class="cls-1" d="M306.59,201.7c-2.32-.48-4.66-.89-7-1.44-13.82-3.29-22-13.33-23.09-28.68-.81-11.05,1.12-21.39,9.58-29.31,11-10.27,24.13-11.8,37.92-7.49,13.06,4.09,19.39,14.2,21.73,27.16.34,1.88.46,3.79.63,5.69.07.78,0,1.57,0,2.64H301.46c-1.59,9,2.53,17.15,9.31,18.78,8,1.92,15.23-2.6,17.9-11.48h16c-1.21,8.82-5.69,15.17-13.2,18.94-4.31,2.17-9.25,3.1-13.9,4.59l-1.9.6ZM321.66,159c.33-5.35.41-10.41-4.59-13.61a9.76,9.76,0,0,0-11.1.07c-4.87,3.19-5,8.24-4.73,13.54Z"/><path class="cls-1" d="M224,201.7c-2.33-.46-4.68-.86-7-1.4-13.55-3.16-22.13-13.21-23-27.68a53.92,53.92,0,0,1,.92-15.23c3.18-13.78,14.51-23.11,28.7-24.43,9.13-.85,17.9.22,25.59,5.64,10.75,7.6,14.1,18.73,14.59,31.61H218.28c-.32,11.58,3.27,17.68,11,19.08,7.36,1.33,13.74-3.09,16.66-11.62h15.85a23.14,23.14,0,0,1-8.44,15.73c-5.3,4.5-11.59,6.66-18.35,7.7-.87.13-1.72.4-2.57.6Zm15-42.69c.41-5.51.27-10.66-4.9-13.77a9.75,9.75,0,0,0-11.1.4c-4.65,3.27-4.72,8.19-4.34,13.37Z"/><path class="cls-1" d="M152.77,201.7l-3.45-.81c-9.86-2.18-15.07-8.84-15.13-19.59-.07-10.56,0-21.11,0-31.67V146h-9V134.85c8.9-.39,13.47-5.91,15.9-13.68,1-3.14,1.31-6.48,2.16-9.68.24-.89,1.21-2.23,1.91-2.27,3.89-.22,7.81-.1,12-.1v25.49H174v11.17H157.49c-.08,1.39-.19,2.45-.19,3.5q0,16.59,0,33.18c0,4.37,1.21,6.19,4.21,6.47,3.48.31,5.8-1.56,6.47-5.65a54.88,54.88,0,0,0,.46-7.49c.07-2.49,0-5,0-7.61h11.18c-.31,7.17.85,14.3-1.39,21.26-2.35,7.33-8.05,10.37-15.12,11.62-.85.15-1.68.42-2.52.64Z"/><path class="cls-1" d="M444,188.47v10.75H403.33V188.59c7.58-1,7.62-1,7.62-8.8,0-6.94,0-13.87,0-20.81a39.58,39.58,0,0,0-.15-4.22c-.71-6.5-3.49-9.24-9.48-9.46a10.14,10.14,0,0,0-10.84,9.16,115.84,115.84,0,0,0-.32,12.65c0,4.82,0,9.65,0,14.47,0,5.64.95,6.58,6.66,6.76.39,0,.78.08,1.37.14v10.67H356.8V188.33c1.65,0,3.41.06,5.16,0,3.54-.14,5-1.46,5-5q.12-16.12,0-32.27c0-3.75-1.34-4.95-5.17-5.12-1.59-.07-3.19,0-5,0v-11h32v9.44l.71.3c.65-.78,1.32-1.55,1.93-2.36,8.23-10.95,23.13-11.2,31.73-7.76,8.05,3.21,10.31,10.34,10.61,18.1.37,9.43.16,18.89.18,28.34,0,6.46.86,7.32,7.25,7.38C442.09,188.35,443,188.42,444,188.47Z"/><path class="cls-1" d="M496.33,76.3v2.88H72.92V76.3Z"/><path class="cls-1" d="M8.47,20.43v18h1.69v.89H0v-.89H1.65V.9H0V0H11.93c.82,0,3.86-.17,5.59.93a5.07,5.07,0,0,1,2.42,4.79v9.32a4.59,4.59,0,0,1-2.09,4c-1.77,1.16-4.69,1.4-7.08,1.4Zm4.65-17a2.63,2.63,0,0,0-.41-1.88A2.58,2.58,0,0,0,10.53.9H8.47V19.58h2.47a2.31,2.31,0,0,0,1.81-.76,3,3,0,0,0,.37-2Z"/><path class="cls-1" d="M71.15,33.83c0,3.54-2.33,5.82-8.59,5.79-6.7,0-8.51-2.25-8.51-5.79V10.08c0-4.22,3-6.38,8.7-6.41,5.51,0,8.4,2.74,8.4,6.41ZM65,7.06c0-2-.74-2.78-2.26-2.74S60.19,5,60.19,7.06V36.29c0,1.48.49,2.62,2.34,2.62S65,38.17,65,36.29Z"/><path class="cls-1" d="M125.68,4v7.12h-.93V5.52h-5.22v33h1.52v.8h-9.14v-.8h1.48v-33h-5.18v5.55h-.93V4Z"/><path class="cls-1" d="M180.21,4v7.12h-.92V5.52h-5.22v33h1.52v.8h-9.15v-.8h1.48v-33h-5.18v5.55h-.92V4Z"/><path class="cls-1" d="M223.83,20.51h6.77V17.42h.93v7.77h-.93V22.08h-6.77V37.71h6.77V32.38h.93v6.9H216.16v-.8h1.52V4.75h-1.52V4h15.37v6.9h-.93V5.52h-6.77Z"/><path class="cls-1" d="M281.21,21.18c0,.22,2.26.4,3.81,1.45s1.74,2.22,1.74,3.8v12h1.52v.8h-7.67V25.16c0-1.11.26-2.19-.81-2.84a5.51,5.51,0,0,0-2.63-.34H275.1v16.5h1.48v.8h-9.14v-.8H269V4.75h-1.52V4h10.73c.74,0,3.48-.16,5,.83a4.58,4.58,0,0,1,2.18,4.31v7.53a4,4,0,0,1-1.26,3.24A8.45,8.45,0,0,1,281.21,21.18Zm-2-14.12c0-.68.11-1.17-.37-1.7A2.51,2.51,0,0,0,277,4.75H275.1V21.21h2.22a2.07,2.07,0,0,0,1.63-.67,2.7,2.7,0,0,0,.3-1.79Z"/><path class="cls-1" d="M327.67,26.67l-6.4-21.92h-1.52V4h9.14v.8h-1.48l5.4,18.59,4.78-18.59h-1.52V4h5v.8h-1.48l-5.77,22V38.48h1.48v.8h-9.15v-.8h1.52Z"/><path class="cls-1" d="M398.36,24.72v8.84a4.91,4.91,0,0,1-1.15,3.8c-1.48,1.61-4.56,1.92-5.88,1.92h-14.8v-.89h1.64V.9h-1.64V0h14.1a6.7,6.7,0,0,1,4.4,1.3A4.41,4.41,0,0,1,397,5v9.43a4.09,4.09,0,0,1-1.32,3.08,12.29,12.29,0,0,1-3.17,1.75c0,.27,2.51.24,4.32,1.78A4.23,4.23,0,0,1,398.36,24.72ZM385,38.39h3.66a3.8,3.8,0,0,0,2-.48,2.28,2.28,0,0,0,.91-1.92V22.11a2.12,2.12,0,0,0-.41-1.5,2.41,2.41,0,0,0-1.9-.62H385ZM385,.9v18h3.58a1.8,1.8,0,0,0,1.31-.45,1.93,1.93,0,0,0,.29-1.44V3.23c0-.14.08-1.44-.29-1.88S388,.9,387.92.9Z"/><path class="cls-1" d="M443.89,4.75h-1.51V4h9.44v.8h-1.71l6.15,33.73h1.52v.8h-9.26v-.8h1.3l-1.48-9.87h-7.52l-2,9.87h1.52v.8H435.5v-.8h1.32Zm-2.84,22.51H448L444.75,8.05Z"/><path class="cls-1" d="M507.43,21.18c0,.22,2.25.4,3.81,1.45s1.74,2.22,1.74,3.8v12h1.52v.8h-7.67V25.16c0-1.11.26-2.19-.81-2.84a5.53,5.53,0,0,0-2.63-.34h-2.07v16.5h1.48v.8h-9.14v-.8h1.52V4.75h-1.52V4h10.73c.74,0,3.48-.16,5,.83a4.58,4.58,0,0,1,2.18,4.31v7.53a4,4,0,0,1-1.26,3.24A8.45,8.45,0,0,1,507.43,21.18Zm-2-14.12c0-.68.12-1.17-.36-1.7a2.51,2.51,0,0,0-1.89-.61h-1.89V21.21h2.22a2.07,2.07,0,0,0,1.63-.67,2.69,2.69,0,0,0,.29-1.79Z"/><path class="cls-1" d="M561.25,39.28,553.81,9.93V38.48h1.52v.8h-4.81v-.8H552V4.75h-1.48V4h7.66l7.73,30.62V4.75h-1.48V4h4.82v.8h-1.52V39.28Z"/></g></g></svg>