<svg xmlns="http://www.w3.org/2000/svg" viewBox="0 0 308.97 308.57"><defs><style>.cls-1{fill:#fff;}</style></defs><g id="Layer_2" data-name="Layer 2"><g id="Layer_1-2" data-name="Layer 1"><path class="cls-1" d="M300.48,294a2.24,2.24,0,1,0,2.26,2.26,2.23,2.23,0,0,0-2.26-2.26m-25.85-7.4a5.55,5.55,0,0,1,11,0ZM289,289.3v-.63c0-5.87-3.56-9.79-8.89-9.79s-9.11,4-9.11,9.74,3.74,9.93,9.16,9.93c3.83,0,6.59-1.67,8.66-5.32l-2.7-1.54a11.47,11.47,0,0,1-1.77,2.39,6.14,6.14,0,0,1-4,1.54c-3.38,0-5.78-2.49-6-6.32Zm-26.35-8.66a9.92,9.92,0,1,0-5.87,17.91,10.22,10.22,0,0,0,6-1.94v-4.24c-2.17,2.44-3.7,3.25-6.19,3.25a6.92,6.92,0,0,1,.14-13.81c2.3,0,3.84.81,5.91,3.07Zm-34.52,1.12c3.7,0,6.32,2.8,6.32,6.77,0,4.2-2.53,7.09-6.27,7.09-3.57,0-6.14-3-6.14-7.13,0-3.79,2.66-6.73,6.09-6.73m6.09-2.48V282a7.93,7.93,0,0,0-6.5-3.12c-5.18,0-9,4.11-9,9.79s3.83,9.93,9,9.93a7.74,7.74,0,0,0,6.5-3.16V298h3.21V279.28Zm-26.67,3h4.74v-3h-4.74v-7.22c0-3.38.54-4.28,2.57-4.28a5.52,5.52,0,0,1,2.17.45V265a7.22,7.22,0,0,0-2.48-.41,5.4,5.4,0,0,0-4.29,1.9c-.81,1-1.17,2.48-1.17,4.83v8h-1.76v3h1.76V298h3.2ZM191.64,294a2.24,2.24,0,1,0,2.26,2.26,2.22,2.22,0,0,0-2.26-2.26m-12-11.73a5.41,5.41,0,0,0-5-3.38c-3.25,0-5.59,2.21-5.59,5.23,0,2.48,1.08,3.57,5.41,5.46,2.35,1,3,1.67,3,3.12a2.92,2.92,0,0,1-3,2.93c-1.81,0-2.71-.72-3.79-3l-2.84,1.18c1.22,3.2,3.43,4.78,6.59,4.78a6.16,6.16,0,0,0,6.36-6.09,4.73,4.73,0,0,0-2.08-4.11,14.53,14.53,0,0,0-3.56-1.8c-2.44-1-3-1.58-3-2.71a2.18,2.18,0,0,1,2.31-2,2.87,2.87,0,0,1,2.57,1.85Zm-29.24-.5c3.56,0,6.14,2.94,6.14,7.13,0,3.75-2.67,6.73-6.1,6.73-3.65,0-6.31-2.85-6.31-6.77,0-4.2,2.57-7.09,6.27-7.09m-6.05,26.81V295.39a8,8,0,0,0,6.5,3.16c5.14,0,9-4.11,9-9.61,0-5.91-3.75-10.11-8.93-10.11a7.92,7.92,0,0,0-6.55,3.12v-2.67h-3.2v29.29ZM128.88,269.9a2.3,2.3,0,1,0,2.3,2.3,2.31,2.31,0,0,0-2.3-2.3m1.58,9.38h-3.21V298h3.21ZM116.6,265.11h-3.2V298h3.2ZM100.67,294a2.24,2.24,0,1,0,2.26,2.26,2.22,2.22,0,0,0-2.26-2.26m-12-11.73a5.41,5.41,0,0,0-5-3.38c-3.25,0-5.59,2.21-5.59,5.23,0,2.48,1.08,3.57,5.41,5.46,2.35,1,3,1.67,3,3.12a2.92,2.92,0,0,1-3,2.93c-1.8,0-2.7-.72-3.79-3l-2.84,1.18c1.22,3.2,3.43,4.78,6.59,4.78a6.16,6.16,0,0,0,6.36-6.09,4.73,4.73,0,0,0-2.08-4.11,14.33,14.33,0,0,0-3.56-1.8c-2.44-1-3-1.58-3-2.71a2.17,2.17,0,0,1,2.3-2A2.87,2.87,0,0,1,86,283.66Zm-34.16,4.33A5.66,5.66,0,0,1,60,281.76a5.59,5.59,0,0,1,5.5,4.83Zm14.4,2.71v-.63c0-5.87-3.57-9.79-8.89-9.79s-9.12,4-9.12,9.74,3.75,9.93,9.16,9.93c3.84,0,6.59-1.67,8.67-5.32L66,291.69a11.51,11.51,0,0,1-1.76,2.39,6.17,6.17,0,0,1-4,1.54c-3.38,0-5.77-2.49-6-6.32Zm-35.47,6.95-6,12.32H31l13.85-29.29H41.2l-6.05,13.41-6.63-13.41h-3.7Zm-29-9.66a5.65,5.65,0,0,1,5.5-4.83,5.61,5.61,0,0,1,5.51,4.83Zm14.39,2.71v-.63c0-5.87-3.56-9.79-8.89-9.79s-9.11,4-9.11,9.74,3.74,9.93,9.16,9.93c3.83,0,6.59-1.67,8.66-5.32l-2.71-1.54a11.16,11.16,0,0,1-1.76,2.39,6.14,6.14,0,0,1-4,1.54c-3.39,0-5.78-2.49-6-6.32Z"/><path class="cls-1" d="M64.33,104c21.62,0,43.23,15.4,45.6,53H17c0-26.5,22.2-53,47.36-53m1.78-6.51C30.49,97.5,0,121.18,0,168s33.94,72.83,67.89,72.83c23.38,0,40.56-11.84,51.81-22.2l-5.63-5.33S97.49,232.5,71.44,232.5,16.37,213.61,16.37,165H126.21c0-28.72-16.88-67.5-60.1-67.5"/><path class="cls-1" d="M139.53,229.24a4.89,4.89,0,1,0,4.89,4.89,4.88,4.88,0,0,0-4.89-4.89"/><path class="cls-1" d="M206.79,229.24a4.89,4.89,0,1,0,4.88,4.89,4.89,4.89,0,0,0-4.88-4.89"/><path class="cls-1" d="M272.9,229.24a4.89,4.89,0,1,0,4.89,4.89,4.89,4.89,0,0,0-4.89-4.89"/><path class="cls-1" d="M165.88,16.88V239h16.28V.79c-8.14,0-16.28,4-16.28,16.09"/><path class="cls-1" d="M276,0c-23.09,0-44.6,16.38-44.6,55.07V239H247.2V106.38h41.44V97.5H247.2V54.67c0-25.85,7.1-47.57,31-47.57,13.23,0,21.71,8.69,25.86,14.41L309,17.17S299.1,0,276,0"/></g></g></svg>