<svg xmlns="http://www.w3.org/2000/svg" viewBox="0 0 612 98.12"><defs><style>.cls-1{fill:#fff;}.cls-2{fill:none;}</style></defs><g id="Layer_2" data-name="Layer 2"><g id="Layer_1-2" data-name="Layer 1"><polyline class="cls-1" points="0 2.04 0 20.85 26.89 20.85 26.89 96.78 45.19 96.78 45.19 20.85 71.97 20.85 71.97 2.04 0 2.04"/><path class="cls-1" d="M143.31,78.64C127.71,78.64,115,65.56,115,49.4s12.72-29.2,28.32-29.2,28.31,13.11,28.31,29.2-12.7,29.24-28.31,29.24m0-77.9C117.18.74,95.93,22.57,95.93,49.4s21.25,48.72,47.38,48.72,47.37-21.84,47.37-48.72S169.44.74,143.31.74"/><rect class="cls-2" width="612" height="98.12"/><rect class="cls-2" x="0.1" y="0.74" width="610.64" height="97.28"/><path class="cls-1" d="M250.57,20.2h17.8c5.24.28,11.7,2.53,12.2,11.66v.57a11.3,11.3,0,0,1-3.11,7.7,11.74,11.74,0,0,1-8.52,3.9l-18.37,0V20.2m48.66,11.67c0-.57,0-1.14,0-1.7a28.31,28.31,0,0,0-7.41-19.23,27.33,27.33,0,0,0-20.29-8.88L232.25,2V96.78l18.32,0V62.22h13.58c1,1.87,19.07,34.57,19.07,34.57h20s-18.33-34.2-20-37.3c12.3-6.71,15.31-15.3,16-27.62"/><path class="cls-1" d="M366.52,20.2H384.3c5.24.28,11.71,2.53,12.19,11.66a3.76,3.76,0,0,1,0,.57,11.26,11.26,0,0,1-3.11,7.7,11.72,11.72,0,0,1-8.53,3.9l-18.36,0V20.2m48.63,11.67c.05-.57.07-1.14.07-1.7a28.28,28.28,0,0,0-7.43-19.23A27.18,27.18,0,0,0,387.5,2.06L348.22,2V96.78l18.3,0V62.22h13.57c1,1.87,19.06,34.57,19.06,34.57h20s-18.37-34.2-20-37.3c12.31-6.71,15.31-15.3,16-27.62"/><rect class="cls-1" x="466.63" y="2.04" width="18.32" height="94.74"/><path class="cls-1" d="M564.62,78H551.73V20.85h11.51c16.17,0,29.31,12.82,29.31,28.56,0,16-12.26,28.59-27.93,28.59M563.36,1.92l-29.92.16V96.8h29.92a46.88,46.88,0,0,0,47.38-47.39A47,47,0,0,0,563.36,1.92"/><rect class="cls-2" width="612" height="98.12"/></g></g></svg>