<svg xmlns="http://www.w3.org/2000/svg" viewBox="0 0 464.43 63.04"><defs><style>.cls-1{fill:#fff;}</style></defs><g id="Layer_2" data-name="Layer 2"><g id="Layer_1-2" data-name="Layer 1"><path class="cls-1" d="M105.54,47.69c-1.87-2.71-12.13,5-9.27,6,4.15,1.67,11.63-3.35,9.27-6M186.29,39c3.62-1.79,7-4,10.87-5.29,3.57-1.22,7.68-2.85,11.47-2.05,17.77,3.76-.93,27.44-25.93,20.07,0-.27.5-2,.47-2.26,2.84,1.51,23.07,4.14,29.35-9.22,2.12-4.51-8-9.63-17.88-2.66-7.16,3.56-12.55,8.14-15.76,14.5-.36.73-1.62,2-2.86,1.59-3.33-.42-.51-6.92-.19-8.52-1.89.79-14,7.79-20.34,8.84s-10.14-1-10.89-6.81c-1.51.47-17.35,9.65-22.86,4.85-1.74-1.52-1.85-3.66-.31-5.72,1.34-1.81,2.29-3.82,3.84-6.46-2.36.38-8.11,2.16-9.62,2.58-4.91,1.35-7.69,3.6-6.65,8.3.48,2.16-4.8,5.27-8.32,5.82-2.81.44-4.91.44-6.78-.66-.77-.46-1.79-1.82-1.66-2.69.5-3.39,3.64-5.28,6.88-6.88,4.75-2.34,4.89-2.62,1.51-6.18-1.66-1.75-3.29-3.54-4.87-5.35-1.73-2-.28-5.24,2.41-6.23,6-2.22,11.4-.63,16.67,1.66.63.27,2,.55,1.13,2a2.61,2.61,0,0,1-3.21.63c-3.11-1.38-6.27-2.51-9.83-1.91-1.43.24-3.9.6-3.9,1.88a5.44,5.44,0,0,0,1.17,2.52c1.58,1.84,3.69,3.42,5,5.38s2.72,1.76,4.69.89q10.83-4.79,21.73-9.43a15,15,0,0,1,2.44-.6c1.65-.53,3,1.06,2.45,2.18-6.06,4.3-14,15.61-11.78,15.83,5.08,1.2,9.48-.59,13-3a101.37,101.37,0,0,0,13.46-11.29c1.92-1.89,4,1.9,1.76,3.61-3,2.3-5.1,5-4.69,8.65.25,2.29,1.37,3.47,4.23,3.48a24,24,0,0,0,14.35-4.59A78.61,78.61,0,0,0,177,38.32c3-3,5.11-6.5,7.68-9.75a72.15,72.15,0,0,1,5-5.84,1.74,1.74,0,0,1,2.55-.09c1.09.65.07,1.88-.4,2.59-3,4.55-6.12,9-9.21,13.53.31.29.32,1.93,3.67.28"/><path class="cls-1" d="M231.09,49.27c-2.89-2.33-11.75,5.57-9,7.88,4.76,2.35,12.84-3.84,9-7.88m62.13-5.08c-1.33-2.17-6.43,2.21-8.85,3.87-5.64,3.87-11.45,7.46-18.74,8.9a27.81,27.81,0,0,1-7.8.66c-7.41-.71-8-4.51-7.55-10.44.14-1.72,1.23-4,1.84-6.42-4,1.41-7.13,2.55-10.31,3.66-.83.3-1.69.55-2.55.81-5.24,1.57-5.75,2.59-4.7,7.05a5.39,5.39,0,0,1-1.23,4.07c-2.54,3.32-9.22,4.59-12.7,2.65s-3-6.64,1-9.09a35.85,35.85,0,0,1,5.19-2.69c2.47-1,1.95-2.12,1.26-3.92-1.12-2.92-3.27-5.29-4.69-8-1.29-2.47,1.5-6.36,4.9-6.5a44.6,44.6,0,0,1,9.22.74c.85.15,2.06,1.6,1.93,2.32-.27,1.61-1.8,1.63-3.4.9-.69-.32-7.65-1.69-8.23.08s1.42,6.4,1.57,6.65c3.09,5.18,2.75,5.39,9.32,2.92,9.82-3.7,19.64-7.4,29.55-10.94,3.22-1.14,8.13,1.51,8.38,4.35.05.56-.74,1.46-1.41,1.68a2.77,2.77,0,0,1-2.24-.59c-1.42-2.41-3.45-2.17-6.06-1.48-7.42,2-11,6.77-13,12.3-1.68,4.54,2.68,7.68,8.5,6.65a49,49,0,0,0,21-9.5c2-1.46,4.11-2.77,5.91-4.34a24.16,24.16,0,0,0,4.22-4.69c.93-1.41,2.12-1.94,3.53-1.08.81.5,1.6,2.21,1.2,2.64-2,2.19-2.85,3.34.84,5.18,1.7.92-2.67,5.26-4.21,8.3-1.11,2.66,10.24-1.88,14.28-4.18,5.47-3.1,8.71-7.6,12.13-12.06.43-.57,1.92-1.93,3.11-.79,1.54.46.94,1.8.58,2.31a89.09,89.09,0,0,1-6.52,8.36c-2.11,2.33-2,4.32,0,6.59.49.55,1.25,1.88,0,2.53-1.61,1.31-2.33-.48-3.05-1.08-1.42-1.17-2.35-3.48-3.8-3.67s-11.43,4.93-14.79,5.36c-3.93.49-5.73-1.67-4.9-4.94.41-1.62,2.44-4.16,1.22-5.13"/><path class="cls-1" d="M352.91,52.31c-3.9,1.33-9.27-.78-9.5.51-1.64,4.12,11.17,1.61,9.5-.51m30.41-11.65c.48,1.68,2.94.32,3.43,0,3.09-2.33,6.37-4.45,8.9-7.3,1.54-1.72-.95-3.65-3.29-2.39-6.27,3.37-9.26,7.56-9,9.74M341.1,48.15c3.75,3,9,2.68,13.53,1.88,19.93-3.58,15.37-14.3,11.62-14.84-7.49-1.08-17.87,4.18-21.69,7.83-1.36,1.3-2.09,3-3.46,5.13m56,.58c-4.42,3.13-11.93,3.73-15.31.81-1.66-1.43-3.33-1.67-5.73-1C372.27,49.6,368.25,50,364.44,51c-2.44.61-4.71,1.67-7.08,2.49-3.64,1.27-7.16,3-11,3.65-4.78.28-4.78.28-5.78-3.73-.13-.55-.1-1.12-.25-2.78-2.59,1.65-5.42,5.16-7.38,4.7-2.44-.77-.85-3.67-.23-4.88,2.62-5.05,5.82-9.9,8.46-15,2.19-4.18,3.84-8.54,5.84-12.79a24.89,24.89,0,0,1,2.42-3.41c1.41-1.13,3,0,2.63,2-2.46,5.15-7.79,16.17-7.48,16.44,2.23-.69,5.76-2.12,8-2.78,3.22-.95,6.38-2.06,9.67-2.75,3.94-.84,9.5.89,11,3.33,2,3.22-.28,5.89-2.1,8.56a13.52,13.52,0,0,0-.69,1.18c4.78,1.3,7.44.06,8.68-3.51,1.66-4.76,4.24-9.13,9.1-12.37,2.75-1.84,7.51-1.9,9.62.35a3.88,3.88,0,0,1,.61,3.77c-2.2,5.08-7.21,8.17-12.39,11.13-1,.56-2.79,1.17-2.16,2.55.73,1.09,2,1.39,3.45,1.75,2.81.72,10.44-2.39,9.67-.23"/><path class="cls-1" d="M5.15,51.39c12.63-3.81,22.39-10.78,31.23-19.53.84-.79,2.81-.79,2.36,1.33C36.12,38,33.56,42,31.07,46.53c-1,1.88.47,3.16,2.92,2.65a43.23,43.23,0,0,0,18.87-9c3.75-3.05,7.75-5.9,11.51-8.93,1.94-1.57,3-.65,4,.56.19.76-6.09,7.05-5.72,7.37C63.79,38.78,67,37.48,68,37c5.79-2.63,10.68-5.25,17-6.16,3.69-.53,6.13,1.2,5.12,4.06-1.26,3.55-3.08,7-4.68,10.45-1,2.17-3.43,4.08-.74,6.69,1.28,1.24-3,4.37-5.79,4.2-.57,0-2.26-1.35.69-6.73,1.68-3.07,3.2-6.19,4.67-9.32.9-1.93,1.59-3.93,2.53-6.28-.07-1.81-8.77,1.64-12.27,3.25-7.47,3.45-12.42,9.16-18.4,13.95a24,24,0,0,1-3.05,2.55c-.95.53-2.46,1.65-3.42.92-1.35-.8-.33-2.39.21-3.32,1.07-1.86,4.32-5.71,5.69-7.46-.33-.29-5,1.67-5.8,2.21A43.9,43.9,0,0,1,33.6,52.38c-3.56.69-7.41-1.75-6.49-4.81,1.53-5-3.16-1.41-8.23,1.34a88.39,88.39,0,0,1-14,5.63c-1.34.45-6,.2-4.66-4.23Q5,40.38,10,30.55a3.45,3.45,0,0,1,2.66-1.33c1.26.32,2.81,1.1,1.77,2.71-2.45,3.8-5,7.55-7.32,11.41a78.15,78.15,0,0,0-3.34,7.13c-.3,1.59.59.92,1.34.92"/><path class="cls-1" d="M438.1,36.46c.87.55,2.47-.27,2.69-.46,9.61-6.45,24.28-23.27,20.85-29.86-4.65-7.29-9.74,1.62-11,3.79-3.83,6.65-7.34,13.18-10.64,20-.84,1.74-3.47,6-1.91,6.49M428.05,43.6c2-.91,5.47-7.51-1.13-10.51-9.44-3.43-21,3.06-22.73,10.27-.45,10.68,18.3,2.71,23.86.24m-5,18.8c-1.59-1.37,3.12-9.46,4.83-14.63-5.11,1.54-9,3.19-13.19,3.89-7.05,1.18-10.11,1-13.36-4.51-2.19-3.67-.55-7.51,2-10.3,4.16-4.62,9.68-8.2,17.51-7.57,3.78.31,7.4,1,10.25,3.37,2.44,2,3.48,1.64,4.7-.91,4-8.39,8.1-16.77,12.5-25,1.58-3.22,6.11-8.91,11.66-5.8a7.38,7.38,0,0,1,4.36,6c.94,6.73-2.67,12.38-6.76,17.64a70.33,70.33,0,0,1-21.59,18.35c-3.06,1.69-3.57,4.25-4.42,6.64-1.31,3.65-2.13,7.9-3.14,11.63-.6,2.2-2.81,2.34-5.31,1.28"/><path class="cls-1" d="M323.24,19c-.4-2.43,1.22-2.92,2.9-3.14a7,7,0,0,1,3.92,1.26,2.36,2.36,0,0,1,.11,2.73c-1.82,1.8-5.65,1.56-6.93-.85"/></g></g></svg>