<svg xmlns="http://www.w3.org/2000/svg" viewBox="0 0 1840.71 1555.78"><defs><style>.cls-1{fill:#fff;}</style></defs><g id="Layer_2" data-name="Layer 2"><g id="Layer_1-2" data-name="Layer 1"><path class="cls-1" d="M1449.46,516.05c.49,74.65-12.9,140.33-39.41,203.29a516.49,516.49,0,0,1-95.54,148.76,537.41,537.41,0,0,1-148.42,114.07,547.21,547.21,0,0,1-165.72,55.52,562.68,562.68,0,0,1-121.31,6.86A552,552,0,0,1,673.49,994a541.2,541.2,0,0,1-133.06-87.26A525.27,525.27,0,0,1,451.9,805a511.33,511.33,0,0,1-57.43-115.38,503.34,503.34,0,0,1-25.88-118A514.61,514.61,0,0,1,368.73,470a498,498,0,0,1,37.36-145.29c21.46-50.43,49.89-96.59,86-137.85,42.23-48.27,91.24-88.26,147.56-119.2,60-33,124.06-53.5,191.71-63.38C866.1-.78,901-.34,935.92.55c59,1.5,115.7,14.14,170.69,34.92a535.56,535.56,0,0,1,165.55,99.36c53.29,46.84,95.79,102,126.92,165.78a494.92,494.92,0,0,1,44.34,141.25C1447.6,468.51,1450.09,495.27,1449.46,516.05ZM406.36,525.3c-1.15,27.42,1.33,55.17,6.14,82.78,11.29,64.66,33.83,125,68.79,180.62a486.9,486.9,0,0,0,76.52,93.07c20.28,19.36,41.71,37.27,65.1,52.7A515.45,515.45,0,0,0,743.6,993.54c50.38,16.83,102.23,25.29,155.26,26.3a378.52,378.52,0,0,0,45.31-1.7c21.8-2.2,43.66-4.65,65.15-8.8,49.82-9.62,96.95-27.12,141.55-51.38a493.56,493.56,0,0,0,232-276.18c15.83-47.26,25.07-95.7,25.86-145.65.56-36-1.27-71.76-7.69-107.23-9.21-51-26.47-99.12-50.57-144.95a484.07,484.07,0,0,0-152.82-171.7A491.26,491.26,0,0,0,1026,37c-30-6.83-60.38-11.91-91.28-12C910,25,885.12,24.5,860.53,26.58c-41.39,3.51-81.68,13-121,26.69a506.64,506.64,0,0,0-98.38,47c-40.83,25-76.92,55.8-109.05,91.29a478.2,478.2,0,0,0-92.41,149.35C416.87,400,404.09,461,406.36,525.3Z"/><path class="cls-1" d="M1660.63,1327.27c-20.54,9.17-40.63,13.87-62.24,5.09-1.14,5-2.31,9.29-3.06,13.66-.8,4.58,1,7.92,5.17,10.34,1.65,1,2.38,3.47,3.53,5.28-1.88,1.1-3.71,3-5.65,3.15a164.1,164.1,0,0,1-20,0c-2.13-.13-4.15-2-6.22-3.1,1.13-2.14,2.18-4.33,3.41-6.42,1.57-2.66,3.72-5.07,4.85-7.89,10.4-25.94,20.32-52.07,31.06-77.86,4.26-10.25,10-19.92,15.49-29.61,3.28-5.78,6.7-6,9.89-.16,8.85,16.19,17.23,32.63,25.48,49.14,3.19,6.37,5.52,13.17,8.14,19.53,11.59-4.85,22.82-10.28,34.53-14.32,28.6-9.84,57.73-13.38,87.16-3.67,17.94,5.93,32.47,16.77,42.76,32.77a36.14,36.14,0,0,1,5.51,23.88,21.77,21.77,0,0,1-27.24,18.65c-6.91-1.91-11-8-9.53-14.27a7.55,7.55,0,0,1,6.85-6.3c3.5-.46,5.5,1.17,7,4.27,2.77,5.7,8.26,6.32,11.87.77A18.46,18.46,0,0,0,1832,1339c-.85-8-5.18-14.58-11-20.22-16.84-16.41-37.47-22.29-60.33-21.37-28.92,1.18-55.77,10.44-82,21.84-2.78,1.21-3.73,2.54-2.53,5.68,3,7.93,5.42,16.1,8.6,24,1.1,2.71,3.83,4.73,5.68,7.17,1.28,1.7,3.17,3.57,3.18,5.38,0,1.11-3,3.14-4.67,3.22-8.31.34-16.64.36-24.94,0-1.67-.07-4.49-2.09-4.57-3.35-.1-1.72,1.51-4.55,3.08-5.18,4.87-2,5.58-4.82,4-9.42C1664.36,1340.65,1662.73,1334.39,1660.63,1327.27Zm-30.22-68.42-1.58-.06c-9.34,21.68-18.68,43.37-28.25,65.57,20.87,8.51,37.86.24,56-7.7C1647.72,1297.06,1639.07,1278,1630.41,1258.85Z"/><path class="cls-1" d="M164.58,1340.19c-16.35,5-30.94,10.23-45.91,13.85-24.75,6-49.79,7.5-74.36-1.07-18.55-6.47-33.87-17.24-41.71-36.14-5.46-13.18-2.11-26.25,8.1-32.42,6.46-3.89,13.44-4.89,20.5-1.44,5.2,2.54,7.94,8,5.9,13.33-.9,2.35-3.63,4.57-6.07,5.61-2.87,1.22-5.56-.42-6.74-3.52-1.82-4.74-5.09-4.58-8.89-2.83-6.37,2.93-8.74,9.22-6.5,16.92,2.55,8.76,8.59,14.93,15.35,20.44,17,13.86,36.91,17.87,58.2,15.81,29.87-2.88,57.69-12.93,84.68-25.47,1.92-.89,3.53-3.41,4.34-5.54,9.56-25.07,20.06-49.71,33.25-73.11,1.87-3.32,4.88-6,7.36-9,2.81,2.88,6.29,5.35,8.32,8.7,17.87,29.51,30.1,61.51,41,94.1,1.06,3.15,1.82,6.51,3.46,9.34,1.83,3.15,4.59,5.76,6.79,8.71,1.1,1.47,2.8,3.35,2.54,4.74s-2.61,3.26-4.09,3.31q-13.2.46-26.42,0c-1.44,0-3.92-2.23-3.92-3.42,0-1.67,1.54-4.31,3-4.83,5.23-1.86,5.86-4.94,4.18-9.71-2.54-7.21-4.79-14.53-7-21.86-1-3.44-3.25-5-6.57-6-13.73-4.13-26.29-.07-38.73,5.15-1.53.65-2.94,1.72-4.52,2.09-10.16,2.34-13.19,10-14.43,19-.66,4.84.56,8.71,5.23,11.37,1.62.92,2.31,3.49,3.43,5.3-1.87,1.11-3.68,3-5.61,3.16a150.43,150.43,0,0,1-19.46,0c-2.32-.15-4.52-2-6.78-3.15,1.17-2.14,2.32-4.3,3.53-6.42C158.73,1350.43,161.46,1345.65,164.58,1340.19Zm20.6-26.12.93,1.18c15.49-6,31.26-8.78,49-3.42l-24.34-53.07-1.4.18Z"/><path class="cls-1" d="M371.6,1257.48c-.13,2.85-.27,4.45-.27,6,0,27.27.08,54.54-.07,81.81,0,5.42.83,9.41,7.09,10.63,1.37.27,3.25,3.08,3.12,4.56s-2.46,3.82-3.91,3.89c-8.13.38-16.29.38-24.42,0-1.48-.07-3.91-2.44-4-3.84s1.82-3.89,3.4-4.53c7.72-3.1,7.79-2.94,7.79-11.33q0-41.22,0-82.45c0-1.66,0-3.33-.11-5-.53-7.14-1.65-8.28-8.27-10.72-1.76-.65-3-2.84-4.4-4.32,1.8-1.13,3.54-3.09,5.42-3.22a112.18,112.18,0,0,1,18,0,12.26,12.26,0,0,1,7.22,3.68c6.89,7.43,13.95,14.82,19.92,23,14.14,19.33,27.69,39.08,41.48,58.66.81,1.15,1.67,2.26,3.17,4.27.21-2.35.41-3.6.42-4.84,0-22,0-44,.12-65.93,0-5.32-.86-9.4-7.12-10.62-1.33-.25-3.13-3.32-2.89-4.79s2.8-3.32,4.43-3.41a199.51,199.51,0,0,1,21.46,0c1.77.11,3.42,2.3,5.12,3.54-1.32,1.62-2.33,4.07-4,4.7-4.46,1.67-5.91,4.35-5.89,9.06.18,33.48.1,67,.1,100.44,0,.84,0,1.67,0,2.5-.19,3.06.7,6.82-3.57,7.76-3.89.85-4.82-2.65-6.39-5.12-21.9-34.37-42.8-69.43-69.28-100.63C374.37,1260.29,373.41,1259.38,371.6,1257.48Z"/><path class="cls-1" d="M647.25,1364.85c-4,0-8,.38-12-.17-1.87-.26-4.61-2-4.93-3.54s1.64-4.4,3.26-5c4.64-1.84,5.49-4.5,3.93-9-2.62-7.53-5-15.15-7.24-22.8-1.27-4.31-3.83-6.44-8.28-7.32-13.41-2.63-25.3,1.74-37,7.4-2.84,1.37-5.41,3.37-8.31,4.55-6.42,2.63-9.15,7.63-10.16,14.1-.87,5.64-.7,10.57,5.39,13.56,1.42.69,3.13,3.48,2.72,4.55a6.44,6.44,0,0,1-4.6,3.57,200.72,200.72,0,0,1-21.94-.07,7.08,7.08,0,0,1-5.1-3.69c-.48-1.15,1.68-3.42,2.72-5.15,2.17-3.61,4.94-7,6.49-10.84,9.8-24.35,19-49,29.12-73.18,4.47-10.7,10.33-20.85,16-31,3.83-6.91,7.14-7.19,11-.26,8.5,15.23,17.12,30.51,24,46.5,8.52,19.84,15.18,40.47,23,60.62,1.27,3.28,4.48,5.78,6.62,8.77,1.14,1.6,2.73,3.55,2.56,5.18-.12,1.17-2.75,2.8-4.38,3-4.27.42-8.62.14-12.94.14Zm-71.68-50.37c8.57-2.64,16-6,23.71-7s16.05.22,24.59.49l-23.23-50.6C592,1277.16,583.83,1295.65,575.57,1314.48Z"/><path class="cls-1" d="M1183.33,1364.85c-4,0-8,.39-12-.17-1.84-.26-4.58-2.15-4.82-3.65s1.71-4.41,3.34-5c4.83-1.84,5.27-4.72,3.77-9-3-8.64-5.85-17.32-8.5-26.07-1.08-3.57-3.35-4.94-6.74-5.63-12.09-2.5-23.11,1-33.78,6a156.79,156.79,0,0,0-15.26,8.49c-8.73,5.37-9,21.07-.78,27,1.27.91,2.75,3.2,2.4,4.31-.48,1.52-2.57,3.51-4,3.57-7.8.33-15.64.29-23.44-.08-1.53-.07-3.64-1.95-4.2-3.46-.44-1.19.66-3.8,1.86-4.58,4.29-2.79,5.86-7,7.37-11.49,11.61-34.44,24.9-68.17,42.59-100,1.92-3.47,5.06-6.26,7.63-9.36,2.91,3,6.53,5.57,8.62,9,15.78,26.41,27.51,54.65,37.27,83.76,2.17,6.47,4.12,13.06,6.89,19.26,1.46,3.26,4.57,5.75,6.78,8.7,1.11,1.47,3,3.61,2.57,4.7a6.6,6.6,0,0,1-4.61,3.48c-4.27.5-8.63.17-13,.17Zm-23.52-57.38-23-50.12-24.26,55.21,1.1.86C1127.65,1305,1142.53,1302.9,1159.81,1307.47Z"/><path class="cls-1" d="M1323.19,1367.32c-17.21,0-32-4.33-42.27-18.39a33.7,33.7,0,0,1-5.06-12.16c-.39-1.71,1.59-5.13,3.27-5.8s4.54.91,6.28,2.28,2.47,3.49,3.52,5.37c12.26,21.93,45,23.22,59.44,10.62,12.66-11,10.76-29.17-4.64-35.72-8.48-3.61-17.81-5.23-26.75-7.78-5.43-1.55-10.94-2.88-16.24-4.81-27.43-10-24-39.62-9.31-53,12.8-11.6,28-13.19,43.94-10.46,6.14,1,12.07,3.55,17.94,5.83,4.71,1.83,7.59,5.29,7,10.82-.16,1.48.4,3.07.06,4.47a65.22,65.22,0,0,1-2.43,7c-2-1.18-4.48-1.95-5.93-3.61-8.89-10.2-19.52-16.45-33.49-15.73-11.81.6-21.31,8.46-22.22,18.41-.77,8.37,2.52,15.57,10.26,18.78s16.12,5.1,24.24,7.46c5.27,1.52,10.67,2.63,15.89,4.3,28.23,9,30.89,41.51,12.53,59C1349,1364,1336.29,1367.18,1323.19,1367.32Z"/><path class="cls-1" d="M782.61,1367.27c-11.22,0-26.52-5.44-36.43-21.35a20.68,20.68,0,0,1-3.07-9.28c-.11-2,1.74-5.12,3.44-5.73s4.39,1.09,6.33,2.3c1.15.71,1.78,2.37,2.43,3.71,10.31,21.12,39.13,24.91,55.53,15.68,5.92-3.34,10.3-8,12.3-14.46,3.15-10.22-.33-19.34-10.2-23.74-7.68-3.42-16.08-5.25-24.2-7.65-6.7-2-13.57-3.43-20.17-5.69-28-9.59-24.72-40-9.46-53.46a44.07,44.07,0,0,1,26.73-11c12.76-.95,24.9,1.11,36.13,7.45,4.86,2.75,8.06,15.36,5.08,20-1.76,2.77-4,1.86-5.84,0-3.09-3-5.8-6.49-9.15-9.19-10.26-8.26-21.85-11.19-34.58-6.86-8.64,2.93-14,10-14.07,18.16-.09,8.82,4.26,15.21,12.37,18.12,8.41,3,17.23,4.9,25.86,7.34,4.8,1.36,9.61,2.7,14.33,4.29,21.73,7.33,29.14,33.18,15.36,52.61C822.62,1360.89,807.59,1367.52,782.61,1367.27Z"/><path class="cls-1" d="M950.64,1301.59q0-22.72,0-45.47c0-6.3-1.32-7.59-7.68-7.43-11.13.3-21.34,2.93-29.65,11.07-1.46,1.42-4.35,1.38-6.57,2-.54-2-1.63-4-1.49-5.88a127,127,0,0,1,2-12.78c.57-3.11,2.55-4.31,5.71-4.31q45.72.09,91.42,0c3.53,0,5.66,1.35,6.31,5,.71,3.93,1.87,7.79,2.25,11.74.19,1.88-.42,4.79-1.69,5.56s-4.28,0-5.67-1.11c-6-4.91-12.11-9.48-20.1-10.35a106.84,106.84,0,0,0-12.9-.61c-3.33,0-5.1,2.14-5.23,5.49q-.14,3.49-.14,7c0,28.82.08,57.63-.09,86.45,0,4.35,1.07,6.91,5.55,7.8,2.79.55,5.54,2.26,4.34,5.39-.67,1.72-3.56,3.55-5.53,3.64a247,247,0,0,1-24.94,0c-2.07-.12-5.15-2.08-5.8-3.9-1.15-3.2,1.93-4.5,4.64-5.14,4.16-1,5.39-3.53,5.35-7.65C950.53,1332.57,950.64,1317.08,950.64,1301.59Z"/><path class="cls-1" d="M1474.59,1238.93c4.49,0,9-.3,13.46.16,1.73.18,4.63,2.12,4.61,3.2,0,1.76-1.74,4.57-3.29,5-5.48,1.57-6.5,5.06-6.48,10.15q.24,45.19,0,90.4c0,4.38,1.37,6.59,5.46,8.07,1.91.69,3.19,3.15,4.76,4.81-2,1.38-3.92,3.86-6,4a247.74,247.74,0,0,1-25.42,0c-1.85-.09-3.58-2.5-5.37-3.85,1.48-1.67,2.67-4.26,4.5-4.84,4.45-1.43,5.84-4,5.82-8.47q-.2-46.2,0-92.39c0-3.94-.88-6.26-5-7.1-2.79-.57-5.78-1.82-5.21-5.52s3.82-3.63,6.67-3.68c3.82-.07,7.65,0,11.48,0Z"/><path class="cls-1" d="M523.41,1554.16v-43.7c10.23,0,20.23-.74,30.06.22,9.06.89,11.76,9.12,6.93,18.4,1.4,2,3.17,3.79,4.19,6,4,8.5-1.08,18.24-10.52,18.94C544,1554.74,533.86,1554.16,523.41,1554.16Zm7-6.26c7.5,0,14.62.21,21.71-.08,4.05-.17,6.31-2.86,6.35-7,0-3.75-1.71-6.8-5.63-7-7.38-.35-14.79-.1-22.43-.1Zm0-21.08c7.24,0,13.87.32,20.44-.22,1.7-.13,4.35-2.87,4.44-4.53s-2.44-4.73-4-4.86c-6.85-.53-13.76-.23-20.88-.23Z"/><path class="cls-1" d="M799.74,1510.09c9,0,17.5-.2,26,.06,7.09.22,11.45,3.54,12.86,9,1.66,6.45-.56,11.39-6.93,15.47a19.11,19.11,0,0,0-1.82,1.53l9.94,17.56c-4.77,1.41-8.16,1.15-10-3.67a31.63,31.63,0,0,0-2.49-4.31c-6.41-11.14-6.74-11.3-20.79-9.2V1554h-6.73Zm7,18.75c6.86,0,13.45.38,20-.24,1.82-.18,4.71-3.36,4.66-5.09,0-2.16-2.47-5.91-4.16-6.09-6.76-.7-13.63-.29-20.45-.29Z"/><path class="cls-1" d="M1315.85,1516.66l-3.53,5.33c-7.55-3.27-12.71-6-21.19-5a12.33,12.33,0,0,0-4,.93,4.35,4.35,0,0,0-2.52,3,4,4,0,0,0,1.33,3.46c3.07,2.84,9.32,2.26,13.19,2.85,3.28.5,6.68.72,9.76,1.81,4.84,1.7,8.15,5.13,8.7,10.55s-1.72,9.73-6.35,12.62c-6,3.73-12.71,4.33-19.28,2.78-5.83-1.38-11.36-4-17.81-6.42,1.92-3,3-4.78,4-6.24,5.61,2.19,10.65,4.94,16,6,3.8.76,8.31-.09,12-1.52,2-.77,4-4.34,3.9-6.56-.07-1.82-2.94-4.28-5.08-5.1-3-1.15-6.52-1-9.8-1.48a75.75,75.75,0,0,1-9.32-1.52c-5.68-1.57-8.81-5.28-9-10-.2-5,3.28-9.7,8.74-11.48C1296.54,1507.13,1306.19,1510.18,1315.85,1516.66Z"/><path class="cls-1" d="M1075,1554.15h-6.65V1534h-23v20.07h-7.17v-43.68h7v16.17h23v-16.1H1075Z"/><path class="cls-1" d="M768,1510.06v6.42H740v11h16.37v6.43H740.11v13.84h29.47v6.38h-37v-9.55c0-10.16-.11-20.32.13-30.48,0-1.37,1.78-3.85,2.78-3.87C746.12,1510,756.76,1510.06,768,1510.06Z"/><path class="cls-1" d="M635.59,1554.12H598.81v-43.66h34.65v6.1H605.81v10.88H622.4v6.61H605.78v13.78h29.48C635.37,1550,635.46,1551.75,635.59,1554.12Z"/><path class="cls-1" d="M658.29,1510.72c5.47-1.75,8.06-.13,10,4.39,3.83,8.83,8.31,17.38,12.54,26,.13.25.51.38,1.25.92,4.41-9.15,9-18.08,13-27.29,2.05-4.7,5-5.55,9.94-4.11-4.28,8.81-8.47,17.43-12.64,26.06-2.46,5.08-4.84,10.2-7.36,15.25-1.56,3.14-5,3.57-6.45.62C671.78,1538.79,665.15,1524.89,658.29,1510.72Z"/><path class="cls-1" d="M943.82,1554.18h-6.71c0-5.58.32-11.17-.13-16.71a15,15,0,0,0-3-7.87c-5.18-6.38-10.85-12.36-16.9-19.14,13.54-2.42,15.22,10.9,24,15.22,3.22-3.49,7.19-7.22,10.43-11.49,3.09-4.08,6.71-4.94,12.15-3.5-1.75,2.07-3,4.11-4.8,5.62-10.84,9.38-17.83,20.27-14.71,35.42A9.29,9.29,0,0,1,943.82,1554.18Z"/><path class="cls-1" d="M905.39,1547.83v6.55H882.56c-12,0-12,0-12-12v-31.64c6.81-1.24,7-1.07,7.06,4.75,0,10.6,0,21.2,0,32.34Z"/><path class="cls-1" d="M1152.72,1510.25h6.52v37.43h27.13c1.79,6.13,1.45,6.67-3.95,6.69-9.79,0-19.58,0-29.7,0Z"/><path class="cls-1" d="M1223,1548.08h27.2v5.9h-34v-43.13c6-1.52,6.42-1.22,6.44,4.62,0,9,0,18,0,26.94C1222.67,1544.18,1222.88,1545.94,1223,1548.08Z"/><path class="cls-1" d="M1117.22,1554.5h-6.47v-44.15h6.47Z"/><path class="cls-1" d="M715.23,614.18c-5.42.92-10.92,1.91-16.43,2.77-28.57,4.49-56.34,11.95-82.45,24.44-21,10.07-39.3,23.63-50.19,45.32-6,11.92-6.39,24.4-6,37.31.56,17,7,31.29,18.24,43.55,11.95,13,27.5,19.53,44.49,22.92,23.6,4.72,47,4.53,69.83-3.88,25-9.21,43.47-26.48,58.77-47.71,13.45-18.66,22.52-39.57,30.94-60.73,9.95-25,19.21-50.33,28.73-75.53a35.36,35.36,0,0,0,1.94-7.77c-8.24,15.3-22,17-36.73,14.75-6.8-1-13.54-3.45-19.92-6.15-23.9-10.12-44.38-25.4-63-43.27-32.73-31.44-59.44-67.28-78.3-108.71C601,420.19,591.8,387.65,591,352.93c-.73-32.24,3.43-63.43,18.34-92.38C628.14,224,658.67,205.91,699.49,205c41.55-.91,77.59,14.63,110.86,38,21.16,14.83,38.83,33.28,54.58,53.65a10.2,10.2,0,0,0,3.7,3.19,42.88,42.88,0,0,0-.59-4.41c-5.45-22.63-11-45.23-16.3-67.9-.65-2.81-1.75-3.8-4.33-4.4-8.12-1.88-12.13-8.56-10.13-16.51,1.67-6.66,6.21-10.6,11.71-10.16s11.08,6,11,12.26c-.06,3.46-2,6.86-2.78,10.34-.43,1.83-1.15,4.21-.4,5.63,11.47,21.59,23.17,43.06,34.82,64.55a23.78,23.78,0,0,0,1.82,2.25c-1-11.76-1.91-22.43-2.74-33.11q-2.25-29-4.38-58.07c-1.06-14.57-2-29.15-3-43.73-.22-3.25-1.65-5.24-4.88-6.71-5.67-2.6-8-10.31-5.92-17.42,1.72-5.92,5.32-8.31,12-8,4.33.18,9.1,4.38,9.76,9.23.81,6,.37,11.78-5.45,15.49-2.52,1.6-3.33,3.48-2.63,6.55,5.32,23.51,10.44,47.06,15.71,70.59a153.79,153.79,0,0,0,6.5,22.33c1.77-7.11,3.64-14.18,5.27-21.32,5.32-23.34,10.5-46.72,15.88-70.06.86-3.73.32-6.06-3.2-8.27-5.55-3.49-6.53-14.19-2.41-20.41,2.95-4.45,9.57-5.57,14.72-2.49,7.57,4.53,7.71,18.55-.41,22.87-4.73,2.52-5.5,5.89-5.82,10.22q-4.19,56.63-8.39,113.25c-.44,5.92-1.08,11.82-.65,18.13,2.12-3.82,4.28-7.62,6.36-11.46q14.06-25.86,28.1-51.73c1.83-3.35,2.79-6.15,0-9.91-3.61-4.83-2.76-10.44.22-15.51A10.57,10.57,0,0,1,970,196.69a11.69,11.69,0,0,1,8.5,10c1,9.2-1.93,13.44-10.35,16.64-1.81.69-3.4,3.52-3.95,5.66-4.39,17.06-8.54,34.2-12.7,51.32a117.26,117.26,0,0,0-3.44,19.9c3-3.84,6-7.73,9.08-11.52,32.1-39.51,71.92-67.38,121.69-79.82,22.91-5.73,46-6.27,68.85.8,32.5,10.07,52.71,32.89,64.81,63.77,12.44,31.72,14.36,64.76,11.06,98.2-3.52,35.62-15.94,68.53-32.82,99.81a347.14,347.14,0,0,1-62.11,82.73c-21.81,21.49-45.6,40.28-74.55,51.67-10.09,4-20.42,4.68-30.89,3.78-9.14-.78-15.17-6.92-20.89-13.76,3.83,10.75,7.32,21.64,11.54,32.24,10.85,27.17,21.12,54.62,33.3,81.18,13.39,29.18,32.35,54.31,61.14,70.48,15.7,8.82,32.61,13,50.61,13.34,20.38.4,40.06-2.19,58.72-11.11,30.82-14.74,41.61-47.26,38.28-73.77-3.52-28.14-20.89-46.45-43.93-60.16-24.43-14.54-51.46-22.32-79.06-28.18-8.94-1.9-18-3.13-27-4.73-1.73-.3-3.4-.91-5.09-1.38-.13-.55-.27-1.11-.4-1.67,1.6-.75,3.18-2.1,4.81-2.16a257.3,257.3,0,0,1,109.57,19.8c18.18,7.55,34.6,17.56,48.3,32,15.09,15.9,23.4,34.42,23.91,56.41.43,18.85-1.36,37.19-11,54-13.46,23.38-33.77,38.56-58.21,48.73-19.1,8-39.11,11.38-59.74,12.46-26.8,1.4-53.16-.27-79-7.77-32.71-9.5-57.62-29.68-77.37-56.82-21.2-29.12-34.86-61.89-46-95.83-6.08-18.45-12.13-36.93-17.83-55.5-2.44-7.92-7.11-12.86-15.11-15a55.14,55.14,0,0,0-29-.19c-7.59,2.09-12.74,6.54-15.13,14.38-5.39,17.64-10.83,35.29-16.8,52.74-10.93,32-23.22,63.43-42.08,91.82-15.93,24-35.59,43.89-62,56.42-19.51,9.27-40.24,13.55-61.63,15.25-22.47,1.79-44.94,1.52-67-2.83-30.24-6-57.17-18.69-78.07-42.18-30.68-34.47-34.53-103.65,17-139.83,21.77-15.3,46-24.48,71.49-30.82,22.53-5.61,45.51-7.88,68.69-8.26C711.25,608.94,715.06,608.27,715.23,614.18Zm103.46-35.29c-.25.64,0,.08.19-.5,21.25-70.22,31.29-141.9,27.53-215.3-1-20.43-6.31-39.9-18.69-56.49A355.21,355.21,0,0,0,797,270c-18.79-19.09-41.16-32.71-68-37.49-27.6-4.91-52.36.76-72.15,21.78-13.73,14.59-21.13,32.51-25.28,51.81-6.37,29.64-5.81,59.4-.3,89.06,12.81,68.93,44.22,127.71,96.44,174.92,10.4,9.41,21.65,17.64,35.3,22,11.42,3.64,19.9,1.49,25.2-6.74,3.75-5.81,2.84-12.09,1.7-18.34s-2.57-12.35-3.58-18.57c-.6-3.69,1.28-6.28,4.58-8.07,9.92-5.4,18.77-2.28,22.16,9.29C816,559.4,817,569.68,818.69,578.89ZM997.27,580l1.29-.35c0-1.65,0-3.31,0-5-.12-9.23,1-18.22,4.81-26.75,4.54-10.27,12.36-12.91,21.78-7.37,3.45,2,5.32,4.71,4.44,9-1.64,8-3.67,15.92-4.44,24-1,10,5.43,22.55,20.35,19.77a71.43,71.43,0,0,0,20.93-7.42c17.73-9.67,32.23-23.43,45.15-38.79,50-59.33,78.24-126.82,76.78-205.39-.37-19.92-3.49-39.36-11-57.89-10-24.67-26.29-43.1-52.94-50.19-20-5.34-39.65-2.73-58.62,5-26.93,10.93-47.86,29.59-65.9,51.9-13.9,17.18-24.92,35.77-28.9,57.83a78.92,78.92,0,0,0-1.35,14.86c.23,28.12-.66,56.33,1.4,84.32,2.5,34.12,9.39,67.73,17.56,101C991.16,559,994.35,569.45,997.27,580ZM909.35,358l-2.75,0c-1.41,5.52-3.55,11-4.1,16.57C899,410,896,445.5,892.64,481c-1.81,19.15-4.16,38.25-5.93,57.4a274.07,274.07,0,0,0-1.23,28.21c.09,7,4.14,9.66,11.16,9.43,7.76-.27,15.55-.15,23.31.14,5.91.23,9.93-2.15,10.35-8.21a138.26,138.26,0,0,0-.31-22.29c-3-31.19-6.29-62.34-9.33-93.52-2.56-26.22-4.79-52.48-7.48-78.69C912.64,368.2,910.66,363.11,909.35,358Z"/></g></g></svg>