<svg xmlns="http://www.w3.org/2000/svg" viewBox="0 0 335.95 184.13"><defs><style>.cls-1{fill:#fff;}.cls-2{fill:#fefefb;}</style></defs><g id="Layer_2" data-name="Layer 2"><g id="Layer_1-2" data-name="Layer 1"><path class="cls-1" d="M336,145.22c-.43,0-.87-.08-1.3-.09H322.53c-.46,0-1.12.24-1.09-.65,0-.62-.15-1.32.84-1.36a3.61,3.61,0,0,0,1.27-.36c.87-.39,1.23-1.11.7-1.93-1.85-2.89-3.78-5.73-5.67-8.6-.29-.44-.48-.4-.78,0-2.16,2.92-4.35,5.81-6.49,8.76-.64.89-.29,1.66.91,2.09.56.2.84.4.84,1.06s-.21,1-1,1c-3-.05-6,0-9,0-.49,0-1,.09-.92-.68.08-.56-.31-1.28.76-1.42a4.94,4.94,0,0,0,3.28-2c3.08-4.12,6.14-8.27,9.23-12.39a.86.86,0,0,0,0-1.23q-3.74-5.49-7.43-11a7,7,0,0,0-4.95-3.43c-.95-.13-.53-.81-.61-1.28s.32-.63.75-.63h13.43c.48,0,.81.12.71.67s.36,1.13-.57,1.3c-3.11.56-3.14,1.48-1.41,3.87,1.46,2,2.77,4.09,4.22,6.26,2-2.71,4-5.29,5.94-7.94.7-1,.37-1.73-.83-2.08-.73-.21-1-.49-1-1.29s.27-.79.86-.79c3.08,0,6.15,0,9.23,0,.51,0,1,0,.93.72,0,.53.2,1.13-.69,1.24a5.19,5.19,0,0,0-3.49,2.32c-2.65,3.5-5.28,7-8,10.5a1.15,1.15,0,0,0,0,1.57q4.13,6.1,8.19,12.25a8.38,8.38,0,0,0,5.24,3.7Z"/><path class="cls-1" d="M0,110.91c4,.22,8.07,0,12.1.09,1.35,0,1.43.12,1.31,1.41-.05.54-.37.59-.76.73-1.72.64-2,1.31-1.39,3q3.6,9.64,7.17,19.3c.11.29.24.58.43,1,1.68-4.57,3.32-9,4.95-13.39.84-2.28,1.69-4.57,2.52-6.86.66-1.81.3-2.65-1.6-3-1.12-.23-.92-.88-.91-1.57,0-.87.7-.6,1.15-.6,3.16,0,6.32,0,9.48,0,.58,0,1.11-.07,1.06.83,0,.69,0,1.21-.94,1.24-2.07.06-3.18,1.32-3.89,3.17-3.63,9.59-7.32,19.16-10.95,28.74-.27.7-.53,1.08-1.33,1s-1.62.2-2.11-1c-4-9.69-8.14-19.35-12.22-29-.76-1.82-2-3-4.07-2.92Z"/><path class="cls-1" d="M172.91,111c2.74.1,5.87-.25,9,.17,4,.54,7.46,2.22,9.59,5.81,2.9,4.88.59,11.64-4.75,14-.92.41-.86.69-.41,1.4,1.67,2.67,3.3,5.37,4.92,8.08a5,5,0,0,0,3.64,2.66c1.08.13.84.9.85,1.49,0,.81-.69.47-1.08.48-2.12,0-4.24,0-6.35,0a1.36,1.36,0,0,1-1.39-.83c-2.08-3.68-4.23-7.33-6.32-11a1.61,1.61,0,0,0-1.68-1c-1.31.09-2.63,0-3.95,0-.56,0-.75.15-.74.74,0,2.44,0,4.87,0,7.31,0,1.4,1,2.27,2.9,2.69.43.1,1,0,1.26.48.47.93.08,1.57-1,1.57H165.06c-.51,0-1.09.13-1-.72.05-.61-.16-1.19.86-1.33,2.73-.38,3.4-1.23,3.4-3.93,0-7.2-.05-14.39,0-21.59,0-2.59-.13-3.74-3.7-4.53-.49-.11-1-.09-1-.88s.15-1.2,1.11-1.18C167.33,111,169.93,111,172.91,111Zm1.34,11c0,2.12,0,4.24,0,6.35,0,.5,0,.83.69.81,1.87,0,3.76,0,5.63-.05a5.17,5.17,0,0,0,5.1-4.11,12.86,12.86,0,0,0,.18-5.59c-.49-2.74-2-4.15-4.76-4.66a23.06,23.06,0,0,0-6.21,0c-.64,0-.63.45-.63.92Q174.27,118.84,174.25,122Z"/><path class="cls-1" d="M298.37,129.23a17.79,17.79,0,0,1-7,13.74c-6.18,4.71-15.49,3.66-20.76-2.23-5.94-6.65-6.18-17.88-.53-24.77a15.62,15.62,0,0,1,26.31,3.14A21.29,21.29,0,0,1,298.37,129.23Zm-25.11-1.5c-.05,3.75.36,7.42,2.36,10.71a7.71,7.71,0,0,0,13.77-.94,18.55,18.55,0,0,0,1.57-6.72A29.57,29.57,0,0,0,289.71,119c-1.16-3.26-3.54-5.07-6.62-5.2-4.24-.17-6.67,1.16-8.26,4.6C273.46,121.33,273.27,124.52,273.26,127.73Z"/><path class="cls-1" d="M124.71,126.82A16.87,16.87,0,0,1,132.14,113a15.4,15.4,0,0,1,21.31,3.68c5.77,7.87,4.45,19.93-2.84,26a15.68,15.68,0,0,1-22.52-3.3C125.79,135.88,124.75,132.1,124.71,126.82Zm25,.59c-.18-3-.29-5.91-1.43-8.71a7.21,7.21,0,0,0-6.86-4.89c-3.51-.13-6.23,1.16-7.79,4.46a19.26,19.26,0,0,0-1.55,7.09c-.27,4.1-.18,8.16,1.6,12a8,8,0,0,0,4.78,4.59c4.41,1.45,8.41-.71,10.08-5.42A25.74,25.74,0,0,0,149.7,127.41Z"/><path class="cls-1" d="M233.12,120.47v1.78q0,8.56,0,17.15c0,2.29.87,3.44,3.13,3.75,1,.15.81.71.85,1.32.06.8-.48.65-.94.65h-9.6c-.43,0-1,.23-1-.61,0-.59-.2-1.18.79-1.4,2.74-.59,3.12-1.16,3.12-3.92V117.84a4.46,4.46,0,0,0-3.72-4.79c-.93-.2-1.27-.55-1.12-1.48s.94-.53,1.41-.54c2.11-.06,4.24,0,6.35,0a2.17,2.17,0,0,1,1.94.88q8.59,10.3,17.26,20.57c.12.15.27.29.42.45.41-.25.21-.65.21-1,0-5.15,0-10.31,0-15.47,0-2-.78-3-2.77-3.41-1-.17-1.23-.55-1.12-1.46.13-1.07.93-.55,1.38-.56,3,0,6.08,0,9.12,0,.52,0,1.16-.23,1.16.73,0,.71,0,1.25-.93,1.28a4.19,4.19,0,0,0-1.05.23,2.43,2.43,0,0,0-2,2.8v24.36c0,1.08.05,2.16,0,3.23,0,.5.38,1.21-.38,1.45a1.48,1.48,0,0,1-1.63-.68c-1.71-2.06-3.48-4.07-5.23-6.1L234,121.12A1.38,1.38,0,0,0,233.12,120.47Z"/><path class="cls-1" d="M86.72,115.89c0,1.28,0,2.56,0,3.83,0,.35.24.93-.44.86S85,121,84.72,120A17.77,17.77,0,0,0,84,117.6a5.65,5.65,0,0,0-5.43-3.82c-5.89-.26-9.08,2.53-10.07,9a31,31,0,0,0,.34,11.8c1.77,7.66,8.38,9.11,14,6.48a13,13,0,0,0,5-3.86c.4-.53.75-.68,1.19-.15s1.63.49.89,1.64a14.78,14.78,0,0,1-10.69,7c-8.48,1.21-15.61-3.81-17.83-12.59a19.92,19.92,0,0,1,4.46-18.57c3.24-3.82,7.6-4.57,12.32-3.94a17.49,17.49,0,0,1,5.61,1.63c.63.32,1,.26,1-.49S85.45,111,86,111s.59.49.59.92v4Z"/><path class="cls-1" d="M106.73,111c4.23,0,8.47,0,12.71,0,.86,0,1.08.25,1.07,1.08q-.08,3.6,0,7.2c0,.68-.2,1-.88.86s-1.34.4-1.34-.77a6.82,6.82,0,0,0-.39-2c-.6-2-1.56-2.62-3.61-2.63-1.36,0-2.72,0-4.07,0-.55,0-.76.15-.76.74,0,8.16,0,16.31,0,24.47,0,1.84,1,2.7,3.27,3.17.54.11,1.19,0,1.16,1s-.24,1.09-1.09,1.08c-4.07,0-8.15,0-12.23,0-.41,0-1,.25-1-.58s-.1-1.34.91-1.43a6.56,6.56,0,0,0,1.72-.47,2.53,2.53,0,0,0,1.72-2.49c0-8.2,0-16.39,0-24.59,0-.74-.3-.85-.93-.83-1.11,0-2.24,0-3.35,0-3,0-4.39,1.18-4.53,4.18-.06,1.16-.47,1.27-1.44,1.16-.68-.07-.74-.35-.74-.9,0-2.36.06-4.72,0-7.07,0-.93.27-1.14,1.14-1.13C98.25,111,102.49,111,106.73,111Z"/><path class="cls-1" d="M199.68,11.05c.9.45,1.13.89.83,1.86a83.55,83.55,0,0,0-3.93,28.22,85.36,85.36,0,0,0,3.68,21.07c.55,1.85.56,1.85-1.25,2.53a78.21,78.21,0,0,0-29.9,19.8c-.77.82-1.29.92-2.12,0a77.61,77.61,0,0,0-30.58-20c-1.14-.41-1-1-.77-1.93a82.38,82.38,0,0,0,3.8-27.28,86.49,86.49,0,0,0-3.75-21.89c-.52-1.75-.54-1.77,1-2.54,5.74-2.79,11.22-6.1,17.06-8.69,2.45-1.08,4.91-2.16,7.48-2.2a8.24,8.24,0,0,1,6.12,2.43c.34.36.59.71,1.13.16,2.83-2.92,6.24-3.1,9.86-1.9m-17,.35a15.53,15.53,0,0,0-5.25,1.34c-6.34,2.57-12.16,6.19-18.32,9.14-1.08.51-1.31,1-1,2.13a83.49,83.49,0,0,1,3.73,24.05,82.19,82.19,0,0,1-3.68,24.42c-.31,1-.1,1.43.92,1.8a78.69,78.69,0,0,1,29.29,19.21c.58.6,1,1,1.77.16a78.06,78.06,0,0,1,29-19.25c1.67-.64,1.64-.65,1.12-2.44a84.4,84.4,0,0,1-3.36-18.7,83.07,83.07,0,0,1,3.7-29.67c.23-.72.16-1.09-.6-1.47-3.18-1.59-6.31-3.29-9.46-4.92-4-2-7.91-4.2-12.23-5.45a7.32,7.32,0,0,0-8.46,2.84c-.54.73-.73.54-1.14-.07A7.15,7.15,0,0,0,161.34,1.05Z"/><path class="cls-1" d="M237.15,177.1l3.28-7.25c1.06-2.37,2.12-4.73,3.16-7.1a1,1,0,0,1,1-.72c1.68,0,3.36,0,5,0,.38,0,.8-.12.84.53s-.22.79-.72.86a1.92,1.92,0,0,0-1.75,2.19c0,4.87,0,9.75,0,14.62a1.69,1.69,0,0,0,1.8,1.92c.52,0,.68.23.68.73s-.36.51-.71.51h-7.2c-.34,0-.74.11-.74-.49,0-.44,0-.72.61-.76a1.71,1.71,0,0,0,1.76-1.87c0-4.14,0-8.28-.17-12.51-.18.36-.38.71-.55,1.08-2.07,4.45-4.11,8.91-6.2,13.35-.21.45-.17,1.23-1,1.18s-.72-.77-.93-1.24c-2.11-4.52-4.18-9-6.27-13.58a.82.82,0,0,0-.47-.47v1c0,3.47,0,6.95,0,10.43,0,1.78.46,2.3,2.12,2.63.48.1.56.27.57.69s-.23.57-.66.56c-2.12,0-4.24,0-6.36,0-.32,0-.67,0-.65-.45s-.05-.71.48-.79c1.49-.23,1.91-1.27,1.91-2.6q0-7.14,0-14.27a1.56,1.56,0,0,0-1.53-1.78c-.68-.05-.74-.39-.73-.93,0-.75.56-.52.94-.52,1.48,0,3,0,4.44,0a1.42,1.42,0,0,1,1.6,1c1.81,4.21,3.69,8.4,5.56,12.59C236.6,176.05,236.82,176.45,237.15,177.1Z"/><path class="cls-1" d="M93.69,171.4c-.39,1.07-.72,1.94-1,2.83-1,2.9-2,5.81-3,8.71-.15.42-.11,1.06-.9,1.08s-.81-.63-1-1.11c-2.33-5.8-4.36-11.73-6.9-17.46-.45-1-.95-2-2.21-2.12-.55-.06-.44-.44-.46-.79s.22-.51.6-.51c2.4,0,4.79,0,7.19,0,.38,0,.6.08.6.53s0,.64-.5.78c-1.72.5-1.76.63-1.11,2.36l4.16,11.1a23.47,23.47,0,0,0,1.31-3.56c.35-.94.54-1.94,1-2.83a5.69,5.69,0,0,0-.15-5.46c-.41-.8-.82-1.48-1.77-1.56-.57-.05-.73-.32-.7-.85,0-.68.51-.5.86-.5h7c.41,0,.79,0,.79.59s-.19.73-.75.78c-1.79.15-1.9.37-1.29,2.07l3.69,10.37c.08.21.06.48.46.63.38-1.15.77-2.29,1.14-3.44.8-2.55,1.62-5.09,2.4-7.65.31-1,.11-1.84-1.17-2-.51-.06-.76-.28-.72-.86s.47-.51.85-.51h5.4c.32,0,.77-.18.82.4s.06.89-.55,1c-1.22.24-1.72,1.14-2.09,2.22-2,5.81-4,11.61-6,17.42-.15.43-.17.93-.86.94s-.7-.53-.84-.94c-1.28-3.57-2.54-7.14-3.81-10.72C94,172.11,93.88,171.86,93.69,171.4Z"/><path class="cls-1" d="M209.54,111h6c.43,0,1-.12.91.59s.29,1.32-.74,1.45a6.22,6.22,0,0,0-1.71.51,2.15,2.15,0,0,0-1.43,2.13c0,8.23,0,16.47,0,24.7,0,1.51.57,2.07,2.86,2.62.95.23,1.08.7,1,1.5,0,.46-.19.62-.64.62H203.34c-.41,0-.75-.06-.7-.57s-.32-1.08.49-1.4c3.46-1.38,3.45-1.4,3.45-5.13V116.8c0-2.41-.57-3.14-2.94-3.76-.41-.1-1,0-1-.73s0-1.4,1.17-1.34c1.92.11,3.84,0,5.76,0Z"/><path class="cls-1" d="M47.76,111c2,0,4,0,6,0,.39,0,.91-.08.84.54S55,112.81,54,113c-.35.07-.7.16-1,.26-1.82.54-2.33,1.21-2.34,3.08v22.78c0,2.77.26,3.14,3,3.94.6.17,1.1.28,1,1.13,0,.7-.21,1-1,1-4,0-8,0-12,0-.41,0-1,.14-.89-.59.05-.54-.29-1.26.63-1.43a7.57,7.57,0,0,0,1-.27c1.74-.58,2.21-1.22,2.21-3.06V116.64c0-2.28-.59-3.08-2.83-3.55-.82-.17-1.15-.45-1.09-1.32.05-.66.31-.79.88-.78C43.68,111,45.72,111,47.76,111Z"/><path class="cls-1" d="M205.92,162c2.12.13,4.58-.29,7,.46,4.22,1.34,6.12,5.05,4.53,8.9a5.47,5.47,0,0,1-3,3.1c-.69.28-.7.53-.34,1.1,1,1.59,2,3.2,2.93,4.81a3.18,3.18,0,0,0,2.31,1.74c.63.08.52.49.54.86,0,.54-.4.38-.68.38-1.32,0-2.64,0-4,0-.55,0-.76-.27-1-.67-1.22-2.15-2.49-4.28-3.69-6.44a1.43,1.43,0,0,0-1.47-.88c-2.64,0-2.64,0-2.64,2.57v1.08c0,2.29,0,2.32,2.21,3.08.52.18.4.5.44.83s-.27.41-.55.41h-7.92c-.4,0-.58-.12-.57-.54s0-.61.52-.74c2.05-.56,2.18-.78,2.18-2.9,0-4.36,0-8.72,0-13.07,0-1.82-.3-2.23-2-2.73-.48-.13-1-.15-.92-.94s.76-.42,1.14-.43C202.5,162,204.06,162,205.92,162Zm.58,6.85c0,1.24,0,2.48,0,3.71,0,.49,0,.86.67.85a21.25,21.25,0,0,0,3.82-.16,3,3,0,0,0,2.48-2.14,7.68,7.68,0,0,0,.13-4.25,3,3,0,0,0-2.21-2.27,12.24,12.24,0,0,0-4.39-.22c-.56,0-.49.43-.49.77C206.5,166.42,206.51,167.66,206.5,168.89Z"/><path class="cls-1" d="M152.92,184.12a19.1,19.1,0,0,1-4.25-1.15c-.7-.25-1.42-.58-1.56.61-.05.45-.4.4-.72.43s-.52-.29-.57-.61c-.29-2.13-.57-4.27-.84-6.4,0-.27-.1-.59.35-.59s.81-.1,1,.41.52,1.25.82,1.85a5.82,5.82,0,0,0,5.54,3.31,3.08,3.08,0,0,0,3.18-2.06,3.37,3.37,0,0,0-1.12-3.78,46.84,46.84,0,0,0-4.86-3.07,18.37,18.37,0,0,1-2.08-1.39,5.32,5.32,0,0,1-1.74-6,5.59,5.59,0,0,1,4.86-3.86,10.54,10.54,0,0,1,5,.78c.7.28,1.41.59,1.67-.53.11-.46.51-.27.8-.29s.41.27.43.56c.2,2,.41,4,.61,6.08,0,.26.16.62-.29.63s-.89.22-1.09-.42a14.35,14.35,0,0,0-.71-1.89,5.07,5.07,0,0,0-4.89-3,2.52,2.52,0,0,0-2.69,1.59,2.8,2.8,0,0,0,1,3.32c1.09.81,2.27,1.48,3.41,2.23s2.41,1.56,3.57,2.4a5.39,5.39,0,0,1,2.24,5.59,5.58,5.58,0,0,1-4.06,4.59A8,8,0,0,1,152.92,184.12Z"/><path class="cls-1" d="M67.88,161.73a10.59,10.59,0,0,1,4,.86c.68.25,1.32.5,1.57-.51.12-.47.49-.31.78-.34.5-.05.46.35.49.64.21,2,.41,4,.61,6,0,.32.08.7-.41.68s-.81.22-1-.39a12.61,12.61,0,0,0-.58-1.7,5.29,5.29,0,0,0-5.47-3.24,2.36,2.36,0,0,0-2.23,1.54,2.74,2.74,0,0,0,.46,2.92,8.69,8.69,0,0,0,2,1.51,52,52,0,0,1,5.6,3.68,5.78,5.78,0,0,1-1.35,9.85,8.8,8.8,0,0,1-7.49-.06c-.8-.32-1.76-1-2,.62-.06.41-.44.23-.69.24-.45,0-.48-.32-.53-.64-.21-1.58-.42-3.16-.64-4.74-.06-.48-.16-1-.19-1.42,0-.28-.22-.71.28-.76s.82-.2,1,.32.49,1.18.76,1.76A5.87,5.87,0,0,0,68.55,182a3,3,0,0,0,3.07-2,3.26,3.26,0,0,0-.94-3.69,41.57,41.57,0,0,0-5.24-3.35c-.51-.32-1-.62-1.5-1a5.38,5.38,0,0,1-2.09-6.25A5.55,5.55,0,0,1,67,161.77Z"/><path class="cls-1" d="M131.75,161.76a10.52,10.52,0,0,1,4.31.83c.67.26,1.32.49,1.57-.53.13-.5.59-.32.91-.31s.34.37.37.63c.17,1.79.37,3.57.49,5.37,0,.4.51,1.06-.32,1.27s-1-.38-1.14-1a5.66,5.66,0,0,0-2.88-3.78,5.59,5.59,0,0,0-2.66-.58,2.52,2.52,0,0,0-2.61,1.69,2.6,2.6,0,0,0,1,3.19c1.15.85,2.39,1.58,3.6,2.36a34.3,34.3,0,0,1,3.56,2.42,5.42,5.42,0,0,1,2.06,5.52c-.42,2.36-1.91,3.69-4.05,4.6-2.43,1-4.66.49-6.94-.35-.76-.28-1.7-1-1.88.62,0,.37-.43.27-.69.28-.43,0-.56-.26-.61-.59-.27-2.14-.52-4.28-.79-6.42,0-.29-.08-.59.35-.58s.8-.13,1,.41a17.25,17.25,0,0,0,.83,1.86A6,6,0,0,0,133.3,182a2.91,2.91,0,0,0,2.56-2,3.16,3.16,0,0,0-.73-3.43,16.06,16.06,0,0,0-3.35-2.3c-1.22-.75-2.5-1.42-3.65-2.27a5.36,5.36,0,0,1-2.08-6.25,5.69,5.69,0,0,1,5.34-3.9Z"/><path class="cls-1" d="M184.94,177.37c-.56,0-1.12,0-1.68,0-.79,0-1.85-.38-2.31.17a6.93,6.93,0,0,0-1.23,3.18c-.19,1,.47,1.29,1.25,1.37.54.06.75.22.72.8s-.47.49-.83.5c-1.88,0-3.76,0-5.64,0-.38,0-.91.23-1-.51-.05-.59.23-.76.73-.84a2.65,2.65,0,0,0,1.89-1.5,87.73,87.73,0,0,0,3.58-8.35c1.36-3.23,2.66-6.49,4-9.74.19-.47.29-1,1-.93s.75.49.93.9q3.63,8.4,7.26,16.8c.55,1.26,1,2.69,2.67,2.9.53.06.41.5.42.83,0,.52-.37.43-.68.43l-6.83,0c-.37,0-.71,0-.72-.53s.14-.67.65-.78c1.37-.31,1.47-.55,1-1.89-1-2.84-1-2.84-4-2.84Zm3.28-2.09c-1.08-2.65-2.09-5.11-3.1-7.57a4.21,4.21,0,0,0-.28-.51L182,174.64c-.18.45-.06.66.46.65C184.3,175.27,186.17,175.28,188.22,175.28Z"/><path class="cls-1" d="M265.29,171.4c1.41-2.14,2.76-4.16,4.07-6.21.75-1.18.58-1.55-.78-1.71-.63-.07-.79-.28-.78-.88,0-.75.53-.56.92-.56h5.76c.41,0,.83-.07.8.56,0,.43,0,.82-.64.88a3.11,3.11,0,0,0-2.22,1.5c-1.93,2.79-3.82,5.61-5.71,8.43a1.49,1.49,0,0,0-.26.79c0,2,0,4,0,6,0,1.27.75,1.72,1.88,1.86.47.06,1.21-.18,1.12.79s-.83.54-1.26.54c-2.48.05-5,0-7.44,0-.39,0-.89.21-.93-.54s.28-.68.76-.76c1.82-.31,2-.56,2.08-2.43,0-1.64,0-3.28,0-4.92a2.07,2.07,0,0,0-.4-1.22q-3-4.28-5.95-8.56a3,3,0,0,0-2.19-1.52c-.7-.07-.55-.55-.55-1,0-.6.45-.44.77-.45,2.56,0,5.12,0,7.68,0,.52,0,.82.05.83.68s-.37.65-.84.69c-1.49.13-1.74.6-.93,1.82C262.46,167.26,263.84,169.26,265.29,171.4Z"/><path class="cls-1" d="M116.07,162h3.59c.34,0,.65,0,.64.46s.09.79-.42.84c-2,.22-2,1.59-2,3.15q.08,6.64,0,13.3a2,2,0,0,0,1.64,2.24c.45.1.9.2.83.89s-.63.47-1,.48c-2.19,0-4.39,0-6.58,0-.36,0-.93.28-1-.44s.28-.83.79-.93c1.27-.27,1.69-1.06,1.68-2.34q-.09-6.94,0-13.9a2,2,0,0,0-1.66-2.37c-.49-.12-.91-.26-.81-.92s.66-.43,1-.45C113.83,162,115,162,116.07,162Z"/><path class="cls-2" d="M161.34,1.05a7.15,7.15,0,0,1,6.09,3.12c.41.61.6.8,1.14.07A7.32,7.32,0,0,1,177,1.4c4.32,1.25,8.26,3.4,12.23,5.45,3.15,1.63,6.28,3.33,9.46,4.92.76.38.83.75.6,1.47a83.07,83.07,0,0,0-3.7,29.67A84.4,84.4,0,0,0,199,61.61c.52,1.79.55,1.8-1.12,2.44a78.06,78.06,0,0,0-29,19.25c-.79.83-1.19.44-1.77-.16a78.69,78.69,0,0,0-29.29-19.21c-1-.37-1.23-.76-.92-1.8a82.19,82.19,0,0,0,3.68-24.42,83.49,83.49,0,0,0-3.73-24c-.36-1.15-.13-1.62,1-2.13,6.16-2.95,12-6.57,18.32-9.14A15.53,15.53,0,0,1,161.34,1.05ZM173,49.11c0,1.64,0,3.28,0,4.92,0,.78-.22,1-1,1-2.68-.05-5.36-.07-8,0-1.05,0-1.25-.35-1.24-1.31.05-3.16,0-6.32,0-9.47,0-.85-.24-1.1-1.08-1.08-2.56,0-5.12,0-7.68,0-1,0-2.19.33-2.8-.13s-.16-1.87-.27-2.84a.24.24,0,0,1,0-.12c.09-.65-.23-.84-.83-.83-1.08,0-2.16.07-3.24,0s-1.3.23-1.34,1.23a82.64,82.64,0,0,1-2.93,19.14c-.18.64,0,.9.62,1.13,9,3.36,16.68,8.87,23.7,15.32.83.76,1.23.82,2.09,0,7-6.45,14.67-12,23.69-15.31,1-.36.75-.9.57-1.57a88.5,88.5,0,0,1-2.71-17.12c-.2-2.84-.14-2.84-3-2.85s-2.75,0-2.69,2.77c0,1-.3,1.2-1.23,1.19-3.12-.06-6.24,0-9.36,0-1,0-1.36.17-1.3,1.22C173.1,46,173,47.55,173,49.11ZM168,10.67C166,6.88,162.84,5.6,159,7c-5.56,2.05-10.7,5-16,7.63-.69.35-.53.77-.39,1.27a77.43,77.43,0,0,1,3,18.64c.11,2.32.12,2.33,2.47,2.29.91,0,2.07.39,2.66-.16S151,35,150.92,34s.26-1.14,1.15-1.13c3.2.06,6.4,0,9.59.05.92,0,1.15-.27,1.13-1.15,0-3.2,0-6.4,0-9.6,0-.79.15-1.13,1-1.11q4.14.07,8.28,0c.82,0,1,.28,1,1,0,3.16,0,6.32,0,9.48,0,1.15.37,1.37,1.41,1.34,2.56-.06,5.12,0,7.68,0,2.74,0,2.74,0,2.79,2.79,0,.12,0,.24,0,.36,0,.58.17.84.83.81,1.24-.06,2.48,0,3.72,0,.79,0,1.05-.27,1.05-1a71.43,71.43,0,0,1,3-20.07c.16-.57.08-.86-.46-1.14-4.35-2.19-8.62-4.53-13.08-6.48a17.89,17.89,0,0,0-4.62-1.62C172,6.09,169.59,7.63,168,10.67Z"/></g></g></svg>