<svg xmlns="http://www.w3.org/2000/svg" viewBox="0 0 228.5 102.09"><defs><style>.cls-1{fill:#fff;}</style></defs><g id="Layer_2" data-name="Layer 2"><g id="Layer_1-2" data-name="Layer 1"><path class="cls-1" d="M189.35,74.74c-6.42,0-12.37-3.83-10.93-14.38l4.93-34.52h15.27l-5.05,35.48c-.58,4.31,1.15,5.75,3.07,5.75,2.64,0,7.18-4.8,7.81-5.68S206.79,60,204,64.5c-3.07,4.94-9.59,10.24-14.65,10.24M148.68,0H133.17L123.8,67.07c-.57,3.84.87,7.67,7.58,7.67s15.87-12.1,16.69-13.28c.6-.88-.12-2-1.86-.36-2.05,1.94-6.81,5.3-6.14-.46Zm26.88,0H160.05l-9.36,67.07c-.58,3.84.86,7.67,7.57,7.67S174.14,62.64,175,61.46c.6-.88-.12-2-1.86-.36-2,1.94-6.81,5.3-6.13-.46ZM26.24,61.39c-.62.88-5.16,5.68-7.81,5.68-1.91,0-3.64-1.44-3.06-5.75l5.05-35.48H5.14L.22,60.36c-1.44,10.55,4.5,14.38,10.93,14.38,5.06,0,11.57-5.3,14.65-10.25,2.78-4.47,1.07-4,.44-3.1M57.55,35.53c14.38,29.82,2.11,34.9-5.08,34.9-8.63,0-7.67-6.71-7.09-11l4.79-33.56H34.73L32.14,45,29.73,62.27c-.63,9.1,4.62,12.47,13.15,12.47C64,74.74,82.86,55,74.71,31.6c-3.93-11.32-22.53-7.19-17.16,3.93m155.51-9.69L210.48,45c-.07.48-.14.95-.22,1.43l-2.21,15.83h0l-1.57,11.49c-1.94,13.82,6.83,29-5.08,18.2l-.65-.59-.89-.83a7.86,7.86,0,0,0-.73-.61c-3.56-3-7.64-5.87-11-5.77A8.3,8.3,0,0,0,180,92.83c.1,12.07,18.71,11.27,29,3.73h0C217.49,91,221,79.11,222.27,70l6.23-44.11ZM97.88,45.26s-.75.05-.84.44c-.13.56.77.76.77.76C130,52.2,130.86,25.47,109,25.09c-.46,0-1.43,0-1.6.71-.12.49.7,1.17.7,1.17,4.11,3.86.11,15.5-10.17,18.29M122,55.66c-.58-.26-.89.7-2.12,2.06a18.22,18.22,0,0,1-13.84,6c-7.19,0-13.9-4.8-12.08-17.74l.28-1.92c1.56-9,4.66-14.48,8.28-16.55.52-.3,2-1,2.24-1.49.54-1.05-.73-.93-1.2-.87C92.45,26.76,80.34,35.61,78.26,50.29c-1.82,13,5.18,24.45,21,24.45,10.84,0,19-8,22.73-17.62.29-.89.39-1.3,0-1.46"/><path class="cls-1" d="M212.26,98.3H216v.78h-1.41V102h-.88V99.08h-1.4Z"/><path class="cls-1" d="M218.83,100.7l.94-2.4H221V102h-.86v-2.8L219.07,102h-.59l-1.07-2.79V102h-.82V98.3h1.3Z"/></g></g></svg>