<svg xmlns="http://www.w3.org/2000/svg" viewBox="0 0 998.82 243.42"><defs><style>.cls-1{fill:#fff;}</style></defs><g id="Layer_2" data-name="Layer 2"><g id="Layer_1-2" data-name="Layer 1"><polygon class="cls-1" points="120.05 0.12 99.28 66.43 98.93 66.43 81.14 0.12 57.75 0.12 39.44 66.43 39.09 66.43 18.84 0.12 0 0.12 27.74 90.51 51.65 90.51 68.92 24.2 69.27 24.2 86.55 90.51 110.8 90.51 138.89 0.12 120.05 0.12"/><polygon class="cls-1" points="350.26 0.12 350.26 72.36 411.91 72.36 411.91 90.51 332.12 90.51 332.12 0.12 350.26 0.12"/><polygon class="cls-1" points="489.37 0.12 489.37 72.36 551.01 72.36 551.01 90.51 471.22 90.51 471.22 0.12 489.37 0.12"/><path class="cls-1" d="M209.31,189.86h36.12c7,0,14.48-.88,14.48-11,0-9.6-8-10.47-14.48-10.47H209.31Zm36.12-39.61c17.62,0,32.63,7.67,32.63,28.61,0,20.24-14,29.14-32.63,29.14H209.31v32.63H191.17V150.25Z"/><polygon class="cls-1" points="412.74 150.25 412.74 168.39 349.91 168.39 349.91 184.79 393.74 184.79 393.74 202.94 349.91 202.94 349.91 222.49 412.74 222.49 412.74 240.63 331.76 240.63 331.76 150.25 412.74 150.25"/><path class="cls-1" d="M553.7,195.44c0-15.7-14.83-29.84-37.34-29.84S479,179.91,479,195.44c0,15.7,14.83,29.84,37.34,29.84s37.34-14.14,37.34-29.84m-92.83,0c0-25.3,19.89-48,55.49-48,35.77,0,55.49,22.51,55.49,48,0,25.3-20.07,48-55.49,48s-55.49-22.68-55.49-48"/><path class="cls-1" d="M648.92,189.79H685c7,0,14.48-.87,14.48-11,0-9.6-8-10.47-14.48-10.47H648.92ZM685,150.18c17.62,0,32.63,7.68,32.63,28.62,0,20.24-14,29.14-32.63,29.14H648.92v32.63H630.77V150.18Z"/><polygon class="cls-1" points="797.8 150.19 797.8 222.42 849.8 222.42 849.8 240.57 779.65 240.57 779.65 150.19 797.8 150.19"/><polygon class="cls-1" points="998.82 150.31 998.82 168.45 935.98 168.45 935.98 184.86 979.81 184.86 979.81 203 935.98 203 935.98 222.55 998.82 222.55 998.82 240.69 917.84 240.69 917.84 150.31 998.82 150.31"/><polygon class="cls-1" points="272.15 0 272.15 90.39 191.16 90.39 191.16 72.24 254 72.24 254 52.7 210.17 52.7 210.17 34.55 254 34.55 254 18.15 191.16 18.15 191.16 0 272.15 0"/></g></g></svg>