<svg xmlns="http://www.w3.org/2000/svg" viewBox="0 0 395.6 63.47"><defs><style>.cls-1{fill:#fff;}</style></defs><g id="Layer_2" data-name="Layer 2"><g id="Layer_1-2" data-name="Layer 1"><path class="cls-1" d="M175.72,1.69h1.34c9.43,0,18.87,0,28.31,0A30.28,30.28,0,0,1,216.2,3.43C222.51,5.84,226,10.52,227,17.09a20.13,20.13,0,0,1-.55,9.84,16.5,16.5,0,0,1-10.1,10.22l-1.12.43s0,.06-.14.19l6.72,11.79,6.83,12c-.41,0-.7.1-1,.1-4.92,0-9.84,0-14.76,0a1.51,1.51,0,0,1-1.55-1c-3.52-6.5-7.1-13-10.6-19.47a1.9,1.9,0,0,0-2-1.17c-2.63.07-5.26,0-8,0v21.5H175.72ZM190.7,29H204c5.18,0,7.95-2.45,8.22-7.6.22-4.36-1.55-7.6-6.38-8.36A12.3,12.3,0,0,0,204,12.9H191.84c-.38,0-.76,0-1.14.06Z"/><path class="cls-1" d="M341.09,51.08l11.33-7.34c1.74,1.3,3.33,2.64,5.07,3.76,5.65,3.62,11.73,4.72,18.2,2.61a10.77,10.77,0,0,0,3.42-1.91c3-2.48,2.45-6.74-1.19-8.08a49.15,49.15,0,0,0-7.68-1.73c-4.35-.85-8.77-1.38-13.05-2.5-4.95-1.3-9.07-4-11.24-8.95-2.8-6.33-1.67-18,8.2-23.41A29.54,29.54,0,0,1,367.6.1c10.8-.33,20.06,3.24,27.61,11a5.13,5.13,0,0,1,.39.49L384.22,19.8c-.55-.58-1.05-1.14-1.59-1.66a20.17,20.17,0,0,0-14.36-5.91,9.8,9.8,0,0,0-6.74,2.42c-2.83,2.47-2.42,6.21,1,7.66a32.61,32.61,0,0,0,7.14,1.86c5.51,1,11.08,1.65,16.25,3.95,4.6,2,8.28,5.07,9.18,10.29,1.54,8.79-1.35,18.25-11.78,22.23-12.81,4.89-29.74,4.3-41.57-8.73C341.57,51.68,341.38,51.43,341.09,51.08Z"/><path class="cls-1" d="M338,11.63,326.79,19.7a53.58,53.58,0,0,0-4.14-3.59,18.85,18.85,0,0,0-14-3.65,8.68,8.68,0,0,0-5.23,2.69,4.3,4.3,0,0,0,.91,6.87c2.38,1.46,5.13,1.66,7.79,2.2,4.57.92,9.17,1.78,13.68,2.94A18.08,18.08,0,0,1,334,31.85a12.81,12.81,0,0,1,3.82,8.55c.66,10.67-4.2,18-14.43,21.08-9.24,2.79-18.53,2.82-27.56-1.07-4.51-1.94-9.95-6.14-12.31-9.3.28-.2.54-.43.83-.62,3.22-2.08,6.46-4.14,9.65-6.26a1.15,1.15,0,0,1,1.72.13c3.45,3.07,7.26,5.5,11.89,6.36,4.23.78,8.37.64,12.27-1.37a5.89,5.89,0,0,0,3.34-3.86c.53-2.22-.21-4.26-2.32-5.08a40.2,40.2,0,0,0-6.8-1.77c-4.81-1-9.68-1.64-14.47-2.72A17,17,0,0,1,291.05,31c-3.77-4-4.46-8.81-3.71-14,1.06-7.32,5.32-12.16,12.08-14.84,12.64-5,29-1.15,38.14,8.9Z"/><path class="cls-1" d="M15,13.4V24.24H42v11.7H15V50H46.46v11.6H0V1.79H44V13.4Z"/><path class="cls-1" d="M249.75,13.4V24.24h27V35.93h-27V50h31.43V61.6H234.71V1.78h44V13.4Z"/><path class="cls-1" d="M83.17,19.92,89.89,8.64c1.22-2.06,2.41-4.14,3.69-6.17a1.7,1.7,0,0,1,1.16-.75c5.52,0,11,0,16.56,0,.14,0,.29,0,.58.06-.28.45-.47.78-.69,1.09Q102.09,15.66,93,28.43a1.39,1.39,0,0,0,0,1.95q10.8,15,21.52,30.15c.22.31.43.63.75,1.12h-1.34c-5.2,0-10.4,0-15.59,0A2.26,2.26,0,0,1,96,60.4C92,53.81,88,47.26,83.92,40.69c-.25-.4-.52-.79-.86-1.32l-4.4,7c-3,4.78-6.1,9.56-9.1,14.37a1.82,1.82,0,0,1-1.82,1c-5.19,0-10.39,0-15.59,0H50.8c.31-.47.5-.8.73-1.1Q62.3,45.48,73.1,30.43a1.47,1.47,0,0,0,0-2.06Q63.93,15.68,54.87,2.93c-.23-.32-.45-.66-.76-1.12a8.6,8.6,0,0,1,1-.11c5.4,0,10.79,0,16.19,0a1.61,1.61,0,0,1,1.57,1C76.24,8.36,79.65,14,83.17,19.92Z"/><path class="cls-1" d="M135,42.33V61.58H119.82V1.69h1.34c9.4,0,18.8,0,28.19,0A32.56,32.56,0,0,1,159.4,3.1c6.07,2,10,6,11.46,12.25a23.43,23.43,0,0,1-.62,14.27c-2.71,6.9-8.19,10.43-15.17,11.83a56.29,56.29,0,0,1-8.81.85C142.59,42.44,138.91,42.33,135,42.33Zm-.15-11.28a5.43,5.43,0,0,0,.63.12c4.11,0,8.23.08,12.35,0,5.22-.13,8.35-3,8.69-8.29.38-5.8-2.05-9.67-8.59-9.91-3.07-.12-6.15,0-9.22-.06h-3.86Z"/></g></g></svg>